<svg width="25" height="23" viewBox="0 0 25 23" fill="none" xmlns="http://www.w3.org/2000/svg">
<path d="M17.5312 1H16.5729C16.4771 1 16.3822 1.01917 16.294 1.05654L7.32308 4.83333H6.03125C4.82854 4.83333 3.82325 5.64696 3.50796 6.75H1.71875C1.322 6.75 1 7.072 1 7.46875V11.7812C1 12.178 1.322 12.5 1.71875 12.5H3.50796C3.67471 13.0846 4.03121 13.5877 4.51517 13.9298L5.80221 21.4844C5.86067 21.8303 6.15967 22.0833 6.51042 22.0833H7.94792C8.14629 22.0833 8.33604 22.0019 8.47117 21.8572C8.60725 21.7125 8.67721 21.5179 8.66475 21.3195L8.25842 14.8105L16.294 18.1944C16.3822 18.2308 16.4771 18.25 16.5729 18.25H17.5312C18.985 18.25 20.1667 17.0684 20.1667 15.6146V3.63542C20.1667 2.18163 18.985 1 17.5312 1ZM2.4375 8.1875H3.39583V11.0625H2.4375V8.1875ZM8.1875 6.02933L15.8542 2.80071V16.4483L8.1875 13.2197V6.02933ZM4.83333 7.46875C4.83333 6.80846 5.37096 6.27083 6.03125 6.27083H6.75V12.9792H6.03125C5.37096 12.9792 4.83333 12.4415 4.83333 11.7812V7.46875ZM7.11704 20.6458L6.05617 14.4167H6.79313L7.18221 20.6458H7.11704ZM18.7292 15.6146C18.7292 16.2749 18.1915 16.8125 17.5312 16.8125H17.2917V2.4375H17.5312C18.1915 2.4375 18.7292 2.97513 18.7292 3.63542V15.6146Z" fill="#332C2B" stroke="#332C2B" stroke-width="0.1"/>
<path d="M23.2812 8.90625H21.8438C21.447 8.90625 21.125 9.22825 21.125 9.625C21.125 10.0217 21.447 10.3438 21.8438 10.3438H23.2812C23.678 10.3438 24 10.0217 24 9.625C24 9.22825 23.678 8.90625 23.2812 8.90625Z" fill="#332C2B" stroke="#332C2B" stroke-width="0.1"/>
<path d="M21.9262 6.42799C22.1102 6.42799 22.2942 6.35803 22.4341 6.21715L23.7892 4.86207C24.07 4.58128 24.07 4.12607 23.7892 3.84528C23.5084 3.56449 23.0532 3.56449 22.7724 3.84528L21.4173 5.20036C21.1365 5.48115 21.1365 5.93636 21.4173 6.21715C21.5582 6.35803 21.7422 6.42799 21.9262 6.42799Z" fill="#332C2B" stroke="#332C2B" stroke-width="0.1"/>
<path d="M22.4341 13.0328C22.1533 12.752 21.6981 12.752 21.4173 13.0328C21.1365 13.3136 21.1365 13.7688 21.4173 14.0496L22.7724 15.4047C22.9123 15.5446 23.0963 15.6155 23.2803 15.6155C23.4643 15.6155 23.6483 15.5456 23.7882 15.4047C24.069 15.1239 24.069 14.6687 23.7882 14.3879L22.4341 13.0328Z" fill="#332C2B" stroke="#332C2B" stroke-width="0.1"/>
</svg>
