<svg width="38" height="33" viewBox="0 0 38 33" fill="none" xmlns="http://www.w3.org/2000/svg">
<path d="M32.2487 18.7505C32.1999 18.6366 32.1188 18.5396 32.0153 18.4713C31.9118 18.4031 31.7906 18.3667 31.6667 18.3667H22.7563C24.8698 15.0031 27.2334 10.6926 27.2334 8.23336C27.2334 6.04974 26.3659 3.95555 24.8219 2.4115C23.2778 0.867441 21.1836 0 19 0C16.8164 0 14.7222 0.867441 13.1781 2.4115C11.6341 3.95555 10.7666 6.04974 10.7666 8.23336C10.7666 10.6926 13.1302 15.0031 15.2437 18.3667H6.33329C6.20936 18.3667 6.08816 18.4031 5.98471 18.4713C5.88125 18.5396 5.80008 18.6366 5.75125 18.7505L0.0512305 32.0506C0.00993739 32.1469 -0.00680545 32.252 0.00250327 32.3564C0.011812 32.4608 0.0468812 32.5612 0.104567 32.6487C0.162252 32.7362 0.240751 32.808 0.333024 32.8577C0.425297 32.9074 0.528461 32.9334 0.633266 32.9335H37.3667C37.4715 32.9334 37.5747 32.9074 37.667 32.8577C37.7592 32.808 37.8377 32.7362 37.8954 32.6487C37.9531 32.5612 37.9882 32.4608 37.9975 32.3564C38.0068 32.252 37.9901 32.1469 37.9488 32.0506L32.2487 18.7505ZM27.0567 19.6334H31.2493L31.92 21.2028L31.0802 21.4827L30.0479 20.9666C29.9127 20.8987 29.7575 20.8818 29.6109 20.9191L27.4259 21.4656L26.6893 20.7284L27.0567 19.6334ZM12.0333 8.23336C12.0333 6.38568 12.7673 4.61368 14.0738 3.30717C15.3803 2.00066 17.1523 1.26667 19 1.26667C20.8477 1.26667 22.6197 2.00066 23.9262 3.30717C25.2327 4.61368 25.9667 6.38568 25.9667 8.23336C25.9667 11.2639 21.3357 18.4218 19 21.7158C16.6643 18.4218 12.0333 11.2639 12.0333 8.23336ZM20.5605 21.6924C21.9659 21.9837 22.8 22.6177 22.8 23.1168C22.8 23.778 21.3541 24.7001 19 24.7001C16.6459 24.7001 15.2 23.778 15.2 23.1168C15.2 22.6177 16.0341 21.9837 17.4395 21.6924C18.0221 22.5347 18.4211 23.0813 18.4889 23.1744C18.5477 23.2547 18.6246 23.3201 18.7134 23.3652C18.8022 23.4102 18.9004 23.4337 19 23.4337C19.0996 23.4337 19.1978 23.4102 19.2866 23.3652C19.3754 23.3201 19.4523 23.2547 19.5111 23.1744C19.5789 23.0813 19.9779 22.5347 20.5605 21.6924ZM6.75066 19.6334H10.8502L10.3752 20.3453L8.23329 20.8804L6.41119 20.4251L6.75066 19.6334ZM19.0323 30.2L18.5434 31.6668H1.59404L5.90642 21.6043L8.07939 22.1478C8.18043 22.1731 8.28616 22.1731 8.38719 22.1478L10.9205 21.5144C11.0732 21.4762 11.2062 21.3825 11.2936 21.2516L12.3721 19.6334H16.0556C16.271 19.9634 16.4793 20.2775 16.6776 20.5733C14.9866 21.04 13.9333 21.9843 13.9333 23.1168C13.9333 24.7413 16.1114 25.9668 19 25.9668C21.8886 25.9668 24.0667 24.7413 24.0667 23.1168C24.0667 21.9843 23.0134 21.04 21.3224 20.5733C21.5207 20.2775 21.729 19.9634 21.9444 19.6334H25.721L25.3657 20.6999C25.3285 20.8115 25.3232 20.9312 25.3503 21.0457C25.3774 21.1601 25.4357 21.2647 25.5189 21.3478L26.7856 22.6145C26.863 22.6919 26.959 22.7479 27.0645 22.7771C27.1699 22.8063 27.2811 22.8077 27.3873 22.7811L29.6932 22.2048L30.7503 22.7336C30.8245 22.7712 30.9055 22.7935 30.9885 22.7993C31.0715 22.8051 31.1548 22.7941 31.2335 22.7672L32.4223 22.3713L33.3565 24.5506L30.5064 24.0756C30.3744 24.0544 30.239 24.0745 30.1188 24.1333L26.3822 26.0029L23.916 26.6191C23.8273 26.6413 23.7445 26.6823 23.6732 26.7395C23.6019 26.7967 23.5439 26.8686 23.503 26.9503L22.375 29.2063L19.5124 29.7794C19.4023 29.8008 19.2998 29.8509 19.2155 29.9248C19.1311 29.9987 19.0679 30.0937 19.0323 30.2ZM19.8791 31.6668L20.1178 30.9492L22.9267 30.3874C23.0214 30.3687 23.1106 30.3285 23.1875 30.27C23.2643 30.2115 23.3267 30.1362 23.37 30.0499L24.5062 27.7768L26.7571 27.2144C26.8008 27.2029 26.8432 27.187 26.8838 27.1669L30.4995 25.3588L33.9499 25.9338L36.406 31.6668H19.8791Z" fill="#EF4507"/>
<path d="M24.067 8.23337C24.067 7.23128 23.7698 6.25169 23.2131 5.41847C22.6563 4.58526 21.865 3.93585 20.9392 3.55237C20.0134 3.16888 18.9947 3.06855 18.0118 3.26404C17.029 3.45954 16.1262 3.9421 15.4176 4.65069C14.709 5.35928 14.2265 6.26207 14.031 7.24491C13.8355 8.22775 13.9358 9.2465 14.3193 10.1723C14.7028 11.0981 15.3522 11.8894 16.1854 12.4462C17.0186 13.0029 17.9982 13.3001 19.0003 13.3001C20.3436 13.2986 21.6314 12.7643 22.5813 11.8144C23.5312 10.8645 24.0655 9.57668 24.067 8.23337ZM15.2003 8.23337C15.2003 7.4818 15.4231 6.74711 15.8407 6.1222C16.2582 5.49729 16.8517 5.01023 17.5461 4.72262C18.2404 4.43501 19.0045 4.35975 19.7416 4.50638C20.4788 4.653 21.1559 5.01492 21.6873 5.54636C22.2187 6.0778 22.5807 6.7549 22.7273 7.49203C22.8739 8.22916 22.7987 8.99322 22.511 9.68758C22.2234 10.3819 21.7364 10.9754 21.1115 11.393C20.4865 11.8105 19.7519 12.0334 19.0003 12.0334C17.9928 12.0324 17.0268 11.6317 16.3144 10.9193C15.602 10.2069 15.2013 9.24089 15.2003 8.23337Z" fill="#EF4507"/>
<path d="M15.77 26.9503C15.7205 26.8519 15.6463 26.7679 15.5547 26.7065L13.7598 25.5101L12.5634 23.7153C12.5053 23.6281 12.4264 23.5567 12.3339 23.5075C12.2414 23.4583 12.1381 23.4329 12.0333 23.4334H10.1333C9.96538 23.4335 9.80431 23.5002 9.68557 23.619L8.67223 24.6323L6.48722 24.0858C6.40651 24.0656 6.3226 24.0615 6.2403 24.0737C6.158 24.0859 6.07891 24.1143 6.00757 24.1571C5.93622 24.1999 5.87402 24.2564 5.8245 24.3232C5.77499 24.3901 5.73913 24.4661 5.71899 24.5468L5.08565 27.0802C5.06399 27.166 5.06057 27.2555 5.07562 27.3428C5.09068 27.43 5.12387 27.5132 5.17305 27.5868L6.43972 29.4868C6.52709 29.6178 6.66007 29.7115 6.81276 29.7497L9.3461 30.383C9.39651 30.395 9.44819 30.4007 9.5 30.4001H11.4C11.498 30.4012 11.5949 30.3795 11.6831 30.3368L12.7154 29.8206L14.3666 30.3703C14.4312 30.3911 14.4988 30.4011 14.5667 30.4001C14.7346 30.4001 14.8957 30.3333 15.0145 30.2145L16.2811 28.9479C16.3751 28.8539 16.4372 28.7328 16.4586 28.6017C16.48 28.4705 16.4595 28.3359 16.4002 28.217L15.77 26.9503ZM14.3989 29.0403L12.87 28.5337C12.7912 28.5069 12.708 28.496 12.625 28.5018C12.542 28.5076 12.461 28.5298 12.3867 28.5672L11.2537 29.1372H9.5779L7.35806 28.5824L6.38272 27.1188L6.79439 25.4721L8.71276 25.9516C8.8189 25.9781 8.93011 25.9768 9.03555 25.9476C9.14099 25.9184 9.23707 25.8624 9.31443 25.785L10.3955 24.7001H11.6945L12.7712 26.3183C12.8175 26.3877 12.8771 26.4474 12.9466 26.4937L14.7067 27.6673L15.0607 28.3753L14.3989 29.0403Z" fill="#EF4507"/>
</svg>
