<svg width="222" height="45" viewBox="0 0 222 45" fill="none" xmlns="http://www.w3.org/2000/svg">
<path d="M112.5 0V45H124.342V0H112.5ZM126.711 0V45H133.816V0H126.711ZM136.184 0V45H138.553V0H136.184ZM140.921 0V45H148.026V0H140.921ZM150.395 0V45H152.763V0H150.395ZM157.5 0V45H159.868V0H157.5ZM163.421 0V45H165.789V0H163.421ZM168.158 0V45H170.526V0H168.158ZM175.263 0V45H184.737V0H175.263ZM189.474 0V45H196.579V0H189.474ZM198.947 0V45H201.316V0H198.947ZM203.684 0V45H208.421V0H203.684ZM211.974 0V45H221.447V0H211.974Z" fill="#332C2B"/>
<path d="M0 0V45H11.8421V0H0ZM14.2105 0V45H21.3158V0H14.2105ZM23.6842 0V45H26.0526V0H23.6842ZM28.4211 0V45H35.5263V0H28.4211ZM37.8947 0V45H40.2632V0H37.8947ZM45 0V45H47.3684V0H45ZM50.9211 0V45H53.2895V0H50.9211ZM55.6579 0V45H58.0263V0H55.6579ZM62.7632 0V45H72.2368V0H62.7632ZM76.9737 0V45H84.0789V0H76.9737ZM86.4474 0V45H88.8158V0H86.4474ZM91.1842 0V45H95.9211V0H91.1842ZM99.4737 0V45H108.947V0H99.4737Z" fill="#332C2B"/>
</svg>
