<svg width="26" height="23" viewBox="0 0 26 23" fill="none" xmlns="http://www.w3.org/2000/svg">
<path d="M22.6133 1H6.94222C6.30946 1.00071 5.70281 1.25238 5.25537 1.69982C4.80794 2.14725 4.55626 2.7539 4.55556 3.38667V4.24H3.38667C2.7539 4.24071 2.14725 4.49238 1.69982 4.93982C1.25238 5.38725 1.00071 5.9939 1 6.62667V21.4444C1.00002 21.5323 1.0261 21.6182 1.07493 21.6913C1.12377 21.7644 1.19318 21.8213 1.27438 21.855C1.35558 21.8886 1.44492 21.8974 1.53113 21.8803C1.61733 21.8631 1.69651 21.8208 1.75867 21.7587L4.42533 19.092H19.0578C19.6903 19.0913 20.2968 18.8398 20.7442 18.3927C21.1916 17.9455 21.4434 17.3392 21.4444 16.7067V15.8578H22.6133C23.2461 15.8571 23.8527 15.6054 24.3002 15.158C24.7476 14.7105 24.9993 14.1039 25 13.4711V3.38667C24.9993 2.7539 24.7476 2.14725 24.3002 1.69982C23.8527 1.25238 23.2461 1.00071 22.6133 1ZM20.5556 16.7067C20.5551 17.1038 20.3971 17.4844 20.1163 17.7652C19.8356 18.046 19.4549 18.204 19.0578 18.2044H4.24C4.12214 18.2045 4.00911 18.2513 3.92578 18.3347L1.88889 20.3716V6.62667C1.88936 6.22958 2.04731 5.84888 2.3281 5.5681C2.60888 5.28731 2.98958 5.12936 3.38667 5.12889H19.0578C19.4549 5.12936 19.8356 5.28731 20.1163 5.5681C20.3971 5.84888 20.5551 6.22958 20.5556 6.62667V16.7067ZM24.1111 13.4711C24.1106 13.8682 23.9527 14.2489 23.6719 14.5297C23.3911 14.8105 23.0104 14.9684 22.6133 14.9689H21.4444V6.62667C21.4437 5.9939 21.1921 5.38725 20.7446 4.93982C20.2972 4.49238 19.6905 4.24071 19.0578 4.24H5.44444V3.38667C5.44491 2.98958 5.60287 2.60888 5.88365 2.3281C6.16444 2.04731 6.54513 1.88936 6.94222 1.88889H22.6133C23.0104 1.88936 23.3911 2.04731 23.6719 2.3281C23.9527 2.60888 24.1106 2.98958 24.1111 3.38667V13.4711Z" fill="#EF4507" stroke="#EF4507" stroke-width="0.7"/>
<path d="M11.2221 9.7903C10.8607 9.7903 10.5074 9.89746 10.207 10.0982C9.90651 10.299 9.67232 10.5843 9.53403 10.9182C9.39574 11.2521 9.35956 11.6194 9.43006 11.9739C9.50056 12.3283 9.67457 12.6538 9.9301 12.9094C10.1856 13.1649 10.5112 13.3389 10.8656 13.4094C11.22 13.4799 11.5874 13.4437 11.9213 13.3054C12.2551 13.1672 12.5405 12.933 12.7413 12.6325C12.942 12.332 13.0492 11.9788 13.0492 11.6174C13.0487 11.133 12.8561 10.6685 12.5135 10.326C12.171 9.98342 11.7065 9.79077 11.2221 9.7903ZM11.2221 12.5556C11.0365 12.5556 10.8551 12.5006 10.7008 12.3975C10.5465 12.2944 10.4263 12.1479 10.3553 11.9765C10.2842 11.805 10.2657 11.6164 10.3019 11.4344C10.3381 11.2524 10.4274 11.0852 10.5586 10.954C10.6899 10.8228 10.857 10.7334 11.039 10.6972C11.221 10.661 11.4097 10.6796 11.5811 10.7506C11.7525 10.8216 11.8991 10.9419 12.0022 11.0962C12.1053 11.2505 12.1603 11.4318 12.1603 11.6174C12.16 11.8662 12.0611 12.1047 11.8852 12.2806C11.7093 12.4565 11.4708 12.5554 11.2221 12.5556Z" fill="#EF4507" stroke="#EF4507" stroke-width="0.7"/>
<path d="M16.0617 9.7903C15.7004 9.7903 15.3471 9.89746 15.0466 10.0982C14.7462 10.299 14.512 10.5843 14.3737 10.9182C14.2354 11.2521 14.1992 11.6194 14.2697 11.9739C14.3402 12.3283 14.5142 12.6538 14.7698 12.9094C15.0253 13.1649 15.3509 13.3389 15.7053 13.4094C16.0597 13.4799 16.4271 13.4437 16.7609 13.3054C17.0948 13.1672 17.3802 12.933 17.5809 12.6325C17.7817 12.332 17.8889 11.9788 17.8889 11.6174C17.8883 11.133 17.6956 10.6686 17.3531 10.3261C17.0105 9.98357 16.5461 9.79089 16.0617 9.7903ZM16.0617 12.5556C15.8762 12.5556 15.6948 12.5006 15.5405 12.3975C15.3862 12.2944 15.2659 12.1479 15.1949 11.9765C15.1239 11.805 15.1053 11.6164 15.1415 11.4344C15.1777 11.2524 15.2671 11.0852 15.3983 10.954C15.5295 10.8228 15.6967 10.7334 15.8787 10.6972C16.0607 10.661 16.2493 10.6796 16.4208 10.7506C16.5922 10.8216 16.7387 10.9419 16.8418 11.0962C16.9449 11.2505 17 11.4318 17 11.6174C16.9996 11.8661 16.9006 12.1046 16.7248 12.2804C16.5489 12.4563 16.3105 12.5553 16.0617 12.5556Z" fill="#EF4507" stroke="#EF4507" stroke-width="0.7"/>
<path d="M6.38254 9.7903C6.0212 9.79039 5.66799 9.89762 5.36758 10.0984C5.06717 10.2993 4.83305 10.5846 4.69483 10.9185C4.55661 11.2524 4.52049 11.6197 4.59104 11.9741C4.66159 12.3285 4.83564 12.654 5.09118 12.9095C5.34673 13.165 5.67229 13.339 6.0267 13.4094C6.38111 13.4799 6.74846 13.4437 7.0823 13.3054C7.41613 13.1671 7.70146 12.9329 7.90221 12.6325C8.10295 12.332 8.2101 11.9788 8.2101 11.6174C8.20951 11.1329 8.01676 10.6685 7.67415 10.3259C7.33153 9.9834 6.86702 9.79077 6.38254 9.7903ZM6.38254 12.5556C6.197 12.5555 6.01565 12.5004 5.86142 12.3973C5.70719 12.2941 5.587 12.1476 5.51606 11.9761C5.44511 11.8047 5.4266 11.6161 5.46285 11.4341C5.4991 11.2521 5.58849 11.085 5.71972 10.9538C5.85095 10.8227 6.01813 10.7333 6.20012 10.6972C6.3821 10.661 6.57072 10.6796 6.74213 10.7506C6.91355 10.8217 7.06005 10.9419 7.16312 11.0962C7.2662 11.2505 7.32121 11.4319 7.32121 11.6174C7.32098 11.8662 7.22199 12.1048 7.046 12.2807C6.87 12.4566 6.63138 12.5555 6.38254 12.5556Z" fill="#EF4507" stroke="#EF4507" stroke-width="0.7"/>
</svg>
