<svg width="38" height="32" viewBox="0 0 38 32" fill="none" xmlns="http://www.w3.org/2000/svg">
<path d="M26.5989 20.7384L26.5839 20.7213H26.5612H10.8571C8.94651 20.7213 7.41708 19.1728 7.37857 17.2833V3.48743C7.37857 1.59942 8.94543 0.05 10.8571 0.05H34.4714C36.3831 0.05 37.95 1.59942 37.95 3.48743V17.2838C37.95 19.1718 36.3831 20.7213 34.4714 20.7213H33.502H33.452V20.7713V24.9102C33.452 25.6859 32.8167 26.2781 32.0673 26.2781C31.6562 26.2781 31.2817 26.0935 31.0191 25.7968L26.5989 20.7384ZM31.5643 23.6017L31.652 23.7025V23.5689V19.8515C31.652 19.3431 32.0556 18.9434 32.5714 18.9434H34.5102C35.4291 18.9434 36.15 18.2318 36.15 17.3222V3.52575C36.15 2.61615 35.4291 1.90449 34.5102 1.90449H10.8959C9.99393 1.90449 9.28271 2.5902 9.25685 3.47575H9.21735V3.52575V17.2838C9.21735 18.1934 9.93825 18.9051 10.8571 18.9051H27.0653C27.3184 18.9051 27.5773 19.0487 27.7656 19.2343L31.5643 23.6017ZM11.3888 26.4243L6.98093 31.4687C6.98091 31.4687 6.98089 31.4687 6.98087 31.4687C6.71821 31.7654 6.34377 31.95 5.93265 31.95C5.78453 31.95 5.59648 31.9133 5.44242 31.8753C4.88379 31.6904 4.54796 31.1746 4.54796 30.6204V26.4431V26.3931H4.49796H3.52857C1.61686 26.3931 0.05 24.8437 0.05 22.9557V9.15928C0.05 7.27128 1.61686 5.72186 3.52857 5.72186C4.04437 5.72186 4.44796 6.12158 4.44796 6.62994C4.44796 7.1383 4.04437 7.53802 3.52857 7.53802C2.60968 7.53802 1.88878 8.24968 1.88878 9.15928V22.9557C1.88878 23.8653 2.60968 24.5769 3.52857 24.5769H5.46735C5.98314 24.5769 6.38673 24.9767 6.38673 25.485V29.2024V29.3361L6.47446 29.2352L10.2732 24.8678C10.4615 24.6823 10.7204 24.5386 10.9735 24.5386H25.2429C25.7587 24.5386 26.1622 24.9383 26.1622 25.4467C26.1622 25.9551 25.7587 26.3548 25.2429 26.3548H11.4388H11.3888V26.4048V26.4243ZM21.4153 10.7305C21.4153 10.0306 21.974 9.47754 22.6837 9.47754C23.3933 9.47754 23.952 10.0306 23.952 10.7305C23.952 11.4305 23.3933 11.9835 22.6837 11.9835C21.974 11.9835 21.4153 11.4305 21.4153 10.7305ZM17.0337 10.7305C17.0337 10.0306 17.5924 9.47754 18.302 9.47754C19.0117 9.47754 19.5704 10.0306 19.5704 10.7305C19.5704 11.4305 19.0117 11.9835 18.302 11.9835C17.5924 11.9835 17.0337 11.4305 17.0337 10.7305ZM25.7969 10.7305C25.7969 10.0306 26.3556 9.47754 27.0653 9.47754C27.775 9.47754 28.3337 10.0306 28.3337 10.7305C28.3337 11.4305 27.775 11.9835 27.0653 11.9835C26.3556 11.9835 25.7969 11.4305 25.7969 10.7305Z" fill="#EF4507" stroke="white" stroke-width="0.1"/>
</svg>
