<svg width="21" height="18" viewBox="0 0 21 18" fill="none" xmlns="http://www.w3.org/2000/svg">
<path d="M18.4746 0.555664H5.80434C5.29275 0.556235 4.80227 0.759719 4.44051 1.12147C4.07876 1.48323 3.87527 1.97371 3.8747 2.48531V3.17524H2.92964C2.41805 3.17581 1.92756 3.37929 1.56581 3.74104C1.20406 4.1028 1.00057 4.59328 1 5.10488V17.0852C1.00002 17.1563 1.0211 17.2257 1.06058 17.2848C1.10007 17.3439 1.15618 17.3899 1.22184 17.4171C1.28749 17.4443 1.35973 17.4514 1.42942 17.4376C1.49911 17.4237 1.56314 17.3895 1.61339 17.3392L3.76942 15.1832H15.5999C16.1113 15.1827 16.6016 14.9793 16.9633 14.6178C17.3251 14.2563 17.5287 13.7661 17.5295 13.2547V12.5683H18.4746C18.9862 12.5677 19.4767 12.3643 19.8384 12.0025C20.2002 11.6408 20.4037 11.1503 20.4042 10.6387V2.48531C20.4037 1.97371 20.2002 1.48323 19.8384 1.12147C19.4767 0.759719 18.9862 0.556235 18.4746 0.555664ZM16.8109 13.2547C16.8105 13.5757 16.6828 13.8835 16.4558 14.1105C16.2287 14.3375 15.9209 14.4652 15.5999 14.4656H3.61957C3.52428 14.4656 3.43289 14.5035 3.36552 14.5709L1.71868 16.2178V5.10488C1.71906 4.78383 1.84676 4.47603 2.07378 4.24902C2.3008 4.022 2.60859 3.89429 2.92964 3.89391H15.5999C15.9209 3.89429 16.2287 4.022 16.4558 4.24902C16.6828 4.47603 16.8105 4.78383 16.8109 5.10488V13.2547ZM19.6856 10.6387C19.6852 10.9597 19.5575 11.2675 19.3305 11.4945C19.1034 11.7216 18.7956 11.8493 18.4746 11.8496H17.5295V5.10488C17.529 4.59328 17.3255 4.1028 16.9637 3.74104C16.602 3.37929 16.1115 3.17581 15.5999 3.17524H4.59338V2.48531C4.59376 2.16426 4.72146 1.85646 4.94848 1.62944C5.1755 1.40243 5.48329 1.27472 5.80434 1.27434H18.4746C18.7956 1.27472 19.1034 1.40243 19.3305 1.62944C19.5575 1.85646 19.6852 2.16426 19.6856 2.48531V10.6387Z" fill="#332C2B" stroke="#332C2B" stroke-width="0.5"/>
<path d="M9.26484 7.66272C8.97267 7.66272 8.68706 7.74936 8.44413 7.91168C8.2012 8.074 8.01186 8.30471 7.90005 8.57464C7.78824 8.84457 7.75898 9.1416 7.81598 9.42815C7.87298 9.71471 8.01368 9.97793 8.22027 10.1845C8.42687 10.3911 8.69008 10.5318 8.97664 10.5888C9.2632 10.6458 9.56022 10.6166 9.83015 10.5047C10.1001 10.3929 10.3308 10.2036 10.4931 9.96067C10.6554 9.71774 10.7421 9.43213 10.7421 9.13996C10.7417 8.74829 10.5859 8.37277 10.309 8.09581C10.032 7.81886 9.65651 7.6631 9.26484 7.66272ZM9.26484 9.89852C9.11481 9.89852 8.96815 9.85403 8.8434 9.77068C8.71866 9.68733 8.62143 9.56886 8.56402 9.43025C8.5066 9.29164 8.49158 9.13912 8.52085 8.99197C8.55012 8.84482 8.62236 8.70966 8.72845 8.60357C8.83454 8.49749 8.9697 8.42524 9.11685 8.39597C9.26399 8.3667 9.41652 8.38172 9.55512 8.43914C9.69373 8.49655 9.8122 8.59378 9.89556 8.71852C9.97891 8.84327 10.0234 8.98993 10.0234 9.13996C10.0232 9.34108 9.94323 9.53391 9.80101 9.67613C9.65879 9.81835 9.46596 9.89833 9.26484 9.89852Z" fill="#332C2B" stroke="#332C2B" stroke-width="0.5"/>
<path d="M13.1779 7.66272C12.8858 7.66272 12.6001 7.74936 12.3572 7.91168C12.1143 8.074 11.9249 8.30471 11.8131 8.57464C11.7013 8.84457 11.6721 9.1416 11.7291 9.42815C11.7861 9.71471 11.9268 9.97793 12.1334 10.1845C12.34 10.3911 12.6032 10.5318 12.8897 10.5888C13.1763 10.6458 13.4733 10.6166 13.7432 10.5047C14.0132 10.3929 14.2439 10.2036 14.4062 9.96067C14.5685 9.71774 14.6552 9.43213 14.6552 9.13996C14.6547 8.74832 14.4989 8.37285 14.222 8.09592C13.945 7.81898 13.5696 7.6632 13.1779 7.66272ZM13.1779 9.89852C13.0279 9.89852 12.8812 9.85403 12.7565 9.77068C12.6317 9.68733 12.5345 9.56886 12.4771 9.43025C12.4197 9.29164 12.4047 9.13912 12.4339 8.99197C12.4632 8.84482 12.5355 8.70966 12.6415 8.60357C12.7476 8.49749 12.8828 8.42524 13.0299 8.39597C13.1771 8.3667 13.3296 8.38172 13.4682 8.43914C13.6068 8.49655 13.7253 8.59378 13.8086 8.71852C13.892 8.84327 13.9365 8.98993 13.9365 9.13996C13.9362 9.34105 13.8562 9.53383 13.714 9.67603C13.5718 9.81822 13.379 9.89823 13.1779 9.89852Z" fill="#332C2B" stroke="#332C2B" stroke-width="0.5"/>
<path d="M5.35188 7.66272C5.05972 7.66279 4.77415 7.74949 4.53127 7.91185C4.28838 8.07422 4.0991 8.30496 3.98735 8.57489C3.87559 8.84483 3.84639 9.14184 3.90343 9.42837C3.96047 9.7149 4.10119 9.97809 4.3078 10.1846C4.51441 10.3912 4.77763 10.5319 5.06418 10.5888C5.35072 10.6458 5.64773 10.6165 5.91763 10.5047C6.18754 10.3929 6.41824 10.2036 6.58054 9.96063C6.74285 9.71771 6.82947 9.43211 6.82947 9.13996C6.829 8.74825 6.67316 8.37273 6.39615 8.09579C6.11914 7.81885 5.74358 7.6631 5.35188 7.66272ZM5.35188 9.89852C5.20186 9.89845 5.05524 9.8539 4.93054 9.7705C4.80584 9.68711 4.70867 9.56861 4.65132 9.43C4.59396 9.29138 4.57899 9.13887 4.6083 8.99175C4.63761 8.84463 4.70988 8.7095 4.81598 8.60345C4.92208 8.49739 5.05725 8.42518 5.20438 8.39594C5.35152 8.3667 5.50402 8.38175 5.64261 8.43917C5.7812 8.4966 5.89965 8.59382 5.98298 8.71856C6.06632 8.8433 6.1108 8.98994 6.1108 9.13996C6.11061 9.34114 6.03058 9.53403 5.88828 9.67626C5.74599 9.81848 5.55307 9.89842 5.35188 9.89852Z" fill="#332C2B" stroke="#332C2B" stroke-width="0.5"/>
</svg>
