<svg width="13" height="10" viewBox="0 0 13 10" fill="none" xmlns="http://www.w3.org/2000/svg">
<path d="M11.519 0.000589522C11.1452 0.01139 10.7902 0.165987 10.5294 0.431652C8.28339 2.66295 6.55186 4.53387 4.49407 6.62262L2.40233 4.86864C2.25906 4.74089 2.09137 4.64297 1.90922 4.58066C1.72706 4.51835 1.53413 4.49292 1.34188 4.50589C1.14963 4.51886 0.961957 4.56995 0.789994 4.65615C0.61803 4.74235 0.465274 4.86189 0.340779 5.0077C0.216284 5.1535 0.122585 5.3226 0.0652349 5.50497C0.00788513 5.68734 -0.011948 5.87927 0.0069114 6.06937C0.0257708 6.25948 0.0829388 6.4439 0.175027 6.6117C0.267114 6.7795 0.392248 6.92726 0.54301 7.04623L3.66187 9.66233C3.93781 9.89378 4.29148 10.0139 4.65262 9.99872C5.01375 9.98358 5.35593 9.83432 5.61116 9.5806C8.19996 7.00878 10.0393 4.95853 12.5686 2.44577C12.7752 2.24483 12.9159 1.98684 12.9724 1.70545C13.0288 1.42405 12.9984 1.13233 12.8851 0.868332C12.7717 0.604335 12.5808 0.380318 12.3371 0.225527C12.0934 0.0707358 11.8083 -0.00765486 11.519 0.000589522Z" fill="white"/>
</svg>
