<svg width="22" height="17" viewBox="0 0 22 17" fill="none" xmlns="http://www.w3.org/2000/svg">
<path d="M9.49582 16.287C9.06388 16.7183 8.48482 16.9721 7.87366 16.9978C7.2625 17.0236 6.66399 16.8194 6.19702 16.426L0.918939 11.9786C0.663804 11.7763 0.45204 11.5251 0.296199 11.2399C0.140358 10.9546 0.0436121 10.6411 0.0116962 10.3179C-0.0202197 9.99475 0.0133441 9.66847 0.110397 9.35845C0.207451 9.04842 0.366019 8.76096 0.576702 8.51309C0.787386 8.26522 1.0459 8.062 1.33691 7.91546M9.49582 16.287L19.5082 0.500792C19.8977 0.489681 20.2814 0.595738 20.6092 0.804895C20.937 1.01406 21.1935 1.31656 21.3457 1.67264C21.4978 2.02868 21.5386 2.42199 21.4629 2.80135C21.3871 3.18072 21.1983 3.52884 20.9206 3.80018L20.9205 3.80016L20.9168 3.80389C18.7847 5.93165 16.9419 7.86453 15.0929 9.80394L15.0588 9.83974C13.1977 11.7918 11.3282 13.752 9.14262 15.9331L9.14251 15.9332C8.79938 16.2759 8.33897 16.4778 7.85262 16.4983C7.36626 16.5188 6.89027 16.3563 6.5192 16.0436L1.24112 11.5962L1.2354 11.5914L1.22954 11.5868C1.0268 11.4261 0.858664 11.2266 0.734988 11.0002C0.611313 10.7738 0.534586 10.5251 0.509276 10.2688C0.483966 10.0125 0.510578 9.75374 0.587563 9.50782C0.664548 9.2619 0.790369 9.03374 0.957676 8.83691C1.12498 8.64007 1.33038 8.47856 1.56178 8.36204L1.33691 7.91546M9.49582 16.287C11.6992 14.0882 13.5817 12.1136 15.4533 10.1505M9.49582 16.287L15.4533 10.1505M1.33691 7.91546C1.62793 7.76892 1.94552 7.68205 2.27088 7.66001C2.59623 7.63796 2.92271 7.68119 3.23098 7.78712C3.53925 7.89305 3.82302 8.05952 4.06549 8.27668L19.508 0.500797C19.0046 0.515458 18.5271 0.724603 18.1765 1.08332L18.1722 1.08775L18.1721 1.08772C15.9315 3.32385 14.0026 5.33755 12.0802 7.34456C10.739 8.74472 9.40096 10.1416 7.96233 11.6085L7.63776 11.9395L7.28323 11.6409L3.74337 8.65909L3.73756 8.6542L3.7319 8.64913C3.53927 8.4766 3.31369 8.34423 3.0685 8.25998C2.82329 8.17572 2.56354 8.14132 2.30468 8.15886C2.04581 8.1764 1.79318 8.24552 1.56178 8.36204L1.33691 7.91546ZM15.4533 10.1505C17.3031 8.21024 19.1423 6.28116 21.27 4.15781L15.4533 10.1505Z" fill="#27AE60" stroke="white"/>
</svg>
