<svg width="15" height="15" viewBox="0 0 15 15" fill="none" xmlns="http://www.w3.org/2000/svg">
<path d="M9.60905 7.25272L9.36157 7.50021L9.60905 7.74769L14.2638 12.4026C14.7787 12.9175 14.7787 13.7492 14.2638 14.2642C14.0069 14.5211 13.6704 14.65 13.333 14.65C12.9956 14.65 12.6591 14.5211 12.4022 14.2642L7.74749 9.60933L7.5 9.36183L7.25251 9.60933L2.59777 14.2642C2.34091 14.5211 2.00438 14.65 1.66699 14.65C1.32961 14.65 0.993076 14.5211 0.736214 14.2642C0.221262 13.7492 0.221262 12.9175 0.736214 12.4026L5.39096 7.74769L5.63843 7.50021L5.39096 7.25272L0.736214 2.59785C0.221262 2.08289 0.221262 1.25119 0.736214 0.73622C1.25116 0.22126 2.08282 0.22126 2.59777 0.73622L7.25251 5.39109L7.5 5.63859L7.74749 5.39109L12.4022 0.73622C12.9172 0.22126 13.7488 0.22126 14.2638 0.73622C14.7787 1.25119 14.7787 2.08289 14.2638 2.59785L9.60905 7.25272Z" fill="#E62129" stroke="white" stroke-width="0.7"/>
</svg>
