<svg width="27" height="23" viewBox="0 0 27 23" fill="none" xmlns="http://www.w3.org/2000/svg">
<path d="M23.8386 1H16.1616C14.9695 1 14 1.75727 14 2.68802V8.68314C14 9.61389 14.9697 10.371 16.1616 10.371H17.7326V12.4579C17.7326 12.6791 17.9045 12.8781 18.1671 12.9607C18.2514 12.9871 18.3393 13 18.4266 13C18.6118 13 18.7935 12.9421 18.9268 12.8338L21.9618 10.3712H23.8386C25.0305 10.3712 26 9.61389 26 8.6833V2.68802C26 1.75712 25.0303 1 23.8386 1ZM24.6115 8.68299C24.6115 9.01585 24.2648 9.2866 23.8386 9.2866H21.6664C21.4778 9.2866 21.2971 9.3467 21.1664 9.4528L19.121 11.1125V9.82873C19.121 9.52932 18.8102 9.2866 18.4268 9.2866H16.1616C15.7354 9.2866 15.3885 9.01585 15.3885 8.68299V2.68802C15.3885 2.35516 15.7354 2.08425 16.1616 2.08425H23.8386C24.2648 2.08425 24.6115 2.35516 24.6115 2.68802V8.68299Z" fill="#332C2B" stroke="#332C2B" stroke-width="0.3"/>
<path d="M20.6812 17.8965L16.8886 15.0125C16.52 14.6768 15.9468 14.6879 15.5911 15.0437L14.2599 16.3521C14.0636 16.5539 13.7619 16.6098 13.5085 16.4915C12.8516 16.1869 12.1928 15.814 11.5523 15.3845C10.7999 14.8753 10.0827 14.2835 9.42286 13.6275C8.76408 12.965 8.1721 12.2479 7.6646 11.4976C7.248 10.8767 6.87442 10.2179 6.55621 9.54362C6.43763 9.28752 6.49504 8.98199 6.69998 8.78253L8.02927 7.48187C8.20683 7.30431 8.30461 7.06808 8.30461 6.81699C8.30461 6.57325 8.21262 6.34406 8.04523 6.16838L5.22724 2.44271C5.20784 2.41706 5.18641 2.39343 5.16294 2.37153C4.98866 2.20993 4.76182 2.12091 4.52403 2.12091C4.27278 2.12091 4.03656 2.21869 3.85884 2.39641L3.32803 2.92737C1.16991 4.83393 0.421806 7.90019 1.46653 10.5638C2.42098 12.9968 3.84491 15.1887 5.69875 17.0783C7.58763 19.0037 9.84431 20.4917 12.4059 21.5014C13.2573 21.8371 14.1446 22 15.0241 22C16.9272 22 18.794 21.2372 20.1801 19.8101L20.7264 19.2646C20.9041 19.0871 21.0019 18.8508 21.0019 18.5996C21.0019 18.3613 20.9129 18.134 20.751 17.9599C20.7297 17.9367 20.7062 17.9156 20.6812 17.8965ZM19.4006 19.0411C17.6764 20.8159 15.0886 21.3816 12.8073 20.4827C10.3897 19.5296 8.26096 18.1262 6.48049 16.3113C4.73038 14.5274 3.38638 12.4589 2.48606 10.1638C1.60686 7.92272 2.24123 5.34033 4.0644 3.73805C4.07316 3.73039 4.08177 3.72225 4.09022 3.71396L4.50338 3.3008L7.15445 6.80557L5.93514 7.99875C5.39885 8.52096 5.24914 9.32663 5.56421 10.0073C5.90745 10.7346 6.30825 11.4414 6.75646 12.1094C7.30338 12.9181 7.93932 13.6887 8.64862 14.4019C9.35918 15.1084 10.1297 15.744 10.9407 16.2928C11.6304 16.7553 12.3392 17.1566 13.0461 17.4841C13.7205 17.7995 14.5233 17.6515 15.036 17.1248L16.2675 15.9157L19.823 18.6193L19.4006 19.0411Z" fill="#332C2B" stroke="#332C2B" stroke-width="0.3"/>
<path d="M20.3228 5.07001C20.0204 5.07001 19.7753 5.31515 19.7753 5.61755V7.76597C19.7753 8.06838 20.0204 8.31352 20.3228 8.31352C20.6252 8.31352 20.8704 8.06838 20.8704 7.76597V5.61755C20.8704 5.31531 20.6252 5.07001 20.3228 5.07001Z" fill="#332C2B" stroke="#332C2B" stroke-width="0.5"/>
<path d="M19.8174 3.94734C19.8314 3.9802 19.8485 4.01149 19.8673 4.04121C19.8876 4.07093 19.9111 4.09909 19.9361 4.12412C20.0376 4.22738 20.1786 4.28526 20.3225 4.28526C20.4664 4.28526 20.6072 4.22738 20.7105 4.12412C20.7354 4.09909 20.7574 4.07093 20.7778 4.04121C20.7981 4.01149 20.8153 3.9802 20.8278 3.94734C20.8419 3.91449 20.8527 3.88007 20.8589 3.84566C20.8669 3.80968 20.8699 3.77369 20.8699 3.73771C20.8699 3.70173 20.8668 3.66575 20.8589 3.63133C20.8527 3.59535 20.8419 3.56093 20.8278 3.52808C20.8153 3.49523 20.7981 3.46394 20.7778 3.43421C20.7574 3.40449 20.7354 3.37633 20.7105 3.34974C20.5054 3.14636 20.1395 3.14636 19.9361 3.34974C19.9111 3.37633 19.8874 3.40449 19.8673 3.43421C19.8485 3.46394 19.8314 3.49523 19.8174 3.52808C19.8031 3.56093 19.7923 3.59535 19.7861 3.63133C19.7782 3.66575 19.7751 3.70173 19.7751 3.73771C19.7751 3.77369 19.7784 3.80968 19.7861 3.84566C19.7922 3.87992 19.8031 3.91449 19.8174 3.94734Z" fill="#332C2B" stroke="#332C2B" stroke-width="0.5"/>
</svg>
