<svg width="53" height="37" viewBox="0 0 53 37" fill="none" xmlns="http://www.w3.org/2000/svg">
<path d="M27.7461 16.6839C25.0466 16.6839 22.8497 14.4871 22.8497 11.7875C22.8497 9.08801 25.0466 6.89117 27.7461 6.89117C30.4456 6.89117 32.6425 9.08801 32.6425 11.7875C32.6425 14.4871 30.4456 16.6839 27.7461 16.6839ZM27.7461 10.1554C26.8484 10.1554 26.114 10.8866 26.114 11.7875C26.114 12.6885 26.8484 13.4197 27.7461 13.4197C28.6438 13.4197 29.3782 12.6885 29.3782 11.7875C29.3782 10.8866 28.6438 10.1554 27.7461 10.1554Z" fill="#332C2B"/>
<path d="M37.5388 29.7409C34.8393 29.7409 32.6424 27.544 32.6424 24.8445C32.6424 22.145 34.8393 19.9482 37.5388 19.9482C40.2383 19.9482 42.4352 22.145 42.4352 24.8445C42.4352 27.544 40.2383 29.7409 37.5388 29.7409ZM37.5388 23.2124C36.6411 23.2124 35.9067 23.9469 35.9067 24.8445C35.9067 25.7422 36.6411 26.4766 37.5388 26.4766C38.4365 26.4766 39.1709 25.7422 39.1709 24.8445C39.1709 23.9469 38.4365 23.2124 37.5388 23.2124Z" fill="#332C2B"/>
<path d="M24.4818 29.7408C24.1129 29.7408 23.744 29.6168 23.4372 29.3622C22.7452 28.7844 22.6505 27.7562 23.2283 27.0642L39.5495 7.47869C40.1306 6.78667 41.1588 6.7018 41.8475 7.26978C42.5396 7.84755 42.631 8.87579 42.0532 9.57107L25.732 29.1565C25.4121 29.5385 24.9486 29.7408 24.4818 29.7408Z" fill="#332C2B"/>
<path d="M16.3212 6.89117H13.057V10.1554H16.3212V6.89117Z" fill="#332C2B"/>
<path d="M16.3212 26.4767H13.057V29.7409H16.3212V26.4767Z" fill="#332C2B"/>
<path d="M16.3212 19.9482H13.057V23.2124H16.3212V19.9482Z" fill="#332C2B"/>
<path d="M16.3212 13.4196H13.057V16.6838H16.3212V13.4196Z" fill="#332C2B"/>
<path d="M48.9637 36.2694H3.26424C1.433 36.2694 0 34.8364 0 33.0051V24.8445C0 23.9436 0.731191 23.2124 1.63212 23.2124C4.33165 23.2124 6.52849 21.0155 6.52849 18.316C6.52849 15.6165 4.33165 13.4196 1.63212 13.4196C0.731191 13.4196 0 12.6885 0 11.7875V3.62692C0 1.82832 1.46565 0.362671 3.26424 0.362671H48.9637C50.7949 0.362671 52.2279 1.79567 52.2279 3.62692V33.0051C52.2279 34.8364 50.7949 36.2694 48.9637 36.2694ZM3.26424 26.3134V33.0051H48.9637V3.62692H3.26424V10.3186C6.98548 11.0792 9.79273 14.3728 9.79273 18.316C9.79273 22.256 6.98548 25.5561 3.26424 26.3134Z" fill="#332C2B"/>
</svg>
