<svg width="24" height="23" viewBox="0 0 24 23" fill="none" xmlns="http://www.w3.org/2000/svg">
<path d="M7.53846 13.6007C7.37032 13.4244 7.27728 13.1883 7.27938 12.9432C7.28148 12.6981 7.37856 12.4637 7.54971 12.2904C7.72085 12.117 7.95237 12.0187 8.1944 12.0166C8.43643 12.0145 8.6696 12.1087 8.84369 12.279L11.0769 14.5405V0.934757C11.0769 0.686844 11.1742 0.449085 11.3473 0.273784C11.5204 0.0984835 11.7552 0 12 0C12.2448 0 12.4796 0.0984835 12.6527 0.273784C12.8258 0.449085 12.9231 0.686844 12.9231 0.934757V14.5405L15.1563 12.279C15.3304 12.1087 15.5636 12.0145 15.8056 12.0166C16.0476 12.0187 16.2791 12.117 16.4503 12.2904C16.6214 12.4637 16.7185 12.6981 16.7206 12.9432C16.7227 13.1883 16.6297 13.4244 16.4615 13.6007L12.6529 17.4581C12.5664 17.5452 12.4637 17.614 12.3508 17.6607L12.3366 17.6657C12.1206 17.7538 11.8794 17.7538 11.6634 17.6657L11.6492 17.6607C11.5363 17.614 11.4336 17.5452 11.3471 17.4581L7.53846 13.6007ZM23.0769 15.8622C22.8321 15.8622 22.5973 15.9607 22.4242 16.136C22.2511 16.3113 22.1538 16.549 22.1538 16.797V21.1305H1.84615V16.797C1.84615 16.549 1.7489 16.3113 1.57579 16.136C1.40268 15.9607 1.16789 15.8622 0.923077 15.8622C0.678262 15.8622 0.443473 15.9607 0.270363 16.136C0.0972524 16.3113 0 16.549 0 16.797V22.0652C0 22.3132 0.0972524 22.5509 0.270363 22.7262C0.443473 22.9015 0.678262 23 0.923077 23H23.0769C23.3217 23 23.5565 22.9015 23.7296 22.7262C23.9028 22.5509 24 22.3132 24 22.0652V16.797C24 16.549 23.9028 16.3113 23.7296 16.136C23.5565 15.9607 23.3217 15.8622 23.0769 15.8622Z" fill="#332C2B"/>
</svg>
