<svg width="13" height="24" viewBox="0 0 13 24" fill="none" xmlns="http://www.w3.org/2000/svg">
<path d="M11.5371 0.185593H1.85406C1.11806 0.185593 0.474059 0.811993 0.474059 1.57759V3.31759C0.244058 3.31759 0.0600586 3.50319 0.0600586 3.73519V5.68399C0.0600586 5.91599 0.244058 6.10159 0.474059 6.10159V6.72799C0.244058 6.72799 0.0600586 6.91359 0.0600586 7.14559V7.81839C0.0600586 8.05039 0.244058 8.23599 0.474059 8.23599V21.6456C0.474059 22.388 1.09506 23.0376 1.85406 23.0376H5.55706C5.62606 22.9448 5.71806 22.8752 5.83306 22.8752H7.53506C7.65006 22.8752 7.76506 22.9448 7.81106 23.0376H11.5141C12.2501 23.0376 12.8941 22.4112 12.8941 21.6456V1.57759C12.9171 0.835193 12.2731 0.185593 11.5371 0.185593ZM12.2041 21.6456C12.2041 22.04 11.9281 22.3184 11.5371 22.3184H1.85406C1.46306 22.3184 1.18706 22.04 1.18706 21.6456V1.57759C1.18706 1.18319 1.46306 0.904793 1.85406 0.904793H3.21106L3.25706 1.99519C3.25706 2.22719 3.44106 2.38959 3.64806 2.38959H9.72006C9.95006 2.38959 10.1111 2.20399 10.1111 1.99519L10.1801 0.904793H11.5371C11.9281 0.904793 12.2041 1.18319 12.2041 1.57759V21.6456Z" fill="#8B8B8C"/>
<path d="M9.92708 15.196H3.57908C3.39508 15.196 3.25708 15.3352 3.25708 15.5208C3.25708 15.7064 3.39508 15.8456 3.57908 15.8456H9.95008C10.1341 15.8456 10.2721 15.7064 10.2721 15.5208C10.2491 15.3352 10.1111 15.196 9.92708 15.196Z" fill="#8B8B8C"/>
<path d="M6.54591 14.2216C6.61491 14.268 6.68391 14.3144 6.75291 14.3144C6.82191 14.3144 6.91391 14.2912 6.95991 14.2216L9.28291 12.064C9.35191 11.9944 9.37491 11.9248 9.37491 11.832C9.37491 11.7392 9.35191 11.6696 9.28291 11.6C9.21391 11.5304 9.14491 11.5072 9.05291 11.5072C8.96091 11.5072 8.89191 11.5304 8.82291 11.6L7.05191 13.2472V7.9344C7.05191 7.7488 6.91391 7.6096 6.72991 7.6096C6.54591 7.6096 6.40791 7.7488 6.40791 7.9344V13.2472L4.65991 11.5768C4.59091 11.5072 4.52191 11.484 4.42991 11.484C4.33791 11.484 4.26891 11.5304 4.19991 11.5768C4.13091 11.6464 4.10791 11.716 4.10791 11.8088C4.10791 11.9016 4.15391 11.9712 4.19991 12.0408L6.54591 14.2216Z" fill="#8B8B8C"/>
</svg>
