<svg width="22" height="22" viewBox="0 0 22 22" fill="none" xmlns="http://www.w3.org/2000/svg">
<path d="M18.0649 4.63867H14.4571V3.93289C14.4549 2.31333 13.1433 1.00222 11.5236 1H3.934C3.12333 0.999113 2.38156 1.33045 1.85445 1.86134C1.32556 2.39089 0.999334 3.12956 1 3.93289V14.4284C0.999334 15.2318 1.32556 15.9704 1.85445 16.5C2.38156 17.0309 3.12333 17.3622 3.934 17.3613H7.54289V18.0658C7.54333 19.6867 8.85667 20.9996 10.4782 21H18.0649C19.6862 20.9996 20.9996 19.6867 21 18.0658V7.57289C20.9993 5.952 19.6862 4.63911 18.0649 4.63867ZM3.934 15.5436C3.30889 15.5427 2.82045 15.0462 2.81845 14.4284V3.93289C2.82045 3.31511 3.30889 2.81889 3.934 2.81778H11.5236C12.134 2.81889 12.6376 3.32245 12.6389 3.93289V4.63867H10.4782L10.3549 4.65111L10.2933 4.63867H5.156C4.65378 4.63867 4.24667 5.04556 4.24667 5.54756C4.24667 6.04956 4.65356 6.45645 5.156 6.45645H7.76556C7.62356 6.80089 7.54289 7.17711 7.54289 7.57289V8.26956H5.15844C4.65622 8.26956 4.24911 8.67645 4.24911 9.17845C4.24911 9.68045 4.656 10.0873 5.15844 10.0873H7.54289V11.9102H5.15844C4.65622 11.9102 4.24911 12.3171 4.24911 12.8191C4.24911 13.3211 4.656 13.728 5.15844 13.728H7.54289V15.5433L3.934 15.5436ZM19.1816 18.0658C19.1804 18.682 18.6811 19.1809 18.0649 19.1822H10.4782C9.86178 19.1811 9.36244 18.682 9.36133 18.0658V16.4722L9.36533 16.4524L9.36133 16.4327V12.8398L9.36556 12.8193L9.36133 12.7989V9.19911L9.36556 9.17867L9.36133 9.15822V7.57311C9.36244 6.95689 9.86178 6.45778 10.4782 6.45667H18.0649C18.6813 6.45778 19.1804 6.95689 19.1816 7.57311V18.0658Z" fill="#332C2B" stroke="white" stroke-width="0.5"/>
<path d="M16.8394 8.03979H11.7023C11.2001 8.03979 10.793 8.44668 10.793 8.94868C10.793 9.45068 11.1999 9.85757 11.7023 9.85757H16.8394C17.3416 9.85757 17.7487 9.45068 17.7487 8.94868C17.7487 8.44668 17.3416 8.03979 16.8394 8.03979Z" fill="#332C2B" stroke="white" stroke-width="0.5"/>
<path d="M16.8394 11.9105H11.7023C11.2001 11.9105 10.793 12.3174 10.793 12.8194C10.793 13.3214 11.1999 13.7282 11.7023 13.7282H16.8394C17.3416 13.7282 17.7487 13.3214 17.7487 12.8194C17.7487 12.3174 17.3416 11.9105 16.8394 11.9105Z" fill="#332C2B" stroke="white" stroke-width="0.5"/>
<path d="M16.8394 15.7811H11.7023C11.2001 15.7811 10.793 16.188 10.793 16.69C10.793 17.192 11.1999 17.5989 11.7023 17.5989H16.8394C17.3416 17.5989 17.7487 17.192 17.7487 16.69C17.7487 16.188 17.3416 15.7811 16.8394 15.7811Z" fill="#332C2B" stroke="white" stroke-width="0.5"/>
</svg>
