<svg width="18" height="18" viewBox="0 0 18 18" fill="none" xmlns="http://www.w3.org/2000/svg">
<path d="M7.61566 2.76935C5.88774 2.76935 4.58194 2.76687 3.54143 2.88429C2.50099 3.00171 1.66812 3.24923 1.0723 3.84573C0.476478 4.44223 0.23167 5.27353 0.114943 6.31355C-0.00182613 7.3535 1.68433e-06 8.65917 1.68433e-06 10.3851C1.68433e-06 12.1114 -0.00143147 13.4175 0.117643 14.4579C0.236717 15.4984 0.487279 16.3302 1.08448 16.9257C1.68168 17.5213 2.51304 17.7684 3.5523 17.8858C4.59156 18.0032 5.89453 18.0007 7.61566 18.0007C9.33701 18.0007 10.6396 18.0015 11.679 17.8831C12.7184 17.7647 13.5514 17.5165 14.1482 16.9203C14.7449 16.3242 14.9932 15.4925 15.1123 14.4525C15.2314 13.4126 15.2313 12.1084 15.2313 10.3851C15.2326 10.2933 15.2156 10.2023 15.1814 10.1171C15.1472 10.032 15.0964 9.9545 15.032 9.88916C14.9676 9.82383 14.8908 9.77195 14.8062 9.73654C14.7216 9.70113 14.6307 9.68289 14.539 9.68289C14.4472 9.68289 14.3564 9.70113 14.2717 9.73654C14.1871 9.77195 14.1103 9.82383 14.0459 9.88916C13.9815 9.9545 13.9307 10.032 13.8965 10.1171C13.8623 10.2023 13.8453 10.2933 13.8466 10.3851C13.8466 12.1071 13.8407 13.3915 13.7371 14.2956C13.6336 15.1999 13.4428 15.6679 13.1692 15.9413C12.8955 16.2147 12.4276 16.4049 11.5235 16.5079C10.6195 16.6109 9.33588 16.6161 7.61564 16.6161C5.8952 16.6161 4.61196 16.6114 3.70778 16.5092C2.80359 16.4071 2.33537 16.2179 2.0621 15.9454C1.78884 15.6729 1.59773 15.2045 1.49418 14.2997C1.39063 13.3949 1.38465 12.11 1.38465 10.3851C1.38465 8.65963 1.38848 7.37431 1.49012 6.46909C1.59176 5.56387 1.78141 5.09633 2.05264 4.8248C2.32387 4.55327 2.79143 4.36311 3.69693 4.26093C4.60243 4.15875 5.88843 4.15411 7.61566 4.15411C7.70741 4.1554 7.79849 4.13845 7.88363 4.10424C7.96876 4.07003 8.04625 4.01924 8.11158 3.95482C8.17692 3.89041 8.2288 3.81365 8.26421 3.729C8.29962 3.64436 8.31786 3.55352 8.31786 3.46177C8.31786 3.37002 8.29962 3.27919 8.26421 3.19454C8.2288 3.1099 8.17692 3.03314 8.11158 2.96872C8.04625 2.90431 7.96876 2.85352 7.88363 2.8193C7.79849 2.78509 7.70741 2.76814 7.61566 2.76944V2.76935Z" fill="#332C2B"/>
<path d="M15.22 0.000108956C15.0401 0.00297621 14.8684 0.0757202 14.7413 0.202941L6.4333 8.51092C6.30346 8.64074 6.2305 8.81681 6.23047 9.00042V11.0774C6.23049 11.261 6.30343 11.4371 6.43327 11.5669C6.5631 11.6968 6.73919 11.7697 6.9228 11.7697H8.9998C9.1834 11.7697 9.35947 11.6968 9.48929 11.5669L17.7973 3.25893C17.9271 3.12909 18 2.95301 18 2.76942C18 2.58583 17.9271 2.40975 17.7973 2.27991L15.7203 0.202914C15.6547 0.137322 15.5766 0.0855684 15.4907 0.0507257C15.4048 0.015883 15.3127 -0.00133919 15.22 8.1225e-05L15.22 0.000108956ZM15.2308 1.67147L16.3288 2.76944L15.2308 3.8674L14.1328 2.76944L15.2308 1.67147ZM13.1538 3.74846L14.2518 4.84643L8.7131 10.3851H7.61514V9.28711L13.1538 3.74846Z" fill="#332C2B"/>
</svg>
