<svg width="28" height="29" viewBox="0 0 28 29" fill="none" xmlns="http://www.w3.org/2000/svg">
<path d="M2.68435 29H25.3157C26.0279 28.9992 26.7106 28.7102 27.214 28.1967C27.7173 27.6831 28 26.9869 28 26.261V11.6136C27.9999 11.5008 27.9756 11.3892 27.9288 11.2869C27.882 11.1846 27.8139 11.0939 27.7291 11.0212L23.9826 7.79517V2.17136C23.9826 1.59548 23.7582 1.04318 23.3586 0.635975C22.9591 0.228767 22.4172 0 21.8522 0H6.29696C5.73193 0 5.19005 0.228767 4.79051 0.635975C4.39098 1.04318 4.16652 1.59548 4.16652 2.17136V7.67729L0.27087 11.0212C0.186127 11.0939 0.117983 11.1846 0.0711976 11.2869C0.024412 11.3892 0.000113643 11.5008 0 11.6136V26.261C-4.56729e-07 26.9869 0.282717 27.6831 0.786042 28.1967C1.28937 28.7102 1.97213 28.9992 2.68435 29ZM25.3126 27.449H2.68435C2.37573 27.4482 2.08002 27.3227 1.86207 27.1C1.64413 26.8773 1.52174 26.5755 1.52174 26.261V13.0933L10.1957 19.3468L4.0387 24.1486C3.87726 24.272 3.77053 24.4557 3.74199 24.6593C3.71346 24.8629 3.76544 25.0697 3.88652 25.2342C4.0076 25.3988 4.18785 25.5076 4.38761 25.5366C4.58738 25.5657 4.7903 25.5127 4.95174 25.3893L11.4983 20.2836L13.6287 21.8345C13.7573 21.9273 13.9109 21.9772 14.0685 21.9772C14.226 21.9772 14.3797 21.9273 14.5083 21.8345L16.6387 20.2836L23.1883 25.38C23.3497 25.5034 23.5526 25.5564 23.7524 25.5273C23.9522 25.4983 24.1324 25.3895 24.2535 25.2249C24.3746 25.0604 24.4265 24.8536 24.398 24.65C24.3695 24.4464 24.2627 24.2627 24.1013 24.1393L17.9565 19.3468L26.4783 13.2049V26.2641C26.4775 26.5781 26.3547 26.879 26.1369 27.1011C25.919 27.3231 25.6237 27.4482 25.3157 27.449H25.3126ZM26.0522 11.6105L23.9826 13.1026V9.82383L26.0522 11.6105ZM6.29696 1.55407H21.8552C22.0167 1.55407 22.1715 1.61943 22.2856 1.73578C22.3998 1.85212 22.4639 2.00992 22.4639 2.17446V14.1914L14.0761 20.2432L5.6913 14.1914V2.17136C5.6921 2.00789 5.75617 1.85136 5.86958 1.73577C5.98299 1.62018 6.13657 1.55489 6.29696 1.55407ZM4.16652 13.1026L2.01174 11.5516L4.16652 9.69045V13.1026ZM14 16.2603H14.1948C14.3966 16.2603 14.5901 16.1786 14.7328 16.0332C14.8755 15.8878 14.9557 15.6905 14.9557 15.4849C14.9557 15.2792 14.8755 15.0819 14.7328 14.9365C14.5901 14.7911 14.3966 14.7094 14.1948 14.7094H14C13.0405 14.7094 12.1026 14.4194 11.3048 13.8761C10.507 13.3328 9.88516 12.5606 9.51798 11.6571C9.15079 10.7536 9.05472 9.75941 9.24191 8.80027C9.4291 7.84114 9.89114 6.96011 10.5696 6.26861C11.2481 5.57712 12.1125 5.1062 13.0536 4.91542C13.9946 4.72463 14.9701 4.82255 15.8565 5.19679C16.743 5.57102 17.5006 6.20477 18.0337 7.01789C18.5668 7.831 18.8513 8.78697 18.8513 9.76489V11.0894C18.8384 11.3096 18.7434 11.5164 18.5859 11.6676C18.4283 11.8189 18.2201 11.9031 18.0037 11.9031C17.7873 11.9031 17.579 11.8189 17.4215 11.6676C17.264 11.5164 17.169 11.3096 17.1561 11.0894V9.76489C17.1608 9.03461 16.9222 8.32432 16.4793 7.75018C16.0365 7.17604 15.4157 6.77203 14.7183 6.60421C14.0209 6.43638 13.2883 6.51469 12.6403 6.82631C11.9923 7.13793 11.4672 7.66443 11.1509 8.31971C10.8345 8.97499 10.7457 9.72027 10.8989 10.4337C11.0521 11.1471 11.4383 11.7864 11.9943 12.2471C12.5503 12.7078 13.2432 12.9625 13.9597 12.9697C14.6762 12.9769 15.3739 12.7362 15.9387 12.2868C16.1953 12.7544 16.5972 13.1216 17.0812 13.3307C17.5651 13.5398 18.1036 13.5788 18.6117 13.4416C19.1198 13.3044 19.5687 12.9988 19.8876 12.5729C20.2065 12.1471 20.3773 11.6251 20.373 11.0894V9.76489C20.373 8.48022 19.9993 7.22439 19.299 6.15621C18.5987 5.08804 17.6034 4.2555 16.4389 3.76388C15.2743 3.27225 13.9929 3.14362 12.7567 3.39425C11.5204 3.64488 10.3849 4.26351 9.49358 5.17191C8.60229 6.08032 7.99532 7.2377 7.74941 8.49769C7.50351 9.75769 7.62971 11.0637 8.11208 12.2506C8.59444 13.4375 9.41128 14.4519 10.4593 15.1657C11.5074 15.8794 12.7395 16.2603 14 16.2603ZM14 11.4306C13.6768 11.4306 13.3608 11.3329 13.092 11.1499C12.8232 10.9669 12.6138 10.7067 12.4901 10.4023C12.3664 10.098 12.334 9.76305 12.3971 9.43993C12.4601 9.1168 12.6158 8.82 12.8443 8.58704C13.0729 8.35408 13.3641 8.19543 13.6812 8.13116C13.9982 8.06689 14.3268 8.09988 14.6254 8.22595C14.9241 8.35203 15.1793 8.56553 15.3589 8.83946C15.5385 9.11339 15.6343 9.43544 15.6343 9.76489C15.6343 10.2067 15.4622 10.6304 15.1557 10.9428C14.8492 11.2551 14.4335 11.4306 14 11.4306Z" fill="#332C2B"/>
</svg>
