<svg width="20" height="14" viewBox="0 0 20 14" fill="none" xmlns="http://www.w3.org/2000/svg">
<path d="M19.7584 5.78989C18.7176 4.04644 17.318 2.64575 15.56 1.58736C13.802 0.529196 11.9456 0 9.99067 0C8.03578 0 6.17911 0.528966 4.42111 1.58736C2.66267 2.64575 1.26333 4.04644 0.222667 5.78989C0.0742223 6.05655 0 6.31908 0 6.57816C0 6.83701 0.0742223 7.09977 0.222667 7.36598C1.26333 9.10943 2.66289 10.5103 4.42111 11.5685C6.17889 12.6267 8.03556 13.1554 9.99067 13.1554C11.9458 13.1554 13.8022 12.6283 15.5602 11.574C17.3182 10.5198 18.718 9.11678 19.7587 7.36598C19.9071 7.09954 19.9818 6.83701 19.9818 6.57816C19.9816 6.31908 19.9069 6.05655 19.7584 5.78989ZM7.59867 2.66667C8.264 1.98529 9.06111 1.64437 9.99067 1.64437C10.1391 1.64437 10.2658 1.69793 10.3698 1.80437C10.4738 1.91103 10.526 2.04069 10.526 2.19264C10.526 2.34529 10.4738 2.47448 10.37 2.58092C10.266 2.68759 10.1393 2.74092 9.99067 2.74092C9.35156 2.74092 8.80489 2.97333 8.35178 3.43724C7.89822 3.90184 7.67133 4.46138 7.67133 5.11632C7.67133 5.26874 7.61933 5.39816 7.51533 5.5046C7.41089 5.61127 7.28467 5.6646 7.13622 5.6646C6.98733 5.6646 6.86089 5.61127 6.75689 5.5046C6.65289 5.39816 6.60089 5.26874 6.60089 5.11632C6.60089 4.1646 6.93333 3.34782 7.59867 2.66667ZM14.8356 10.3067C13.3451 11.2315 11.73 11.694 9.99067 11.694C8.25111 11.694 6.63622 11.2317 5.14578 10.3067C3.65556 9.38161 2.416 8.13862 1.42733 6.57816C2.55711 4.78138 3.97333 3.43747 5.67578 2.54713C5.22222 3.33862 4.99533 4.19517 4.99533 5.11655C4.99533 6.52506 5.48422 7.72966 6.46178 8.73081C7.43911 9.73173 8.61556 10.2324 9.99089 10.2324C11.3662 10.2324 12.5424 9.73196 13.5198 8.73081C14.4976 7.72966 14.9864 6.52506 14.9864 5.11655C14.9864 4.1954 14.7596 3.33862 14.306 2.54713C16.0082 3.43747 17.4244 4.78161 18.5544 6.57816C17.5653 8.13862 16.326 9.38161 14.8356 10.3067Z" fill="#332C2B"/>
</svg>
