<svg width="17" height="17" viewBox="0 0 17 17" fill="none" xmlns="http://www.w3.org/2000/svg">
<path d="M6.62476 16C6.41757 16 6.21413 15.9316 6.04819 15.8012C5.82038 15.6241 5.68726 15.3512 5.68726 15.0625V9.70656L1.14224 2.43437C0.96224 2.14562 0.951927 1.78094 1.11787 1.48281C1.2838 1.18469 1.59599 1 1.93724 1H15.0623C15.4026 1 15.7167 1.18469 15.8826 1.48281C16.0476 1.78094 16.0382 2.14562 15.8573 2.43437L11.3123 9.70656V14.125C11.3123 14.5553 11.0198 14.9294 10.6016 15.0344L6.85163 15.9719L6.62476 16ZM3.6285 2.875L7.41976 8.94063C7.51257 9.08969 7.56226 9.26125 7.56226 9.4375V13.8616L9.43727 13.3928V9.4375C9.43727 9.26125 9.48696 9.08969 9.57977 8.94063L13.3701 2.875H3.6285Z" fill="#332C2B" stroke="white" stroke-width="0.9"/>
</svg>
