<svg width="27" height="20" viewBox="0 0 27 20" fill="none" xmlns="http://www.w3.org/2000/svg">
<path d="M23.4716 9.19512C24.125 8.63902 24.5227 7.79024 24.5227 6.85366C24.5227 5.1561 23.1875 3.75122 21.5114 3.75122C19.8636 3.75122 18.5 5.12683 18.5 6.85366C18.5 7.79024 18.8977 8.63902 19.5511 9.19512C18.983 9.48781 18.4716 9.89756 18.0455 10.4244C17.4205 9.75122 16.6534 9.22439 15.8295 8.87317C16.9375 8.1122 17.6761 6.79512 17.6761 5.30244C17.6761 2.93171 15.8011 1 13.5 1C11.1989 1 9.32386 2.93171 9.32386 5.30244C9.32386 6.79512 10.0625 8.08293 11.1705 8.87317C10.3182 9.22439 9.55114 9.75122 8.95455 10.4244C8.55682 9.92683 8.04545 9.48781 7.44886 9.19512C8.10227 8.63902 8.5 7.79024 8.5 6.85366C8.5 5.1561 7.16477 3.75122 5.48864 3.75122C3.8125 3.75122 2.47727 5.12683 2.47727 6.85366C2.47727 7.79024 2.875 8.63902 3.52841 9.19512C2.05114 9.9561 1 11.5366 1 13.3512V14.9902L1.28409 15.1659C2.27841 15.8683 3.8125 16.2488 5.48864 16.2488C6.05682 16.2488 6.625 16.1902 7.13636 16.1024V17.2439L7.39205 17.4195C8.78409 18.4146 11.0568 19 13.5 19C15.9432 19 18.1875 18.4146 19.608 17.4195L19.8636 17.2439V16.1024C20.375 16.1902 20.9432 16.2488 21.5114 16.2488C23.1875 16.2488 24.7216 15.839 25.7159 15.1659L26 14.9902V13.3512C26 11.5366 24.9489 9.9561 23.4716 9.19512ZM24.7784 14.3171C23.983 14.7561 22.7898 15.0195 21.5114 15.0195C20.9148 15.0195 20.375 14.961 19.8636 14.8732C19.8352 13.6146 19.4659 12.4146 18.8409 11.4195C19.4375 10.5415 20.4034 9.98537 21.5114 9.98537C23.3011 9.98537 24.7784 11.5073 24.7784 13.3512V14.3171ZM13.5 17.7707C11.4545 17.7707 9.57955 17.3317 8.32955 16.6V14.961C8.32955 12.0341 10.6307 9.63415 13.5 9.63415C16.3693 9.63415 18.6705 12.0049 18.6705 14.961V16.6C17.4205 17.3317 15.5455 17.7707 13.5 17.7707ZM2.22159 13.3512C2.22159 11.5073 3.69886 9.98537 5.48864 9.98537C6.59659 9.98537 7.5625 10.5707 8.15909 11.4195C7.53409 12.4146 7.16477 13.5854 7.13636 14.8732C6.625 14.961 6.05682 15.0195 5.48864 15.0195C4.21023 15.0195 3.01705 14.7561 2.22159 14.3171V13.3512ZM3.67045 6.85366C3.67045 5.82927 4.46591 5.00976 5.46023 5.00976C6.45455 5.00976 7.25 5.82927 7.25 6.85366C7.25 7.87805 6.45455 8.69756 5.46023 8.69756C4.46591 8.69756 3.67045 7.87805 3.67045 6.85366ZM16.483 5.30244C16.483 7 15.1477 8.37561 13.5 8.37561C11.8523 8.37561 10.517 7 10.517 5.30244C10.517 3.60488 11.8523 2.25854 13.5 2.25854C15.1477 2.25854 16.483 3.63415 16.483 5.30244ZM19.7216 6.85366C19.7216 5.82927 20.517 5.00976 21.5114 5.00976C22.5057 5.00976 23.3011 5.82927 23.3011 6.85366C23.3011 7.87805 22.5057 8.69756 21.5114 8.69756C20.517 8.69756 19.7216 7.87805 19.7216 6.85366Z" fill="#EF4507" stroke="#EF4507" stroke-width="0.3"/>
</svg>
