<svg width="23" height="21" viewBox="0 0 23 21" fill="none" xmlns="http://www.w3.org/2000/svg">
<path d="M22.6475 8.80593L12.1061 0.215188C11.935 0.0760173 11.7209 0 11.5 0C11.2791 0 11.065 0.0760173 10.8939 0.215188L0.352504 8.80593C0.254973 8.88521 0.174075 8.98285 0.114429 9.09328C0.0547825 9.2037 0.0175564 9.32475 0.00487571 9.4495C-0.00780493 9.57426 0.0043082 9.70028 0.0405236 9.82037C0.076739 9.94046 0.136347 10.0523 0.215945 10.1494C0.295543 10.2466 0.393572 10.3271 0.504434 10.3866C0.615297 10.446 0.736822 10.483 0.862071 10.4957C0.98732 10.5083 1.11384 10.4962 1.23441 10.4602C1.35498 10.4241 1.46723 10.3647 1.56476 10.2854L2.87524 9.21637V18.1364C2.87524 18.8959 3.17814 19.6243 3.71729 20.1613C4.25644 20.6983 4.98769 21 5.75016 21H17.2498C18.0123 21 18.7436 20.6983 19.2827 20.1613C19.8219 19.6243 20.1248 18.8959 20.1248 18.1364V9.21637L21.4352 10.2854C21.5328 10.3647 21.645 10.4241 21.7656 10.4602C21.8862 10.4962 22.0127 10.5083 22.1379 10.4957C22.2632 10.483 22.3847 10.446 22.4956 10.3866C22.6064 10.3271 22.7045 10.2466 22.7841 10.1494C22.8637 10.0523 22.9233 9.94046 22.9595 9.82037C22.9957 9.70028 23.0078 9.57426 22.9951 9.4495C22.9824 9.32475 22.9452 9.2037 22.8856 9.09328C22.8259 8.98285 22.745 8.88521 22.6475 8.80593ZM9.58339 19.0909V14.3183C9.58339 14.0652 9.68435 13.8224 9.86407 13.6434C10.0438 13.4644 10.2875 13.3638 10.5417 13.3638H12.4583C12.7125 13.3638 12.9562 13.4644 13.1359 13.6434C13.3156 13.8224 13.4166 14.0652 13.4166 14.3183V19.0909H9.58339ZM18.2081 18.1364C18.2081 18.3896 18.1072 18.6324 17.9275 18.8114C17.7477 18.9904 17.504 19.0909 17.2498 19.0909H15.3332V14.3183C15.3332 13.5588 15.0303 12.8305 14.4912 12.2935C13.952 11.7564 13.2208 11.4547 12.4583 11.4547H10.5417C9.77922 11.4547 9.04797 11.7564 8.50882 12.2935C7.96967 12.8305 7.66678 13.5588 7.66678 14.3183V19.0909H5.75016C5.496 19.0909 5.25226 18.9904 5.07254 18.8114C4.89282 18.6324 4.79186 18.3896 4.79186 18.1364V7.65572L11.5 2.18867L18.2081 7.65572V18.1364Z" fill="#EF4507"/>
</svg>
