<svg width="12" height="12" viewBox="0 0 12 12" fill="none" xmlns="http://www.w3.org/2000/svg">
<path d="M6.00111 10.3777L5.71032 10.0897C5.56852 9.94868 2.23157 6.60535 2.30188 3.59355C2.30693 3.11122 2.41412 2.63544 2.6164 2.19756C2.81869 1.75967 3.11146 1.36961 3.47544 1.0531C3.90348 0.64835 4.41973 0.34861 4.98344 0.177528C5.54715 0.0064453 6.14291 -0.0312995 6.72371 0.0672717C7.55828 0.238221 8.30837 0.691742 8.84748 1.35136C9.3866 2.01097 9.68175 2.83632 9.68318 3.68822C9.68318 6.45316 6.42093 9.9335 6.28192 10.0793L6.00111 10.3777ZM6.07661 0.801447C5.30754 0.819577 4.5721 1.12033 4.01069 1.64627C3.72713 1.88975 3.49915 2.19127 3.34217 2.53046C3.18519 2.86964 3.10287 3.23858 3.10076 3.61232C3.04923 5.80207 5.19304 8.35091 5.98354 9.2165C6.76205 8.32095 8.88429 5.69622 8.88429 3.68822C8.88314 3.02117 8.6521 2.37491 8.2301 1.85832C7.8081 1.34173 7.22093 0.986393 6.56752 0.852176C6.40599 0.818929 6.24153 0.801934 6.07661 0.801447Z" fill="#332C2B"/>
<path d="M5.9923 5.25609C5.67629 5.25609 5.36738 5.16238 5.10463 4.98682C4.84188 4.81125 4.63709 4.56171 4.51615 4.26976C4.39522 3.9778 4.36358 3.65655 4.42523 3.34661C4.48688 3.03667 4.63906 2.75198 4.86251 2.52852C5.08596 2.30507 5.37066 2.1529 5.68059 2.09125C5.99053 2.0296 6.31179 2.06124 6.60374 2.18217C6.8957 2.3031 7.14523 2.50789 7.3208 2.77064C7.49637 3.0334 7.59007 3.34231 7.59007 3.65832C7.59007 4.08207 7.42174 4.48847 7.1221 4.78811C6.82246 5.08775 6.41606 5.25609 5.9923 5.25609ZM5.9923 2.85943C5.8343 2.85943 5.67984 2.90629 5.54847 2.99407C5.41709 3.08185 5.31469 3.20662 5.25423 3.3526C5.19376 3.49858 5.17794 3.6592 5.20877 3.81417C5.23959 3.96914 5.31568 4.11149 5.42741 4.22322C5.53913 4.33494 5.68148 4.41103 5.83645 4.44185C5.99142 4.47268 6.15205 4.45686 6.29802 4.39639C6.444 4.33593 6.56877 4.23353 6.65655 4.10215C6.74433 3.97078 6.79119 3.81632 6.79119 3.65832C6.79119 3.44644 6.70702 3.24324 6.5572 3.09342C6.40738 2.9436 6.20418 2.85943 5.9923 2.85943Z" fill="#332C2B"/>
<path d="M5.99164 11.9862C3.08729 11.9862 0 11.1473 0 9.5895C0 8.25775 2.17496 7.53037 4.21092 7.2935L4.3028 8.08679C2.10946 8.34244 0.798885 9.05105 0.798885 9.5895C0.798885 10.241 2.82166 11.1873 5.99164 11.1873C9.16162 11.1873 11.1844 10.241 11.1844 9.5895C11.1844 9.04466 9.85425 8.33165 7.62935 8.0812L7.71883 7.28711C9.77955 7.51879 11.9833 8.24577 11.9833 9.5895C11.9833 11.1473 8.89599 11.9862 5.99164 11.9862Z" fill="#332C2B"/>
</svg>
