<svg width="14" height="19" viewBox="0 0 14 19" fill="none" xmlns="http://www.w3.org/2000/svg">
<path d="M10.2119 5.85714H4.46868V4.35374C4.46868 3.19728 5.3785 2.21429 6.57263 2.21429H7.31186C8.16481 2.21429 8.90404 2.73469 9.24522 3.48639C9.35894 3.77551 9.70013 3.89116 9.98444 3.77551C10.2688 3.65986 10.3825 3.31293 10.2688 3.02381C9.75699 1.80952 8.61972 1 7.31186 1H6.57263C4.80986 1 3.33141 2.44558 3.33141 4.29592V5.85714C2.02354 6.08844 1 7.30272 1 8.69048V15.1088C1 16.7279 2.251 18 3.84318 18H10.155C11.7472 18 12.9982 16.7279 12.9982 15.1088V8.7483C13.0551 7.12925 11.7472 5.85714 10.2119 5.85714ZM11.9178 15.1667C11.9178 16.1497 11.1786 16.9014 10.2119 16.9014H3.84318C2.8765 16.9014 2.13727 16.1497 2.13727 15.1667V8.7483C2.13727 7.76531 2.8765 7.01361 3.84318 7.01361H10.155C11.1217 7.01361 11.8609 7.76531 11.8609 8.7483V15.1667H11.9178ZM7.88049 11.0034C7.88049 11.2347 7.76676 11.466 7.59617 11.6395V12.9694C7.59617 13.3163 7.36872 13.5476 7.02754 13.5476C6.68636 13.5476 6.4589 13.3163 6.4589 12.9694V11.6395C6.28831 11.466 6.17458 11.2347 6.17458 11.0034C6.17458 10.5408 6.57263 10.1361 7.02754 10.1361C7.48245 10.1361 7.88049 10.5408 7.88049 11.0034Z" fill="#332C2B" stroke="#332C2B" stroke-width="0.4"/>
</svg>
