<svg width="24" height="19" viewBox="0 0 24 19" fill="none" xmlns="http://www.w3.org/2000/svg">
<path d="M8.68145 3.03024C4.92441 3.03024 1.90649 6.19641 2.1509 10.0061C2.35472 13.1867 4.88808 15.798 8.06147 16.0905C9.7681 16.2479 11.354 15.7481 12.598 14.8164C12.9588 14.5463 13.453 14.5426 13.8238 14.799L13.8417 14.8113C14.4328 15.2205 14.4566 16.0929 13.8812 16.5243C12.3119 17.7013 10.332 18.3597 8.19369 18.2425C3.86047 18.0052 0.318994 14.5183 0.0211553 10.1888C-0.327703 5.11645 3.68364 0.893278 8.68145 0.893278C10.5419 0.893278 12.2657 1.47881 13.6785 2.4757C14.2728 2.89508 14.2522 3.78646 13.6542 4.20076L13.6363 4.21331C13.2767 4.46227 12.7972 4.47002 12.4396 4.21839C11.3759 3.47019 10.0804 3.03024 8.68145 3.03024Z" fill="#F56D06"/>
<path d="M23.7903 10.2455L20.3423 12.6814C19.9883 12.9314 19.4998 12.6785 19.4998 12.2452V10.9104H11.6104C11.0991 10.9104 10.6848 10.4961 10.6848 9.98482V9.96612C10.6848 9.45486 11.0991 9.04055 11.6104 9.04055H19.4998V7.58448C19.4998 7.1603 19.9704 6.9052 20.3257 7.13706L23.7737 9.38487C24.0683 9.59269 24.0766 10.0268 23.7903 10.2455Z" fill="#F56D06"/>
</svg>
