<svg width="115" height="111" viewBox="0 0 115 111" fill="none" xmlns="http://www.w3.org/2000/svg">
<path d="M34.0976 50.5308C34.8709 51.6246 34.2329 53.0479 33.4631 53.8487C32.5166 54.8333 31.5549 54.6811 31.1167 55.5518C30.5873 56.6038 31.714 57.3774 31.1264 58.4773C30.7654 59.1531 30.27 58.9921 29.552 59.85C28.6774 60.8951 29.5349 61.1924 28.9146 61.9569C26.9216 64.4135 26.1233 62.7095 24.9097 63.3553C23.3369 64.1925 22.2847 64.9075 21.5147 64.7401C18.4886 64.082 19.4206 62.0921 17.9517 61.3254C15.9666 60.2892 14.9967 56.0485 16.3594 54.554C17.0729 53.7716 17.7781 53.6765 17.8445 53.0246C17.9402 52.084 16.5198 51.8106 16.3756 50.6791C16.2121 49.3959 17.9148 48.7745 17.6613 47.6906C17.4142 46.6338 15.6665 46.6719 15.5544 45.9171C15.3845 44.7723 19.114 42.7225 22.9764 42.8499C24.8235 42.9108 27.832 43.5068 28.3326 45.0459C28.6217 45.9346 27.8696 46.508 28.2934 47.6561C28.6017 48.4908 29.2834 48.9577 30.1865 49.559C31.0445 50.1301 32.7293 48.5957 34.0976 50.5308Z" fill="url(#paint0_linear)"/>
<path d="M24.867 49.8419C25.4747 49.8113 25.7845 53.8633 25.4321 54.3946C25.0798 54.926 24.4171 55.3181 24.3732 55.8981C24.3295 56.4782 24.5882 66.755 24.8026 66.6062C25.0172 66.4575 26.7966 63.7644 26.4412 63.1373C26.086 62.5102 25.6834 61.5407 25.7667 60.7209C25.8501 59.901 25.8507 58.7334 26.0803 58.762C26.31 58.7906 26.1173 60.8018 26.2771 61.1917C26.437 61.5817 26.4643 61.8866 26.6936 61.8935C26.9229 61.9002 26.9279 59.7724 27.2777 59.8097C27.6276 59.847 27.3898 62.9829 27.2695 63.5634C27.1491 64.1439 26.738 66.1483 26.3585 66.8862C25.979 67.624 24.8255 68.3979 24.7974 68.6495C24.7692 68.9009 24.954 74.8859 24.954 74.8859L21.9321 74.9407C21.9321 74.9407 23.0481 63.1399 22.7993 62.7472C22.5504 62.3544 20.9737 59.1661 20.6361 58.8405C20.2984 58.5149 20.0966 56.5279 20.2747 56.4992C20.4528 56.4705 20.5517 58.4082 20.9223 58.4398C21.293 58.4714 21.4924 54.6907 21.761 54.7242C22.0296 54.7576 21.5003 58.6464 21.6451 58.8861C21.7898 59.126 22.6326 60.5652 22.9127 60.5347C23.1929 60.5041 22.7586 49.9209 22.9989 49.8017C23.2391 49.6825 23.4196 49.7813 23.5672 50.8888C23.7149 51.9963 24.0013 54.4154 24.1671 54.4125C24.3329 54.4095 24.7474 54.0448 24.7557 53.8022C24.7642 53.5597 24.5967 49.8555 24.867 49.8419Z" fill="url(#paint1_linear)"/>
<path d="M90.3539 61.8597C89.916 62.4789 90.2772 63.2849 90.7131 63.7381C91.2489 64.2956 91.7934 64.2094 92.0416 64.7023C92.3414 65.298 91.7033 65.7359 92.0361 66.3587C92.2405 66.7413 92.5209 66.6502 92.9274 67.136C93.4225 67.7276 92.9371 67.896 93.2883 68.3288C94.4167 69.7197 94.8687 68.7549 95.5557 69.1206C96.4462 69.5946 97.042 69.9994 97.4779 69.9045C99.1911 69.5319 98.6635 68.4055 99.4951 67.9713C100.619 67.3846 101.168 64.9837 100.397 64.1375C99.9926 63.6945 99.5934 63.6408 99.5559 63.2717C99.5016 62.7392 100.306 62.5844 100.388 61.9437C100.48 61.2173 99.5161 60.8654 99.6597 60.2517C99.7995 59.6533 100.789 59.6749 100.852 59.2476C100.949 58.5995 98.8372 57.439 96.6504 57.511C95.6047 57.5455 93.9013 57.883 93.6179 58.7543C93.4541 59.2575 93.88 59.5822 93.64 60.2321C93.4655 60.7047 93.0795 60.969 92.5682 61.3095C92.0824 61.6329 91.1285 60.7642 90.3539 61.8597Z" fill="url(#paint2_linear)"/>
<path d="M95.5798 61.4699C95.2359 61.4526 95.0605 63.7466 95.26 64.0475C95.4596 64.3483 95.8347 64.5704 95.8595 64.8988C95.8842 65.2271 95.7378 71.0457 95.6163 70.9615C95.4949 70.8773 94.4874 69.3524 94.6886 68.9974C94.8898 68.6425 95.1176 68.0936 95.0705 67.6293C95.0233 67.1651 95.0229 66.504 94.8929 66.5202C94.7629 66.5364 94.872 67.6751 94.7815 67.8959C94.691 68.1166 94.6755 68.2893 94.5457 68.2931C94.416 68.297 94.4131 67.0923 94.215 67.1133C94.0169 67.1344 94.1515 68.91 94.2197 69.2386C94.2878 69.5673 94.5207 70.7021 94.7354 71.1198C94.9502 71.5376 95.6033 71.9757 95.6192 72.1181C95.6352 72.2605 95.5306 75.6491 95.5306 75.6491L97.2415 75.68C97.2415 75.68 96.6095 68.9988 96.7505 68.7764C96.8915 68.5541 97.7841 66.749 97.9753 66.5646C98.1664 66.3802 98.2807 65.2553 98.18 65.239C98.0791 65.2227 98.0231 66.3199 97.8133 66.3376C97.6034 66.3554 97.4905 64.215 97.3384 64.234C97.1864 64.2529 97.4859 66.4546 97.4041 66.5903C97.3222 66.7261 96.8451 67.541 96.6864 67.5236C96.5278 67.5064 96.7736 61.5145 96.6377 61.4469C96.5016 61.3794 96.3995 61.4353 96.3159 62.0625C96.2322 62.6894 96.0702 64.0592 95.9763 64.0575C95.8824 64.0558 95.6478 63.8492 95.6431 63.7118C95.6383 63.5745 95.7329 61.4776 95.5798 61.4699Z" fill="url(#paint3_linear)"/>
<path d="M57.5 110.599C89.2564 110.599 115 101.486 115 90.2432C115 79.0009 89.2564 69.8872 57.5 69.8872C25.7436 69.8872 0 79.0009 0 90.2432C0 101.486 25.7436 110.599 57.5 110.599Z" fill="url(#paint4_linear)"/>
<path d="M59.3136 68.1602C59.1777 68.4169 59.0417 68.7417 59.0417 68.9456C59.0417 69.1495 59.0116 69.9273 59.0417 70.0179C59.0719 70.1085 59.9706 70.2671 60.3406 70.2368C60.7107 70.2067 61.0504 69.8517 61.0731 69.7687C61.0957 69.6856 61.1486 68.5228 61.0731 68.3867C60.9976 68.2508 59.3136 68.1602 59.3136 68.1602Z" fill="#DABB92"/>
<path d="M54.7609 68.5635C54.704 68.7912 54.69 69.3363 54.7254 69.471C54.7609 69.6057 54.9239 69.8608 54.9239 70.109C54.9239 70.3572 56.7177 70.3501 56.7885 70.1941C56.8594 70.0381 56.862 69.6238 56.855 69.4607C56.8479 69.2976 57.0084 68.996 56.9587 68.8328C56.9091 68.6697 56.7034 68.3578 56.5121 68.3153C56.3205 68.2728 54.7609 68.5635 54.7609 68.5635Z" fill="#DABB92"/>
<path d="M51.7635 42.366C51.3993 43.7016 51.0592 47.9029 51.3021 49.6029C51.545 51.3029 52.2007 55.9656 52.2007 58.0297C52.2007 60.0939 52.9129 63.4584 53.2506 64.6864C53.5884 65.9144 54.0752 68.6228 54.3417 68.6834C54.608 68.7438 55.0196 68.9739 55.7944 68.8287C56.5691 68.6834 56.787 68.4897 56.7993 68.1749C56.8114 67.8601 56.2545 64.3372 56.1698 63.4898C56.0851 62.6424 55.5161 59.0952 55.4918 58.6231C55.4676 58.1509 55.9519 56.4803 56.0003 55.4997C56.0487 54.519 56.3029 51.0082 56.4482 50.5361C56.5935 50.064 56.9447 47.8001 57.1019 47.7879C57.2594 47.7758 58.1552 50.524 58.2883 51.4077C58.4215 52.2914 59.0995 58.042 59.269 58.3809C59.4385 58.7199 59.2084 60.7417 59.0995 61.4922C58.9905 62.2429 58.9613 68.1238 59.0873 68.2691C59.2133 68.4145 59.8723 68.7149 60.3084 68.7149C60.7444 68.7149 61.4518 68.5307 61.5584 68.3078C61.6649 68.085 61.5195 67.271 61.636 66.8737C61.7523 66.4764 62.8371 62.3201 62.8945 61.3149C62.952 60.3098 62.6648 56.4613 62.6216 55.5136C62.5785 54.5659 63.0237 51.6939 63.1242 50.9329C63.2247 50.1718 63.5693 46.9983 63.5693 46.2517C63.5693 45.505 63.4258 43.2218 62.9805 42.7049C62.5353 42.1881 51.7635 42.366 51.7635 42.366Z" fill="#28264A"/>
<path d="M69.4133 29.9664C69.5948 29.8426 69.8918 29.6117 69.9414 29.4507C69.9909 29.2899 70.1806 28.8609 70.3847 28.7576C70.589 28.6545 71.018 28.5225 71.216 28.4565C71.414 28.3905 71.909 28.1018 71.9997 28.0604C72.0905 28.0192 72.3833 27.9656 72.4618 28.1223C72.5402 28.2791 72.437 28.5926 72.2308 28.6709C72.0245 28.7493 71.5377 28.906 71.5831 29.0134C71.6285 29.1206 72.0947 29.2361 72.4618 29.0546C72.8289 28.8731 73.4642 28.7123 73.6128 28.6297C73.7612 28.5471 74.8549 28.0989 74.965 28.102C75.0751 28.1052 75.1915 28.1523 75.242 28.2563C75.2923 28.3601 75.6196 28.1052 75.7204 28.2783C75.8211 28.4513 75.5851 28.549 75.5725 28.6024C75.5598 28.6559 75.7047 28.7125 75.7077 28.8416C75.7109 28.9707 75.5189 29.043 75.2137 29.1816C74.9083 29.3202 73.5237 30.1937 73.3039 30.3091C73.084 30.4245 72.6336 30.6663 72.073 30.7157C71.5125 30.7651 70.8311 30.7926 70.6717 30.996C70.5124 31.1994 70.1381 31.7358 70.0392 31.7688C69.9403 31.8017 69.3082 31.9007 69.1545 31.5216C69.0006 31.1425 69.4133 29.9664 69.4133 29.9664Z" fill="#DABB92"/>
<path d="M45.5869 28.9965C45.4054 28.8727 45.1083 28.6418 45.0588 28.4808C45.0093 28.32 44.8197 27.8909 44.6154 27.7879C44.4111 27.6847 43.9821 27.5528 43.7842 27.4868C43.5862 27.4208 43.0911 27.132 43.0004 27.0907C42.9097 27.0495 42.6167 26.9958 42.5384 27.1526C42.46 27.3093 42.5631 27.6228 42.7694 27.7012C42.9757 27.7796 43.4625 27.9363 43.4171 28.0435C43.3718 28.1508 42.9056 28.2663 42.5384 28.0848C42.1713 27.9033 41.536 27.7423 41.3874 27.6598C41.239 27.5774 40.1453 27.1291 40.0352 27.1322C39.9251 27.1353 39.8086 27.1825 39.7582 27.2864C39.7079 27.3903 39.3806 27.1353 39.2798 27.3084C39.1792 27.4815 39.4152 27.5791 39.4277 27.6326C39.4404 27.686 39.2955 27.7427 39.2924 27.8718C39.2893 28.0009 39.4812 28.0732 39.7865 28.2117C40.0918 28.3502 41.4765 29.2239 41.6963 29.3392C41.9161 29.4546 42.3666 29.6965 42.9272 29.7459C43.4877 29.7953 44.169 29.8228 44.3284 30.026C44.4878 30.2294 44.6032 30.4822 44.7021 30.5151C44.801 30.5482 45.4331 30.6469 45.5869 30.2679C45.7406 29.8889 45.5869 28.9965 45.5869 28.9965Z" fill="#DABB92"/>
<path d="M55.7672 23.1176C55.0057 23.2089 52.0086 23.5763 51.4815 24.6745C50.9543 25.7728 50.4871 28.3973 50.2408 29.136C49.9945 29.8747 49.5144 31.6107 49.3051 31.6107C49.0958 31.6107 45.6485 28.9389 45.5746 28.9389C45.5007 28.9389 45.6607 29.5792 45.2545 29.9978C44.8483 30.4164 44.5527 30.3056 44.6266 30.5149C44.7005 30.7242 46.5719 32.9773 47.0644 33.6299C47.5569 34.2825 49.6614 36.0061 50.1913 35.9815C50.7212 35.9569 52.5064 33.3221 52.6418 33.3221C52.7772 33.3221 52.4745 37.5205 52.2416 38.4096C52.0088 39.2988 50.9919 43.1773 51.267 43.5161C51.5423 43.8549 54.4837 44.8611 56.7702 44.9245C59.0567 44.988 63.6903 44.146 63.775 43.5531C63.8597 42.9604 62.8231 39.6957 62.8231 38.3831C62.8231 37.0706 62.5307 32.4036 62.7217 32.3743C62.9128 32.3449 64.1918 35.932 65.4414 35.8585C66.691 35.785 69.2637 33.1828 69.5431 32.683C69.8225 32.1831 70.3665 31.6539 70.2194 31.5804C70.0724 31.5069 69.5431 31.0218 69.5431 30.6543C69.5431 30.2868 69.5872 29.8163 69.4255 29.8898C69.2637 29.9633 68.2053 30.9042 67.7643 31.1542C67.3231 31.404 66.6175 31.801 66.5294 31.654C66.4412 31.507 65.0887 28.9637 64.9858 28.4492C64.8829 27.9347 64.2065 24.4799 63.6333 24.1711C63.0599 23.8624 60.3908 22.9073 59.9286 22.9067C59.466 22.906 55.7672 23.1176 55.7672 23.1176Z" fill="url(#paint5_linear)"/>
<path d="M55.7202 22.1686C55.7202 22.5245 55.91 23.0147 55.7676 23.1176C55.6252 23.2205 56.4399 25.4269 57.2308 25.4744C58.0216 25.5219 59.4294 23.3232 59.461 23.0781C59.4926 22.8329 59.3899 21.955 59.3662 21.9234C59.3423 21.8917 55.7202 22.1686 55.7202 22.1686Z" fill="#DABB92"/>
<path d="M54.6449 19.2186C54.5073 18.2664 54.2059 17.3715 54.4103 16.4407C54.6146 15.51 55.2823 14.3761 56.6606 14.2329C58.0389 14.0897 58.6957 14.6151 59.3757 15.4921C60.0558 16.3692 59.9664 19.1435 59.7874 19.3225C59.6084 19.5015 58.443 20.0563 57.1285 20.0742C55.8139 20.092 54.6449 19.2186 54.6449 19.2186Z" fill="#131B1F"/>
<path d="M55.1877 20.6362C55.1877 20.6362 55.4621 22.1369 55.6557 22.2982C55.8493 22.4596 56.8779 23.2826 57.5335 23.2502C58.1891 23.2179 59.5284 22.282 59.609 21.7495C59.6897 21.217 59.6116 20.1807 59.661 20.2004C59.7104 20.2201 60.0757 20.2596 60.1448 19.6968C60.214 19.134 60.1942 18.2551 59.977 18.2453C59.7598 18.2354 59.6511 19.0549 59.5326 19.0549C59.414 19.0549 59.3996 17.8617 59.1875 17.5998C58.9754 17.3378 57.5659 17.0635 57.3664 17.0635C57.1668 17.0635 56.2562 18.2484 55.0837 18.4356C55.0837 18.4356 55.3206 19.3711 55.1461 19.3836C54.9714 19.3961 54.7345 18.6351 54.5723 18.6351C54.4102 18.6351 54.3728 19.4085 54.4476 19.9199C54.5224 20.4314 54.8093 20.7183 54.9091 20.7183C55.0089 20.7184 55.0796 20.5667 55.1877 20.6362Z" fill="#DABB92"/>
<path d="M61.1831 70.1213C61.3461 70.3623 61.3218 70.9774 61.6413 71.5682C61.9609 72.1591 62.2081 72.6715 62.2201 73.0936C62.2322 73.5156 61.792 74.203 61.1831 74.2994C60.5741 74.3958 59.8808 74.432 59.5733 74.2692C59.2658 74.1064 58.898 73.8291 58.898 73.3769C58.898 72.9248 58.9703 72.0505 58.898 71.8999C58.8257 71.7492 58.7533 71.3029 58.7533 71.0799C58.7533 70.8569 58.699 70.1996 58.8256 70.0368C58.9522 69.874 59.4526 69.5425 59.953 69.5484C60.4535 69.5545 61.0444 69.9162 61.1831 70.1213Z" fill="#28264A"/>
<path d="M54.7204 70.1213C54.5573 70.3623 54.5817 70.9774 54.2621 71.5682C53.9426 72.1591 53.6953 72.6715 53.6833 73.0936C53.6714 73.5156 54.1114 74.203 54.7204 74.2994C55.3293 74.3958 56.0227 74.432 56.3301 74.2692C56.6375 74.1064 57.0053 73.8291 57.0053 73.3769C57.0053 72.9248 56.933 72.0505 57.0053 71.8999C57.0776 71.7492 57.15 71.3029 57.15 71.0799C57.15 70.8569 57.2043 70.1996 57.0777 70.0368C56.9511 69.874 56.4507 69.5425 55.9504 69.5484C55.45 69.5545 54.8591 69.9162 54.7204 70.1213Z" fill="#28264A"/>
<path opacity="0.3" d="M43.1554 28.7178L20.5279 19.9123C19.8302 19.6408 19.4847 18.8551 19.7563 18.1574L26.4859 0.864306C26.7574 0.166594 27.5431 -0.178904 28.2408 0.0926995L50.8683 8.89821C51.566 9.16968 51.9115 9.95539 51.6399 10.6531L44.9103 27.9462C44.6388 28.6439 43.8531 28.9892 43.1554 28.7178Z" fill="#F56D06"/>
<path d="M23.0933 13.8073L27.6727 2.0394C27.8355 1.62093 28.3068 1.41374 28.7253 1.57655L49.508 9.66419C49.9264 9.827 50.1336 10.2983 49.9708 10.7168L45.3914 22.4846L41.8425 12.2089C41.5786 11.445 40.682 11.1135 39.9847 11.522L32.5964 15.8502C31.9488 16.2296 31.1169 15.9045 30.8981 15.1866L29.8261 11.6692C29.5685 10.8245 28.583 10.4502 27.8296 10.9108L23.0933 13.8073Z" fill="#F56D06"/>
<path d="M36.5641 9.16406C36.1002 10.3561 34.7577 10.9465 33.5657 10.4826C32.3735 10.0187 31.7833 8.67618 32.2472 7.48413C32.7111 6.29207 34.0536 5.70171 35.2458 6.16562C36.4377 6.62954 37.028 7.97201 36.5641 9.16406Z" fill="white"/>
<defs>
<linearGradient id="paint0_linear" x1="24.9986" y1="68.7401" x2="24.9986" y2="44.936" gradientUnits="userSpaceOnUse">
<stop stop-color="#E62129"/>
<stop offset="0.450992" stop-color="#EF4507"/>
<stop offset="1" stop-color="#F56D06"/>
</linearGradient>
<linearGradient id="paint1_linear" x1="22.1336" y1="54.509" x2="47.6847" y2="64.2823" gradientUnits="userSpaceOnUse">
<stop stop-color="#FFD3A5"/>
<stop offset="1" stop-color="#FD6585"/>
</linearGradient>
<linearGradient id="paint2_linear" x1="95.5055" y1="72.1692" x2="95.5055" y2="58.6921" gradientUnits="userSpaceOnUse">
<stop stop-color="#E62129"/>
<stop offset="0.450992" stop-color="#EF4507"/>
<stop offset="1" stop-color="#F56D06"/>
</linearGradient>
<linearGradient id="paint3_linear" x1="95.2012" y1="64.1121" x2="109.668" y2="69.6454" gradientUnits="userSpaceOnUse">
<stop stop-color="#FFD3A5"/>
<stop offset="1" stop-color="#FD6585"/>
</linearGradient>
<linearGradient id="paint4_linear" x1="57.5" y1="60.6613" x2="57.5" y2="92.6263" gradientUnits="userSpaceOnUse">
<stop stop-color="#D1D0D0"/>
<stop offset="0.4764" stop-color="#ECE9E9"/>
<stop offset="1" stop-color="white"/>
</linearGradient>
<linearGradient id="paint5_linear" x1="51.4182" y1="27.058" x2="81.9642" y2="74.2664" gradientUnits="userSpaceOnUse">
<stop stop-color="#FFD3A5"/>
<stop offset="1" stop-color="#FD6585"/>
</linearGradient>
</defs>
</svg>
