<svg width="193" height="163" viewBox="0 0 193 163" fill="none" xmlns="http://www.w3.org/2000/svg">
<path opacity="0.1" d="M192.068 158.898C192.068 160.584 149.073 161.95 96.0342 161.95C42.9963 161.95 0 160.584 0 158.898C0 157.213 42.9958 155.847 96.0342 155.847C149.073 155.847 192.068 157.213 192.068 158.898Z" fill="#90C8CC"/>
<path opacity="0.1" d="M161.179 148.978C178.754 148.978 193 147.612 193 145.927C193 144.242 178.754 142.876 161.179 142.876C143.605 142.876 129.358 144.242 129.358 145.927C129.358 147.612 143.605 148.978 161.179 148.978Z" fill="#90C8CC"/>
<path d="M64.7684 96.8475C67.2794 97.5013 76.79 97.1182 74.9733 92.4253C72.9535 87.2075 67.5618 91.7689 65.2488 94.661C66.1257 90.0463 66.2459 85.3458 66.2331 82.8308C67.9429 80.7762 71.5553 67.7232 64.44 68.3699C55.1161 69.2176 63.3769 81.5727 65.5246 82.9755C65.523 85.9863 65.3225 91.9515 63.9596 97.1274C63.67 93.8378 60.3897 84.4827 56.0303 87.782C49.706 92.5675 61.8063 98.344 63.6419 98.2442C63.0658 100.132 62.3194 101.873 61.3453 103.265C60.6439 104.267 59.8683 105.427 59.0651 106.69C59.0508 106.706 59.0365 106.721 59.0227 106.736C58.617 103.274 55.3847 94.3796 51.1169 97.6093C45.2126 102.077 55.3673 107.408 58.2358 108.016C56.457 110.91 54.6234 114.216 53.2089 117.404C53.0099 114.276 46.8732 107.882 44.4355 111.539C43.0767 113.577 50.2687 120.22 52.64 118.732C51.2873 122.035 50.4739 125.123 50.7558 127.376C50.8596 128.206 51.0116 129.187 51.187 130.248C49.5064 128.39 43.4363 122.159 41.6278 126.981C40.1288 130.978 45.1374 133.298 47.2431 133.298C48.891 133.298 50.6381 131.739 51.3226 131.059C51.4198 131.634 51.5216 132.225 51.6255 132.828C52.4732 137.748 53.4892 143.67 53.191 147.232C51.7575 144.45 45.3523 132.869 41.6278 140.317C39.7185 144.136 45.1374 147.336 47.2431 148.038C48.9708 148.614 52.0603 148.096 53.1163 147.892C53.0574 148.293 52.9822 148.664 52.8768 148.98C51.5047 153.096 48.7339 157.278 48.7063 157.319C48.5989 157.481 48.6423 157.699 48.8035 157.806C48.8634 157.846 48.9309 157.865 48.9979 157.865C49.1115 157.865 49.223 157.81 49.2905 157.709C49.3146 157.672 51.3743 154.561 52.8492 151.033C54.5027 150.825 60.8593 149.958 62.6862 148.74C64.792 147.336 68.5619 142.723 65.4939 141.019C60.7457 138.381 55.7674 145.393 53.5869 149.039C54.3989 146.318 53.6801 140.874 52.8354 135.761C54.5354 136.27 60.0602 135.282 61.9843 134C64.0901 132.596 67.7198 128.959 65.4939 126.981C59.9134 122.021 54.0177 132.528 52.7172 135.049C52.5837 134.253 52.4486 133.469 52.3177 132.709C51.9662 130.67 51.6347 128.746 51.4526 127.288C51.1911 125.195 51.9703 122.186 53.3603 118.812C54.4689 119.163 58.2164 120.198 62.3348 119.61C67.2482 118.908 69.7396 115.082 67.9501 113.293C64.904 110.247 55.9035 116.557 53.5777 118.278C54.9938 114.958 56.9799 111.317 59.1572 107.844C62.0206 108.507 73.4283 108.263 71.8843 103.733C70.3418 99.208 64.5019 102.252 61.0701 104.906C61.3525 104.489 61.6354 104.073 61.9199 103.667C63.2183 101.812 64.1289 99.4014 64.7684 96.8475Z" fill="url(#paint0_linear)"/>
<path d="M44.4352 140.317C38.5431 137.96 37.1025 146.978 36.792 149.935C35.494 145.622 34.943 140.375 35.5298 136.102C36.4262 136.08 39.9014 135.916 42.3295 134.702C45.1371 133.298 46.8689 127.676 44.4352 126.981C40.347 125.813 36.7469 132.902 35.6526 135.317C35.7488 134.772 35.8629 134.244 36 133.742C36.8963 130.456 37.5455 126.223 37.8259 122.062C38.9345 122.042 42.0261 121.934 43.7333 121.365C45.8391 120.663 49.4044 115.164 46.541 114.346C42.595 113.218 39.1033 118.879 37.8811 121.153C38.1175 116.814 37.9384 112.638 37.2007 109.792C37.5164 108.542 38.118 105.889 38.118 103.817C38.118 101.01 34.8596 95.4827 31.8008 98.2019C26.2126 103.169 34.587 108.975 36.595 110.249C37.2734 113.052 37.4233 117.097 37.1803 121.295C35.9258 118.137 30.8564 106.773 24.7817 112.24C22.4483 114.34 27.5893 119.259 31.0989 120.663C33.8902 121.779 36.2711 122.016 37.1317 122.066C36.8492 126.154 36.2062 130.318 35.3226 133.556C35.1625 134.144 35.0336 134.766 34.9287 135.409C33.598 132.724 27.4057 121.307 20.5702 126.279C17.7318 128.343 23.3778 133.298 26.1855 134.702C28.5956 135.907 33.5019 135.97 34.8438 135.964C34.2611 140.22 34.7875 145.431 36.0517 149.8C33.9894 146.68 27.9607 138.671 23.3778 143.827C20.6587 146.886 27.6973 149.478 29.6951 150.144C31.4544 150.73 35.2172 150.905 36.4088 150.947C37.4074 153.961 38.7657 156.464 40.3501 157.784C40.4161 157.838 40.4954 157.865 40.5747 157.865C40.6755 157.865 40.7753 157.822 40.8448 157.739C40.9686 157.59 40.9487 157.369 40.7998 157.245C39.288 155.985 37.9927 153.598 37.0375 150.713C37.9512 150.333 40.608 149.186 42.3295 148.039C44.4352 146.634 47.6936 141.62 44.4352 140.317Z" fill="url(#paint1_linear)"/>
<path d="M59.5263 157.865H27.5887C27.3949 157.865 27.2378 157.708 27.2378 157.514C27.2378 157.32 27.3949 157.163 27.5887 157.163H59.5263C59.7202 157.163 59.8773 157.32 59.8773 157.514C59.8773 157.708 59.7202 157.865 59.5263 157.865Z" fill="#5F5D5D"/>
<path d="M70.7572 157.865H63.3871C63.1932 157.865 63.0361 157.708 63.0361 157.514C63.0361 157.32 63.1932 157.163 63.3871 157.163H70.7572C70.9511 157.163 71.1081 157.32 71.1081 157.514C71.1081 157.708 70.9516 157.865 70.7572 157.865Z" fill="#5F5D5D"/>
<path d="M177.052 103.769C178.787 104.221 185.358 103.956 184.103 100.713C182.707 97.1078 178.982 100.259 177.384 102.258C177.99 99.0698 178.073 95.8216 178.064 94.0842C179.245 92.6645 181.741 83.6461 176.825 84.0932C170.383 84.679 176.09 93.2155 177.574 94.1845C177.573 96.2647 177.434 100.386 176.492 103.962C176.292 101.689 174.026 95.2256 171.014 97.5053C166.644 100.812 175.005 104.803 176.272 104.734C175.874 106.039 175.359 107.242 174.686 108.203C174.201 108.895 173.665 109.697 173.111 110.569C173.101 110.58 173.091 110.591 173.082 110.601C172.801 108.209 170.568 102.064 167.619 104.295C163.54 107.382 170.556 111.065 172.538 111.485C171.308 113.485 170.042 115.769 169.065 117.971C168.927 115.81 164.687 111.393 163.003 113.919C162.064 115.327 167.033 119.917 168.671 118.889C167.736 121.171 167.175 123.305 167.369 124.861C167.441 125.435 167.546 126.112 167.667 126.845C166.506 125.561 162.312 121.257 161.063 124.588C160.027 127.35 163.488 128.953 164.943 128.953C166.081 128.953 167.288 127.876 167.761 127.406C167.828 127.803 167.899 128.212 167.97 128.629C168.556 132.028 169.258 136.12 169.052 138.581C168.061 136.659 163.636 128.657 161.063 133.803C159.743 136.442 163.488 138.653 164.943 139.138C166.136 139.536 168.271 139.179 169.001 139.037C168.96 139.314 168.908 139.571 168.835 139.789C167.887 142.633 165.973 145.522 165.953 145.551C165.879 145.663 165.909 145.813 166.021 145.887C166.062 145.915 166.109 145.928 166.155 145.928C166.233 145.928 166.311 145.89 166.357 145.82C166.374 145.795 167.797 143.645 168.816 141.208C169.958 141.064 174.35 140.465 175.612 139.623C177.067 138.653 179.672 135.466 177.552 134.288C174.272 132.466 170.832 137.31 169.325 139.829C169.886 137.949 169.389 134.187 168.806 130.656C169.981 131.008 173.798 130.325 175.127 129.439C176.582 128.469 179.09 125.956 177.552 124.589C173.697 121.162 169.623 128.422 168.725 130.163C168.633 129.614 168.539 129.072 168.449 128.547C168.207 127.139 167.977 125.808 167.852 124.801C167.671 123.355 168.209 121.276 169.17 118.945C169.936 119.188 172.525 119.904 175.37 119.497C178.765 119.012 180.486 116.368 179.25 115.132C177.146 113.027 170.927 117.388 169.32 118.576C170.299 116.282 171.671 113.766 173.176 111.367C175.154 111.825 183.036 111.657 181.969 108.527C180.903 105.401 176.868 107.504 174.498 109.338C174.693 109.05 174.889 108.762 175.085 108.481C175.981 107.199 176.61 105.533 177.052 103.769Z" fill="url(#paint2_linear)"/>
<path d="M163.003 133.803C158.932 132.174 157.937 138.405 157.722 140.448C156.825 137.468 156.445 133.843 156.85 130.89C157.47 130.875 159.871 130.761 161.548 129.923C163.488 128.953 164.685 125.068 163.003 124.588C160.179 123.781 157.692 128.679 156.935 130.347C157.002 129.971 157.081 129.607 157.175 129.259C157.794 126.989 158.243 124.064 158.437 121.19C159.203 121.176 161.339 121.101 162.518 120.708C163.973 120.223 166.437 116.423 164.458 115.858C161.732 115.079 159.32 118.99 158.475 120.561C158.639 117.563 158.515 114.678 158.005 112.712C158.223 111.847 158.639 110.014 158.639 108.584C158.639 106.644 156.388 102.825 154.274 104.704C150.413 108.135 156.199 112.147 157.587 113.027C158.055 114.964 158.159 117.759 157.991 120.659C157.124 118.477 153.622 110.625 149.424 114.403C147.812 115.854 151.364 119.253 153.789 120.223C155.717 120.994 157.363 121.158 157.957 121.192C157.762 124.016 157.318 126.893 156.707 129.131C156.597 129.537 156.508 129.966 156.435 130.411C155.516 128.556 151.237 120.668 146.514 124.102C144.553 125.529 148.454 128.952 150.394 129.922C152.059 130.755 155.449 130.798 156.376 130.794C155.974 133.734 156.337 137.334 157.211 140.353C155.786 138.198 151.62 132.664 148.454 136.226C146.575 138.34 151.438 140.131 152.819 140.591C154.034 140.996 156.634 141.117 157.457 141.146C158.147 143.228 159.086 144.957 160.18 145.869C160.226 145.907 160.281 145.926 160.335 145.926C160.405 145.926 160.474 145.896 160.522 145.839C160.608 145.736 160.594 145.583 160.491 145.497C159.446 144.627 158.552 142.977 157.892 140.984C158.523 140.721 160.359 139.929 161.548 139.136C163.003 138.168 165.255 134.703 163.003 133.803Z" fill="url(#paint3_linear)"/>
<path d="M173.43 145.927H151.364C151.23 145.927 151.122 145.818 151.122 145.684C151.122 145.55 151.23 145.442 151.364 145.442H173.43C173.564 145.442 173.673 145.55 173.673 145.684C173.673 145.818 173.564 145.927 173.43 145.927Z" fill="#5F5D5D"/>
<path d="M181.19 145.927H176.097C175.963 145.927 175.855 145.818 175.855 145.684C175.855 145.55 175.963 145.442 176.097 145.442H181.19C181.324 145.442 181.432 145.55 181.432 145.684C181.432 145.818 181.324 145.927 181.19 145.927Z" fill="#5F5D5D"/>
<path d="M94.7481 13.4538C94.192 12.1099 93.6589 8.33273 94.0068 5.96915C94.3542 3.60556 96.5259 0.102138 100.404 0.00391081C104.282 -0.0948277 107.535 1.68195 108.718 4.67122C109.901 7.661 108.563 13.0077 108.277 13.2947C107.989 13.5812 94.7481 13.4538 94.7481 13.4538Z" fill="#131B1F"/>
<path d="M129.948 44.6829C130.273 44.888 131.372 44.9003 132.254 44.5135C133.135 44.1273 137.394 42.2472 139.671 40.6019C141.949 38.9566 142.79 38.3058 143.077 37.2724C143.364 36.2389 144.244 35.6271 145.239 34.7661C146.234 33.905 148.054 32.7094 149.19 31.3834C150.327 30.0573 151.046 29.7544 151.564 30.2722C152.082 30.7899 151.198 32.0904 150.68 32.5959C150.162 33.1013 148.508 34.1741 148.508 34.7425C148.508 35.3109 149.19 35.7908 149.847 35.8409C150.503 35.8916 153.381 36.0906 154.163 36.066C154.944 36.0415 157.734 35.4583 158.516 35.669C159.297 35.8798 159.979 35.9294 160.041 36.4753C160.104 37.0212 159.086 37.3159 158.789 37.4289C158.491 37.542 154.969 39.2037 154.3 39.6503C153.63 40.0969 152.898 40.9155 151.794 41.2004C150.691 41.4859 146.671 42.2681 146.023 42.172C145.375 42.0758 144.427 42.2078 144.031 42.616C143.635 43.0243 138.046 48.0062 135.937 49.6142C133.829 51.2221 129.9 54.3327 127.976 54.4907C126.052 54.6488 122.93 51.15 122.311 49.5226C121.693 47.8957 129.948 44.6829 129.948 44.6829Z" fill="#DABB92"/>
<path d="M73.492 44.6829C73.1661 44.888 72.0672 44.9003 71.1857 44.5135C70.3042 44.1273 66.0451 42.2472 63.768 40.6019C61.4909 38.9566 60.6493 38.3058 60.3623 37.2724C60.0753 36.2389 59.1953 35.6271 58.2003 34.7661C57.2052 33.905 55.386 32.7094 54.2497 31.3834C53.1135 30.0573 52.3936 29.7544 51.8759 30.2722C51.3582 30.7899 52.2422 32.0904 52.76 32.5959C53.2777 33.1008 54.9317 34.1741 54.9317 34.7425C54.9317 35.3109 54.2497 35.7908 53.5933 35.8409C52.9365 35.8916 50.0587 36.0906 49.2775 36.066C48.4963 36.0415 45.706 35.4583 44.9248 35.669C44.1436 35.8798 43.4616 35.9294 43.3992 36.4753C43.3368 37.0212 44.3544 37.3159 44.6516 37.4289C44.9494 37.542 48.4712 39.2037 49.1409 39.6503C49.8106 40.0969 50.5422 40.9155 51.6462 41.2004C52.7502 41.4859 56.7699 42.2681 57.4175 42.172C58.0657 42.0758 59.0137 42.2078 59.4097 42.616C59.8057 43.0243 65.3944 48.0062 67.5032 49.6142C69.612 51.2221 73.5401 54.3327 75.4642 54.4907C77.3888 54.6488 80.2067 52.3574 80.8247 50.7295C81.4422 49.1026 73.492 44.6829 73.492 44.6829Z" fill="#DABB92"/>
<path d="M115.177 144.21C115.318 144.45 115.702 144.684 115.62 145.869C115.537 147.054 111.58 148.054 110.982 147.724C110.385 147.394 109.663 147.672 109.673 146.879C109.684 146.085 110.899 143.884 110.973 143.735C111.047 143.587 115.177 144.21 115.177 144.21Z" fill="#DABB92"/>
<path d="M110.778 144.093C110.243 144.35 109.368 145.324 109.279 146.627C109.19 147.93 109.029 149.026 109.229 150.2C109.428 151.375 109.064 152.772 109.182 153.395C109.299 154.017 110.28 155.456 110.941 155.822C111.602 156.187 111.863 156.309 111.985 156.814C112.107 157.318 111.776 160.641 114.404 161.042C117.032 161.442 120.111 161.599 121.225 160.259C122.338 158.919 120.877 155.248 120.059 154.256C119.241 153.264 117.588 151.472 117.466 151.02C117.344 150.567 117.153 148.044 116.857 147.296C116.561 146.548 115.813 146.461 115.761 146.165C115.709 145.869 115.727 145.616 115.581 145.597C115.435 145.577 112.639 145.277 111.793 145.946C110.948 146.614 110.233 146.834 110.102 146.655C109.83 146.284 110.913 144.028 110.778 144.093Z" fill="#28264A"/>
<path d="M91.1122 145.275C90.971 145.516 90.5868 145.749 90.6692 146.934C90.7515 148.119 94.7093 149.119 95.3068 148.789C95.9044 148.459 96.6262 148.737 96.6155 147.944C96.6052 147.15 95.3902 144.95 95.3155 144.801C95.2413 144.652 91.1122 145.275 91.1122 145.275Z" fill="#DABB92"/>
<path d="M86.8594 80.3877C86.9433 82.8173 86.0214 95.3852 86.8594 100.412C87.6974 105.439 88.7523 111.919 88.1281 116.524C87.5045 121.13 86.885 125.737 87.4109 129.287C87.9363 132.838 89.664 139.939 89.1841 142.002C88.7042 144.065 89.4772 145.382 91.739 145.669C94.0008 145.955 95.3463 145.268 95.8328 144.552C96.3193 143.837 95.4036 133.244 95.9474 130.839C96.4912 128.434 96.8238 123.9 96.6964 120.63C96.569 117.359 99.1178 111.114 99.2876 108.098C99.4575 105.083 101.153 97.4792 101.728 94.5907C102.304 91.7022 102.474 89.8758 102.814 89.8758C103.153 89.8758 105.66 100.24 105.999 103.086C106.339 105.932 107.911 114.343 108.336 115.957C108.76 117.571 109.143 119.015 108.93 121.225C108.718 123.434 109.058 126.789 109.78 129.932C110.502 133.076 110.332 139.448 110.205 140.722C110.077 141.996 109.734 143.516 109.968 144.117C110.202 144.718 111.87 145.185 113.472 145.252C115.074 145.319 116.342 144.484 116.476 143.817C116.609 143.149 116.209 141.347 116.743 138.143C117.277 134.939 118.445 127.596 118.478 124.693C118.511 121.789 118.111 118.752 117.611 116.116C117.11 113.479 117.076 110.542 117.577 107.906C118.078 105.269 119.213 97.5257 119.279 94.3221C119.346 91.1185 119.479 85.2776 118.211 80.6384C116.943 75.9977 86.8594 80.3877 86.8594 80.3877Z" fill="#28264A"/>
<path d="M96.8837 22.296C95.9659 22.1251 95.6032 22.9002 95.0272 22.9821C94.4511 23.0639 85.4147 24.8248 83.9173 26.6139C82.4203 28.403 79.2796 33.0406 77.7095 36.3634C76.1394 39.6863 75.4166 41.7971 75.0242 42.7937C74.6318 43.7903 73.2428 44.4845 73.3333 44.7567C73.4239 45.0284 74.2997 46.9612 76.3226 48.4407C78.346 49.9203 80.4896 51.1282 80.882 50.9471C81.2744 50.766 83.4788 46.9914 83.8712 46.9914C84.2636 46.9914 84.6622 75.1052 84.6622 76.9081C84.6622 78.711 84.0789 81.5749 84.609 81.734C85.1395 81.8931 94.4091 82.7357 103.005 82.3986C111.601 82.0614 119.017 81.7243 120.449 80.3762C121.881 79.0282 118.679 51.1338 118.679 49.3642C118.679 47.5946 118.409 44.2543 118.88 44.9071C119.351 45.5599 121.29 49.468 122.414 49.929C123.538 50.3899 126.42 48.7763 128.207 47.306C129.994 45.8362 130.599 45.0289 130.657 44.4237C130.715 43.8184 127.429 38.9762 126.91 37.5063C126.391 36.0365 122.99 29.3494 121.693 27.7358C120.396 26.1217 118.811 24.8827 116.909 24.3925C115.007 23.9024 109.703 22.8363 109.3 22.6633C108.896 22.4904 108.061 22.3175 107.311 22.5191C106.563 22.7211 96.8837 22.296 96.8837 22.296Z" fill="url(#paint4_linear)"/>
<path d="M96.1651 17.1067C96.1651 18.0547 97.1125 22.0984 96.1651 22.4918C95.2498 22.8719 97.0445 26.0372 101.939 25.8325C106.834 25.6274 108.832 23.3467 107.749 22.3296C106.934 21.5643 107.646 17.4398 107.185 16.3378C106.724 15.2358 96.1651 17.1067 96.1651 17.1067Z" fill="#DABB92"/>
<path d="M94.8042 12.5444C94.861 13.2954 93.739 12.0118 93.5615 12.5444C93.384 13.077 94.0941 15.9174 94.6266 16.2729C95.1592 16.628 95.7445 16.7538 95.9435 17.069C96.1425 17.3841 97.9367 22.9831 101.628 22.9831C106.13 22.9831 107.216 16.5477 107.482 16.5308C107.748 16.5139 109.062 16.2647 109.361 14.7847C109.66 13.3046 109.744 11.2925 109.361 11.2925C108.979 11.2925 108.28 11.5084 108.131 12.1239C107.981 12.7393 108.782 8.73606 107.427 6.74441C106.072 4.75327 103.104 4.6709 101.268 4.6709C99.4326 4.6709 96.0514 5.01879 95.3127 7.09229C94.5729 9.16631 94.664 10.6868 94.8042 12.5444Z" fill="#DABB92"/>
<path d="M95.51 145.158C96.0446 145.414 96.92 146.389 97.009 147.692C97.098 148.995 97.2587 150.09 97.0591 151.265C96.8596 152.44 97.2234 153.837 97.1062 154.459C96.989 155.082 96.0078 156.521 95.3468 156.887C94.6858 157.252 94.4244 157.374 94.3026 157.879C94.1809 158.383 94.5114 161.706 91.8843 162.107C89.2567 162.507 86.1769 162.664 85.0637 161.324C83.9499 159.984 85.4116 156.313 86.2296 155.321C87.0477 154.329 88.7006 152.536 88.8224 152.084C88.9442 151.632 89.1355 149.109 89.4312 148.361C89.7269 147.612 90.4754 147.525 90.5276 147.23C90.5797 146.934 90.5618 146.681 90.7071 146.661C90.8529 146.642 93.6493 146.341 94.495 147.01C95.3407 147.679 96.0549 147.898 96.1863 147.72C96.4585 147.349 95.375 145.093 95.51 145.158Z" fill="#28264A"/>
<defs>
<linearGradient id="paint0_linear" x1="50.2455" y1="85.2218" x2="159.665" y2="140.369" gradientUnits="userSpaceOnUse">
<stop stop-color="#FFD3A5"/>
<stop offset="1" stop-color="#FD6585"/>
</linearGradient>
<linearGradient id="paint1_linear" x1="34.5922" y1="110.991" x2="17.9561" y2="184.167" gradientUnits="userSpaceOnUse">
<stop stop-color="#FFAA85"/>
<stop offset="1" stop-color="#B3315F"/>
</linearGradient>
<linearGradient id="paint2_linear" x1="173.275" y1="97.9239" x2="153.07" y2="171.164" gradientUnits="userSpaceOnUse">
<stop stop-color="#FFAA85"/>
<stop offset="1" stop-color="#B3315F"/>
</linearGradient>
<linearGradient id="paint3_linear" x1="155.587" y1="153.493" x2="155.587" y2="108.18" gradientUnits="userSpaceOnUse">
<stop stop-color="#E62129"/>
<stop offset="0.450992" stop-color="#EF4507"/>
<stop offset="1" stop-color="#F56D06"/>
</linearGradient>
<linearGradient id="paint4_linear" x1="88.5466" y1="33.621" x2="177.635" y2="146.27" gradientUnits="userSpaceOnUse">
<stop stop-color="#FFD3A5"/>
<stop offset="1" stop-color="#FD6585"/>
</linearGradient>
</defs>
</svg>
