<svg width="29" height="33" viewBox="0 0 29 33" fill="none" xmlns="http://www.w3.org/2000/svg">
<path d="M19.5116 28.0551H19.3695L19.3618 28.197C19.2214 30.7921 17.0969 32.85 14.5 32.85C11.9031 32.85 9.77865 30.7921 9.63816 28.197L9.63048 28.0551H9.48838H1.6745C0.832917 28.0551 0.15 27.3682 0.15 26.5145V24.8205C0.15 23.0342 1.58388 21.5859 3.34732 21.5859V21.4359V21.2859C3.44443 21.3216 3.4962 21.4176 3.49681 21.4236L3.49717 21.4295L3.49722 21.4311L3.49724 21.4316L3.49723 21.4311L3.49721 21.4295L3.49712 21.4158L3.49695 21.3595L3.49664 21.1449L3.49622 20.3781C3.49601 19.7435 3.49593 18.8973 3.49592 18.0511L3.49603 15.724L3.49611 14.9571L3.49614 14.7423L3.49615 14.6857L3.49615 14.6712L3.49615 14.6675V14.6666L3.49615 14.6663L3.34615 14.6662L3.49615 14.6663V14.6662C3.49615 9.96045 6.40542 5.83588 10.6491 4.23504L10.7462 4.19843V4.0947V3.94604C10.7462 1.84872 12.4308 0.15 14.5 0.15C16.5715 0.15 18.2538 1.84763 18.2538 3.94604V4.09479V4.19852L18.3509 4.23514C22.5945 5.83618 25.5038 9.96146 25.5038 14.6662V21.4349V21.5848L25.6538 21.5849C27.4134 21.5859 28.85 23.0337 28.85 24.8205V26.5145C28.85 27.3645 28.1646 28.0551 27.3255 28.0551H19.5116ZM17.424 28.2198L17.4401 28.0551H17.2747H11.7253H11.5599L11.576 28.2198C11.7233 29.7197 12.9748 30.8936 14.5 30.8936C16.0252 30.8936 17.2767 29.7197 17.424 28.2198ZM26.7692 26.0987H26.9192V25.9487V24.8205C26.9192 24.1181 26.351 23.5423 25.6527 23.5423C24.5046 23.5423 23.5731 22.6032 23.5731 21.4349V14.6662C23.5731 10.5526 20.8727 6.97334 17.0213 5.84955L16.3231 5.64581V3.94604C16.3231 2.93156 15.5086 2.10641 14.5 2.10641C13.4934 2.10641 12.6769 2.93296 12.6769 3.94604V5.64579L11.9786 5.84951C8.1271 6.97317 5.42692 10.5516 5.42692 14.6662V21.4349C5.42692 22.5996 4.4929 23.5423 3.34732 23.5423C2.64723 23.5423 2.08077 24.1177 2.08077 24.8205V25.9487V26.0987H2.23077H26.7692Z" fill="#EF4507" stroke="white" stroke-width="0.3"/>
</svg>
