<svg width="16" height="18" viewBox="0 0 16 18" fill="none" xmlns="http://www.w3.org/2000/svg">
<path d="M10.765 15.3846C10.6852 16.8425 9.47778 18 8 18C6.52222 18 5.3148 16.8425 5.23497 15.3846H0.923861C0.413104 15.3846 0 14.9726 0 14.4625V13.5385C0 12.5198 0.827281 11.6923 1.8468 11.6923C1.8456 11.6923 1.84615 7.99977 1.84615 7.99977C1.84615 5.39895 3.47257 3.11868 5.84615 2.23347V2.15239C5.84615 0.964014 6.81183 0 8 0C9.18944 0 10.1538 0.963434 10.1538 2.15239V2.23352C12.5274 3.11885 14.1538 5.3995 14.1538 7.99977V11.6918C15.1712 11.6923 16 12.5195 16 13.5385V14.4625C16 14.9705 15.5855 15.3846 15.0761 15.3846H10.765ZM9.53087 15.3846H6.46914C6.54632 16.1621 7.20225 16.7692 8 16.7692C8.79775 16.7692 9.45368 16.1621 9.53087 15.3846ZM14.7692 14.1538V13.5385C14.7692 13.1998 14.492 12.9231 14.1532 12.9231C13.4732 12.9231 12.9231 12.3733 12.9231 11.6918V7.99977C12.9231 5.792 11.4572 3.87191 9.36789 3.26921L8.92308 3.14089V2.15239C8.92308 1.64345 8.50998 1.23077 8 1.23077C7.49109 1.23077 7.07692 1.64422 7.07692 2.15239V3.14088L6.63208 3.26918C4.5427 3.87182 3.07692 5.79147 3.07692 7.99977V11.6918C3.07692 12.3713 2.5255 12.9231 1.8468 12.9231C1.50709 12.9231 1.23077 13.1995 1.23077 13.5385V14.1538H14.7692Z" fill="#332C2B"/>
</svg>
