<svg width="28" height="32" viewBox="0 0 28 32" fill="none" xmlns="http://www.w3.org/2000/svg">
<path d="M18.8388 27.3504C18.6991 29.9422 16.5861 32 14 32C11.4139 32 9.3009 29.9422 9.1612 27.3504H1.61676C0.722932 27.3504 0 26.6179 0 25.711V24.0684C0 22.2574 1.44774 20.7863 3.23189 20.7863C3.2298 20.7863 3.23077 14.2218 3.23077 14.2218C3.23077 9.59814 6.07699 5.54432 10.2308 3.97062V3.82646C10.2308 1.7138 11.9207 0 14 0C16.0815 0 17.7692 1.71277 17.7692 3.82646V3.97071C21.9229 5.54462 24.7692 9.59911 24.7692 14.2218V20.7854C26.5496 20.7863 28 22.2569 28 24.0684V25.711C28 26.6143 27.2747 27.3504 26.3832 27.3504H18.8388ZM16.679 27.3504H11.321C11.4561 28.7325 12.6039 29.812 14 29.812C15.3961 29.812 16.5439 28.7325 16.679 27.3504ZM25.8462 25.1624V24.0684C25.8462 23.4662 25.361 22.9744 24.7681 22.9744C23.578 22.9744 22.6154 21.9969 22.6154 20.7854V14.2218C22.6154 10.2969 20.0501 6.8834 16.3938 5.81192L15.6154 5.5838V3.82646C15.6154 2.92168 14.8925 2.18803 14 2.18803C13.1094 2.18803 12.3846 2.92307 12.3846 3.82646V5.58378L11.6061 5.81188C7.94973 6.88324 5.38462 10.2959 5.38462 14.2218V20.7854C5.38462 21.9935 4.41963 22.9744 3.23189 22.9744C2.6374 22.9744 2.15385 23.4657 2.15385 24.0684V25.1624H25.8462Z" fill="#332C2B"/>
</svg>
