<svg width="1440" height="900" viewBox="0 0 1440 900" fill="none" xmlns="http://www.w3.org/2000/svg">
<g clip-path="url(#clip0)">
<rect width="1440" height="900" fill="white"/>
<rect width="1440" height="900" fill="white"/>
<path d="M168.507 101.047C60.0071 162.047 155.007 320.047 -67.493 320.047C-166.628 320.047 -154.993 -151.953 5.00708 -206.953C140.007 -231.453 361.307 -250.453 405.007 -22.4526C428.007 97.5475 277.007 40.0473 168.507 101.047Z" fill="url(#paint0_linear)"/>
<path fill-rule="evenodd" clip-rule="evenodd" d="M1439.61 0V900.487H444C445.199 864.614 450.438 829.289 459.001 796.762C460.832 789.819 462.809 782.918 464.915 776.102C499.418 664.067 584.501 591.754 672.993 520.599C778.358 435.873 900.723 347.55 951.428 217.484C977.875 149.695 960.831 71.9127 968.05 0H1439.61Z" fill="url(#paint1_linear)"/>
<mask id="mask0" mask-type="alpha" maskUnits="userSpaceOnUse" x="651" y="656" width="774" height="18">
<path d="M1038.28 673.454C824.767 673.454 651.68 669.686 651.68 665.038C651.68 660.391 824.767 656.623 1038.28 656.623C1251.79 656.623 1424.88 660.391 1424.88 665.038C1424.88 669.686 1251.79 673.454 1038.28 673.454Z" fill="white"/>
</mask>
<g mask="url(#mask0)">
<path fill-rule="evenodd" clip-rule="evenodd" d="M651.68 673.454H1424.88V656.623H651.68V673.454Z" fill="#90C8CC"/>
</g>
<path fill-rule="evenodd" clip-rule="evenodd" d="M1114.55 212.079C1112.86 212.079 1111.48 213.455 1111.48 215.146C1111.48 216.838 1112.86 218.214 1114.55 218.214C1116.24 218.214 1117.61 216.838 1117.61 215.146C1117.61 213.455 1116.24 212.079 1114.55 212.079ZM1114.55 219.792C1111.98 219.792 1109.9 217.709 1109.9 215.146C1109.9 212.584 1111.98 210.501 1114.55 210.501C1117.11 210.501 1119.19 212.584 1119.19 215.146C1119.19 217.709 1117.11 219.792 1114.55 219.792Z" fill="#E26146"/>
<path fill-rule="evenodd" clip-rule="evenodd" d="M1346.33 305.704C1344.64 305.704 1343.26 307.08 1343.26 308.772C1343.26 310.463 1344.64 311.839 1346.33 311.839C1348.02 311.839 1349.4 310.463 1349.4 308.772C1349.4 307.08 1348.02 305.704 1346.33 305.704ZM1346.33 313.417C1343.77 313.417 1341.68 311.334 1341.68 308.772C1341.68 306.209 1343.77 304.126 1346.33 304.126C1348.89 304.126 1350.98 306.209 1350.98 308.772C1350.98 311.334 1348.89 313.417 1346.33 313.417Z" fill="#E26146"/>
<path fill-rule="evenodd" clip-rule="evenodd" d="M702.174 202.96C700.483 202.96 699.107 204.338 699.107 206.03C699.107 207.722 700.483 209.097 702.174 209.097C703.866 209.097 705.242 207.722 705.242 206.03C705.242 204.338 703.866 202.96 702.174 202.96ZM702.174 210.675C699.612 210.675 697.529 208.59 697.529 206.03C697.529 203.467 699.612 201.382 702.174 201.382C704.737 201.382 706.82 203.467 706.82 206.03C706.82 208.59 704.737 210.675 702.174 210.675Z" fill="#E26146"/>
<path fill-rule="evenodd" clip-rule="evenodd" d="M1252 176.312C1250.31 176.312 1248.94 177.688 1248.94 179.379C1248.94 181.071 1250.31 182.447 1252 182.447C1253.7 182.447 1255.07 181.071 1255.07 179.379C1255.07 177.688 1253.7 176.312 1252 176.312ZM1252 184.025C1249.44 184.025 1247.36 181.942 1247.36 179.379C1247.36 176.817 1249.44 174.734 1252 174.734C1254.57 174.734 1256.65 176.817 1256.65 179.379C1256.65 181.942 1254.57 184.025 1252 184.025Z" fill="#0094C6"/>
<path fill-rule="evenodd" clip-rule="evenodd" d="M1401.73 494.356C1400.04 494.356 1398.67 495.732 1398.67 497.426C1398.67 499.117 1400.04 500.493 1401.73 500.493C1403.43 500.493 1404.8 499.117 1404.8 497.426C1404.8 495.732 1403.43 494.356 1401.73 494.356ZM1401.73 502.071C1399.17 502.071 1397.09 499.988 1397.09 497.426C1397.09 494.863 1399.17 492.778 1401.73 492.778C1404.3 492.778 1406.38 494.863 1406.38 497.426C1406.38 499.988 1404.3 502.071 1401.73 502.071Z" fill="#0094C6"/>
<path fill-rule="evenodd" clip-rule="evenodd" d="M673.42 381.446C671.728 381.446 670.352 382.822 670.352 384.513C670.352 386.205 671.728 387.581 673.42 387.581C675.114 387.581 676.49 386.205 676.49 384.513C676.49 382.822 675.114 381.446 673.42 381.446ZM673.42 389.159C670.857 389.159 668.774 387.076 668.774 384.513C668.774 381.951 670.857 379.868 673.42 379.868C675.983 379.868 678.068 381.951 678.068 384.513C678.068 387.076 675.983 389.159 673.42 389.159Z" fill="#0094C6"/>
<path fill-rule="evenodd" clip-rule="evenodd" d="M895.386 124.063C893.694 124.063 892.318 125.441 892.318 127.132C892.318 128.824 893.694 130.2 895.386 130.2C897.079 130.2 898.455 128.824 898.455 127.132C898.455 125.441 897.079 124.063 895.386 124.063ZM895.386 131.778C892.823 131.778 890.74 129.693 890.74 127.132C890.74 124.57 892.823 122.485 895.386 122.485C897.948 122.485 900.033 124.57 900.033 127.132C900.033 129.693 897.948 131.778 895.386 131.778Z" fill="#0094C6"/>
<path fill-rule="evenodd" clip-rule="evenodd" d="M962.712 243.987C961.02 243.987 959.644 245.365 959.644 247.057C959.644 248.748 961.02 250.124 962.712 250.124C964.406 250.124 965.781 248.748 965.781 247.057C965.781 245.365 964.406 243.987 962.712 243.987ZM962.712 251.702C960.149 251.702 958.066 249.617 958.066 247.057C958.066 244.494 960.149 242.409 962.712 242.409C965.274 242.409 967.359 244.494 967.359 247.057C967.359 249.617 965.274 251.702 962.712 251.702Z" fill="#0094C6"/>
<path fill-rule="evenodd" clip-rule="evenodd" d="M891.172 499.557C891.045 500.903 887.132 503.092 883.682 503.113C883.661 501.135 883.934 498.442 883.976 497.874C886.248 498.126 891.298 498.442 891.172 499.557Z" fill="#DABB92"/>
<path d="M1295.12 601.643H759.08C756.718 601.643 754.804 599.73 754.804 597.367V278.328C754.804 275.967 756.718 274.052 759.082 274.052H1295.12C1297.49 274.052 1299.4 275.967 1299.4 278.328V597.367C1299.4 599.73 1297.49 601.643 1295.12 601.643Z" fill="#F56D06" stroke="white" stroke-width="3"/>
<path fill-rule="evenodd" clip-rule="evenodd" d="M775.745 583.837H1278.46V291.858H775.745V583.837Z" fill="#FFFFFE"/>
<mask id="path-17-inside-1" fill="white">
<path fill-rule="evenodd" clip-rule="evenodd" d="M1085.52 600V645.504L1135.19 645.504V662.926H919.017V645.504H968.685V600H1085.52Z"/>
</mask>
<path fill-rule="evenodd" clip-rule="evenodd" d="M1085.52 600V645.504L1135.19 645.504V662.926H919.017V645.504H968.685V600H1085.52Z" fill="#182F42"/>
<path d="M1085.52 645.504H1082.52V648.504L1085.52 648.504L1085.52 645.504ZM1085.52 600H1088.52V597H1085.52V600ZM1135.19 645.504H1138.19V642.504L1135.19 642.504L1135.19 645.504ZM1135.19 662.926V665.926H1138.19V662.926H1135.19ZM919.017 662.926H916.017V665.926H919.017V662.926ZM919.017 645.504V642.504H916.017V645.504H919.017ZM968.685 645.504V648.504H971.685V645.504H968.685ZM968.685 600V597H965.685V600H968.685ZM1088.52 645.504V600H1082.52V645.504H1088.52ZM1135.19 642.504L1085.52 642.504L1085.52 648.504L1135.19 648.504L1135.19 642.504ZM1138.19 662.926V645.504H1132.19V662.926H1138.19ZM919.017 665.926H1135.19V659.926H919.017V665.926ZM916.017 645.504V662.926H922.017V645.504H916.017ZM968.685 642.504H919.017V648.504H968.685V642.504ZM965.685 600V645.504H971.685V600H965.685ZM1085.52 597H968.685V603H1085.52V597Z" fill="white" mask="url(#path-17-inside-1)"/>
<path opacity="0.3" fill-rule="evenodd" clip-rule="evenodd" d="M1093.43 410.79H1264V398.153H1093.43V410.79Z" fill="url(#paint2_linear)"/>
<path opacity="0.3" fill-rule="evenodd" clip-rule="evenodd" d="M1093.43 444.482H1264V431.846H1093.43V444.482Z" fill="url(#paint3_linear)"/>
<path opacity="0.3" fill-rule="evenodd" clip-rule="evenodd" d="M1135.02 478.175H1264V465.54H1135.02V478.175Z" fill="url(#paint4_linear)"/>
<path opacity="0.3" fill-rule="evenodd" clip-rule="evenodd" d="M1135.02 511.865H1264V499.231H1135.02V511.865Z" fill="url(#paint5_linear)"/>
<path opacity="0.3" fill-rule="evenodd" clip-rule="evenodd" d="M1135.02 545.558H1264V532.924H1135.02V545.558Z" fill="url(#paint6_linear)"/>
<path opacity="0.3" fill-rule="evenodd" clip-rule="evenodd" d="M790.204 410.79H960.77V398.153H790.204V410.79Z" fill="url(#paint7_linear)"/>
<path opacity="0.3" fill-rule="evenodd" clip-rule="evenodd" d="M790.204 444.482H960.77V431.846H790.204V444.482Z" fill="url(#paint8_linear)"/>
<path opacity="0.3" fill-rule="evenodd" clip-rule="evenodd" d="M790.204 478.175H919.184V465.54H790.204V478.175Z" fill="url(#paint9_linear)"/>
<path opacity="0.3" fill-rule="evenodd" clip-rule="evenodd" d="M790.204 511.865H919.184V499.231H790.204V511.865Z" fill="url(#paint10_linear)"/>
<path opacity="0.3" fill-rule="evenodd" clip-rule="evenodd" d="M790.204 545.558H919.184V532.924H790.204V545.558Z" fill="url(#paint11_linear)"/>
<path fill-rule="evenodd" clip-rule="evenodd" d="M901.83 291.782V291.911L874.13 331.297V332.283C845.76 332.283 819.778 332.252 797.557 332.187V331.297L839.107 291.911V291.848C857.319 291.814 878.588 291.814 901.83 291.782Z" fill="#FFFFFE"/>
<path fill-rule="evenodd" clip-rule="evenodd" d="M1027.28 331.297V332.123C1001.52 332.155 975.76 332.22 950.705 332.252V331.297L964.553 291.911V291.719C985.058 291.688 1006.17 291.688 1027.28 291.688V331.297Z" fill="#FFFFFE"/>
<path fill-rule="evenodd" clip-rule="evenodd" d="M1152.73 291.911L1180.43 331.296V331.774C1156.32 331.837 1130.5 331.9 1103.85 331.963V331.296L1090 291.911V291.656C1111.84 291.625 1132.99 291.625 1152.73 291.625V291.911Z" fill="#FFFFFE"/>
<path fill-rule="evenodd" clip-rule="evenodd" d="M839.108 291.848V291.911L797.557 331.297V332.187C750.91 332.06 720.685 332.126 720.683 332.13L776.383 291.911C776.383 291.911 800.9 291.879 839.108 291.848Z" fill="url(#paint12_linear)"/>
<path fill-rule="evenodd" clip-rule="evenodd" d="M874.13 331.296L901.83 291.911V291.782C921.569 291.751 942.712 291.719 964.553 291.719V291.911L950.705 331.296V332.252C924.054 332.252 898.232 332.283 874.13 332.283V331.296Z" fill="url(#paint13_linear)"/>
<path fill-rule="evenodd" clip-rule="evenodd" d="M1103.85 331.296V331.963C1078.82 332.028 1053.07 332.06 1027.28 332.123V291.688C1048.39 291.656 1069.5 291.656 1090 291.656V291.911L1103.85 331.296Z" fill="url(#paint14_linear)"/>
<path fill-rule="evenodd" clip-rule="evenodd" d="M1257 331.296V331.551C1234.78 331.614 1208.79 331.677 1180.43 331.774V331.296L1152.72 291.911V291.625C1175.97 291.625 1197.27 291.625 1215.45 291.656V291.911L1257 331.296Z" fill="url(#paint15_linear)"/>
<path fill-rule="evenodd" clip-rule="evenodd" d="M1278.17 291.911L1333.47 332.203C1333.47 332.203 1303.64 331.423 1257 331.551V331.296L1215.45 291.911V291.656C1253.66 291.688 1278.17 291.751 1278.17 291.911Z" fill="#FFFFFE"/>
<path fill-rule="evenodd" clip-rule="evenodd" d="M759.168 382.591C737.92 382.591 720.695 365.366 720.695 344.118V331.648H797.641V344.118C797.641 365.366 780.416 382.591 759.168 382.591Z" fill="url(#paint16_linear)"/>
<path fill-rule="evenodd" clip-rule="evenodd" d="M836.179 382.591C814.933 382.591 797.706 365.366 797.706 344.118V331.648H874.653V344.118C874.653 365.366 857.428 382.591 836.179 382.591Z" fill="url(#paint17_linear)"/>
<path fill-rule="evenodd" clip-rule="evenodd" d="M913.191 382.591C891.944 382.591 874.719 365.366 874.719 344.118V331.648H951.664V344.118C951.664 365.366 934.441 382.591 913.191 382.591Z" fill="url(#paint18_linear)"/>
<path fill-rule="evenodd" clip-rule="evenodd" d="M988.809 382.591C967.564 382.591 950.337 365.366 950.337 344.118V331.648H1027.28V344.118C1027.28 365.366 1010.06 382.591 988.809 382.591Z" fill="url(#paint19_linear)"/>
<path fill-rule="evenodd" clip-rule="evenodd" d="M1065.76 382.591C1044.51 382.591 1027.28 365.366 1027.28 344.118V331.648H1104.23V344.118C1104.23 365.366 1087 382.591 1065.76 382.591Z" fill="url(#paint20_linear)"/>
<path fill-rule="evenodd" clip-rule="evenodd" d="M1142.7 382.591H1142.7C1121.45 382.591 1104.23 365.366 1104.23 344.118V331.648H1181.17V344.118C1181.17 365.366 1163.95 382.591 1142.7 382.591Z" fill="url(#paint21_linear)"/>
<path fill-rule="evenodd" clip-rule="evenodd" d="M1219.65 382.591C1198.4 382.591 1181.17 365.366 1181.17 344.118V331.648H1258.12V344.118C1258.12 365.366 1240.89 382.591 1219.65 382.591Z" fill="url(#paint22_linear)"/>
<path fill-rule="evenodd" clip-rule="evenodd" d="M1295 382.591C1273.75 382.591 1256.53 365.366 1256.53 344.118V331.648H1333.47V344.118C1333.47 365.366 1316.25 382.591 1295 382.591Z" fill="url(#paint23_linear)"/>
<path opacity="0.3" fill-rule="evenodd" clip-rule="evenodd" d="M985.07 479.755H1069.13V395.69H985.07V479.755Z" fill="url(#paint24_linear)"/>
<path fill-rule="evenodd" clip-rule="evenodd" d="M998.761 428.643L998.54 428.917L1005.87 463.249L1006.09 463.428H1048.11L1048.34 463.249L1055.66 428.917L1055.44 428.643H998.761ZM1048.11 467.261H1006.09C1004.18 467.261 1002.51 465.911 1002.12 464.049L994.789 429.719C994.532 428.515 994.829 427.276 995.603 426.316C996.377 425.359 997.528 424.81 998.761 424.81H1055.44C1056.68 424.81 1057.83 425.359 1058.6 426.316C1059.38 427.276 1059.67 428.515 1059.41 429.719L1052.09 464.051C1051.69 465.911 1050.01 467.261 1048.11 467.261Z" fill="url(#paint25_linear)"/>
<path fill-rule="evenodd" clip-rule="evenodd" d="M1038.89 465.406L1035.11 464.737L1041.84 426.668L1045.62 427.335L1038.89 465.406Z" fill="url(#paint26_linear)"/>
<path fill-rule="evenodd" clip-rule="evenodd" d="M1015.32 465.406L1008.58 427.335L1012.36 426.668L1019.1 464.737L1015.32 465.406Z" fill="url(#paint27_linear)"/>
<path fill-rule="evenodd" clip-rule="evenodd" d="M1025.18 465.482H1029.02V427H1025.18V465.482Z" fill="url(#paint28_linear)"/>
<path fill-rule="evenodd" clip-rule="evenodd" d="M1047.64 426.727H1043.81V421.985C1043.81 416.411 1039.27 411.877 1033.7 411.877H1020.5C1014.93 411.877 1010.4 416.411 1010.4 421.985V426.727H1006.56V421.985C1006.56 414.297 1012.82 408.044 1020.5 408.044H1033.7C1041.39 408.044 1047.64 414.297 1047.64 421.985V426.727Z" fill="url(#paint29_linear)"/>
<path fill-rule="evenodd" clip-rule="evenodd" d="M998.721 441.976H1055.21V438.141H998.721V441.976Z" fill="url(#paint30_linear)"/>
<path fill-rule="evenodd" clip-rule="evenodd" d="M1001.75 453.794H1053.28V449.959H1001.75V453.794Z" fill="url(#paint31_linear)"/>
<path fill-rule="evenodd" clip-rule="evenodd" d="M954 538.011H1100.61V498H954V538.011Z" fill="url(#paint32_linear)"/>
<path d="M998.62 520.52C998.62 521.56 998.14 522.08 997.32 522.08C996.44 522.08 995.92 521.5 995.92 520.3H992.52C992.52 523.46 994.54 525.14 997.42 525.14C1000.2 525.14 1002.04 523.54 1002.04 520.52V510.96H998.62V520.52ZM1011.14 519.34C1011.14 523.22 1013.68 525.14 1016.94 525.14C1020.18 525.14 1022.9 523.22 1022.9 519.34V510.96H1019.48V519.36C1019.48 521.02 1018.62 521.98 1017 521.98C1015.38 521.98 1014.56 521.02 1014.56 519.36V510.96H1011.14V519.34ZM1041.28 525H1044.9L1039.82 510.96H1035.86L1030.78 525H1034.36L1035.2 522.52H1040.44L1041.28 525ZM1039.56 519.88H1036.1L1037.82 514.74L1039.56 519.88ZM1052.85 510.96V525H1060.75V522.36H1056.27V510.96H1052.85Z" fill="white"/>
<path fill-rule="evenodd" clip-rule="evenodd" d="M1369.93 584.3C1383.96 578.724 1376.52 630.222 1372.12 644.664C1367.73 659.107 1368.05 650.18 1366.57 625.57C1365.1 600.961 1364.42 586.494 1369.93 584.3Z" fill="#DABB92"/>
<path fill-rule="evenodd" clip-rule="evenodd" d="M1347.57 583.06C1362.07 579.524 1351.08 630.17 1345.23 643.875C1339.37 657.584 1338.88 648.184 1339.97 623.546C1341.05 598.907 1341.87 584.451 1347.57 583.06Z" fill="#DABB92"/>
<path fill-rule="evenodd" clip-rule="evenodd" d="M1337.37 634.47L1336.82 652.995L1344.28 652.779L1348.77 633.153L1337.37 634.47Z" fill="#DABB92"/>
<path fill-rule="evenodd" clip-rule="evenodd" d="M1363.5 634.453L1365.6 652.871L1372.94 651.59L1374.6 631.525L1363.5 634.453Z" fill="#DABB92"/>
<path fill-rule="evenodd" clip-rule="evenodd" d="M1367.64 522.096C1372.93 520.586 1378.36 523.929 1379.47 529.317C1380.35 533.603 1381.46 544.301 1381.36 551.909C1381.11 570.742 1381.89 588.133 1375.07 591.991C1368.24 595.85 1359.4 586.046 1357.44 567.737C1355.68 551.188 1351 530.859 1355.49 527.118C1357.76 525.225 1363.01 523.418 1367.64 522.096Z" fill="#DABB92"/>
<path fill-rule="evenodd" clip-rule="evenodd" d="M1355.21 522.69C1360.23 522.389 1364.63 526.814 1364.83 532.267C1364.98 536.603 1364.36 547.188 1363.12 554.518C1360.06 572.667 1358.14 589.652 1351.39 591.884C1344.63 594.119 1338.11 582.696 1339.11 564.571C1340.01 548.185 1338.84 527.506 1343.46 524.876C1345.81 523.544 1350.83 522.951 1355.21 522.69Z" fill="#DABB92"/>
<path fill-rule="evenodd" clip-rule="evenodd" d="M1338 506.586L1333.97 640.283L1350.64 640.077C1350.64 640.077 1366.3 539.685 1365.23 523.315C1364.16 506.942 1338 506.586 1338 506.586Z" fill="#161F29"/>
<path fill-rule="evenodd" clip-rule="evenodd" d="M1381.8 518.32C1381.8 518.32 1381.6 577.647 1381.12 585.713C1380.65 593.78 1377.59 640.313 1377.59 640.313H1362.92C1362.92 640.313 1352.03 537.638 1351.56 512.726C1351.08 487.813 1381.8 518.32 1381.8 518.32Z" fill="#28264A"/>
<path fill-rule="evenodd" clip-rule="evenodd" d="M1365.66 435.814C1366.45 438.288 1365.49 440.977 1363.58 442.736C1355 450.634 1325.82 476.632 1319.53 470.737C1312.12 463.809 1339.38 442.284 1348.07 437.049C1355.31 432.685 1363.76 429.832 1365.66 435.814Z" fill="#DABB92"/>
<path fill-rule="evenodd" clip-rule="evenodd" d="M1327.72 467.371C1327.86 465.193 1326.76 463.131 1325.04 461.785C1316.57 455.128 1285.69 431.259 1281.54 433.51C1276.72 436.123 1319.67 472.587 1322.46 471.753C1324.63 471.103 1327.5 470.874 1327.72 467.371Z" fill="#DABB92"/>
<path fill-rule="evenodd" clip-rule="evenodd" d="M1271.33 426.054C1272.22 424.857 1278.09 429.643 1279.95 430.847C1280.23 431.028 1280.42 431.133 1280.49 431.118L1280.48 430.88C1280.13 430.062 1277.73 427.299 1278.67 426.273C1279.71 425.143 1284.32 428.766 1285.99 431.198L1286.28 431.606C1287.68 434.013 1288.08 435.675 1286.73 438.135C1284.58 442.056 1278.09 437.472 1275.94 435.829C1274.12 434.442 1272.69 432.248 1271.86 430.255C1271.09 428.4 1270.84 426.719 1271.33 426.054Z" fill="#DABB92"/>
<path fill-rule="evenodd" clip-rule="evenodd" d="M1348.5 434.221C1348.5 434.221 1324.18 452.727 1321.93 452.965C1319.67 453.201 1294.94 437.779 1294.94 437.779L1288.53 445.997C1288.53 445.997 1315.52 473.251 1321.45 473.607C1327.38 473.965 1343.28 464.354 1343.28 464.354L1348.5 434.221Z" fill="url(#paint33_linear)"/>
<path fill-rule="evenodd" clip-rule="evenodd" d="M1370.93 425.42L1356.69 430.998L1355.74 421.983C1355.74 421.983 1355.25 422.298 1354.4 422.614C1352.54 423.35 1349.04 424.017 1344.97 421.385C1344.12 420.823 1343.49 419.946 1343.04 418.791C1342.3 416.86 1342.02 414.299 1342.02 411.528C1342.02 411.282 1342.02 411.036 1342.06 410.79C1342.16 403.739 1343.99 395.986 1343.99 395.986L1343.88 395.915L1343.99 395.74C1343.99 395.74 1351.28 394.16 1352.97 397.844C1354.19 400.548 1352.41 402.757 1353.53 404.301C1355.35 406.862 1358.75 398.793 1360.51 399.353C1362.23 399.914 1363.77 401.985 1361.42 405.704C1358.09 410.931 1369.38 413.457 1369.38 413.457H1369.56L1369.38 413.668L1370.93 425.42Z" fill="#DABB92"/>
<path fill-rule="evenodd" clip-rule="evenodd" d="M1354 429.399C1351.35 430.924 1346.79 434.084 1343.33 439.323C1338.18 447.152 1335.84 481.423 1335.84 494.577C1335.84 502.818 1335.62 504.223 1337.15 513.213C1337.15 513.213 1353.26 519.332 1364.64 519.572C1373.29 520.544 1380.35 520.319 1381.36 519.197C1382.96 517.417 1382.33 515.646 1382.5 503.018C1382.69 490.375 1384.99 472.235 1386.75 448.932C1387.79 435.464 1381 429.504 1376.28 425.887L1376.19 425.934L1376.29 425.885C1373.61 423.834 1371.62 422.681 1370.65 422.367C1368.03 424.646 1363.59 427.465 1356.15 428.233V428.29C1356.15 428.29 1355.31 428.646 1354 429.399Z" fill="url(#paint34_linear)"/>
<path fill-rule="evenodd" clip-rule="evenodd" d="M1380.45 433.832C1382.72 435.086 1383.88 437.699 1383.7 440.291C1382.92 451.922 1379.66 490.866 1371.04 490.927C1360.9 490.998 1365.85 456.618 1368.54 446.843C1370.79 438.696 1374.95 430.805 1380.45 433.832Z" fill="#DABB92"/>
<path fill-rule="evenodd" clip-rule="evenodd" d="M1372.27 482.869C1370.61 481.444 1368.3 481.082 1366.19 481.642C1355.78 484.394 1318.12 494.649 1317.42 499.317C1316.6 504.739 1371.58 492.439 1372.59 489.713C1373.38 487.59 1374.93 485.16 1372.27 482.869Z" fill="#DABB92"/>
<path fill-rule="evenodd" clip-rule="evenodd" d="M1384.5 433.944C1381.96 431.234 1377.75 430.621 1374.56 432.515C1371.63 434.253 1368.31 438.196 1366.71 447.034C1363.51 464.709 1363.98 478.827 1362.92 479.776C1361.85 480.725 1326.61 492.351 1326.61 492.351L1329.1 502.136C1329.1 502.136 1371.57 499.706 1376.44 491.758C1381.3 483.809 1384.86 464.472 1386.05 452.252C1386.94 443.022 1387.71 437.379 1384.5 433.944Z" fill="url(#paint35_linear)"/>
<path fill-rule="evenodd" clip-rule="evenodd" d="M1336.35 647.371C1336.35 647.371 1333.52 651.22 1327.02 656.261C1320.51 661.306 1318.79 660.243 1318.66 662.101C1318.52 663.959 1345.86 662.101 1345.86 662.101V646.839C1345.86 646.839 1336.35 646.972 1336.35 647.371Z" fill="#28264A"/>
<path fill-rule="evenodd" clip-rule="evenodd" d="M1364.42 647.371C1364.42 647.371 1361.59 651.22 1355.08 656.261C1348.58 661.306 1346.86 660.243 1346.73 662.101C1346.59 663.959 1373.93 662.101 1373.93 662.101V646.839C1373.93 646.839 1364.42 646.972 1364.42 647.371Z" fill="#28264A"/>
<path fill-rule="evenodd" clip-rule="evenodd" d="M1304.68 479.719C1304.18 478.021 1304.74 476.374 1305.92 476.018C1307.1 475.679 1308.46 476.78 1308.96 478.473C1309.46 480.171 1308.9 481.819 1307.72 482.174C1306.54 482.513 1305.18 481.429 1304.68 479.719ZM1328.3 489.266L1322.08 463.95L1286.54 460.72L1295.29 493.161L1330.84 499.622L1328.3 489.266Z" fill="#FFFFFE"/>
<path fill-rule="evenodd" clip-rule="evenodd" d="M1305.92 476.018C1304.74 476.374 1304.18 478.021 1304.68 479.719C1305.18 481.429 1306.54 482.513 1307.72 482.174C1308.9 481.819 1309.46 480.171 1308.96 478.473C1308.46 476.78 1307.1 475.679 1305.92 476.018Z" fill="#B5AD93"/>
<path fill-rule="evenodd" clip-rule="evenodd" d="M1328.3 489.267L1330.84 499.622L1350.89 492.095L1328.3 489.267Z" fill="#B5AD93"/>
<path fill-rule="evenodd" clip-rule="evenodd" d="M1330.85 499.612L1295.32 493.167V494.848L1330.85 501.227V499.612V501.227L1350.89 493.704V492.09" fill="#F7F4EF"/>
<path fill-rule="evenodd" clip-rule="evenodd" d="M1324.63 500.378C1324.38 500.329 1324.13 500.279 1323.89 500.23C1323.55 500.165 1323.21 500.098 1322.88 500.03C1322.56 499.967 1322.21 499.969 1321.93 499.784L1321.64 499.582L1321.3 499.439C1320.81 499.3 1320.21 499.3 1319.85 498.89C1319.44 498.438 1319.36 497.802 1319.12 497.264L1319.06 497.135C1318.6 496.233 1317.76 495.416 1316.86 494.97C1315.67 494.381 1313.88 494.703 1312.83 495.482C1311.99 496.113 1312.1 496.98 1312.43 497.868C1312.85 498.995 1313.51 500.049 1314.51 500.742C1315.45 501.39 1316.59 501.69 1317.71 501.861C1318.35 501.958 1318.99 502.002 1319.63 501.974C1320.26 501.947 1320.88 501.831 1321.51 501.72C1322.09 501.617 1322.67 501.476 1323.22 501.253C1323.65 501.08 1324.06 500.855 1324.42 500.563L1324.63 500.378Z" fill="#DABB92"/>
<path fill-rule="evenodd" clip-rule="evenodd" d="M1376.23 399.353L1376.23 399.313C1376.51 398.858 1376.68 398.267 1376.71 397.434C1376.75 396.801 1376.57 396.346 1376.26 395.995C1375.24 394.697 1372.58 394.838 1372.08 393.434C1371.72 392.292 1372.65 391.558 1373 390.478L1372.99 390.47L1373 390.451C1373.21 389.889 1373.21 389.189 1372.72 388.278C1371.28 385.681 1367.21 386.451 1365.91 385.574C1364.58 384.697 1365.94 381.856 1363.38 381.154C1360.82 380.417 1359.38 382.944 1357.14 382.523C1354.89 382.067 1353.63 378.909 1351.49 379.224C1349.35 379.54 1348.4 381.261 1347.1 381.646C1346.4 381.856 1345.49 382.067 1344.62 382.454C1343.84 382.767 1343.14 383.224 1342.65 383.927L1342.47 384.276L1342.44 384.383L1342.33 384.697C1342.26 385.029 1342.26 385.372 1342.3 385.711C1342.36 386.371 1342.55 387.026 1342.57 387.577C1342.58 387.85 1342.55 388.101 1342.44 388.311C1342.19 388.804 1341.74 389.083 1341.35 389.54C1340.93 390.03 1340.61 390.733 1340.75 392.1C1340.99 394.631 1343.38 395.595 1343.56 395.664L1343.6 395.704L1343.88 395.915L1343.99 395.74C1343.99 395.74 1351.28 394.16 1352.97 397.844C1354.19 400.548 1352.41 402.757 1353.53 404.301C1355.35 406.862 1358.75 398.793 1360.51 399.353C1362.23 399.914 1363.77 401.985 1361.42 405.702C1358.09 410.931 1369.38 413.458 1369.38 413.458H1369.56C1369.87 413.037 1370.58 412.124 1371.42 410.825L1371.45 410.785C1372.53 410.262 1374.06 409.63 1375.17 408.204C1376.29 406.765 1375.45 405.572 1374.86 404.274C1374.71 403.958 1374.58 403.643 1374.5 403.323C1374.41 403.011 1374.37 402.696 1374.4 402.37C1374.54 400.897 1375.59 400.512 1376.23 399.353Z" fill="#131B1F"/>
<path fill-rule="evenodd" clip-rule="evenodd" d="M774.416 161.803C776.071 161.487 782.514 162.71 783.778 163.821C789.227 168.609 799.177 180.364 798.731 190.25C798.18 202.367 793.589 204.385 793.589 213.013C793.589 221.641 796.894 238.898 796.894 241.098C796.894 243.303 761.464 242.384 760.729 241.467C759.995 240.549 761.131 177.004 763.3 170.791C765.438 164.662 767.409 163.143 774.416 161.803Z" fill="#DABB92"/>
<path fill-rule="evenodd" clip-rule="evenodd" d="M765.141 255.466L764.079 255.233C763.906 256.017 763.824 256.8 763.824 257.572C763.824 262.893 767.754 267.574 773.243 268.359C775.463 268.677 778.053 268.883 781.028 268.883C784.232 268.883 787.881 268.643 791.992 268.037C801.666 266.609 812.335 266.371 821.087 265.576C825.465 265.176 829.366 264.641 832.482 263.712C834.039 263.242 835.407 262.676 836.543 261.946C837.677 261.216 838.592 260.303 839.145 259.165C839.669 258.09 839.934 256.962 839.934 255.834C839.934 253.907 839.171 252.028 837.828 250.337C835.808 247.795 832.497 245.599 828.114 243.932C823.73 242.27 818.264 241.153 811.91 240.871C801.445 240.408 789.41 238.904 780.67 238.902C777.853 238.902 775.375 239.055 773.347 239.474C771.333 239.905 769.696 240.56 768.699 241.885C767.658 243.318 766.814 245.393 766.044 247.759C765.28 250.124 764.622 252.765 764.079 255.233L765.141 255.466L766.202 255.698C766.734 253.276 767.382 250.69 768.112 248.428C768.836 246.171 769.671 244.221 770.452 243.171C770.86 242.577 771.994 241.963 773.788 241.603C775.57 241.233 777.935 241.075 780.67 241.075C789.183 241.073 801.234 242.571 811.813 243.042C820.018 243.404 826.618 245.218 831.085 247.673C833.319 248.9 835.013 250.284 836.124 251.685C837.235 253.093 837.759 254.492 837.759 255.834C837.759 256.625 837.58 257.412 837.191 258.214C836.852 258.908 836.261 259.539 835.364 260.118C833.803 261.132 831.335 261.911 828.27 262.466C819.053 264.162 804.605 263.985 791.674 265.885C787.664 266.476 784.123 266.71 781.028 266.71C778.154 266.71 775.667 266.51 773.549 266.207C769.143 265.582 765.998 261.814 765.998 257.572C765.998 256.956 766.063 256.329 766.202 255.698L765.141 255.466Z" fill="#D1B088"/>
<path fill-rule="evenodd" clip-rule="evenodd" d="M771.638 248.071L770.694 247.535C769.726 249.23 769.265 251.078 769.267 252.893C769.265 256.971 771.573 260.907 775.539 262.792C779.747 264.793 785.623 266.819 793.534 268.059C800.848 269.205 808.508 271.17 815.52 272.86C822.541 274.545 828.891 275.965 833.755 275.971C836.861 275.963 839.478 275.406 841.193 273.613C842.577 272.151 843.282 270.314 843.276 268.383C843.257 264.85 841.1 261.097 837.263 257.545C833.41 253.996 827.81 250.638 820.629 248.046C813.747 245.561 806.269 242.363 799.551 239.775C796.191 238.481 793.021 237.339 790.191 236.514C787.359 235.692 784.881 235.176 782.819 235.172C781.376 235.176 780.092 235.42 779.072 236.165C777.654 237.221 776.231 238.953 774.792 240.985C773.36 243.013 771.946 245.34 770.694 247.533L771.638 248.071L772.581 248.61C773.81 246.457 775.198 244.179 776.568 242.237C777.929 240.297 779.307 238.683 780.364 237.913C780.803 237.579 781.626 237.341 782.819 237.345C784.51 237.341 786.856 237.804 789.583 238.601C797.793 240.989 809.451 246.319 819.892 250.089C826.846 252.599 832.209 255.839 835.788 259.142C839.381 262.445 841.121 265.799 841.102 268.383C841.096 269.807 840.629 271.027 839.611 272.123C838.611 273.213 836.625 273.804 833.755 273.798C829.305 273.804 823.015 272.431 816.03 270.745C809.038 269.064 801.327 267.08 793.871 265.91C786.154 264.701 780.486 262.736 776.471 260.829C773.286 259.315 771.443 256.159 771.441 252.893C771.441 251.442 771.805 249.975 772.581 248.61L771.638 248.071Z" fill="#D1B088"/>
<path fill-rule="evenodd" clip-rule="evenodd" d="M838.39 250.663C825.893 239.56 811.548 299.15 811.283 315.044C811.02 330.937 818.636 315.854 828.241 292.378C837.845 268.902 843.307 255.031 838.39 250.663Z" fill="#DABB92"/>
<path fill-rule="evenodd" clip-rule="evenodd" d="M815.981 318.542C815.981 318.542 816.894 321.052 819.467 324.783C822.04 328.509 823.122 328.239 822.882 329.237C822.642 330.234 808.609 324.709 808.609 324.709L811.441 316.794C811.441 316.794 816.046 318.332 815.981 318.542Z" fill="#090C1F"/>
<path fill-rule="evenodd" clip-rule="evenodd" d="M838.239 262.796C821.87 259.411 839.177 318.21 846.88 332.115C854.582 346.018 853.656 329.148 850.263 304.011C846.869 278.875 844.679 264.128 838.239 262.796Z" fill="#DABB92"/>
<path fill-rule="evenodd" clip-rule="evenodd" d="M852.695 332.801C852.695 332.801 854.742 334.522 858.83 336.47C862.92 338.416 863.724 337.642 864.014 338.627C864.304 339.609 849.385 341.825 849.385 341.825L847.887 333.554C847.887 333.554 852.649 332.586 852.695 332.801Z" fill="#090C1F"/>
<path fill-rule="evenodd" clip-rule="evenodd" d="M801.46 240.501H841.306L858.308 203.977C858.897 202.718 858.348 201.218 857.088 200.636C855.842 200.025 854.336 200.589 853.745 201.854L838.096 235.468H801.46C800.071 235.468 798.943 236.594 798.943 237.983C798.943 239.373 800.071 240.501 801.46 240.501Z" fill="#04010B"/>
<path fill-rule="evenodd" clip-rule="evenodd" d="M782.537 167.429C780.286 167.547 778.373 169.14 777.5 171.21C773.587 180.507 760.984 211.881 767.664 215.161C775.512 219.016 785.028 190.543 786.734 181.965C788.154 174.816 787.986 167.145 782.537 167.429Z" fill="#DABB92"/>
<path fill-rule="evenodd" clip-rule="evenodd" d="M767.289 208.42C768.92 207.095 771.173 206.84 773.22 207.475C783.319 210.617 819.837 222.275 820.462 226.884C821.184 232.233 767.834 217.835 766.883 215.117C766.143 213.003 764.67 210.554 767.289 208.42Z" fill="#DABB92"/>
<path fill-rule="evenodd" clip-rule="evenodd" d="M815.312 225.092C816.237 221.936 821.506 224.145 823.275 224.966C826.158 226.306 828.514 230.049 828.003 231.199C827.491 232.352 821.114 228.919 820.778 229.085C820.441 229.249 823.382 231.218 822.791 232.249C822.2 233.282 817.971 231.178 816.62 229.687C815.27 228.195 814.733 227.072 815.312 225.092Z" fill="#DABB92"/>
<path fill-rule="evenodd" clip-rule="evenodd" d="M782.945 198.788C782.945 198.788 796.702 169.116 785.35 164.789C774.127 160.511 767.637 193.08 767.637 193.08L782.945 198.788Z" fill="#D16A68"/>
<path fill-rule="evenodd" clip-rule="evenodd" d="M766.361 180.844C765.619 181.395 764.912 182.005 764.215 182.609C762.901 183.745 761.586 184.883 760.273 186.019C758.655 187.421 756.967 188.858 754.912 189.461C752.646 190.124 750.077 189.636 748.211 188.191C743.504 184.54 746.494 179.461 745.835 174.645C745.448 171.832 743.597 169.392 743.559 166.507C743.517 163.351 745.415 160.398 747.714 158.378C750.689 155.763 754.375 154.528 757.533 152.224C759.591 150.722 761.278 148.801 761.766 146.27C762.305 143.482 762.032 140.463 763.38 137.873C764.983 134.79 768.417 132.861 770.635 130.238C773.176 127.229 776 124.071 779.517 122.2C783.22 120.231 787.502 119.465 791.636 120.267C794.123 120.749 796.564 121.704 798.489 123.351C806.98 130.625 798.426 140.696 797.489 149.003C796.936 153.903 799.433 160.318 795.766 164.439C794.718 165.615 793.29 166.295 792.24 167.469C791.074 168.775 790.279 170.4 789.774 172.064C788.981 174.673 788.832 177.423 788.541 180.132C788.318 182.217 788.171 185.733 786.763 187.427C785.501 188.944 784.068 187.13 783.039 185.954C781.598 184.307 780.51 182.352 778.815 180.936C776.185 178.742 772.133 178.016 768.945 179.331C768.017 179.714 767.169 180.244 766.361 180.844Z" fill="#131B1F"/>
<path fill-rule="evenodd" clip-rule="evenodd" d="M782.886 169.975L771.868 166.853L776.258 151.365L787.277 154.488L782.886 169.975Z" fill="#DABB92"/>
<path fill-rule="evenodd" clip-rule="evenodd" d="M785.75 159.245C785.75 159.245 793.496 162.203 795.283 159.943C797.069 157.683 801.477 144.145 797.403 136.312C793.326 128.479 782.48 127.025 777.17 131.624C771.857 136.225 774.735 156.026 779.276 157.505C783.82 158.984 785.75 159.245 785.75 159.245Z" fill="#DABB92"/>
<path fill-rule="evenodd" clip-rule="evenodd" d="M765.979 159.443C765.979 159.443 769.187 160.396 775.118 156.88C789.415 148.405 789.898 139.996 798.67 136.947C798.67 136.947 801.306 124.955 791.87 123.072C782.432 121.191 770.98 131.997 769.255 137.286C767.529 142.577 765.979 159.443 765.979 159.443Z" fill="#131B1F"/>
<path fill-rule="evenodd" clip-rule="evenodd" d="M777.361 160.526C777.361 160.526 767.836 160.486 763.633 169.226C758.135 180.65 758.017 241.292 758.636 242.534C759.475 244.21 797.784 244.21 798.623 242.252C799.461 240.295 792.96 216.527 795.057 208.349C797.155 200.169 800.182 193.354 800.09 186.222C800.014 180.343 792.269 162.216 777.361 160.526Z" fill="url(#paint36_linear)"/>
<path fill-rule="evenodd" clip-rule="evenodd" d="M798.624 242.251C798.624 242.251 835.741 251.759 842.036 260.568C848.327 269.375 854.828 325.791 854.828 325.791L844.132 328.099C837.212 313.628 828.821 279.862 825.257 278.603C821.693 277.345 786.6 270.074 786.6 270.074L786.04 249.664L798.624 242.251Z" fill="#161F29"/>
<path fill-rule="evenodd" clip-rule="evenodd" d="M798.832 241.273C813.723 239.386 839.627 238.058 842.017 247.19C845.964 262.271 819.596 315.094 819.596 315.094L810.576 311.949C813.513 286.992 820.713 266.859 819.596 265.182C818.476 263.503 793.031 274.408 771.499 271.892C749.968 269.376 759.616 242.952 759.616 242.952L798.832 241.273Z" fill="#28264A"/>
<path fill-rule="evenodd" clip-rule="evenodd" d="M773.092 167.437C770.706 167.564 768.68 169.247 767.758 171.439C763.616 181.281 750.275 214.494 757.346 217.966C765.655 222.047 775.728 191.906 777.533 182.826C779.038 175.258 778.859 167.134 773.092 167.437Z" fill="#DABB92"/>
<path fill-rule="evenodd" clip-rule="evenodd" d="M756.951 210.831C758.674 209.428 761.06 209.156 763.227 209.832C773.923 213.156 812.579 225.498 813.237 230.377C814.003 236.04 757.527 220.799 756.519 217.921C755.737 215.681 754.176 213.089 756.951 210.831Z" fill="#DABB92"/>
<path fill-rule="evenodd" clip-rule="evenodd" d="M807.788 228.479C808.769 225.138 814.344 227.477 816.217 228.346C819.268 229.764 821.763 233.726 821.222 234.946C820.681 236.167 813.93 232.531 813.572 232.706C813.217 232.88 816.333 234.965 815.706 236.057C815.081 237.149 810.603 234.923 809.173 233.343C807.742 231.763 807.174 230.574 807.788 228.479Z" fill="#DABB92"/>
<path fill-rule="evenodd" clip-rule="evenodd" d="M773.521 200.635C773.521 200.635 788.087 169.224 776.069 164.643C764.19 160.114 757.319 194.591 757.319 194.591L773.521 200.635Z" fill="url(#paint37_linear)"/>
<path fill-rule="evenodd" clip-rule="evenodd" d="M819.627 518.522C814.639 519.805 811.765 525.358 813.336 530.567C814.588 534.71 816.831 540.037 820.833 546.281C830.826 561.872 838.384 582.656 845.697 582.656C853.008 582.656 855.691 569.839 848.868 553.037C842.697 537.849 837.166 517.96 831.803 516.921C829.086 516.395 823.993 517.401 819.627 518.522Z" fill="#DABB92"/>
<path fill-rule="evenodd" clip-rule="evenodd" d="M815.575 583.675C810.044 567.664 772.892 622.131 765.194 639.385C757.498 656.639 767.938 648.621 787.237 626.01C806.537 603.401 817.755 589.974 815.575 583.675Z" fill="#DABB92"/>
<path fill-rule="evenodd" clip-rule="evenodd" d="M850.907 573.565C836.448 564.735 842.449 630.395 847.488 648.602C852.529 666.81 855.481 653.982 855.981 624.259C856.484 594.537 856.596 577.041 850.907 573.565Z" fill="#DABB92"/>
<path fill-rule="evenodd" clip-rule="evenodd" d="M810.401 517.51C805.074 516.271 799.846 519.86 799.006 525.265C798.342 529.565 798.089 535.402 799.101 542.894C801.632 561.606 799.509 583.797 806.476 587.293C813.444 590.788 821.746 580.613 822.779 562.334C823.713 545.81 827.363 525.389 822.72 521.897C820.37 520.127 815.064 518.593 810.401 517.51Z" fill="#DABB92"/>
<path fill-rule="evenodd" clip-rule="evenodd" d="M797.471 428.435C797.677 418.198 796.57 406.925 805.867 399.174C811.855 393.215 818.901 393.729 824.123 395.172C828.531 396.392 830.559 400.895 831.367 405.025C832.678 411.717 831.437 418.831 830.57 425.496C830.103 429.109 829.88 432.757 829.905 436.399C829.926 439.288 830.296 442.1 830.507 444.972C830.654 446.998 830.565 449.098 829.732 450.95C828.67 453.302 826.652 454.568 824.113 454.522C820.128 454.449 816.139 454.516 812.156 454.726C809.926 454.844 807.704 454.89 805.543 455.439C802.688 456.165 799.606 455.932 796.875 454.846C792.484 453.1 789.293 449.323 787.071 445.271C787.071 445.271 797.224 440.59 797.471 428.435Z" fill="#131B1F"/>
<path fill-rule="evenodd" clip-rule="evenodd" d="M815.535 441.421L804.258 438.225L807.91 425.336L819.185 428.532L815.535 441.421Z" fill="#DABB92"/>
<path fill-rule="evenodd" clip-rule="evenodd" d="M813.05 429.757C813.05 429.757 820.372 434.354 822.657 432.406C824.942 430.455 832.194 417.508 829.615 408.671C827.037 399.834 816.24 396.148 809.875 399.776C803.513 403.405 802.44 424.234 806.785 426.668C811.129 429.098 813.05 429.757 813.05 429.757Z" fill="#DABB92"/>
<path fill-rule="evenodd" clip-rule="evenodd" d="M768.272 520.723C764.475 518.976 762.204 525.871 761.516 528.248C760.397 532.126 762.021 537.506 763.551 537.975C765.081 538.446 767.105 529.471 767.542 529.288C767.982 529.103 767.418 533.563 768.901 533.855C770.382 534.15 771.891 528.343 771.586 525.804C771.283 523.266 770.654 521.817 768.272 520.723Z" fill="#DABB92"/>
<path fill-rule="evenodd" clip-rule="evenodd" d="M808.931 443.674C806.736 442.942 804.325 443.76 802.731 445.437C795.569 452.973 771.979 478.625 777.147 484.322C783.221 491.021 802.796 467.015 807.584 459.342C811.573 452.952 814.239 445.454 808.931 443.674Z" fill="#DABB92"/>
<path fill-rule="evenodd" clip-rule="evenodd" d="M784.714 478.183C785.903 479.723 786.113 481.797 785.514 483.649C782.562 492.793 771.607 525.827 767.416 526.226C762.549 526.693 776.16 478.334 778.638 477.562C780.567 476.961 782.804 475.702 784.714 478.183Z" fill="#DABB92"/>
<path fill-rule="evenodd" clip-rule="evenodd" d="M796.955 448.728C796.955 448.728 779.785 468.194 776.606 477.123C773.921 484.663 769.932 501.007 769.932 501.007L779.217 503.908C779.217 503.908 785.377 484.928 785.96 483.921C786.545 482.915 802.918 468.652 807.128 461.968C811.338 455.284 816.042 446.706 810.307 442.591C804.569 438.473 796.955 448.728 796.955 448.728Z" fill="url(#paint38_linear)"/>
<path fill-rule="evenodd" clip-rule="evenodd" d="M808.924 436.487C805.137 435.187 801.049 436.761 798.87 440.329C796.175 444.745 793.227 451.711 794.039 460.306C795.47 475.437 803.644 477.848 803.644 493.418C803.644 508.985 798.331 519.948 799.147 521.701C799.964 523.456 835.003 525.431 837.658 521.044C840.313 516.66 831.918 502.115 831.918 489.839C831.918 477.56 836.433 475.216 835.411 465.679C834.388 456.142 824.136 450.102 817.841 442.658C815.371 439.733 812.074 437.571 808.924 436.487Z" fill="#DABB92"/>
<path fill-rule="evenodd" clip-rule="evenodd" d="M839.73 521.604C839.73 521.604 858.609 563.187 858.609 578.466C858.609 593.742 856.335 646.059 856.335 646.059L844.538 646.444C844.538 646.444 840.427 587.748 839.267 584.847C838.106 581.945 804.068 550.614 804.068 524.312C804.068 498.009 839.73 521.604 839.73 521.604Z" fill="#161F29"/>
<path fill-rule="evenodd" clip-rule="evenodd" d="M797.107 521.991C797.107 521.991 791.497 530.502 792.27 544.811C793.044 559.124 801.167 581.173 799.04 585.232C796.911 589.294 763.841 637.451 763.841 637.451L772.737 645.575C772.737 645.575 820.7 594.129 822.829 586.393C824.954 578.657 833.658 532.048 833.658 523.925C833.658 515.801 797.107 521.991 797.107 521.991Z" fill="#28264A"/>
<path fill-rule="evenodd" clip-rule="evenodd" d="M801.655 435.157C802.77 434.591 804.033 434.446 805.249 434.699C808.171 435.298 814.546 437.099 819.385 441.972C825.867 448.498 836.349 454.88 837.729 466.775C839.109 478.669 832.751 481.135 834.82 494.19C836.888 507.245 842.35 519.647 839.73 521.604C837.109 523.563 830.142 525.231 819.248 525.012C808.352 524.796 795.592 524.724 795.867 521.24C796.145 517.76 803.523 502.894 801.041 490.274C798.558 477.655 792.972 467.356 792.972 455.027C792.972 444.259 797.09 437.482 801.655 435.157Z" fill="url(#paint39_linear)"/>
<path fill-rule="evenodd" clip-rule="evenodd" d="M875.356 498.591C874.529 502.204 880.923 502.921 883.111 503.085C886.678 503.353 891.05 500.971 891.182 499.557C891.31 498.143 883.158 498.015 882.918 497.668C882.678 497.321 886.65 497.003 886.638 495.663C886.623 494.322 881.313 494.068 879.164 494.794C877.016 495.517 875.874 496.328 875.356 498.591Z" fill="#DABB92"/>
<path fill-rule="evenodd" clip-rule="evenodd" d="M891.172 499.557C891.045 500.903 887.132 503.092 883.682 503.113C883.661 501.135 883.934 498.442 883.976 497.874C886.248 498.126 891.298 498.442 891.172 499.557Z" fill="#DABB92"/>
<path fill-rule="evenodd" clip-rule="evenodd" d="M805.926 449.176C804.538 451.03 804.563 453.577 805.657 455.618C810.57 464.781 827.538 495.219 834.567 492.096C842.831 488.427 826.166 462.315 820.382 455.366C815.564 449.574 809.276 444.695 805.926 449.176Z" fill="#DABB92"/>
<path fill-rule="evenodd" clip-rule="evenodd" d="M831.237 485.604C832.667 484.287 834.715 483.895 836.612 484.331C845.979 486.477 879.84 494.512 880.608 498.652C881.494 503.458 832.133 494.114 831.148 491.711C830.383 489.843 828.931 487.724 831.237 485.604Z" fill="#DABB92"/>
<path fill-rule="evenodd" clip-rule="evenodd" d="M806.97 462.134C806.97 462.134 822.343 489.113 829.404 492.885C836.463 496.656 853.385 497.817 853.385 497.817L855.514 488.629C855.514 488.629 837.721 484.472 836.947 483.601C836.172 482.732 827.759 462.713 822.732 456.62C817.702 450.529 811.03 443.375 805.324 447.531C799.618 451.69 806.97 462.134 806.97 462.134Z" fill="url(#paint40_linear)"/>
<path fill-rule="evenodd" clip-rule="evenodd" d="M854.361 650.05C854.361 650.05 856.69 652.663 861.628 655.955C866.566 659.246 867.753 658.394 867.944 659.724C868.135 661.051 848.375 661.129 848.375 661.129L847.986 650.123C847.986 650.123 854.34 649.761 854.361 650.05Z" fill="#2C3255"/>
<path fill-rule="evenodd" clip-rule="evenodd" d="M768.499 646.402C768.499 646.402 768.268 649.896 769.381 655.722C770.494 661.552 771.933 661.8 771.121 662.869C770.305 663.938 756.404 649.896 756.404 649.896L763.98 641.906C763.98 641.906 768.691 646.185 768.499 646.402Z" fill="#2C3255"/>
<path fill-rule="evenodd" clip-rule="evenodd" d="M805.646 436.218L805.638 436.231L804.794 432.334C805.287 422.199 800.731 412.961 800.731 412.961C800.731 412.961 806.69 398.147 809.019 396.845C810.66 395.925 819.469 395.669 819.469 395.669L829.598 401.32L829.595 401.326C829.545 401.484 828.661 404.044 826.225 406.235L826.221 406.239C825.516 406.872 824.683 407.476 823.702 407.981C819.221 410.287 812.941 413.746 813.326 420.407C813.387 421.49 813.555 422.871 813.728 424.442C814.62 432.549 815.674 445.774 803.332 449.748C803.332 449.748 805.842 441.884 805.646 436.218Z" fill="#131B1F"/>
<path fill-rule="evenodd" clip-rule="evenodd" d="M893.147 525.387L892.247 525.166C894.035 517.922 895.361 508.076 891.521 502.305C889.81 499.736 887.176 498.158 883.69 497.617C883.412 497.573 883.135 497.554 882.855 497.554C874.054 497.554 866.288 518.682 866.208 518.901L865.337 518.585C865.684 517.63 873.932 495.141 883.835 496.7C887.586 497.285 890.433 498.995 892.291 501.791C896.32 507.844 894.982 517.964 893.147 525.387Z" fill="#008EC1"/>
<path fill-rule="evenodd" clip-rule="evenodd" d="M890.107 524.638L889.206 524.415C890.997 517.171 892.324 507.325 888.483 501.554C886.77 498.983 884.136 497.405 880.652 496.864C871.556 495.448 863.252 517.924 863.17 518.152L862.297 517.834C862.634 516.91 870.374 495.875 879.823 495.875C880.147 495.875 880.469 495.896 880.795 495.949C884.548 496.531 887.393 498.244 889.255 501.04C893.282 507.093 891.941 517.213 890.107 524.638Z" fill="#008EC1"/>
<path fill-rule="evenodd" clip-rule="evenodd" d="M895.508 525.015L884.351 579.822L842.278 571.337L842.423 570.895L860.839 517.405L895.508 525.015Z" fill="url(#paint41_linear)"/>
<path fill-rule="evenodd" clip-rule="evenodd" d="M884.351 579.822L881.599 581.76L837.151 572.21L842.39 570.887L842.423 570.895L842.278 571.337L884.351 579.822Z" fill="url(#paint42_linear)"/>
<path fill-rule="evenodd" clip-rule="evenodd" d="M860.839 517.405L842.423 570.895L842.39 570.887L837.151 572.21L855.931 518.945L860.839 517.405Z" fill="url(#paint43_linear)"/>
<path fill-rule="evenodd" clip-rule="evenodd" d="M873.131 522.32L872.209 522.221C872.316 521.211 874.953 497.419 884.917 496.536C888.712 496.205 891.872 497.182 894.351 499.45C899.714 504.358 900.839 514.506 900.839 522.153H899.91C899.91 514.693 898.839 504.815 893.724 500.134C891.447 498.051 888.523 497.146 884.999 497.462C875.788 498.276 873.158 522.08 873.131 522.32Z" fill="url(#paint44_linear)"/>
<path fill-rule="evenodd" clip-rule="evenodd" d="M870.002 522.32L869.08 522.221C869.188 521.211 871.824 497.419 881.788 496.536C885.577 496.205 888.744 497.182 891.222 499.45C896.583 504.358 897.711 514.506 897.711 522.153H896.781C896.781 514.693 895.708 504.815 890.595 500.134C888.319 498.051 885.392 497.146 881.87 497.462C872.657 498.276 870.027 522.08 870.002 522.32Z" fill="url(#paint45_linear)"/>
<path fill-rule="evenodd" clip-rule="evenodd" d="M903.042 521.225L905.359 577.108L862.478 578.964L862.516 578.499L867.561 522.153L903.042 521.225Z" fill="url(#paint46_linear)"/>
<path fill-rule="evenodd" clip-rule="evenodd" d="M905.358 577.108L903.151 579.65L857.713 581.041L862.478 578.499H862.516L862.478 578.964L905.358 577.108Z" fill="url(#paint47_linear)"/>
<path fill-rule="evenodd" clip-rule="evenodd" d="M867.561 522.153L862.516 578.499H862.478L857.713 581.041L863.166 524.823L867.561 522.153Z" fill="url(#paint48_linear)"/>
<path fill-rule="evenodd" clip-rule="evenodd" d="M1214.75 623.86C1208.25 616.908 1203.56 608.653 1205.44 598.794C1206.21 594.724 1207 591.337 1204.28 587.805C1203.01 586.136 1201.44 584.653 1200.5 582.77C1197.77 577.3 1199.82 571.545 1202.17 566.357C1203.9 562.532 1205.75 558.665 1206.43 554.489C1207.15 550.075 1205.97 545.69 1206.24 541.261C1206.49 536.969 1208.71 532.227 1212.9 531.259C1215.67 530.617 1218.6 531.85 1220.78 533.691C1223.29 535.806 1225.08 538.747 1225.81 541.941C1226.82 546.309 1225.91 551.133 1227.92 555.143C1229.69 558.678 1233.35 560.824 1235.83 563.906C1238.46 567.178 1239.66 571.558 1239.07 575.718C1238.58 579.181 1236.92 582.416 1236.57 585.896C1235.79 593.725 1241.7 601.017 1241.12 608.861C1240.78 613.42 1238.18 617.639 1234.62 620.508C1230.59 623.767 1224.63 626.25 1219.38 625.573C1216.54 625.204 1213.96 623.776 1212.25 621.451" fill="url(#paint49_linear)"/>
<path fill-rule="evenodd" clip-rule="evenodd" d="M1224.41 620.773C1224.12 620.773 1223.87 620.557 1223.83 620.264L1215.58 549.585C1215.54 549.269 1215.77 548.981 1216.08 548.943C1216.4 548.926 1216.69 549.134 1216.72 549.45L1224.98 620.132C1225.02 620.447 1224.79 620.733 1224.47 620.771L1224.41 620.773Z" fill="#EF4507"/>
<path fill-rule="evenodd" clip-rule="evenodd" d="M1220.44 586.646L1220.14 586.566C1219.87 586.404 1219.78 586.05 1219.94 585.777L1229.1 570.351C1229.26 570.075 1229.62 569.987 1229.89 570.149C1230.16 570.313 1230.25 570.666 1230.09 570.937L1220.93 586.364C1220.83 586.545 1220.63 586.646 1220.44 586.646Z" fill="#EF4507"/>
<path fill-rule="evenodd" clip-rule="evenodd" d="M1218.84 576.408L1218.59 576.351L1206.49 570.588C1206.2 570.453 1206.08 570.108 1206.22 569.82C1206.36 569.534 1206.7 569.41 1206.99 569.549L1219.09 575.311C1219.37 575.446 1219.5 575.791 1219.36 576.079C1219.26 576.283 1219.05 576.408 1218.84 576.408Z" fill="#EF4507"/>
<path fill-rule="evenodd" clip-rule="evenodd" d="M1222.1 601.377L1221.88 601.329L1211.69 596.911C1211.4 596.786 1211.27 596.443 1211.4 596.153C1211.52 595.863 1211.86 595.73 1212.16 595.854L1222.33 600.273C1222.63 600.397 1222.76 600.738 1222.63 601.03C1222.54 601.247 1222.33 601.377 1222.1 601.377Z" fill="#EF4507"/>
<path fill-rule="evenodd" clip-rule="evenodd" d="M1223.49 620.018C1223 618.183 1222.87 616.42 1223.22 615.053C1224.41 610.424 1228.59 607.096 1231.48 603.529C1234.91 599.282 1237.28 593.948 1237 588.495C1236.77 584.074 1237.52 580.296 1240.41 576.753C1243.25 573.273 1246.93 570.613 1249.94 567.293C1253.11 563.794 1255.91 560.106 1258.32 556.046C1260.36 552.62 1264.25 547.447 1267.8 552.726C1269.2 554.815 1269.78 557.443 1269.38 559.93C1268.33 566.462 1262.66 571.026 1260.5 577.125C1259.41 580.203 1259.44 583.431 1259.29 586.656C1259.16 589.551 1258.81 592.797 1256.88 595.105C1255.75 596.446 1254.28 597.483 1253.28 598.916C1251.88 600.916 1251.59 603.378 1251.2 605.724C1250.78 608.268 1249.98 610.521 1249.05 612.911C1246.73 618.857 1243.21 625.817 1237.28 628.789C1235.55 629.66 1233.56 630.191 1231.67 629.806C1227.43 628.951 1224.54 623.864 1223.49 620.018Z" fill="url(#paint50_linear)"/>
<path fill-rule="evenodd" clip-rule="evenodd" d="M1233.82 622.311L1233.61 622.272C1233.31 622.156 1233.17 621.821 1233.29 621.525L1250.57 577.35C1250.69 577.054 1251.03 576.908 1251.32 577.024C1251.61 577.14 1251.76 577.474 1251.64 577.769L1234.36 621.945C1234.27 622.173 1234.05 622.311 1233.82 622.311Z" fill="#EF4507"/>
<path fill-rule="evenodd" clip-rule="evenodd" d="M1244 595.612C1243.71 595.612 1243.46 595.396 1243.43 595.105L1241.7 580.315C1241.66 579.999 1241.89 579.711 1242.2 579.675C1242.55 579.646 1242.81 579.867 1242.84 580.18L1244.57 594.969C1244.61 595.286 1244.38 595.573 1244.07 595.61L1244 595.612Z" fill="#EF4507"/>
<path fill-rule="evenodd" clip-rule="evenodd" d="M1242.46 601.182L1241.98 600.927C1241.81 600.662 1241.88 600.304 1242.14 600.128L1253.09 592.831C1253.35 592.657 1253.71 592.722 1253.89 592.989C1254.07 593.254 1253.99 593.612 1253.73 593.788L1242.78 601.087L1242.46 601.182Z" fill="#EF4507"/>
<path fill-rule="evenodd" clip-rule="evenodd" d="M1235.16 617.704C1234.92 617.704 1234.69 617.544 1234.61 617.298L1231.93 608.653C1231.83 608.35 1232 608.026 1232.31 607.931C1232.6 607.838 1232.93 608.011 1233.03 608.312L1235.71 616.955C1235.81 617.26 1235.64 617.582 1235.33 617.676L1235.16 617.704Z" fill="#EF4507"/>
<path fill-rule="evenodd" clip-rule="evenodd" d="M1217.02 624.611C1217.08 623.29 1216.91 622.074 1216.47 621.194C1214.98 618.223 1211.65 616.578 1209.17 614.575C1206.21 612.193 1203.81 608.916 1203.2 605.168C1202.71 602.13 1201.64 599.671 1199.16 597.687C1196.72 595.741 1193.82 594.474 1191.29 592.66C1188.62 590.746 1186.17 588.652 1183.93 586.248C1182.05 584.217 1178.64 581.274 1177.01 585.383C1176.36 587.009 1176.36 588.882 1176.99 590.51C1178.67 594.798 1183.19 597.066 1185.55 600.895C1186.75 602.827 1187.2 605.025 1187.78 607.197C1188.29 609.145 1189.01 611.299 1190.66 612.583C1191.62 613.332 1192.78 613.818 1193.67 614.647C1194.91 615.8 1195.47 617.43 1196.08 618.968C1196.74 620.634 1197.62 622.048 1198.6 623.536C1201.05 627.237 1204.46 631.451 1208.94 632.6C1210.24 632.936 1211.67 633.004 1212.9 632.467C1215.66 631.259 1216.87 627.38 1217.02 624.611Z" fill="url(#paint51_linear)"/>
<path fill-rule="evenodd" clip-rule="evenodd" d="M1211.16 627.674L1210.68 627.418L1192.44 599.93C1192.26 599.665 1192.34 599.307 1192.6 599.13C1192.87 598.958 1193.23 599.029 1193.4 599.292L1211.64 626.78C1211.82 627.045 1211.75 627.403 1211.48 627.58L1211.16 627.674Z" fill="#EF4507"/>
<path fill-rule="evenodd" clip-rule="evenodd" d="M1200.32 611.022C1200.03 611.022 1199.78 610.801 1199.75 610.502L1198.75 600.197C1198.72 599.879 1198.95 599.597 1199.26 599.568C1199.57 599.541 1199.86 599.77 1199.89 600.085L1200.89 610.391C1200.92 610.708 1200.69 610.99 1200.38 611.02L1200.32 611.022Z" fill="#EF4507"/>
<path fill-rule="evenodd" clip-rule="evenodd" d="M1202.18 614.586L1201.97 614.544L1193.46 611.192C1193.16 611.076 1193.01 610.74 1193.13 610.445C1193.24 610.151 1193.58 610.01 1193.88 610.119L1202.39 613.471C1202.69 613.588 1202.84 613.923 1202.72 614.219C1202.63 614.445 1202.41 614.586 1202.18 614.586Z" fill="#EF4507"/>
<path fill-rule="evenodd" clip-rule="evenodd" d="M1209.57 624.739L1209.52 624.737C1209.2 624.71 1208.97 624.428 1209 624.112L1209.55 617.841C1209.58 617.525 1209.82 617.285 1210.18 617.319C1210.49 617.346 1210.73 617.628 1210.7 617.944L1210.15 624.216C1210.12 624.514 1209.87 624.739 1209.57 624.739Z" fill="#EF4507"/>
<path fill-rule="evenodd" clip-rule="evenodd" d="M1197.19 662.07H1246.9L1255.93 627.485H1188.15L1197.19 662.07Z" fill="#182F42"/>
<path fill-rule="evenodd" clip-rule="evenodd" d="M1184.95 627.485H1259.14V622.215H1184.95V627.485Z" fill="#112233"/>
<path fill-rule="evenodd" clip-rule="evenodd" d="M706.892 601.343C706.892 601.343 708.524 554.968 707.563 540.525C706.599 526.086 700.502 508.433 699.858 492.387C699.858 492.387 695.366 497.041 695.366 503.782C695.366 510.521 696.969 514.853 694.083 521.432C691.194 528.011 689.429 533.626 693.119 542.29C696.81 550.956 698.575 553.925 697.293 560.182C696.008 566.441 700.582 575.587 707.481 578.236" fill="url(#paint52_linear)"/>
<path fill-rule="evenodd" clip-rule="evenodd" d="M699.305 494.101C698.028 495.879 696.006 499.386 696.006 503.782C696.006 505.623 696.128 507.274 696.246 508.873C696.555 513.119 696.824 516.784 694.672 521.69C691.901 527.996 690.073 533.5 693.71 542.04L694.832 544.646C697.767 551.434 699.107 554.531 697.923 560.312C696.797 565.785 700.546 574.31 706.923 577.302C707.22 563.668 707.409 547.901 706.921 540.569C706.475 533.891 704.941 526.601 703.319 518.886C701.594 510.685 699.812 502.221 699.305 494.101ZM707.533 601.365L706.252 601.32C706.258 601.104 706.612 590.923 706.89 578.69C699.574 575.635 695.389 566.262 696.664 560.054C697.767 554.668 696.563 551.884 693.654 545.158C693.302 544.344 692.926 543.477 692.53 542.54C688.69 533.529 690.601 527.769 693.496 521.173C695.52 516.561 695.263 513.041 694.964 508.966C694.847 507.346 694.725 505.669 694.725 503.782C694.725 496.862 699.206 492.138 699.397 491.943L700.441 490.861L700.5 492.361C700.841 500.885 702.741 509.902 704.575 518.621C706.208 526.384 707.75 533.714 708.202 540.483C709.153 554.794 707.55 600.902 707.533 601.365Z" fill="url(#paint53_linear)"/>
<path fill-rule="evenodd" clip-rule="evenodd" d="M704.592 601.343C704.592 601.343 694.832 542.879 669.157 522.77C669.157 522.77 666.161 529.856 670.655 535.391C675.147 540.929 672.019 549.673 677.956 557.535C683.893 565.4 690.472 564.996 691.436 571.897C692.4 578.798 691.916 581.926 700.822 584.895" fill="url(#paint54_linear)"/>
<path fill-rule="evenodd" clip-rule="evenodd" d="M669.467 523.841C668.878 525.802 667.828 530.891 671.154 534.987C673.368 537.712 673.818 541.129 674.3 544.748C674.845 548.85 675.406 553.094 678.468 557.15C681.009 560.515 683.647 562.313 685.977 563.898C688.935 565.915 691.491 567.655 692.07 571.808C692.16 572.457 692.238 573.071 692.314 573.654C692.983 578.945 693.305 581.489 700.031 583.94C695.143 565.37 685.434 536.946 669.467 523.841ZM703.961 601.447C703.927 601.255 702.814 594.758 700.42 585.438C692.154 582.635 691.758 579.49 691.039 573.816C690.967 573.237 690.889 572.627 690.801 571.985C690.298 568.394 688.184 566.955 685.253 564.96C682.964 563.399 680.113 561.459 677.445 557.922C674.178 553.597 673.565 548.985 673.027 544.916C672.551 541.335 672.141 538.24 670.155 535.795C665.474 530.026 668.438 522.822 668.564 522.519L668.893 521.747L669.553 522.265C695.127 542.297 705.127 600.649 705.226 601.238L703.961 601.447Z" fill="url(#paint55_linear)"/>
<path fill-rule="evenodd" clip-rule="evenodd" d="M709.589 600.7C709.589 600.7 706.05 551.188 725.627 538.6C725.627 538.6 726.633 543.277 723.225 547.144C719.816 551.013 722.635 555.143 720.405 560.321C718.175 565.499 715.817 565.105 714.636 570.677C713.456 576.25 716.408 578.545 714.31 581.821C712.213 585.099 709.326 589.492 709.326 589.492" fill="url(#paint56_linear)"/>
<path fill-rule="evenodd" clip-rule="evenodd" d="M725.108 539.734C713.166 548.423 710.494 572.042 710.066 587.188C711.095 585.614 712.564 583.361 713.769 581.476C714.729 579.978 714.483 578.728 714.142 576.997C713.818 575.364 713.42 573.33 714.007 570.544C714.706 567.251 715.831 565.901 717.024 564.47C717.935 563.376 718.878 562.246 719.816 560.066C720.761 557.87 720.748 555.863 720.733 553.925C720.717 551.411 720.7 549.037 722.743 546.719C724.977 544.186 725.181 541.24 725.108 539.734ZM708.949 600.744C708.804 598.709 705.608 550.708 725.28 538.059L726.063 537.558L726.254 538.465C726.3 538.671 727.287 543.504 723.704 547.569C721.987 549.519 722.002 551.558 722.019 553.916C722.032 555.89 722.046 558.131 720.994 560.575C719.984 562.923 718.937 564.182 718.009 565.293C716.875 566.652 715.894 567.83 715.265 570.811C714.729 573.338 715.086 575.149 715.4 576.748C715.753 578.543 716.086 580.235 714.849 582.166C713.037 584.998 710.637 588.661 710.016 589.61C709.925 596.082 710.22 600.508 710.231 600.653L708.949 600.744Z" fill="url(#paint57_linear)"/>
<path fill-rule="evenodd" clip-rule="evenodd" d="M718.724 666.115H695.972L689.671 599.364H725.026L718.724 666.115Z" fill="#131B1F"/>
<path fill-rule="evenodd" clip-rule="evenodd" d="M974.182 663.164L923.24 643.481C918.828 641.777 916.631 636.816 918.335 632.402L938.02 581.461C939.724 577.049 944.685 574.853 949.097 576.557L1000.04 596.242C1004.45 597.946 1006.65 602.907 1004.94 607.319L985.262 658.261C983.555 662.676 978.596 664.87 974.182 663.164Z" fill="url(#paint58_linear)"/>
<path fill-rule="evenodd" clip-rule="evenodd" d="M974.435 630.435L954.435 622.709L952.905 597.809L942.545 593.807C941.876 593.549 941.123 593.881 940.864 594.55C940.606 595.219 940.938 595.974 941.609 596.233L950.41 599.633L951.944 624.533L973.499 632.861C974.168 633.119 974.921 632.787 975.18 632.118C975.438 631.447 975.106 630.694 974.435 630.435ZM968.859 633.393C966.953 632.654 964.809 633.606 964.073 635.512C963.337 637.418 964.285 639.562 966.192 640.298C968.1 641.035 970.242 640.086 970.98 638.177C971.714 636.271 970.766 634.129 968.859 633.393ZM955.611 628.272C953.705 627.538 951.561 628.484 950.824 630.391C950.088 632.297 951.035 634.441 952.941 635.179C954.849 635.913 956.991 634.967 957.73 633.061C958.464 631.154 957.517 629.01 955.611 628.272ZM974.591 627.994L985.563 616.254L956.636 605.078L956.865 621.144L974.591 627.994Z" fill="#FFFFFE"/>
<path fill-rule="evenodd" clip-rule="evenodd" d="M1079.22 663.612H1027.03C1022.51 663.612 1018.84 659.947 1018.84 655.425V603.231C1018.84 598.709 1022.51 595.042 1027.03 595.042H1079.22C1083.74 595.042 1087.41 598.709 1087.41 603.231V655.425C1087.41 659.947 1083.74 663.612 1079.22 663.612Z" fill="url(#paint59_linear)"/>
<path fill-rule="evenodd" clip-rule="evenodd" d="M1041.32 642.448L1025.71 642.141L1025.39 629.217L1025.68 628.941C1032.49 622.516 1036.42 619.21 1037.37 619.116C1038.52 619 1043.69 619.099 1044.28 619.111L1044.24 620.9C1042.68 620.868 1038.44 620.809 1037.55 620.896C1036.8 621.213 1031.72 625.716 1027.2 629.97L1027.45 640.386L1040.83 640.647L1051.29 634.174C1052.39 633.496 1052.78 632.116 1052.2 630.963C1051.69 629.926 1050.5 629.377 1049.37 629.671L1040.62 631.927L1040.17 630.193L1048.93 627.937C1050.86 627.451 1052.91 628.375 1053.8 630.161C1054.8 632.147 1054.12 634.525 1052.23 635.695L1041.32 642.448Z" fill="#FFFFFE"/>
<path fill-rule="evenodd" clip-rule="evenodd" d="M1075.56 639.398H1046V637.609H1075.56C1075.95 637.609 1076.27 637.289 1076.27 636.894V618.71C1076.27 618.316 1075.95 617.996 1075.56 617.996H1045.95C1045.56 617.996 1045.24 618.316 1045.24 618.71V630.044H1043.45V618.71C1043.45 617.329 1044.57 616.208 1045.95 616.208H1075.56C1076.94 616.208 1078.06 617.329 1078.06 618.71V636.894C1078.06 638.274 1076.94 639.398 1075.56 639.398Z" fill="#FFFFFE"/>
<path fill-rule="evenodd" clip-rule="evenodd" d="M1045.24 623.397H1076.27V621.125H1045.24V623.397ZM1043.45 625.185H1078.06V619.336H1043.45V625.185Z" fill="#FFFFFE"/>
<path fill-rule="evenodd" clip-rule="evenodd" d="M897.089 204.742H982.264C984.3 204.742 985.95 203.093 985.95 201.058V182.75C985.95 180.715 984.3 179.066 982.264 179.066H880.265C878.232 179.066 876.583 180.715 876.583 182.75V201.058C876.583 203.093 878.232 204.742 880.265 204.742H883.179V218.651L897.089 204.742Z" fill="url(#paint60_linear)"/>
<path fill-rule="evenodd" clip-rule="evenodd" d="M882.706 186.198H977.391V184.772H882.706V186.198Z" fill="#FFFFFE"/>
<path fill-rule="evenodd" clip-rule="evenodd" d="M882.706 192.617H977.391V191.191H882.706V192.617Z" fill="#FFFFFE"/>
<path fill-rule="evenodd" clip-rule="evenodd" d="M882.706 199.037H938.994V197.61H882.706V199.037Z" fill="#FFFFFE"/>
</g>
<defs>
<linearGradient id="paint0_linear" x1="-39.5" y1="567" x2="104" y2="-91.5" gradientUnits="userSpaceOnUse">
<stop stop-color="#E62129"/>
<stop offset="0.450992" stop-color="#EF4507"/>
<stop offset="1" stop-color="#F56D06"/>
</linearGradient>
<linearGradient id="paint1_linear" x1="723" y1="1209.5" x2="942" y2="206.5" gradientUnits="userSpaceOnUse">
<stop stop-color="#E62129"/>
<stop offset="0.450992" stop-color="#EF4507"/>
<stop offset="1" stop-color="#F56D06"/>
</linearGradient>
<linearGradient id="paint2_linear" x1="1138.71" y1="400.535" x2="1140.85" y2="438.847" gradientUnits="userSpaceOnUse">
<stop stop-color="#FFD3A5"/>
<stop offset="1" stop-color="#FD6585"/>
</linearGradient>
<linearGradient id="paint3_linear" x1="1138.71" y1="434.228" x2="1140.85" y2="472.539" gradientUnits="userSpaceOnUse">
<stop stop-color="#FFD3A5"/>
<stop offset="1" stop-color="#FD6585"/>
</linearGradient>
<linearGradient id="paint4_linear" x1="1169.26" y1="467.922" x2="1172.08" y2="506.138" gradientUnits="userSpaceOnUse">
<stop stop-color="#FFD3A5"/>
<stop offset="1" stop-color="#FD6585"/>
</linearGradient>
<linearGradient id="paint5_linear" x1="1169.26" y1="501.613" x2="1172.08" y2="539.829" gradientUnits="userSpaceOnUse">
<stop stop-color="#FFD3A5"/>
<stop offset="1" stop-color="#FD6585"/>
</linearGradient>
<linearGradient id="paint6_linear" x1="1169.26" y1="535.305" x2="1172.08" y2="573.522" gradientUnits="userSpaceOnUse">
<stop stop-color="#FFD3A5"/>
<stop offset="1" stop-color="#FD6585"/>
</linearGradient>
<linearGradient id="paint7_linear" x1="835.479" y1="400.535" x2="837.617" y2="438.847" gradientUnits="userSpaceOnUse">
<stop stop-color="#FFD3A5"/>
<stop offset="1" stop-color="#FD6585"/>
</linearGradient>
<linearGradient id="paint8_linear" x1="835.479" y1="434.228" x2="837.617" y2="472.539" gradientUnits="userSpaceOnUse">
<stop stop-color="#FFD3A5"/>
<stop offset="1" stop-color="#FD6585"/>
</linearGradient>
<linearGradient id="paint9_linear" x1="824.44" y1="467.922" x2="827.259" y2="506.138" gradientUnits="userSpaceOnUse">
<stop stop-color="#FFD3A5"/>
<stop offset="1" stop-color="#FD6585"/>
</linearGradient>
<linearGradient id="paint10_linear" x1="824.44" y1="501.613" x2="827.259" y2="539.829" gradientUnits="userSpaceOnUse">
<stop stop-color="#FFD3A5"/>
<stop offset="1" stop-color="#FD6585"/>
</linearGradient>
<linearGradient id="paint11_linear" x1="824.44" y1="535.305" x2="827.259" y2="573.522" gradientUnits="userSpaceOnUse">
<stop stop-color="#FFD3A5"/>
<stop offset="1" stop-color="#FD6585"/>
</linearGradient>
<linearGradient id="paint12_linear" x1="720.684" y1="312.016" x2="839.1" y2="312.016" gradientUnits="userSpaceOnUse">
<stop stop-color="#FB6B14"/>
<stop offset="1" stop-color="#FDB522"/>
</linearGradient>
<linearGradient id="paint13_linear" x1="874.13" y1="312" x2="964.547" y2="312" gradientUnits="userSpaceOnUse">
<stop stop-color="#FB6B14"/>
<stop offset="1" stop-color="#FDB522"/>
</linearGradient>
<linearGradient id="paint14_linear" x1="1027.28" y1="311.888" x2="1103.85" y2="311.888" gradientUnits="userSpaceOnUse">
<stop stop-color="#FB6B14"/>
<stop offset="1" stop-color="#FDB522"/>
</linearGradient>
<linearGradient id="paint15_linear" x1="1152.73" y1="311.698" x2="1256.99" y2="311.698" gradientUnits="userSpaceOnUse">
<stop stop-color="#FB6B14"/>
<stop offset="1" stop-color="#FDB522"/>
</linearGradient>
<linearGradient id="paint16_linear" x1="759.168" y1="391.83" x2="759.168" y2="336.509" gradientUnits="userSpaceOnUse">
<stop stop-color="#E62129"/>
<stop offset="0.450992" stop-color="#EF4507"/>
<stop offset="1" stop-color="#F56D06"/>
</linearGradient>
<linearGradient id="paint17_linear" x1="818.131" y1="341.251" x2="879.996" y2="465.34" gradientUnits="userSpaceOnUse">
<stop stop-color="#FFD3A5"/>
<stop offset="1" stop-color="#FD6585"/>
</linearGradient>
<linearGradient id="paint18_linear" x1="913.191" y1="391.83" x2="913.191" y2="336.509" gradientUnits="userSpaceOnUse">
<stop stop-color="#E62129"/>
<stop offset="0.450992" stop-color="#EF4507"/>
<stop offset="1" stop-color="#F56D06"/>
</linearGradient>
<linearGradient id="paint19_linear" x1="970.761" y1="341.251" x2="1032.63" y2="465.339" gradientUnits="userSpaceOnUse">
<stop stop-color="#FFD3A5"/>
<stop offset="1" stop-color="#FD6585"/>
</linearGradient>
<linearGradient id="paint20_linear" x1="1065.76" y1="391.83" x2="1065.76" y2="336.509" gradientUnits="userSpaceOnUse">
<stop stop-color="#E62129"/>
<stop offset="0.450992" stop-color="#EF4507"/>
<stop offset="1" stop-color="#F56D06"/>
</linearGradient>
<linearGradient id="paint21_linear" x1="1124.65" y1="341.251" x2="1186.52" y2="465.337" gradientUnits="userSpaceOnUse">
<stop stop-color="#FFD3A5"/>
<stop offset="1" stop-color="#FD6585"/>
</linearGradient>
<linearGradient id="paint22_linear" x1="1219.65" y1="391.83" x2="1219.65" y2="336.509" gradientUnits="userSpaceOnUse">
<stop stop-color="#E62129"/>
<stop offset="0.450992" stop-color="#EF4507"/>
<stop offset="1" stop-color="#F56D06"/>
</linearGradient>
<linearGradient id="paint23_linear" x1="1276.95" y1="341.251" x2="1338.82" y2="465.34" gradientUnits="userSpaceOnUse">
<stop stop-color="#FFD3A5"/>
<stop offset="1" stop-color="#FD6585"/>
</linearGradient>
<linearGradient id="paint24_linear" x1="1007.38" y1="411.537" x2="1130.24" y2="574.682" gradientUnits="userSpaceOnUse">
<stop stop-color="#FFD3A5"/>
<stop offset="1" stop-color="#FD6585"/>
</linearGradient>
<linearGradient id="paint25_linear" x1="1027.1" y1="474.96" x2="1027.1" y2="428.861" gradientUnits="userSpaceOnUse">
<stop stop-color="#E62129"/>
<stop offset="0.450992" stop-color="#EF4507"/>
<stop offset="1" stop-color="#F56D06"/>
</linearGradient>
<linearGradient id="paint26_linear" x1="1040.36" y1="472.432" x2="1040.36" y2="430.365" gradientUnits="userSpaceOnUse">
<stop stop-color="#E62129"/>
<stop offset="0.450992" stop-color="#EF4507"/>
<stop offset="1" stop-color="#F56D06"/>
</linearGradient>
<linearGradient id="paint27_linear" x1="1013.84" y1="472.432" x2="1013.84" y2="430.365" gradientUnits="userSpaceOnUse">
<stop stop-color="#E62129"/>
<stop offset="0.450992" stop-color="#EF4507"/>
<stop offset="1" stop-color="#F56D06"/>
</linearGradient>
<linearGradient id="paint28_linear" x1="1027.1" y1="472.461" x2="1027.1" y2="430.673" gradientUnits="userSpaceOnUse">
<stop stop-color="#E62129"/>
<stop offset="0.450992" stop-color="#EF4507"/>
<stop offset="1" stop-color="#F56D06"/>
</linearGradient>
<linearGradient id="paint29_linear" x1="1027.1" y1="430.115" x2="1027.1" y2="409.827" gradientUnits="userSpaceOnUse">
<stop stop-color="#E62129"/>
<stop offset="0.450992" stop-color="#EF4507"/>
<stop offset="1" stop-color="#F56D06"/>
</linearGradient>
<linearGradient id="paint30_linear" x1="1026.96" y1="442.672" x2="1026.96" y2="438.507" gradientUnits="userSpaceOnUse">
<stop stop-color="#E62129"/>
<stop offset="0.450992" stop-color="#EF4507"/>
<stop offset="1" stop-color="#F56D06"/>
</linearGradient>
<linearGradient id="paint31_linear" x1="1027.51" y1="454.49" x2="1027.51" y2="450.325" gradientUnits="userSpaceOnUse">
<stop stop-color="#E62129"/>
<stop offset="0.450992" stop-color="#EF4507"/>
<stop offset="1" stop-color="#F56D06"/>
</linearGradient>
<linearGradient id="paint32_linear" x1="1027.31" y1="545.267" x2="1027.31" y2="501.818" gradientUnits="userSpaceOnUse">
<stop stop-color="#E62129"/>
<stop offset="0.450992" stop-color="#EF4507"/>
<stop offset="1" stop-color="#F56D06"/>
</linearGradient>
<linearGradient id="paint33_linear" x1="1320.44" y1="443.041" x2="1317" y2="493.004" gradientUnits="userSpaceOnUse">
<stop stop-color="#FFAA85"/>
<stop offset="1" stop-color="#B3315F"/>
</linearGradient>
<linearGradient id="paint34_linear" x1="1349.37" y1="440.807" x2="1488.63" y2="537.293" gradientUnits="userSpaceOnUse">
<stop stop-color="#FFD3A5"/>
<stop offset="1" stop-color="#FD6585"/>
</linearGradient>
<linearGradient id="paint35_linear" x1="1358.65" y1="447.25" x2="1347.73" y2="536.02" gradientUnits="userSpaceOnUse">
<stop stop-color="#FFAA85"/>
<stop offset="1" stop-color="#B3315F"/>
</linearGradient>
<linearGradient id="paint36_linear" x1="769.454" y1="176.216" x2="886.203" y2="253.909" gradientUnits="userSpaceOnUse">
<stop stop-color="#FFD3A5"/>
<stop offset="1" stop-color="#FD6585"/>
</linearGradient>
<linearGradient id="paint37_linear" x1="769.822" y1="172.383" x2="762.492" y2="217.58" gradientUnits="userSpaceOnUse">
<stop stop-color="#FFAA85"/>
<stop offset="1" stop-color="#B3315F"/>
</linearGradient>
<linearGradient id="paint38_linear" x1="792.827" y1="455.561" x2="781.067" y2="533.155" gradientUnits="userSpaceOnUse">
<stop stop-color="#FFAA85"/>
<stop offset="1" stop-color="#B3315F"/>
</linearGradient>
<linearGradient id="paint39_linear" x1="805.569" y1="451.631" x2="934.596" y2="541.522" gradientUnits="userSpaceOnUse">
<stop stop-color="#FFD3A5"/>
<stop offset="1" stop-color="#FD6585"/>
</linearGradient>
<linearGradient id="paint40_linear" x1="831.01" y1="457.829" x2="824.317" y2="522.792" gradientUnits="userSpaceOnUse">
<stop stop-color="#FFAA85"/>
<stop offset="1" stop-color="#B3315F"/>
</linearGradient>
<linearGradient id="paint41_linear" x1="856.408" y1="529.171" x2="950.593" y2="635.833" gradientUnits="userSpaceOnUse">
<stop stop-color="#FFD3A5"/>
<stop offset="1" stop-color="#FD6585"/>
</linearGradient>
<linearGradient id="paint42_linear" x1="862.262" y1="573.321" x2="861.928" y2="587.168" gradientUnits="userSpaceOnUse">
<stop stop-color="#FFAA85"/>
<stop offset="1" stop-color="#B3315F"/>
</linearGradient>
<linearGradient id="paint43_linear" x1="849.753" y1="529.674" x2="833.773" y2="595.639" gradientUnits="userSpaceOnUse">
<stop stop-color="#FFAA85"/>
<stop offset="1" stop-color="#B3315F"/>
</linearGradient>
<linearGradient id="paint44_linear" x1="872.209" y1="509.395" x2="900.838" y2="509.395" gradientUnits="userSpaceOnUse">
<stop stop-color="#FB6B14"/>
<stop offset="1" stop-color="#FDB522"/>
</linearGradient>
<linearGradient id="paint45_linear" x1="869.08" y1="509.395" x2="897.709" y2="509.395" gradientUnits="userSpaceOnUse">
<stop stop-color="#FB6B14"/>
<stop offset="1" stop-color="#FDB522"/>
</linearGradient>
<linearGradient id="paint46_linear" x1="862.479" y1="550.093" x2="905.356" y2="550.093" gradientUnits="userSpaceOnUse">
<stop stop-color="#FB6B14"/>
<stop offset="1" stop-color="#FDB522"/>
</linearGradient>
<linearGradient id="paint47_linear" x1="881.535" y1="581.754" x2="881.535" y2="577.484" gradientUnits="userSpaceOnUse">
<stop stop-color="#E62129"/>
<stop offset="0.450992" stop-color="#EF4507"/>
<stop offset="1" stop-color="#F56D06"/>
</linearGradient>
<linearGradient id="paint48_linear" x1="862.637" y1="591.72" x2="862.637" y2="527.773" gradientUnits="userSpaceOnUse">
<stop stop-color="#E62129"/>
<stop offset="0.450992" stop-color="#EF4507"/>
<stop offset="1" stop-color="#F56D06"/>
</linearGradient>
<linearGradient id="paint49_linear" x1="1221.52" y1="552.265" x2="1194.57" y2="666.443" gradientUnits="userSpaceOnUse">
<stop stop-color="#FFAA85"/>
<stop offset="1" stop-color="#B3315F"/>
</linearGradient>
<linearGradient id="paint50_linear" x1="1235.36" y1="565.447" x2="1352.44" y2="656.384" gradientUnits="userSpaceOnUse">
<stop stop-color="#FFD3A5"/>
<stop offset="1" stop-color="#FD6585"/>
</linearGradient>
<linearGradient id="paint51_linear" x1="1187.27" y1="592.655" x2="1262.36" y2="674.181" gradientUnits="userSpaceOnUse">
<stop stop-color="#FFD3A5"/>
<stop offset="1" stop-color="#FD6585"/>
</linearGradient>
<linearGradient id="paint52_linear" x1="699.449" y1="621.104" x2="699.449" y2="502.784" gradientUnits="userSpaceOnUse">
<stop stop-color="#E62129"/>
<stop offset="0.450992" stop-color="#EF4507"/>
<stop offset="1" stop-color="#F56D06"/>
</linearGradient>
<linearGradient id="paint53_linear" x1="699.441" y1="621.406" x2="699.441" y2="501.406" gradientUnits="userSpaceOnUse">
<stop stop-color="#E62129"/>
<stop offset="0.450992" stop-color="#EF4507"/>
<stop offset="1" stop-color="#F56D06"/>
</linearGradient>
<linearGradient id="paint54_linear" x1="686.386" y1="615.594" x2="686.386" y2="530.268" gradientUnits="userSpaceOnUse">
<stop stop-color="#E62129"/>
<stop offset="0.450992" stop-color="#EF4507"/>
<stop offset="1" stop-color="#F56D06"/>
</linearGradient>
<linearGradient id="paint55_linear" x1="686.374" y1="615.901" x2="686.374" y2="529.353" gradientUnits="userSpaceOnUse">
<stop stop-color="#E62129"/>
<stop offset="0.450992" stop-color="#EF4507"/>
<stop offset="1" stop-color="#F56D06"/>
</linearGradient>
<linearGradient id="paint56_linear" x1="717.546" y1="611.962" x2="717.546" y2="544.526" gradientUnits="userSpaceOnUse">
<stop stop-color="#E62129"/>
<stop offset="0.450992" stop-color="#EF4507"/>
<stop offset="1" stop-color="#F56D06"/>
</linearGradient>
<linearGradient id="paint57_linear" x1="717.543" y1="612.203" x2="717.543" y2="543.588" gradientUnits="userSpaceOnUse">
<stop stop-color="#E62129"/>
<stop offset="0.450992" stop-color="#EF4507"/>
<stop offset="1" stop-color="#F56D06"/>
</linearGradient>
<linearGradient id="paint58_linear" x1="941.054" y1="592.524" x2="1069.32" y2="762.848" gradientUnits="userSpaceOnUse">
<stop stop-color="#FFD3A5"/>
<stop offset="1" stop-color="#FD6585"/>
</linearGradient>
<linearGradient id="paint59_linear" x1="1018.84" y1="629.324" x2="1087.41" y2="629.324" gradientUnits="userSpaceOnUse">
<stop stop-color="#FB6B14"/>
<stop offset="1" stop-color="#FDB522"/>
</linearGradient>
<linearGradient id="paint60_linear" x1="905.613" y1="186.528" x2="936.159" y2="298.594" gradientUnits="userSpaceOnUse">
<stop stop-color="#FFD3A5"/>
<stop offset="1" stop-color="#FD6585"/>
</linearGradient>
<clipPath id="clip0">
<rect width="1440" height="900" fill="white"/>
</clipPath>
</defs>
</svg>
