<svg width="39" height="28" viewBox="0 0 39 28" fill="none" xmlns="http://www.w3.org/2000/svg">
<path d="M26 21.3333H2C1.46957 21.3333 0.960859 21.1226 0.585786 20.7475C0.210714 20.3725 0 19.8638 0 19.3333V2C0 1.46957 0.210714 0.960859 0.585786 0.585786C0.960859 0.210713 1.46957 0 2 0H31.3333C31.8638 0 32.3725 0.210713 32.7475 0.585786C33.1226 0.960859 33.3333 1.46957 33.3333 2V5.33333C33.3333 5.51014 33.2631 5.67971 33.1381 5.80474C33.013 5.92976 32.8435 6 32.6667 6H27.3333C27.1565 6 26.987 6.07024 26.8619 6.19526C26.7369 6.32029 26.6667 6.48986 26.6667 6.66667V20.6667C26.6667 20.8435 26.5964 21.013 26.4714 21.1381C26.3464 21.2631 26.1768 21.3333 26 21.3333ZM2 1.33333C1.82319 1.33333 1.65362 1.40357 1.5286 1.5286C1.40357 1.65362 1.33333 1.82319 1.33333 2V19.3333C1.33333 19.5101 1.40357 19.6797 1.5286 19.8047C1.65362 19.9298 1.82319 20 2 20H25.3333V6.66667C25.3333 6.13623 25.544 5.62753 25.9191 5.25245C26.2942 4.87738 26.8029 4.66667 27.3333 4.66667H32V2C32 1.82319 31.9298 1.65362 31.8047 1.5286C31.6797 1.40357 31.5101 1.33333 31.3333 1.33333H2Z" fill="#332C2B"/>
<path d="M26 18.6667H3.33333C2.97971 18.6667 2.64057 18.5262 2.39052 18.2761C2.14048 18.0261 2 17.687 2 17.3333V3.33333C2 2.97971 2.14048 2.64057 2.39052 2.39052C2.64057 2.14048 2.97971 2 3.33333 2H30C30.3536 2 30.6928 2.14048 30.9428 2.39052C31.1929 2.64057 31.3333 2.97971 31.3333 3.33333V5.33333C31.3333 5.51014 31.2631 5.67971 31.1381 5.80474C31.013 5.92976 30.8435 6 30.6667 6H27.3333C27.1565 6 26.987 6.07024 26.8619 6.19526C26.7369 6.32029 26.6667 6.48986 26.6667 6.66667V18C26.6667 18.1768 26.5964 18.3464 26.4714 18.4714C26.3464 18.5964 26.1768 18.6667 26 18.6667ZM3.33333 3.33333V17.3333H25.3333V6.66667C25.3333 6.13623 25.544 5.62753 25.9191 5.25245C26.2942 4.87738 26.8029 4.66667 27.3333 4.66667H30V3.33333H3.33333Z" fill="#332C2B"/>
<path d="M18.666 25.9993H14.666C14.1356 25.9993 13.6269 25.7886 13.2518 25.4136C12.8767 25.0385 12.666 24.5298 12.666 23.9993V22.666C12.666 22.1356 12.8767 21.6269 13.2518 21.2518C13.6269 20.8767 14.1356 20.666 14.666 20.666H18.666C19.1964 20.666 19.7052 20.8767 20.0802 21.2518C20.4553 21.6269 20.666 22.1356 20.666 22.666V23.9993C20.666 24.5298 20.4553 25.0385 20.0802 25.4136C19.7052 25.7886 19.1964 25.9993 18.666 25.9993ZM14.666 21.9993C14.4892 21.9993 14.3196 22.0696 14.1946 22.1946C14.0696 22.3196 13.9993 22.4892 13.9993 22.666V23.9993C13.9997 24.1139 14.0295 24.2264 14.086 24.326C14.1439 24.429 14.2281 24.5147 14.33 24.5745C14.4319 24.6342 14.5479 24.6658 14.666 24.666H18.666C18.8428 24.666 19.0124 24.5958 19.1374 24.4708C19.2624 24.3457 19.3327 24.1762 19.3327 23.9993V22.666C19.3327 22.4892 19.2624 22.3196 19.1374 22.1946C19.0124 22.0696 18.8428 21.9993 18.666 21.9993H14.666Z" fill="#332C2B"/>
<path d="M22.0007 28H11.334C10.8036 28 10.2948 27.7893 9.91977 27.4142C9.5447 27.0391 9.33398 26.5304 9.33398 26C9.33398 25.4696 9.5447 24.9609 9.91977 24.5858C10.2948 24.2107 10.8036 24 11.334 24H13.514C13.6303 24.0007 13.7445 24.0318 13.845 24.0903C13.9456 24.1488 14.0291 24.2326 14.0873 24.3333C14.1461 24.4351 14.2306 24.5195 14.3325 24.578C14.4343 24.6366 14.5498 24.6671 14.6673 24.6667H18.6673C18.7848 24.6671 18.9003 24.6366 19.0022 24.578C19.104 24.5195 19.1886 24.4351 19.2473 24.3333C19.3055 24.2326 19.389 24.1488 19.4896 24.0903C19.5902 24.0318 19.7043 24.0007 19.8207 24H22.0007C22.5311 24 23.0398 24.2107 23.4149 24.5858C23.7899 24.9609 24.0007 25.4696 24.0007 26C24.0007 26.5304 23.7899 27.0391 23.4149 27.4142C23.0398 27.7893 22.5311 28 22.0007 28ZM11.334 25.3333C11.1614 25.3358 10.9965 25.4051 10.874 25.5267C10.8098 25.5879 10.7584 25.6612 10.723 25.7425C10.6875 25.8238 10.6686 25.9113 10.6673 26C10.6673 26.1768 10.7376 26.3464 10.8626 26.4714C10.9876 26.5964 11.1572 26.6667 11.334 26.6667H22.0007C22.1732 26.6642 22.3381 26.5949 22.4607 26.4733C22.5248 26.4121 22.5762 26.3388 22.6117 26.2575C22.6472 26.1762 22.6661 26.0887 22.6673 26C22.6673 25.8232 22.5971 25.6536 22.4721 25.5286C22.347 25.4036 22.1775 25.3333 22.0007 25.3333H20.1607C19.9728 25.5434 19.7426 25.7114 19.4852 25.8263C19.2279 25.9412 18.9492 26.0004 18.6673 26H14.6673C14.3855 26.0004 14.1068 25.9412 13.8494 25.8263C13.592 25.7114 13.3619 25.5434 13.174 25.3333H11.334Z" fill="#332C2B"/>
<path d="M36.6673 25.9993H27.334C26.8036 25.9993 26.2948 25.7886 25.9198 25.4136C25.5447 25.0385 25.334 24.5298 25.334 23.9993V6.66602C25.334 6.13558 25.5447 5.62687 25.9198 5.2518C26.2948 4.87673 26.8036 4.66602 27.334 4.66602H36.6673C37.1978 4.66602 37.7065 4.87673 38.0815 5.2518C38.4566 5.62687 38.6673 6.13558 38.6673 6.66602V23.9993C38.6673 24.5298 38.4566 25.0385 38.0815 25.4136C37.7065 25.7886 37.1978 25.9993 36.6673 25.9993ZM27.334 5.99935C27.1572 5.99935 26.9876 6.06959 26.8626 6.19461C26.7376 6.31963 26.6673 6.4892 26.6673 6.66602V23.9993C26.6673 24.1762 26.7376 24.3457 26.8626 24.4708C26.9876 24.5958 27.1572 24.666 27.334 24.666H36.6673C36.8441 24.666 37.0137 24.5958 37.1387 24.4708C37.2637 24.3457 37.334 24.1762 37.334 23.9993V6.66602C37.334 6.4892 37.2637 6.31963 37.1387 6.19461C37.0137 6.06959 36.8441 5.99935 36.6673 5.99935H27.334ZM36.0007 23.3327H28.0007C27.8238 23.3327 27.6543 23.2624 27.5292 23.1374C27.4042 23.0124 27.334 22.8428 27.334 22.666V7.33268C27.334 7.15587 27.4042 6.9863 27.5292 6.86128C27.6543 6.73625 27.8238 6.66602 28.0007 6.66602H36.0007C36.1775 6.66602 36.347 6.73625 36.4721 6.86128C36.5971 6.9863 36.6673 7.15587 36.6673 7.33268V22.666C36.6673 22.8428 36.5971 23.0124 36.4721 23.1374C36.347 23.2624 36.1775 23.3327 36.0007 23.3327ZM28.6673 21.9993H35.334V7.99935H28.6673V21.9993Z" fill="#332C2B"/>
<path d="M36.0007 23.3327H28.0007C27.8238 23.3327 27.6543 23.2624 27.5292 23.1374C27.4042 23.0124 27.334 22.8428 27.334 22.666V7.33268C27.334 7.15587 27.4042 6.9863 27.5292 6.86128C27.6543 6.73625 27.8238 6.66602 28.0007 6.66602H36.0007C36.1775 6.66602 36.347 6.73625 36.4721 6.86128C36.5971 6.9863 36.6673 7.15587 36.6673 7.33268V22.666C36.6673 22.8428 36.5971 23.0124 36.4721 23.1374C36.347 23.2624 36.1775 23.3327 36.0007 23.3327ZM28.6673 21.9993H35.334V7.99935H28.6673V21.9993Z" fill="#332C2B"/>
</svg>
