<svg width="20" height="18" viewBox="0 0 20 18" fill="none" xmlns="http://www.w3.org/2000/svg">
<path d="M17.2024 4.12747H15.523V2.30618C15.523 1.31275 14.7188 0.508545 13.7254 0.508545H6.27464C5.28121 0.508545 4.477 1.31275 4.477 2.30618V4.12747H2.79763C1.8042 4.12747 1 4.93167 1 5.9251V12.2878C1 13.2812 1.8042 14.0854 2.79763 14.0854H4.477V15.6938C4.477 16.6873 5.28121 17.4915 6.27464 17.4915H13.7254C14.7188 17.4915 15.523 16.6873 15.523 15.6938V14.0854H17.2024C18.1958 14.0854 19 13.2812 19 12.2878V5.9251C19 4.93167 18.1958 4.12747 17.2024 4.12747ZM5.75427 2.28253C5.75427 1.99869 5.9908 1.76216 6.27464 1.76216H13.7254C14.0092 1.76216 14.2457 1.99869 14.2457 2.28253V4.10381H5.73062V2.28253H5.75427ZM14.2694 15.6938C14.2694 15.9777 14.0329 16.2142 13.749 16.2142H6.27464C5.9908 16.2142 5.75427 15.9777 5.75427 15.6938V10.7267H14.2694V15.6938ZM17.7464 12.2878C17.7464 12.5716 17.5099 12.8082 17.226 12.8082H15.5466V9.44941H4.477V12.8082H2.79763C2.5138 12.8082 2.27727 12.5716 2.27727 12.2878V5.9251C2.27727 5.64126 2.5138 5.40473 2.79763 5.40473H17.2024C17.4862 5.40473 17.7227 5.64126 17.7227 5.9251V12.2878H17.7464Z" fill="#332C2B" stroke="white" stroke-width="0.1"/>
<path d="M15.0025 7.58084C15.303 7.58084 15.5465 7.33727 15.5465 7.03682C15.5465 6.73636 15.303 6.4928 15.0025 6.4928C14.7021 6.4928 14.4585 6.73636 14.4585 7.03682C14.4585 7.33727 14.7021 7.58084 15.0025 7.58084Z" fill="#332C2B" stroke="#332C2B" stroke-width="0.1"/>
<path d="M13.0158 12.4298H6.98425C6.81868 12.4298 6.67676 12.2879 6.67676 12.1223C6.67676 11.9567 6.81868 11.8148 6.98425 11.8148H13.0158C13.1814 11.8148 13.3233 11.9567 13.3233 12.1223C13.3469 12.2879 13.205 12.4298 13.0158 12.4298Z" fill="#332C2B" stroke="#332C2B" stroke-width="0.1"/>
<path d="M13.2757 7.34423H11.9984C11.8328 7.34423 11.6909 7.20231 11.6909 7.03674C11.6909 6.87117 11.8328 6.72925 11.9984 6.72925H13.2757C13.4412 6.72925 13.5832 6.87117 13.5832 7.03674C13.6068 7.20231 13.4649 7.34423 13.2757 7.34423Z" fill="#332C2B" stroke="#332C2B" stroke-width="0.1"/>
<path d="M13.0158 13.7779H6.98425C6.81868 13.7779 6.67676 13.636 6.67676 13.4705C6.67676 13.3049 6.81868 13.163 6.98425 13.163H13.0158C13.1814 13.163 13.3233 13.3049 13.3233 13.4705C13.3469 13.636 13.205 13.7779 13.0158 13.7779Z" fill="#332C2B" stroke="#332C2B" stroke-width="0.1"/>
<path d="M13.0157 15.1262H10.3192C10.1536 15.1262 10.0117 14.9843 10.0117 14.8187C10.0117 14.6531 10.1536 14.5112 10.3192 14.5112H13.0157C13.1812 14.5112 13.3232 14.6531 13.3232 14.8187C13.3232 14.9843 13.2049 15.1262 13.0157 15.1262Z" fill="#332C2B" stroke="#332C2B" stroke-width="0.1"/>
</svg>
