<svg width="52" height="48" viewBox="0 0 52 48" fill="none" xmlns="http://www.w3.org/2000/svg">
<path d="M48.5384 2.91509C48.5384 3.28425 48.5384 3.65341 48.5384 4.02834C48.5384 5.03777 48.5384 6.04719 48.5384 7.05085C48.5384 8.55057 48.5384 10.0503 48.5384 11.55C48.5384 13.3727 48.5384 15.1897 48.5384 17.0125C48.5384 19.0025 48.5384 20.9982 48.5384 22.9883C48.5384 24.9956 48.5384 27.0087 48.5384 29.016C48.5384 30.8964 48.5384 32.7768 48.5384 34.6572C48.5384 36.2377 48.5384 37.8182 48.5384 39.3929C48.5384 40.5235 48.5384 41.654 48.5384 42.7846C48.5384 43.3152 48.5442 43.8401 48.5384 44.3708C48.5384 44.4458 48.5384 44.515 48.5269 44.5842C48.5499 44.4285 48.5672 44.2785 48.5903 44.1228C48.573 44.2208 48.5499 44.3189 48.5153 44.4112C48.573 44.2728 48.6307 44.1343 48.6884 43.9959C48.6826 44.0017 48.5961 44.1978 48.5845 44.192C48.573 44.1862 48.9133 43.8113 48.6941 44.042C48.5499 44.192 48.5672 44.019 48.8441 43.9324C48.7807 43.9555 48.7114 44.0074 48.648 44.0363C48.7864 43.9786 48.9249 43.9209 49.0633 43.8632C48.9652 43.8978 48.8729 43.9209 48.7749 43.9382C48.9306 43.9151 49.0806 43.8978 49.2363 43.8748C48.7864 43.9209 48.325 43.8863 47.8751 43.8863C46.7618 43.8863 45.6428 43.8863 44.5295 43.8863C42.8741 43.8863 41.2186 43.8863 39.5631 43.8863C37.5385 43.8863 35.5197 43.8863 33.495 43.8863C31.2801 43.8863 29.0593 43.8863 26.8444 43.8863C24.5948 43.8863 22.351 43.8863 20.1014 43.8863C18.0133 43.8863 15.931 43.8863 13.8429 43.8863C12.0837 43.8863 10.3244 43.8863 8.55931 43.8863C7.29608 43.8863 6.03286 43.8863 4.76963 43.8863C4.17551 43.8863 3.58716 43.8921 2.99304 43.8863C2.91805 43.8863 2.84307 43.8863 2.76808 43.8748C2.92382 43.8978 3.07379 43.9151 3.22953 43.9382C3.13148 43.9209 3.03342 43.8978 2.94113 43.8632C3.07956 43.9209 3.218 43.9786 3.35643 44.0363C3.35067 44.0305 3.15455 43.944 3.16032 43.9324C3.16608 43.9209 3.54101 44.2612 3.31029 44.042C3.16032 43.8978 3.33336 43.9151 3.41988 44.192C3.39681 44.1286 3.3449 44.0593 3.31606 43.9959C3.37374 44.1343 3.43142 44.2728 3.4891 44.4112C3.45449 44.3131 3.43142 44.2208 3.41412 44.1228C3.43719 44.2785 3.45449 44.4285 3.47757 44.5842C3.43719 44.1747 3.46603 43.7594 3.46603 43.3498C3.46603 42.352 3.46603 41.3483 3.46603 40.3504C3.46603 38.8565 3.46603 37.3625 3.46603 35.8743C3.46603 34.0574 3.46603 32.2404 3.46603 30.4234C3.46603 28.4219 3.46603 26.4203 3.46603 24.4188C3.46603 22.3999 3.46603 20.3811 3.46603 18.3564C3.46603 16.4818 3.46603 14.6071 3.46603 12.7325C3.46603 11.1462 3.46603 9.55423 3.46603 7.96799C3.46603 6.83166 3.46603 5.68957 3.46603 4.55324C3.46603 4.02257 3.46026 3.49767 3.46603 2.967C3.46603 2.89201 3.46603 2.82279 3.47757 2.75358C3.45449 2.90932 3.43719 3.05929 3.41412 3.21503C3.43142 3.11697 3.45449 3.01891 3.4891 2.92662C3.43142 3.06506 3.37374 3.20349 3.31606 3.34193C3.32182 3.33616 3.40835 3.14004 3.41988 3.14581C3.43142 3.15158 3.0911 3.52651 3.31029 3.29578C3.45449 3.14581 3.43719 3.31886 3.16032 3.40538C3.22377 3.38231 3.29298 3.33039 3.35643 3.30155C3.218 3.35923 3.07956 3.41691 2.94113 3.4746C3.03919 3.43999 3.13148 3.41691 3.22953 3.39961C3.07379 3.42268 2.92382 3.43999 2.76808 3.46306C3.218 3.41691 3.67945 3.45152 4.12937 3.45152C5.24262 3.45152 6.36164 3.45152 7.4749 3.45152C9.13036 3.45152 10.7858 3.45152 12.4413 3.45152C14.4659 3.45152 16.4848 3.45152 18.5094 3.45152C20.7243 3.45152 22.9451 3.45152 25.1601 3.45152C27.4096 3.45152 29.6535 3.45152 31.903 3.45152C33.9911 3.45152 36.0734 3.45152 38.1615 3.45152C39.9208 3.45152 41.6801 3.45152 43.4451 3.45152C44.7083 3.45152 45.9716 3.45152 47.2348 3.45152C47.8289 3.45152 48.4173 3.44575 49.0114 3.45152C49.0864 3.45152 49.1614 3.45152 49.2363 3.46306C49.0806 3.43999 48.9306 3.42268 48.7749 3.39961C48.8729 3.41691 48.971 3.43999 49.0633 3.4746C48.9249 3.41691 48.7864 3.35923 48.648 3.30155C48.6538 3.30732 48.8499 3.39384 48.8441 3.40538C48.8383 3.41691 48.4634 3.07659 48.6941 3.29578C48.8441 3.43999 48.6711 3.42268 48.5845 3.14581C48.6076 3.20926 48.6595 3.27848 48.6884 3.34193C48.6307 3.20349 48.573 3.06506 48.5153 2.92662C48.5499 3.02468 48.573 3.11697 48.5903 3.21503C48.5672 3.05929 48.5499 2.90932 48.5269 2.75358C48.5326 2.81126 48.5384 2.86317 48.5384 2.91509C48.5672 3.82069 49.3113 4.68591 50.2688 4.64553C51.1802 4.60515 52.0281 3.88414 51.9993 2.91509C51.9474 1.27693 50.6668 0.0137031 49.0229 0.00216675C48.8326 0.00216675 48.6422 0.00216675 48.4461 0.00216675C47.5405 0.00216675 46.6407 0.00216675 45.7351 0.00216675C44.2757 0.00216675 42.8164 0.00216675 41.357 0.00216675C39.4882 0.00216675 37.625 0.00216675 35.7562 0.00216675C33.645 0.00216675 31.5339 0.00216675 29.4227 0.00216675C27.2308 0.00216675 25.0389 0.00216675 22.8413 0.00216675C20.7243 0.00216675 18.6074 0.00216675 16.4905 0.00216675C14.6159 0.00216675 12.747 0.00216675 10.8723 0.00216675C9.38993 0.00216675 7.90174 0.00216675 6.41932 0.00216675C5.49065 0.00216675 4.56198 0.00216675 3.63331 0.00216675C3.42565 0.00216675 3.22377 0.00216675 3.01611 0.00216675C1.6779 0.0079349 0.437747 0.855854 0.103194 2.1883C-0.0467776 2.79972 0.0109038 3.4919 0.0109038 4.12063C0.0109038 5.25696 0.0109038 6.39328 0.0109038 7.53538C0.0109038 9.22545 0.0109038 10.9097 0.0109038 12.5998C0.0109038 14.636 0.0109038 16.6721 0.0109038 18.7083C0.0109038 20.8944 0.0109038 23.0806 0.0109038 25.2667C0.0109038 27.3951 0.0109038 29.5236 0.0109038 31.6578C0.0109038 33.5498 0.0109038 35.4475 0.0109038 37.3394C0.0109038 38.793 0.0109038 40.2408 0.0109038 41.6944C0.0109038 42.5077 0.0109038 43.3152 0.0109038 44.1285C0.0109038 44.2843 0.00513572 44.44 0.0224402 44.5958C0.166644 46.1359 1.32604 47.2837 2.88921 47.3529C2.92959 47.3529 2.9642 47.3529 3.00458 47.3529C3.57562 47.3587 4.15244 47.3529 4.72349 47.3529C5.9348 47.3529 7.15188 47.3529 8.36319 47.3529C10.059 47.3529 11.7491 47.3529 13.4449 47.3529C15.458 47.3529 17.4711 47.3529 19.4842 47.3529C21.6473 47.3529 23.8103 47.3529 25.9734 47.3529C28.148 47.3529 30.3226 47.3529 32.4972 47.3529C34.5102 47.3529 36.5233 47.3529 38.5422 47.3529C40.238 47.3529 41.9339 47.3529 43.6297 47.3529C44.8468 47.3529 46.0639 47.3529 47.2752 47.3529C47.852 47.3529 48.4288 47.3587 49.0056 47.3529C50.4938 47.3472 51.757 46.3147 51.9589 44.8265C51.9935 44.5842 51.9993 44.3766 51.9993 44.1343C51.9993 43.3268 51.9993 42.5192 51.9993 41.7117C51.9993 40.2639 51.9993 38.8103 51.9993 37.3625C51.9993 35.4706 51.9993 33.5786 51.9993 31.6809C51.9993 29.5524 51.9993 27.424 51.9993 25.2955C51.9993 23.1094 51.9993 20.9233 51.9993 18.7371C51.9993 16.701 51.9993 14.6648 51.9993 12.6287C51.9993 10.9386 51.9993 9.24852 51.9993 7.55845C51.9993 6.41635 51.9993 5.28003 51.9993 4.13793C51.9993 3.73416 51.9993 3.33039 51.9993 2.92085C51.9993 2.01525 51.2033 1.15003 50.2688 1.19041C49.3286 1.22502 48.5384 1.94604 48.5384 2.91509Z" fill="#332C2B"/>
<path d="M30.1323 1.73181C30.1323 3.18538 30.1323 4.63319 30.1323 6.08676C30.1323 8.39979 30.1323 10.7186 30.1323 13.0316C30.1323 13.5681 30.1323 14.0987 30.1323 14.6352C30.9975 14.1391 31.8685 13.6373 32.7337 13.1412C31.0033 12.1433 29.2728 11.1512 27.5424 10.1533C27.3232 10.0264 27.104 9.88798 26.879 9.77261C26.2791 9.46113 25.6446 9.48421 25.0621 9.80722C24.9467 9.87067 24.8313 9.93989 24.716 10.0033C23.7123 10.5802 22.7087 11.157 21.6992 11.7396C20.8859 12.2068 20.0784 12.674 19.2651 13.1412C20.1303 13.6373 21.0013 14.1391 21.8665 14.6352C21.8665 13.1816 21.8665 11.7338 21.8665 10.2802C21.8665 7.96718 21.8665 5.64838 21.8665 3.33535C21.8665 2.79891 21.8665 2.26824 21.8665 1.73181C21.2897 2.30862 20.7129 2.88544 20.1361 3.46225C21.457 3.46225 22.7779 3.46225 24.093 3.46225C26.1984 3.46225 28.298 3.46225 30.4034 3.46225C30.8879 3.46225 31.3666 3.46225 31.8512 3.46225C32.7568 3.46225 33.622 2.66625 33.5816 1.73181C33.5412 0.791598 32.8202 0.00135993 31.8512 0.00135993C30.5303 0.00135993 29.2094 0.00135993 27.8942 0.00135993C25.7888 0.00135993 23.6892 0.00135993 21.5839 0.00135993C21.0993 0.00135993 20.6206 0.00135993 20.1361 0.00135993C19.2016 0.00135993 18.4056 0.791598 18.4056 1.73181C18.4056 3.18538 18.4056 4.63319 18.4056 6.08676C18.4056 8.39979 18.4056 10.7186 18.4056 13.0316C18.4056 13.5681 18.4056 14.0987 18.4056 14.6352C18.4056 15.9561 19.8765 16.7809 21.007 16.1291C22.7144 15.1485 24.4218 14.1622 26.1292 13.1816C26.3714 13.0432 26.6195 12.899 26.8617 12.7605C26.2791 12.7605 25.6966 12.7605 25.114 12.7605C26.8213 13.7411 28.5287 14.7275 30.2361 15.708C30.4784 15.8465 30.7264 15.9907 30.9686 16.1291C32.105 16.7809 33.5701 15.9561 33.5701 14.6352C33.5701 13.1816 33.5701 11.7338 33.5701 10.2802C33.5701 7.96718 33.5701 5.64838 33.5701 3.33535C33.5701 2.79891 33.5701 2.26824 33.5701 1.73181C33.5701 0.826206 32.7741 -0.0390171 31.8396 0.00135993C30.9283 0.041737 30.1323 0.762757 30.1323 1.73181Z" fill="#332C2B"/>
<path d="M16.8655 34.2527C18.9305 34.2527 20.9955 34.2527 23.0605 34.2527C26.3426 34.2527 29.6304 34.2527 32.9125 34.2527C33.6566 34.2527 34.4065 34.2527 35.1506 34.2527C36.0562 34.2527 36.9214 33.4567 36.881 32.5223C36.8406 31.582 36.1196 30.7918 35.1506 30.7918C33.0856 30.7918 31.0206 30.7918 28.9556 30.7918C25.6735 30.7918 22.3856 30.7918 19.1036 30.7918C18.3595 30.7918 17.6096 30.7918 16.8655 30.7918C15.9599 30.7918 15.0947 31.5878 15.1351 32.5223C15.1754 33.4567 15.8965 34.2527 16.8655 34.2527Z" fill="#332C2B"/>
<path d="M21.4799 40.1361C24.1217 40.1361 26.7693 40.1361 29.4111 40.1361C29.7861 40.1361 30.161 40.1361 30.5359 40.1361C31.4415 40.1361 32.3068 39.3401 32.2664 38.4057C32.226 37.4655 31.505 36.6752 30.5359 36.6752C27.8941 36.6752 25.2465 36.6752 22.6047 36.6752C22.2298 36.6752 21.8549 36.6752 21.4799 36.6752C20.5743 36.6752 19.7091 37.4712 19.7495 38.4057C19.7899 39.3401 20.5109 40.1361 21.4799 40.1361Z" fill="#332C2B"/>
</svg>
