<svg width="24" height="21" viewBox="0 0 24 21" fill="none" xmlns="http://www.w3.org/2000/svg">
<path d="M21.5244 1.2929C21.5244 1.4566 21.5244 1.62031 21.5244 1.78657C21.5244 2.2342 21.5244 2.68183 21.5244 3.12691C21.5244 3.79196 21.5244 4.45701 21.5244 5.12206C21.5244 5.93036 21.5244 6.7361 21.5244 7.54439C21.5244 8.42686 21.5244 9.3119 21.5244 10.1944C21.5244 11.0845 21.5244 11.9772 21.5244 12.8674C21.5244 13.7012 21.5244 14.5351 21.5244 15.369C21.5244 16.0699 21.5244 16.7707 21.5244 17.469C21.5244 17.9704 21.5244 18.4717 21.5244 18.9731C21.5244 19.2084 21.527 19.4412 21.5244 19.6765C21.5244 19.7097 21.5244 19.7404 21.5193 19.7711C21.5295 19.7021 21.5372 19.6356 21.5474 19.5665C21.5398 19.61 21.5295 19.6535 21.5142 19.6944C21.5398 19.633 21.5653 19.5716 21.5909 19.5102C21.5884 19.5128 21.55 19.5997 21.5449 19.5972C21.5398 19.5946 21.6907 19.4284 21.5935 19.5307C21.5295 19.5972 21.5372 19.5205 21.66 19.4821C21.6318 19.4923 21.6011 19.5153 21.573 19.5281C21.6344 19.5025 21.6958 19.477 21.7572 19.4514C21.7137 19.4667 21.6728 19.477 21.6293 19.4846C21.6983 19.4744 21.7648 19.4667 21.8339 19.4565C21.6344 19.477 21.4298 19.4616 21.2302 19.4616C20.7366 19.4616 20.2403 19.4616 19.7467 19.4616C19.0126 19.4616 18.2784 19.4616 17.5443 19.4616C16.6465 19.4616 15.7512 19.4616 14.8534 19.4616C13.8712 19.4616 12.8864 19.4616 11.9042 19.4616C10.9066 19.4616 9.91156 19.4616 8.91398 19.4616C7.98803 19.4616 7.06463 19.4616 6.13867 19.4616C5.35851 19.4616 4.57835 19.4616 3.79564 19.4616C3.23546 19.4616 2.67528 19.4616 2.1151 19.4616C1.85164 19.4616 1.59073 19.4642 1.32727 19.4616C1.29401 19.4616 1.26076 19.4616 1.22751 19.4565C1.29657 19.4667 1.36308 19.4744 1.43214 19.4846C1.38866 19.477 1.34517 19.4667 1.30425 19.4514C1.36564 19.477 1.42702 19.5025 1.48841 19.5281C1.48586 19.5256 1.39889 19.4872 1.40145 19.4821C1.404 19.477 1.57027 19.6279 1.46795 19.5307C1.40145 19.4667 1.47818 19.4744 1.51655 19.5972C1.50632 19.5691 1.4833 19.5384 1.47051 19.5102C1.49609 19.5716 1.52167 19.633 1.54725 19.6944C1.5319 19.6509 1.52167 19.61 1.51399 19.5665C1.52422 19.6356 1.5319 19.7021 1.54213 19.7711C1.52422 19.5895 1.53701 19.4053 1.53701 19.2237C1.53701 18.7812 1.53701 18.3361 1.53701 17.8936C1.53701 17.2311 1.53701 16.5686 1.53701 15.9087C1.53701 15.103 1.53701 14.2972 1.53701 13.4915C1.53701 12.6039 1.53701 11.7163 1.53701 10.8287C1.53701 9.93347 1.53701 9.0382 1.53701 8.14038C1.53701 7.30906 1.53701 6.47775 1.53701 5.64643C1.53701 4.94301 1.53701 4.23703 1.53701 3.53361C1.53701 3.02971 1.53701 2.52324 1.53701 2.01934C1.53701 1.78401 1.53446 1.55124 1.53701 1.31592C1.53701 1.28266 1.53701 1.25197 1.54213 1.22128C1.5319 1.29034 1.52422 1.35684 1.51399 1.42591C1.52167 1.38242 1.5319 1.33894 1.54725 1.29801C1.52167 1.3594 1.49609 1.42079 1.47051 1.48218C1.47307 1.47962 1.51144 1.39265 1.51655 1.39521C1.52167 1.39777 1.37075 1.56403 1.46795 1.46172C1.5319 1.39521 1.52422 1.47195 1.40145 1.51032C1.42958 1.50009 1.46028 1.47706 1.48841 1.46428C1.42702 1.48985 1.36564 1.51543 1.30425 1.54101C1.34773 1.52566 1.38866 1.51543 1.43214 1.50776C1.36308 1.51799 1.29657 1.52567 1.22751 1.5359C1.42702 1.51543 1.63166 1.53078 1.83117 1.53078C2.32485 1.53078 2.82108 1.53078 3.31475 1.53078C4.04887 1.53078 4.78298 1.53078 5.5171 1.53078C6.41492 1.53078 7.31018 1.53078 8.208 1.53078C9.19024 1.53078 10.175 1.53078 11.1573 1.53078C12.1548 1.53078 13.1499 1.53078 14.1474 1.53078C15.0734 1.53078 15.9968 1.53078 16.9228 1.53078C17.7029 1.53078 18.4831 1.53078 19.2658 1.53078C19.826 1.53078 20.3861 1.53078 20.9463 1.53078C21.2098 1.53078 21.4707 1.52822 21.7342 1.53078C21.7674 1.53078 21.8007 1.53078 21.8339 1.5359C21.7648 1.52567 21.6983 1.51799 21.6293 1.50776C21.6728 1.51543 21.7162 1.52566 21.7572 1.54101C21.6958 1.51543 21.6344 1.48985 21.573 1.46428C21.5756 1.46683 21.6625 1.5052 21.66 1.51032C21.6574 1.51543 21.4912 1.36452 21.5935 1.46172C21.66 1.52566 21.5832 1.51799 21.5449 1.39521C21.5551 1.42335 21.5781 1.45404 21.5909 1.48218C21.5653 1.42079 21.5398 1.3594 21.5142 1.29801C21.5295 1.3415 21.5398 1.38242 21.5474 1.42591C21.5372 1.35684 21.5295 1.29034 21.5193 1.22128C21.5218 1.24685 21.5244 1.26988 21.5244 1.2929C21.5372 1.69449 21.8672 2.07817 22.2918 2.06027C22.6959 2.04236 23.0719 1.72262 23.0591 1.2929C23.0361 0.566455 22.4683 0.00627546 21.7393 0.00115967C21.6549 0.00115967 21.5704 0.00115967 21.4835 0.00115967C21.0819 0.00115967 20.6829 0.00115967 20.2813 0.00115967C19.6341 0.00115967 18.987 0.00115967 18.3398 0.00115967C17.5111 0.00115967 16.6849 0.00115967 15.8561 0.00115967C14.9199 0.00115967 13.9837 0.00115967 13.0475 0.00115967C12.0755 0.00115967 11.1035 0.00115967 10.129 0.00115967C9.19024 0.00115967 8.25149 0.00115967 7.31274 0.00115967C6.48142 0.00115967 5.65267 0.00115967 4.82135 0.00115967C4.16397 0.00115967 3.50404 0.00115967 2.84666 0.00115967C2.43484 0.00115967 2.02301 0.00115967 1.61119 0.00115967C1.51911 0.00115967 1.42958 0.00115967 1.3375 0.00115967C0.744067 0.00371756 0.19412 0.379728 0.0457617 0.970602C-0.0207436 1.24174 0.00483532 1.54869 0.00483532 1.8275C0.00483532 2.3314 0.00483532 2.83531 0.00483532 3.34177C0.00483532 4.09123 0.00483532 4.83814 0.00483532 5.5876C0.00483532 6.49054 0.00483532 7.39347 0.00483532 8.29641C0.00483532 9.26585 0.00483532 10.2353 0.00483532 11.2047C0.00483532 12.1486 0.00483532 13.0925 0.00483532 14.0389C0.00483532 14.8779 0.00483532 15.7194 0.00483532 16.5584C0.00483532 17.203 0.00483532 17.845 0.00483532 18.4896C0.00483532 18.8503 0.00483532 19.2084 0.00483532 19.5691C0.00483532 19.6381 0.00227744 19.7072 0.00995112 19.7762C0.0738985 20.4592 0.588035 20.9682 1.28122 20.9989C1.29913 20.9989 1.31448 20.9989 1.33238 20.9989C1.58561 21.0015 1.8414 20.9989 2.09464 20.9989C2.63179 20.9989 3.17151 20.9989 3.70867 20.9989C4.46069 20.9989 5.21015 20.9989 5.96217 20.9989C6.85488 20.9989 7.74758 20.9989 8.64029 20.9989C9.5995 20.9989 10.5587 20.9989 11.5179 20.9989C12.4822 20.9989 13.4466 20.9989 14.4109 20.9989C15.3036 20.9989 16.1963 20.9989 17.0916 20.9989C17.8436 20.9989 18.5956 20.9989 19.3476 20.9989C19.8874 20.9989 20.4271 20.9989 20.9642 20.9989C21.22 20.9989 21.4758 21.0015 21.7316 20.9989C22.3915 20.9964 22.9517 20.5385 23.0412 19.8786C23.0566 19.7711 23.0591 19.679 23.0591 19.5716C23.0591 19.2135 23.0591 18.8554 23.0591 18.4973C23.0591 17.8553 23.0591 17.2107 23.0591 16.5686C23.0591 15.7297 23.0591 14.8907 23.0591 14.0491C23.0591 13.1053 23.0591 12.1614 23.0591 11.2175C23.0591 10.2481 23.0591 9.27864 23.0591 8.3092C23.0591 7.40626 23.0591 6.50333 23.0591 5.60039C23.0591 4.85093 23.0591 4.10146 23.0591 3.352C23.0591 2.84554 23.0591 2.34163 23.0591 1.83517C23.0591 1.65612 23.0591 1.47706 23.0591 1.29545C23.0591 0.893865 22.7062 0.510181 22.2918 0.528086C21.8748 0.543433 21.5244 0.86317 21.5244 1.2929Z" fill="#332C2B"/>
<path d="M13.3622 0.767972C13.3622 1.41256 13.3622 2.05459 13.3622 2.69918C13.3622 3.7249 13.3622 4.75317 13.3622 5.77889C13.3622 6.01677 13.3622 6.2521 13.3622 6.48998C13.7459 6.27 14.1321 6.04747 14.5158 5.82749C13.7484 5.38497 12.981 4.94501 12.2137 4.5025C12.1165 4.44622 12.0193 4.38483 11.9195 4.33368C11.6535 4.19555 11.3721 4.20578 11.1138 4.34902C11.0626 4.37716 11.0115 4.40786 10.9603 4.43599C10.5152 4.69178 10.0702 4.94757 9.62253 5.20592C9.26187 5.41311 8.90376 5.6203 8.5431 5.82749C8.92678 6.04747 9.31302 6.27 9.69671 6.48998C9.69671 5.84539 9.69671 5.20336 9.69671 4.55877C9.69671 3.53306 9.69671 2.50478 9.69671 1.47907C9.69671 1.24118 9.69671 1.00586 9.69671 0.767972C9.44092 1.02376 9.18513 1.27955 8.92934 1.53534C9.5151 1.53534 10.1009 1.53534 10.6841 1.53534C11.6177 1.53534 12.5488 1.53534 13.4824 1.53534C13.6973 1.53534 13.9096 1.53534 14.1244 1.53534C14.526 1.53534 14.9097 1.18235 14.8918 0.767972C14.8739 0.351035 14.5541 0.000603063 14.1244 0.000603063C13.5387 0.000603063 12.9529 0.000603063 12.3697 0.000603063C11.4361 0.000603063 10.505 0.000603063 9.57137 0.000603063C9.35651 0.000603063 9.1442 0.000603063 8.92934 0.000603063C8.51496 0.000603063 8.16197 0.351035 8.16197 0.767972C8.16197 1.41256 8.16197 2.05459 8.16197 2.69918C8.16197 3.7249 8.16197 4.75317 8.16197 5.77889C8.16197 6.01677 8.16197 6.2521 8.16197 6.48998C8.16197 7.07574 8.81423 7.44152 9.31558 7.15248C10.0727 6.71763 10.8299 6.28023 11.587 5.84539C11.6944 5.784 11.8044 5.72005 11.9118 5.65867C11.6535 5.65867 11.3951 5.65867 11.1368 5.65867C11.8939 6.09351 12.6511 6.53091 13.4082 6.96575C13.5156 7.02714 13.6256 7.09109 13.7331 7.15248C14.237 7.44152 14.8867 7.07574 14.8867 6.48998C14.8867 5.84539 14.8867 5.20336 14.8867 4.55877C14.8867 3.53306 14.8867 2.50478 14.8867 1.47907C14.8867 1.24118 14.8867 1.00586 14.8867 0.767972C14.8867 0.366382 14.5337 -0.0173022 14.1193 0.000603063C13.7152 0.0185083 13.3622 0.338245 13.3622 0.767972Z" fill="#332C2B"/>
<path d="M7.47902 15.1894C8.39474 15.1894 9.31047 15.1894 10.2262 15.1894C11.6816 15.1894 13.1396 15.1894 14.5951 15.1894C14.925 15.1894 15.2576 15.1894 15.5875 15.1894C15.9891 15.1894 16.3728 14.8364 16.3549 14.422C16.337 14.0051 16.0173 13.6546 15.5875 13.6546C14.6718 13.6546 13.7561 13.6546 12.8404 13.6546C11.3849 13.6546 9.92692 13.6546 8.47148 13.6546C8.14151 13.6546 7.80898 13.6546 7.47902 13.6546C7.07743 13.6546 6.69374 14.0076 6.71165 14.422C6.72955 14.8364 7.04929 15.1894 7.47902 15.1894Z" fill="#332C2B"/>
<path d="M9.52533 17.7984C10.6968 17.7984 11.8709 17.7984 13.0424 17.7984C13.2087 17.7984 13.375 17.7984 13.5412 17.7984C13.9428 17.7984 14.3265 17.4454 14.3086 17.0311C14.2907 16.6141 13.9709 16.2637 13.5412 16.2637C12.3697 16.2637 11.1956 16.2637 10.0241 16.2637C9.85785 16.2637 9.69159 16.2637 9.52533 16.2637C9.12374 16.2637 8.74005 16.6167 8.75796 17.0311C8.77586 17.4454 9.0956 17.7984 9.52533 17.7984Z" fill="#332C2B"/>
</svg>
