<svg width="25" height="21" viewBox="0 0 25 21" fill="none" xmlns="http://www.w3.org/2000/svg">
<path d="M12.763 1C6.53903 1 1.47753 4.89905 1.47753 9.69416C1.47753 11.3894 2.10719 13.012 3.26964 14.4166C2.8095 15.2884 2.15562 16.354 1.40488 17.2259C0.944739 17.7587 0.872086 18.5094 1.21113 19.1148C1.50175 19.6234 2.03454 19.9382 2.61576 19.9382C2.71263 19.9382 2.8095 19.9382 2.93059 19.914C5.23127 19.4781 7.43509 18.6063 8.93658 17.8797C10.1475 18.2188 11.431 18.3883 12.7388 18.3883C18.9627 18.3883 24 14.4893 24 9.69416C24 4.89905 18.9627 1 12.763 1ZM12.763 16.8626C11.5037 16.8626 10.2928 16.6931 9.13033 16.3298C8.93658 16.2814 8.74284 16.2814 8.57332 16.3782C7.14447 17.0806 4.96488 17.9766 2.68841 18.3883C2.6642 18.3883 2.63998 18.3883 2.59154 18.3399C2.56733 18.2672 2.59154 18.243 2.61576 18.2188C3.60869 17.0806 4.43209 15.6517 4.94066 14.6346C5.08597 14.344 5.03753 13.9807 4.81957 13.7627C3.68134 12.5518 3.0759 11.1472 3.0759 9.69416C3.0759 5.74667 7.43509 2.52572 12.8114 2.52572C18.1877 2.52572 22.5469 5.74667 22.5469 9.69416C22.5469 13.6416 18.1151 16.8626 12.763 16.8626Z" fill="#332C2B" stroke="#332C2B" stroke-width="0.2"/>
<path d="M19.5924 8.79809L18.551 8.65279L18.0909 7.68408C18.0424 7.58721 17.9456 7.53877 17.8487 7.53877C17.7518 7.53877 17.655 7.58721 17.6065 7.68408L17.1464 8.62857L16.105 8.77388C16.0082 8.79809 15.9113 8.84653 15.8871 8.96762C15.8629 9.06449 15.8871 9.16136 15.9597 9.23401L16.7105 9.96054L16.5409 11.0019C16.5167 11.0988 16.5652 11.1956 16.6378 11.2683C16.7105 11.3167 16.8316 11.341 16.9284 11.2925L17.8487 10.8082L18.7932 11.2925C18.8416 11.3167 18.8659 11.3167 18.9143 11.3167C18.9627 11.3167 19.0354 11.2925 19.0596 11.2683C19.1322 11.2199 19.1807 11.0988 19.1565 11.0019L18.9869 9.98476L19.7377 9.23401C19.8103 9.16136 19.8346 9.06449 19.8103 8.96762C19.7861 8.87075 19.6893 8.82231 19.5924 8.79809Z" fill="#332C2B" stroke="#332C2B" stroke-width="0.2"/>
<path d="M14.5067 8.79809L13.4653 8.65279L13.0052 7.68408C12.9083 7.49034 12.6177 7.49034 12.5208 7.68408L12.0607 8.62857L10.9951 8.77388C10.8982 8.79809 10.8014 8.84653 10.7771 8.96762C10.7529 9.06449 10.7771 9.16136 10.8498 9.23401L11.6005 9.96054L11.431 11.0019C11.4068 11.0988 11.4552 11.1956 11.5279 11.2683C11.6005 11.3167 11.7216 11.341 11.8185 11.2925L12.7388 10.8082L13.6833 11.2925C13.7317 11.3167 13.7559 11.3167 13.8044 11.3167C13.8528 11.3167 13.9254 11.2925 13.9739 11.2683C14.0465 11.2199 14.095 11.0988 14.0707 11.0019L13.9012 9.98476L14.652 9.23401C14.7246 9.16136 14.7488 9.06449 14.7246 8.96762C14.6762 8.87075 14.6035 8.82231 14.5067 8.79809Z" fill="#332C2B" stroke="#332C2B" stroke-width="0.2"/>
<path d="M9.42094 8.79809L8.37958 8.65279L7.91945 7.70829C7.87101 7.61142 7.77414 7.56299 7.67727 7.56299C7.5804 7.56299 7.48353 7.61142 7.43509 7.70829L6.97496 8.65279L5.90938 8.77387C5.81251 8.79809 5.71563 8.84653 5.69142 8.96762C5.6672 9.06449 5.69142 9.16136 5.76407 9.23401L6.51482 9.96054L6.34529 11.0019C6.32108 11.0988 6.36951 11.1956 6.44217 11.2683C6.51482 11.3167 6.63591 11.341 6.73278 11.2925L7.65305 10.8082L8.59754 11.2925C8.64598 11.3167 8.67019 11.3167 8.71863 11.3167C8.76707 11.3167 8.83972 11.2925 8.86394 11.2683C8.93659 11.2199 8.98502 11.0988 8.96081 11.0019L8.79128 9.98476L9.54203 9.23401C9.61469 9.16136 9.6389 9.06449 9.61469 8.96762C9.59047 8.87074 9.51781 8.82231 9.42094 8.79809Z" fill="#332C2B" stroke="#332C2B" stroke-width="0.2"/>
</svg>
