<svg width="21" height="23" viewBox="0 0 21 23" fill="none" xmlns="http://www.w3.org/2000/svg">
<path d="M16.5179 20.8063H2.19368V3.69685H14.5284V2.52527H1.92842C1.42 2.52527 1 2.94527 1 3.45369V21.0716C1 21.6021 1.42 22 1.92842 22H16.7832C17.2916 22 17.7116 21.58 17.7116 21.0716V13.9095C17.2916 13.9095 16.8716 13.7768 16.5179 13.5116V20.8063Z" fill="#EF4507" stroke="#EF4507" stroke-width="0.4"/>
<path d="M19.8337 1.95053C19.8337 1.70737 19.7453 1.46421 19.5463 1.28737C19.3474 1.11053 19.1263 1 18.8832 1H16.5621C16.3189 1 16.0758 1.08842 15.8989 1.28737C15.7221 1.46421 15.6116 1.70737 15.6116 1.95053V10.5716C15.6116 10.7926 15.7 11.0358 15.8547 11.1905L17.0263 12.5168C17.2032 12.7158 17.4684 12.8484 17.7337 12.8484C17.9768 12.8484 18.22 12.7379 18.3968 12.5611C18.4189 12.5389 18.4189 12.5389 18.441 12.5168L19.6126 11.1905C19.7674 11.0137 19.8558 10.7926 19.8558 10.5716L19.8337 1.95053ZM18.64 2.19368V3.23263H16.7832V2.19368H18.64ZM18.64 4.40421V8.71474H16.7832V4.40421H18.64ZM17.7116 11.5221L16.7832 10.4611V9.90842H18.64V10.4832L17.7116 11.5221Z" fill="#EF4507" stroke="#EF4507" stroke-width="0.4"/>
<path d="M13.6221 6.32738H7.96318C7.6316 6.32738 7.36633 6.59264 7.36633 6.92422C7.36633 7.2558 7.6316 7.52106 7.96318 7.52106H13.6221C13.9537 7.52106 14.219 7.2558 14.219 6.92422C14.219 6.59264 13.9537 6.32738 13.6221 6.32738Z" fill="#EF4507" stroke="#EF4507" stroke-width="0.4"/>
<path d="M13.6221 9.88632H7.96318C7.6316 9.88632 7.36633 10.1516 7.36633 10.4832C7.36633 10.8147 7.6316 11.08 7.96318 11.08H13.6221C13.9537 11.08 14.219 10.8147 14.219 10.4832C14.219 10.1516 13.9537 9.88632 13.6221 9.88632Z" fill="#EF4507" stroke="#EF4507" stroke-width="0.4"/>
<path d="M13.6221 13.4453H7.96318C7.6316 13.4453 7.36633 13.7105 7.36633 14.0421C7.36633 14.3737 7.6316 14.639 7.96318 14.639H13.6221C13.9537 14.639 14.219 14.3737 14.219 14.0421C14.219 13.7105 13.9537 13.4453 13.6221 13.4453Z" fill="#EF4507" stroke="#EF4507" stroke-width="0.4"/>
<path d="M13.6221 17.0042H7.96318C7.6316 17.0042 7.36633 17.2695 7.36633 17.6011C7.36633 17.9326 7.6316 18.1979 7.96318 18.1979H13.6221C13.9537 18.1979 14.219 17.9326 14.219 17.6011C14.219 17.2695 13.9537 17.0042 13.6221 17.0042Z" fill="#EF4507" stroke="#EF4507" stroke-width="0.4"/>
<path d="M5.59794 6.32738H5.08952C4.75794 6.32738 4.49268 6.59264 4.49268 6.92422C4.49268 7.2558 4.75794 7.52106 5.08952 7.52106H5.59794C5.92952 7.52106 6.19478 7.2558 6.19478 6.92422C6.19478 6.59264 5.92952 6.32738 5.59794 6.32738Z" fill="#EF4507" stroke="#EF4507" stroke-width="0.4"/>
<path d="M5.59794 9.88632H5.08952C4.75794 9.88632 4.49268 10.1516 4.49268 10.4832C4.49268 10.8147 4.75794 11.08 5.08952 11.08H5.59794C5.92952 11.08 6.19478 10.8147 6.19478 10.4832C6.19478 10.1516 5.92952 9.88632 5.59794 9.88632Z" fill="#EF4507" stroke="#EF4507" stroke-width="0.4"/>
<path d="M5.59794 13.4453H5.08952C4.75794 13.4453 4.49268 13.7105 4.49268 14.0421C4.49268 14.3737 4.75794 14.639 5.08952 14.639H5.59794C5.92952 14.639 6.19478 14.3737 6.19478 14.0421C6.19478 13.7105 5.92952 13.4453 5.59794 13.4453Z" fill="#EF4507" stroke="#EF4507" stroke-width="0.4"/>
<path d="M5.59794 17.0042H5.08952C4.75794 17.0042 4.49268 17.2695 4.49268 17.6011C4.49268 17.9326 4.75794 18.1979 5.08952 18.1979H5.59794C5.92952 18.1979 6.19478 17.9326 6.19478 17.6011C6.19478 17.2695 5.92952 17.0042 5.59794 17.0042Z" fill="#EF4507" stroke="#EF4507" stroke-width="0.4"/>
</svg>
