<svg width="20" height="20" viewBox="0 0 20 20" fill="none" xmlns="http://www.w3.org/2000/svg">
<path d="M11.6616 13.1671L11.5718 13.0772L11.4683 13.151C10.2956 13.988 8.86115 14.4793 7.31746 14.4793C3.3734 14.4793 0.15 11.2571 0.15 7.31467C0.15 3.37222 3.3734 0.15 7.31746 0.15C11.2615 0.15 14.4849 3.37223 14.4849 7.31467C14.4849 8.85773 13.9934 10.2916 13.1561 11.4639L13.0822 11.5673L13.1721 11.6572L19.5367 18.0194L19.6428 17.9133L19.5367 18.0194C19.9544 18.4369 19.9544 19.1194 19.5367 19.5369L19.6428 19.643L19.5367 19.5369C19.1191 19.9544 18.4439 19.9544 18.0263 19.5369C18.0262 19.5369 18.0262 19.5369 18.0262 19.5369L11.6616 13.1671ZM12.3458 7.31467C12.3458 4.52417 10.1089 2.28822 7.31746 2.28822C4.52609 2.28822 2.28915 4.52417 2.28915 7.31467C2.28915 10.1051 4.52609 12.3411 7.31746 12.3411C10.1088 12.3411 12.3458 10.1051 12.3458 7.31467Z" fill="#828282" stroke="white" stroke-width="0.3"/>
</svg>
