<svg width="23" height="23" viewBox="0 0 23 23" fill="none" xmlns="http://www.w3.org/2000/svg">
<path d="M11.5 6.49481C10.5101 6.49481 9.54246 6.78835 8.71939 7.33831C7.89631 7.88828 7.2548 8.66996 6.87598 9.58451C6.49716 10.4991 6.39805 11.5054 6.59117 12.4763C6.78429 13.4472 7.26097 14.339 7.96094 15.039C8.66091 15.7389 9.55272 16.2156 10.5236 16.4087C11.4945 16.6019 12.5008 16.5027 13.4154 16.1239C14.3299 15.7451 15.1116 15.1036 15.6616 14.2805C16.2115 13.4574 16.5051 12.4898 16.5051 11.4999C16.5036 10.1729 15.9758 8.90072 15.0375 7.96242C14.0992 7.02411 12.827 6.49632 11.5 6.49481ZM11.5 15.3382C10.7409 15.3382 9.99877 15.1131 9.36755 14.6914C8.73634 14.2696 8.24436 13.6701 7.95384 12.9687C7.66333 12.2674 7.58731 11.4956 7.73542 10.751C7.88352 10.0065 8.24909 9.32252 8.7859 8.78571C9.32271 8.24891 10.0066 7.88334 10.7512 7.73523C11.4958 7.58713 12.2676 7.66314 12.9689 7.95366C13.6703 8.24418 14.2698 8.73615 14.6915 9.36737C15.1133 9.99859 15.3384 10.7407 15.3384 11.4999C15.3373 12.5175 14.9325 13.4932 14.2129 14.2127C13.4933 14.9323 12.5177 15.3371 11.5 15.3382Z" fill="#332C2B" stroke="#332C2B" stroke-width="0.5"/>
<path d="M20.5131 9.31615L19.4797 9.26545C19.3261 9.23812 19.1819 9.17216 19.0608 9.07378C18.9397 8.97541 18.8456 8.84784 18.7873 8.70308C18.7385 8.57547 18.6863 8.44943 18.6309 8.32493C18.5698 8.1812 18.5462 8.02431 18.5624 7.86897C18.5785 7.71363 18.6339 7.56493 18.7232 7.43683L19.4175 6.67098C19.683 6.37164 19.8252 5.98277 19.8154 5.58275C19.8056 5.18273 19.6444 4.80131 19.3645 4.51538L18.4846 3.63548C18.1987 3.35556 17.8172 3.19444 17.4172 3.18461C17.0172 3.17478 16.6283 3.31696 16.3289 3.5825L15.5631 4.27681C15.435 4.36623 15.2862 4.42161 15.1309 4.43774C14.9755 4.45386 14.8186 4.4302 14.6748 4.36897C14.5504 4.31372 14.4244 4.26165 14.2968 4.21277C14.152 4.15446 14.0245 4.06028 13.9261 3.93911C13.8278 3.81793 13.7618 3.67373 13.7346 3.52006L13.6839 2.48703C13.66 2.08756 13.4856 1.71197 13.1958 1.43601C12.906 1.16005 12.5223 1.00424 12.1222 1H10.8777C10.4776 1.00431 10.0939 1.16015 9.80413 1.43609C9.51434 1.71204 9.33992 2.08758 9.31603 2.48703L9.26544 3.52017C9.2381 3.67385 9.17212 3.81805 9.0737 3.93921C8.97528 4.06037 8.84766 4.15451 8.70285 4.21277C8.57524 4.26165 8.44927 4.31375 8.32493 4.36908C8.1812 4.43018 8.02431 4.45377 7.86897 4.43762C7.71363 4.42148 7.56493 4.36614 7.43683 4.2768L6.67109 3.58261C6.37183 3.31689 5.98291 3.17458 5.58282 3.1844C5.18274 3.19421 4.80127 3.35541 4.51538 3.63547L3.63548 4.51526C3.35549 4.80121 3.19435 5.18268 3.18454 5.58276C3.17473 5.98284 3.31698 6.37176 3.58262 6.67108L4.27681 7.43682C4.36615 7.56493 4.42148 7.71362 4.43762 7.86896C4.45376 8.0243 4.43018 8.18119 4.36909 8.32493C4.31383 8.44934 4.26169 8.57546 4.21266 8.70329C4.15438 8.84805 4.06022 8.97559 3.93906 9.07393C3.8179 9.17227 3.67372 9.23818 3.52007 9.26544L2.48704 9.31614C2.08757 9.33995 1.71198 9.51435 1.43601 9.80416C1.16005 10.094 1.00424 10.4777 1 10.8778V12.1222C1.00423 12.5223 1.16003 12.906 1.43597 13.1958C1.71191 13.4856 2.08747 13.66 2.48693 13.6839L3.52018 13.7346C3.67385 13.7619 3.81805 13.8278 3.9392 13.9262C4.06036 14.0246 4.1545 14.1522 4.21277 14.297C4.26165 14.4246 4.31375 14.5507 4.36908 14.6751C4.43017 14.8188 4.45375 14.9757 4.43761 15.131C4.42147 15.2864 4.36614 15.4351 4.2768 15.5632L3.58261 16.3289C3.31697 16.6282 3.17472 17.0171 3.18453 17.4172C3.19434 17.8172 3.35549 18.1987 3.63547 18.4846L4.51537 19.3645C4.80134 19.6444 5.18278 19.8055 5.58282 19.8153C5.98286 19.8251 6.37174 19.6829 6.67108 19.4174L7.43682 18.7232C7.56495 18.6339 7.71364 18.5786 7.86897 18.5625C8.0243 18.5463 8.18118 18.5699 8.32493 18.6309C8.44934 18.6862 8.57542 18.7383 8.70318 18.7872C8.84792 18.8455 8.97547 18.9396 9.07383 19.0608C9.17218 19.1819 9.23812 19.3261 9.26544 19.4797L9.31602 20.5131C9.33994 20.9125 9.51437 21.288 9.80416 21.5639C10.094 21.8399 10.4776 21.9957 10.8777 22H12.1222C12.5223 21.9958 12.906 21.84 13.1958 21.564C13.4856 21.2881 13.66 20.9125 13.6839 20.5131L13.7346 19.4797C13.7619 19.3261 13.8279 19.1819 13.9263 19.0607C14.0247 18.9396 14.1523 18.8455 14.297 18.7872C14.4245 18.7384 14.5505 18.6863 14.675 18.6309C14.8187 18.5698 14.9756 18.5463 15.131 18.5624C15.2863 18.5785 15.435 18.6339 15.5632 18.7232L16.3289 19.4174C16.6282 19.683 17.0171 19.8252 17.4172 19.8154C17.8172 19.8056 18.1987 19.6445 18.4846 19.3645L19.3645 18.4846C19.6445 18.1987 19.8056 17.8172 19.8154 17.4172C19.8252 17.0171 19.683 16.6282 19.4174 16.3289L18.7232 15.5632C18.6339 15.4351 18.5785 15.2864 18.5624 15.131C18.5462 14.9757 18.5698 14.8188 18.6309 14.6751C18.6862 14.5507 18.7383 14.4245 18.7872 14.2967C18.8455 14.152 18.9397 14.0244 19.0608 13.9261C19.182 13.8277 19.3262 13.7618 19.4798 13.7346L20.513 13.6839C20.9124 13.6601 21.288 13.4857 21.564 13.1958C21.84 12.906 21.9958 12.5223 22 12.1222V10.8778C21.9958 10.4777 21.84 10.094 21.564 9.8042C21.2881 9.51439 20.9125 9.33998 20.5131 9.31615ZM20.8333 12.1222C20.8311 12.2234 20.7911 12.3201 20.7213 12.3934C20.6515 12.4667 20.5569 12.5114 20.4559 12.5186L19.4227 12.5693C19.0421 12.6066 18.6793 12.7488 18.3747 12.9801C18.0702 13.2115 17.8358 13.5228 17.6977 13.8795C17.6562 13.9881 17.612 14.0952 17.565 14.2008C17.4107 14.5507 17.3566 14.9365 17.4085 15.3154C17.4604 15.6942 17.6163 16.0512 17.8589 16.3468L18.553 17.1124C18.6193 17.1889 18.6547 17.2874 18.6522 17.3887C18.6498 17.4899 18.6096 17.5866 18.5396 17.6598L17.6597 18.5395C17.5866 18.6095 17.49 18.6497 17.3888 18.6522C17.2876 18.6547 17.1891 18.6194 17.1125 18.5531L16.3468 17.8589C16.0513 17.6163 15.6943 17.4603 15.3155 17.4084C14.9367 17.3565 14.551 17.4107 14.2011 17.5648C14.0954 17.6118 13.9883 17.6561 13.8797 17.6978C13.523 17.8358 13.2116 18.0701 12.9803 18.3747C12.7489 18.6792 12.6066 19.042 12.5693 19.4226L12.5186 20.456C12.5113 20.557 12.4667 20.6516 12.3934 20.7214C12.3201 20.7912 12.2234 20.8311 12.1222 20.8333H10.8777C10.7765 20.8311 10.6798 20.7912 10.6065 20.7214C10.5332 20.6516 10.4885 20.5569 10.4813 20.456L10.4307 19.4227C10.3934 19.0421 10.2511 18.6793 10.0198 18.3748C9.78849 18.0702 9.47717 17.8358 9.12052 17.6977C9.01194 17.6562 8.90484 17.612 8.79922 17.565C8.53431 17.4493 8.24815 17.3902 7.95909 17.3916C7.48136 17.3829 7.01693 17.5491 6.6532 17.8589L5.88746 18.5531C5.81097 18.6194 5.71247 18.6548 5.61125 18.6523C5.51003 18.6498 5.41339 18.6097 5.34024 18.5396L4.46034 17.6596C4.39036 17.5865 4.35019 17.4899 4.34771 17.3887C4.34522 17.2875 4.38059 17.189 4.4469 17.1125L5.14109 16.3468C5.38369 16.0513 5.53961 15.6943 5.59152 15.3155C5.64343 14.9367 5.5893 14.5509 5.43515 14.201C5.38809 14.0953 5.34377 13.9882 5.30219 13.8797C5.16417 13.523 4.92984 13.2116 4.62528 12.9802C4.32072 12.7488 3.95791 12.6066 3.57725 12.5692L2.544 12.5185C2.44304 12.5113 2.34841 12.4667 2.27862 12.3934C2.20883 12.3201 2.16891 12.2234 2.16667 12.1222V10.8778C2.16891 10.7766 2.20885 10.6799 2.27867 10.6066C2.34848 10.5333 2.44314 10.4886 2.54413 10.4814L3.57715 10.4307C3.95778 10.3934 4.32059 10.2512 4.62516 10.0199C4.92973 9.78852 5.16411 9.47719 5.3022 9.12053C5.34367 9.01195 5.38795 8.90485 5.43504 8.79923C5.58925 8.44931 5.64342 8.0635 5.59153 7.68465C5.53964 7.3058 5.38372 6.94876 5.1411 6.6532L4.44691 5.88746C4.3806 5.81096 4.34523 5.71246 4.34772 5.61125C4.3502 5.51004 4.39037 5.4134 4.46035 5.34024L5.34036 4.46034C5.4135 4.39036 5.51012 4.35019 5.61131 4.3477C5.71251 4.34522 5.81098 4.38059 5.88747 4.4469L6.65321 5.14109C6.94876 5.38371 7.30581 5.53963 7.68466 5.59152C8.0635 5.64341 8.44932 5.58924 8.79923 5.43503C8.90486 5.38798 9.01184 5.3437 9.12018 5.30219C9.47692 5.16417 9.78833 4.92982 10.0197 4.62524C10.2511 4.32066 10.3934 3.95782 10.4307 3.57714L10.4813 2.54412C10.4885 2.44314 10.5331 2.34848 10.6065 2.27867C10.6798 2.20885 10.7765 2.16891 10.8777 2.16667H12.1222C12.2234 2.16891 12.3201 2.20885 12.3934 2.27867C12.4667 2.34848 12.5114 2.44314 12.5186 2.54413L12.5693 3.57715C12.6066 3.9578 12.7488 4.32061 12.9802 4.6252C13.2115 4.92979 13.5228 5.16419 13.8795 5.30231C13.9881 5.34378 14.0952 5.38803 14.2008 5.43504C14.5507 5.58921 14.9365 5.64337 15.3153 5.5915C15.6941 5.53963 16.0511 5.38376 16.3467 5.14121L17.1125 4.44691C17.1891 4.38068 17.2876 4.34536 17.3887 4.34785C17.4899 4.35033 17.5866 4.39044 17.6598 4.46035L18.5397 5.34025C18.6096 5.41342 18.6498 5.51006 18.6523 5.61126C18.6547 5.71246 18.6194 5.81095 18.5531 5.88747L17.8589 6.6532C17.6163 6.94868 17.4604 7.30564 17.4085 7.68441C17.3566 8.06317 17.4107 8.44892 17.5648 8.79877C17.6117 8.90439 17.656 9.01157 17.6978 9.12029C17.8358 9.47697 18.0701 9.78834 18.3747 10.0197C18.6792 10.2511 19.042 10.3934 19.4226 10.4307L20.456 10.4814C20.557 10.4887 20.6516 10.5333 20.7214 10.6066C20.7912 10.6799 20.8311 10.7766 20.8333 10.8778V12.1222Z" fill="#332C2B" stroke="#332C2B" stroke-width="0.5"/>
</svg>
