<svg width="15" height="15" viewBox="0 0 15 15" fill="none" xmlns="http://www.w3.org/2000/svg">
<path d="M7.49984 3.9248C6.79276 3.9248 6.10157 4.13448 5.51366 4.52731C4.92575 4.92014 4.46753 5.47848 4.19694 6.13173C3.92635 6.78498 3.85556 7.5038 3.9935 8.19729C4.13144 8.89078 4.47193 9.52779 4.97191 10.0278C5.47189 10.5277 6.1089 10.8682 6.80239 11.0062C7.49587 11.1441 8.21469 11.0733 8.86795 10.8027C9.5212 10.5322 10.0795 10.0739 10.4724 9.48602C10.8652 8.89811 11.0749 8.20691 11.0749 7.49984C11.0738 6.55201 10.6968 5.64331 10.0266 4.97309C9.35637 4.30288 8.44767 3.92588 7.49984 3.9248ZM7.49984 10.2415C6.95758 10.2415 6.4275 10.0807 5.97663 9.77948C5.52576 9.47822 5.17435 9.05002 4.96684 8.54904C4.75933 8.04806 4.70503 7.4968 4.81082 6.96496C4.91661 6.43312 5.17773 5.9446 5.56116 5.56116C5.9446 5.17773 6.43312 4.91661 6.96496 4.81082C7.4968 4.70503 8.04806 4.75932 8.54904 4.96684C9.05002 5.17435 9.47822 5.52576 9.77948 5.97663C10.0807 6.4275 10.2415 6.95758 10.2415 7.49984C10.2407 8.22673 9.95161 8.92362 9.43761 9.43761C8.92362 9.9516 8.22673 10.2407 7.49984 10.2415Z" fill="#332C2B"/>
<path d="M13.9379 5.9401L13.1998 5.90389C13.0901 5.88437 12.9871 5.83726 12.9006 5.76699C12.8141 5.69672 12.7468 5.6056 12.7052 5.5022C12.6703 5.41105 12.6331 5.32102 12.5935 5.2321C12.5499 5.12943 12.533 5.01736 12.5446 4.90641C12.5561 4.79545 12.5956 4.68924 12.6594 4.59774L13.1554 4.0507C13.345 3.83689 13.4466 3.55912 13.4396 3.27339C13.4325 2.98766 13.3175 2.71522 13.1175 2.51099L12.489 1.88249C12.2848 1.68254 12.0123 1.56746 11.7266 1.56044C11.4408 1.55341 11.163 1.65497 10.9492 1.84464L10.4022 2.34058C10.3107 2.40445 10.2045 2.44401 10.0935 2.45553C9.98249 2.46704 9.8704 2.45014 9.76774 2.40641C9.67887 2.36694 9.58887 2.32975 9.49772 2.29484C9.39432 2.25318 9.3032 2.18592 9.23295 2.09936C9.16269 2.01281 9.11561 1.90981 9.09611 1.80005L9.0599 1.06217C9.04289 0.776828 8.91832 0.508551 8.71131 0.311435C8.5043 0.114319 8.23025 0.00302692 7.94442 0H7.0555C6.76969 0.00308024 6.49567 0.11439 6.28867 0.311496C6.08167 0.508601 5.95708 0.776846 5.94002 1.06217L5.90389 1.80012C5.88436 1.90989 5.83723 2.01289 5.76693 2.09944C5.69663 2.18598 5.60547 2.25322 5.50204 2.29483C5.41089 2.32975 5.32091 2.36696 5.2321 2.40649C5.12943 2.45013 5.01736 2.46698 4.90641 2.45545C4.79545 2.44392 4.68924 2.40439 4.59774 2.34057L4.05078 1.84472C3.83702 1.65492 3.55922 1.55327 3.27345 1.56028C2.98767 1.56729 2.71519 1.68243 2.51099 1.88248L1.88249 2.5109C1.6825 2.71515 1.56739 2.98763 1.56038 3.2734C1.55338 3.55917 1.65499 3.83697 1.84473 4.05078L2.34058 4.59773C2.40439 4.68923 2.44391 4.79544 2.45544 4.9064C2.46697 5.01736 2.45013 5.12942 2.40649 5.23209C2.36702 5.32096 2.32978 5.41104 2.29476 5.50235C2.25313 5.60575 2.18587 5.69685 2.09933 5.7671C2.01279 5.83734 1.9098 5.88441 1.80005 5.90388L1.06218 5.9401C0.776833 5.95711 0.508554 6.08168 0.311436 6.28869C0.114318 6.4957 0.00302541 6.76975 0 7.05558V7.94442C0.00302294 8.23024 0.114304 8.50428 0.311405 8.71129C0.508507 8.91829 0.776766 9.04287 1.06209 9.0599L1.80013 9.09611C1.90989 9.11563 2.01289 9.16275 2.09943 9.23303C2.18597 9.30332 2.25321 9.39446 2.29483 9.49788C2.32975 9.58903 2.36696 9.67904 2.40649 9.7679C2.45012 9.87057 2.46697 9.98264 2.45544 10.0936C2.44391 10.2046 2.40438 10.3108 2.34057 10.4023L1.84472 10.9492C1.65498 11.163 1.55337 11.4408 1.56038 11.7266C1.56738 12.0123 1.68249 12.2848 1.88248 12.489L2.51098 13.1175C2.71524 13.3175 2.9877 13.4325 3.27344 13.4395C3.55919 13.4465 3.83696 13.345 4.05078 13.1553L4.59773 12.6594C4.68925 12.5957 4.79546 12.5561 4.90641 12.5446C5.01736 12.5331 5.12942 12.5499 5.23209 12.5935C5.32096 12.633 5.41102 12.6702 5.50227 12.7052C5.60566 12.7468 5.69676 12.814 5.76702 12.9006C5.83727 12.9871 5.88437 13.0901 5.90388 13.1998L5.94002 13.9379C5.9571 14.2232 6.08169 14.4914 6.28869 14.6885C6.49569 14.8856 6.7697 14.9969 7.0555 15H7.94442C8.23024 14.997 8.50428 14.8857 8.71129 14.6886C8.91829 14.4915 9.04287 14.2232 9.0599 13.9379L9.09611 13.1998C9.11564 13.09 9.16277 12.9871 9.23305 12.9005C9.30333 12.814 9.39447 12.7468 9.49788 12.7052C9.58895 12.6703 9.67893 12.633 9.76782 12.5935C9.8705 12.5499 9.98258 12.533 10.0936 12.5446C10.2045 12.5561 10.3107 12.5956 10.4023 12.6594L10.9492 13.1553C11.163 13.345 11.4408 13.4466 11.7266 13.4396C12.0123 13.4326 12.2848 13.3175 12.489 13.1175L13.1175 12.489C13.3175 12.2848 13.4325 12.0123 13.4396 11.7266C13.4466 11.4408 13.345 11.163 13.1553 10.9492L12.6594 10.4023C12.5956 10.3108 12.5561 10.2046 12.5446 10.0936C12.533 9.98264 12.5499 9.87058 12.5935 9.76791C12.633 9.67904 12.6702 9.58896 12.7052 9.49765C12.7468 9.39425 12.814 9.30315 12.9006 9.2329C12.9871 9.16266 13.0901 9.11559 13.1999 9.09612L13.9378 9.0599C14.2232 9.0429 14.4914 8.91833 14.6886 8.71131C14.8857 8.5043 14.997 8.23025 15 7.94442V7.05558C14.997 6.76976 14.8857 6.49572 14.6886 6.28872C14.4915 6.08171 14.2232 5.95713 13.9379 5.9401ZM14.1667 7.94442C14.1651 8.01671 14.1365 8.0858 14.0867 8.13817C14.0368 8.19053 13.9692 8.2224 13.8971 8.22754L13.1591 8.26375C12.8872 8.29041 12.6281 8.39201 12.4105 8.55725C12.193 8.72248 12.0256 8.94487 11.9269 9.19963C11.8973 9.27718 11.8657 9.35368 11.8321 9.42912C11.722 9.67906 11.6833 9.95465 11.7203 10.2253C11.7574 10.4959 11.8688 10.7509 12.0421 10.962L12.5378 11.5089C12.5852 11.5635 12.6105 11.6339 12.6087 11.7062C12.607 11.7785 12.5783 11.8475 12.5283 11.8998L11.8998 12.5282C11.8476 12.5782 11.7785 12.6069 11.7063 12.6087C11.634 12.6105 11.5636 12.5853 11.509 12.5379L10.962 12.0421C10.7509 11.8688 10.496 11.7574 10.2254 11.7203C9.95482 11.6832 9.67927 11.7219 9.42937 11.832C9.35385 11.8656 9.27732 11.8972 9.19979 11.927C8.94501 12.0256 8.7226 12.1929 8.55733 12.4105C8.39207 12.628 8.29043 12.8871 8.26376 13.159L8.22754 13.8971C8.22239 13.9693 8.19051 14.0368 8.13815 14.0867C8.08578 14.1366 8.0167 14.1651 7.94442 14.1667H7.0555C6.98322 14.1651 6.91414 14.1365 6.86177 14.0867C6.80941 14.0368 6.77753 13.9693 6.77238 13.8971L6.73625 13.1591C6.70957 12.8872 6.60796 12.6281 6.44273 12.4105C6.27749 12.193 6.05512 12.0256 5.80037 11.9269C5.72282 11.8973 5.64632 11.8657 5.57087 11.8321C5.38165 11.7495 5.17725 11.7073 4.97078 11.7083C4.62954 11.702 4.29781 11.8208 4.038 12.0421L3.49104 12.5379C3.4364 12.5853 3.36605 12.6106 3.29375 12.6088C3.22145 12.607 3.15242 12.5783 3.10017 12.5283L2.47167 11.8997C2.42169 11.8475 2.393 11.7785 2.39122 11.7062C2.38944 11.6339 2.41471 11.5636 2.46207 11.509L2.95792 10.962C3.13121 10.7509 3.24258 10.4959 3.27966 10.2253C3.31674 9.95476 3.27807 9.6792 3.16796 9.42928C3.13435 9.35376 3.1027 9.27726 3.07299 9.19978C2.97441 8.94499 2.80703 8.72257 2.58948 8.5573C2.37194 8.39203 2.11279 8.29041 1.8409 8.26375L1.10286 8.22753C1.03075 8.22238 0.963152 8.1905 0.913302 8.13814C0.863453 8.08578 0.834937 8.0167 0.833333 7.94442V7.05558C0.834939 6.98329 0.863467 6.9142 0.913335 6.86183C0.963202 6.80947 1.03082 6.7776 1.10295 6.77246L1.84082 6.73625C2.1127 6.70959 2.37185 6.60799 2.5894 6.44275C2.80695 6.27752 2.97437 6.05514 3.073 5.80037C3.10262 5.72282 3.13425 5.64632 3.16789 5.57088C3.27804 5.32094 3.31673 5.04535 3.27966 4.77475C3.2426 4.50414 3.13123 4.24911 2.95793 4.038L2.46208 3.49104C2.41472 3.4364 2.38945 3.36604 2.39123 3.29375C2.393 3.22146 2.42169 3.15243 2.47168 3.10017L3.10026 2.47167C3.1525 2.42168 3.22151 2.39299 3.2938 2.39122C3.36608 2.38944 3.43642 2.41471 3.49105 2.46207L4.038 2.95792C4.24912 3.13122 4.50415 3.24259 4.77475 3.27966C5.04536 3.31672 5.32094 3.27803 5.57088 3.16788C5.64633 3.13427 5.72274 3.10264 5.80013 3.07299C6.05494 2.97441 6.27738 2.80701 6.44266 2.58946C6.60795 2.3719 6.70958 2.11273 6.73625 1.84081L6.77238 1.10294C6.77752 1.03081 6.80939 0.963199 6.86175 0.913333C6.91412 0.863467 6.98321 0.834939 7.0555 0.833333H7.94442C8.01671 0.834939 8.0858 0.863467 8.13817 0.913335C8.19053 0.963202 8.2224 1.03082 8.22754 1.10295L8.26375 1.84082C8.29042 2.11271 8.39202 2.37187 8.55725 2.58943C8.72249 2.80699 8.94487 2.97442 9.19963 3.07308C9.27718 3.1027 9.35368 3.1343 9.42912 3.16789C9.67905 3.27801 9.95461 3.31669 10.2252 3.27964C10.4958 3.24259 10.7508 3.13126 10.9619 2.95801L11.509 2.46208C11.5636 2.41477 11.634 2.38954 11.7062 2.39132C11.7785 2.39309 11.8475 2.42175 11.8998 2.47168L12.5283 3.10018C12.5783 3.15244 12.607 3.22147 12.6088 3.29376C12.6105 3.36604 12.5853 3.43639 12.5379 3.49105L12.0421 4.038C11.8688 4.24906 11.7574 4.50403 11.7203 4.77458C11.6833 5.04512 11.7219 5.32066 11.832 5.57055C11.8655 5.646 11.8971 5.72255 11.927 5.80021C12.0256 6.05498 12.193 6.27739 12.4105 6.44265C12.628 6.60792 12.8871 6.70956 13.159 6.73624L13.8971 6.77246C13.9693 6.77761 14.0368 6.80949 14.0867 6.86185C14.1366 6.91422 14.1651 6.9833 14.1667 7.05558V7.94442Z" fill="#332C2B"/>
</svg>
