<svg width="42" height="28" viewBox="0 0 42 28" fill="none" xmlns="http://www.w3.org/2000/svg">
<path d="M28.3271 0.205587L28.327 0.205882L28.3363 0.20891L41.1968 4.40735C41.5872 4.56533 41.8497 4.91187 41.8497 5.32737V22.1716C41.8497 22.598 41.5778 22.9771 41.205 23.089L41.205 23.0889L41.2011 23.0902L28.3358 27.3344L28.3354 27.3345C28.2276 27.3705 28.1604 27.3711 28.0291 27.3711C27.8979 27.3711 27.8307 27.3705 27.7229 27.3345L27.722 27.3343L14.8615 23.1358C14.471 22.9778 14.2086 22.6313 14.2086 22.2158V5.32737C14.2086 4.90096 14.4805 4.52183 14.8533 4.40999L14.8533 4.41003L14.8567 4.40891L27.722 0.208912L27.7229 0.208618C27.9607 0.129359 28.1446 0.132573 28.3271 0.205587ZM26.8771 25.0552L26.8999 25.0626H26.9239H26.9681H27.1181V24.9126V10.3232V10.214L27.0142 10.1804L22.77 8.80989L22.5739 8.74657V8.95263V16.4684C22.5739 17.0045 22.1547 17.4237 21.6186 17.4237C21.0825 17.4237 20.6633 17.0045 20.6633 16.4684V8.20105V8.09187L20.5594 8.05831L16.3152 6.68778L16.1191 6.62446V6.83053V21.42V21.5287L16.2224 21.5625L26.8771 25.0552ZM27.983 8.52061L28.0294 8.53563L28.0757 8.52047L37.4042 5.46994L37.8401 5.32737L37.4042 5.1848L28.0757 2.13427L28.0291 2.11903L27.9825 2.13427L18.6541 5.1848L18.219 5.32708L18.6539 5.46988L21.616 6.44251L21.6654 6.45872L21.7142 6.44093L26.441 4.71807C26.9458 4.56462 27.4781 4.79893 27.6681 5.2928C27.8564 5.78237 27.5966 6.31821 27.0929 6.51298L24.9727 7.26387L24.5554 7.41169L24.9766 7.54798L27.983 8.52061ZM39.8352 21.5627L39.9391 21.5292V21.42V6.83053V6.6235L39.7424 6.68799L29.0877 10.1806L28.9844 10.2145V10.3232V24.9126V25.1187L29.1805 25.0554L33.4247 23.6849L33.5286 23.6513V23.5421V18.0158C33.5286 17.4715 33.9115 17.0605 34.4397 17.0605C34.9758 17.0605 35.3949 17.4797 35.3949 18.0158V22.7905V22.9966L35.591 22.9333L39.8352 21.5627Z" fill="#EF4507" stroke="white" stroke-width="0.3"/>
<path d="M1.10526 6.67106H8.93053C9.41544 6.67106 9.84408 7.08396 9.88578 7.63166C9.883 8.16521 9.46485 8.58158 8.93053 8.58158H1.10526C0.569159 8.58158 0.15 8.16243 0.15 7.62632C0.15 7.09022 0.569159 6.67106 1.10526 6.67106Z" fill="#EF4507" stroke="white" stroke-width="0.3"/>
<path d="M1.10526 12.8163H8.93053C9.42632 12.8163 9.88579 13.2393 9.88579 13.7716C9.88579 14.3077 9.46663 14.7268 8.93053 14.7268H1.10526C0.569159 14.7268 0.15 14.3077 0.15 13.7716C0.15 13.2355 0.569159 12.8163 1.10526 12.8163Z" fill="#EF4507" stroke="white" stroke-width="0.3"/>
<path d="M1.10526 18.9616H8.93053C9.42632 18.9616 9.88579 19.3846 9.88579 19.9168C9.88579 20.453 9.46663 20.8721 8.93053 20.8721H1.10526C0.569159 20.8721 0.15 20.453 0.15 19.9168C0.15 19.3807 0.569159 18.9616 1.10526 18.9616Z" fill="#EF4507" stroke="white" stroke-width="0.3"/>
</svg>
