<svg width="16" height="24" viewBox="0 0 16 24" fill="none" xmlns="http://www.w3.org/2000/svg">
<path fill-rule="evenodd" clip-rule="evenodd" d="M1.43284 6.43334H3.8209V7.71092C3.42289 7.95046 3.18408 8.34971 3.18408 8.8288C3.18408 9.54743 3.74129 10.1862 4.45771 10.1862C5.25373 10.1862 5.81095 9.54743 5.81095 8.8288C5.81095 8.34971 5.57214 7.95046 5.25373 7.71092V6.43334H10.7463L10.8259 7.71092C10.4279 7.95046 10.1891 8.34971 10.1891 8.8288C10.1891 9.54743 10.8259 10.1862 11.5423 10.1862C12.2587 10.1862 12.8955 9.54743 12.8955 8.8288C12.8955 8.34971 12.6567 7.95046 12.1791 7.71092V6.43334H14.5672C14.9652 6.43334 15.2836 6.75274 15.3632 7.15198L16 23.2015C16 23.6806 15.602 24 15.204 24C9.63184 24 6.36816 24 0.79602 24C0.39801 24 0 23.6806 0 23.2015L0.716418 7.15198C0.716418 6.75274 1.03483 6.43334 1.43284 6.43334ZM4.93532 7.87062C5.25373 8.03031 5.49254 8.42955 5.49254 8.8288C5.49254 9.38774 5.01493 9.86683 4.45771 9.86683C3.9005 9.86683 3.42289 9.38774 3.42289 8.8288C3.42289 8.42955 3.74129 8.03031 4.1393 7.87062L4.29851 3.7185C4.29851 2.92001 4.45771 2.20138 4.93532 1.56259C6.76617 -1.07241 11.7015 -0.353774 11.7015 3.5588L11.9403 7.87062C12.3383 8.03031 12.5771 8.42955 12.5771 8.8288C12.5771 9.38774 12.0995 9.86683 11.5423 9.86683C10.9851 9.86683 10.5075 9.38774 10.5075 8.8288C10.5075 8.42955 10.7463 8.03031 11.1443 7.87062L10.9055 3.5588C10.9055 -0.0343805 5.09453 0.125316 5.09453 3.7185L4.93532 7.87062Z" fill="#332C2B"/>
</svg>
