<svg width="25" height="23" viewBox="0 0 25 23" fill="none" xmlns="http://www.w3.org/2000/svg">
<path d="M14.1888 1.00201C13.6741 0.970113 13.1809 1.32097 13.138 1.84193C13.1165 2.28847 13.4704 2.71374 13.9207 2.77754L15.3576 3.00081L2.67273 10.1135C2.2331 10.3262 2.02937 10.9428 2.27599 11.3681C2.52261 11.7934 3.14452 11.9422 3.5627 11.6764L16.4084 4.48927L16.1832 5.86078C16.1082 6.32859 16.4727 6.81766 16.9445 6.89208C17.4163 6.9665 17.9096 6.61565 17.9846 6.14785L18.5422 2.58616C18.6173 2.11836 18.2527 1.62929 17.7809 1.55487L14.1888 1.00201ZM20.0648 5.79699C19.5501 5.80762 19.1641 6.31796 19.1534 6.7007V21.0963C19.1534 21.5747 19.593 22 20.0648 22H23.0886C23.5711 22 24 21.5747 24 21.0963V6.7007C24 6.22227 23.5711 5.79699 23.0886 5.79699H20.0648ZM20.9762 7.59378H22.1879V20.2032H20.9762V7.59378ZM14.0172 8.1998C13.4918 8.21043 13.1166 8.72076 13.1058 9.09288V21.0963C13.1058 21.5747 13.5347 22 14.0172 22H17.041C17.5128 22 17.9417 21.5747 17.9417 21.0963V9.09288C17.9417 8.62508 17.5128 8.1998 17.041 8.1998H14.0172ZM14.9179 9.99659H16.1296V20.2032H14.9179V9.99659ZM7.95897 10.6026C7.44429 10.6026 7.05828 11.1236 7.04755 11.4957V21.0963C7.04755 21.5747 7.48718 22 7.95897 22H10.9828C11.4653 22 11.8942 21.5747 11.8942 21.0963V11.4957C11.8942 11.0279 11.4653 10.6026 10.9828 10.6026H7.95897ZM8.8704 12.3994H10.0821V20.2032H8.8704V12.3994ZM1.91142 12.9948C1.38601 13.0054 1.01072 13.5157 1 13.8985V21.0963C1 21.5747 1.4289 22 1.91142 22H4.9352C5.40699 22 5.84662 21.5747 5.84662 21.0963V13.8985C5.84662 13.4307 5.40699 12.9948 4.9352 12.9948H1.91142ZM2.81212 14.8022H4.02378V20.2032H2.81212V14.8022Z" fill="#332C2B" stroke="white" stroke-width="0.2"/>
</svg>
