<svg width="20" height="20" viewBox="0 0 20 20" fill="none" xmlns="http://www.w3.org/2000/svg">
<path d="M18.3714 15.9294L15.0183 13.1446C15.9087 11.8943 16.4202 10.3599 16.4202 8.7118C16.4202 4.46841 12.9535 1.00171 8.71009 1.00171C4.4667 1.00171 1 4.46841 1 8.7118C1 12.9552 4.4667 16.4219 8.71009 16.4219C10.3582 16.4219 11.8926 15.8915 13.1429 15.0201L15.9466 18.3731C16.0034 18.4489 16.0981 18.5246 16.1739 18.6004C16.9127 19.2066 17.9925 19.1119 18.6177 18.3731C19.2049 17.6343 19.1102 16.5545 18.3714 15.9294ZM2.38289 8.7118C2.38289 5.22616 5.22445 2.3846 8.71009 2.3846C12.1957 2.3846 15.0373 5.22616 15.0373 8.7118C15.0373 12.1974 12.1957 15.039 8.71009 15.039C5.22445 15.039 2.38289 12.1974 2.38289 8.7118Z" fill="#332C2B" stroke="white" stroke-width="0.5"/>
<path d="M12.3481 6.02242L8.90034 4.45009C8.76773 4.39326 8.63512 4.39326 8.50252 4.45009L5.07371 6.02242C4.90321 6.0982 4.78955 6.26869 4.78955 6.45813V10.9857C4.78955 11.1751 4.90321 11.3456 5.07371 11.4214L8.52146 12.9937C8.57829 13.0316 8.65407 13.0316 8.7109 13.0316C8.78667 13.0316 8.8435 13.0127 8.90034 12.9937L12.3481 11.4214C12.5186 11.3456 12.6322 11.1751 12.6322 10.9857V6.45813C12.6322 6.26869 12.5186 6.0982 12.3481 6.02242ZM8.7109 5.39728L11.0031 6.43918L8.7109 7.48109L6.41871 6.43918L8.7109 5.39728ZM5.73674 7.19693L8.23731 8.33355V11.8003L5.73674 10.6636V7.19693ZM9.18449 11.8003V8.33355L11.6851 7.19693V10.6636L9.18449 11.8003Z" fill="#332C2B"/>
</svg>
