<svg width="38" height="33" viewBox="0 0 38 33" fill="none" xmlns="http://www.w3.org/2000/svg">
<path fill-rule="evenodd" clip-rule="evenodd" d="M26.527 25.2593C26.1156 25.2593 25.7819 25.5899 25.7819 25.9975V27.4797C25.7819 27.8873 26.1156 28.2178 26.527 28.2178C26.9383 28.2178 27.272 27.8873 27.272 27.4797V25.9975C27.272 25.5899 26.9383 25.2593 26.527 25.2593ZM36.51 13.4663C36.51 14.5481 35.9042 15.4921 35.0114 15.9838C34.9694 16.0069 34.9269 16.0291 34.884 16.05C34.8778 16.0531 34.8718 16.0564 34.8657 16.0593C34.8139 16.0841 34.7615 16.1069 34.7084 16.1286C34.6981 16.1328 34.6875 16.1367 34.6771 16.1408C34.6313 16.1589 34.5851 16.1758 34.5386 16.1915C34.5294 16.1946 34.5202 16.1977 34.5111 16.2008C34.3976 16.2377 34.282 16.2679 34.1647 16.2908C34.1614 16.2914 34.158 16.2919 34.1547 16.2925C34.1021 16.3026 34.0492 16.311 33.9961 16.3181C33.983 16.3198 33.9699 16.3215 33.9568 16.3231C33.9117 16.3285 33.8665 16.3327 33.8211 16.3361C33.8067 16.3372 33.7923 16.3386 33.7778 16.3395C33.7202 16.3429 33.6624 16.345 33.6045 16.345C33.5593 16.345 33.5143 16.3436 33.4696 16.3416C33.4515 16.3407 33.4334 16.3394 33.4154 16.3382C33.3902 16.3367 33.365 16.3347 33.3399 16.3325C33.3159 16.3303 33.2918 16.3279 33.2678 16.325C33.2517 16.3232 33.2356 16.3211 33.2195 16.3189C33.1892 16.3149 33.159 16.3107 33.1289 16.3058C33.1281 16.3056 33.1274 16.3055 33.1266 16.3054C32.3588 16.1773 31.6767 15.7457 31.2325 15.1256C31.2252 15.1156 31.2179 15.1057 31.2108 15.0955C31.1966 15.0751 31.1829 15.0544 31.1692 15.0335C31.1589 15.0179 31.1486 15.0022 31.1385 14.9862C31.1266 14.9673 31.1149 14.9481 31.1034 14.9289C31.0923 14.9104 31.0816 14.8917 31.071 14.8731C31.0606 14.8548 31.0503 14.8368 31.0403 14.8183C31.0291 14.7975 31.0184 14.7763 31.0077 14.7552C30.9989 14.738 30.9898 14.7209 30.9815 14.7035C30.967 14.6734 30.9534 14.6431 30.9399 14.6125C30.9277 14.5847 30.9161 14.5566 30.9048 14.5283C30.8977 14.5107 30.8905 14.4934 30.8838 14.4757C30.8743 14.4509 30.8656 14.4258 30.8569 14.4006C30.852 14.3862 30.8469 14.3718 30.8421 14.3573C30.8331 14.3297 30.8245 14.3019 30.8162 14.2739C30.7404 14.0175 30.699 13.7467 30.699 13.4663V11.6306H36.51V13.4663ZM34.6561 17.6945V31.5237H32.1719V23.9835C32.1719 21.5822 30.2 19.6286 27.7763 19.6286C25.3526 19.6286 23.3809 21.5822 23.3809 23.9835V31.5237H3.37241V17.7003C3.38046 17.7022 3.38866 17.7035 3.3967 17.7054C3.46405 17.721 3.53192 17.7351 3.60031 17.7477C3.61745 17.7508 3.63458 17.7538 3.65172 17.7568C3.71541 17.7676 3.77956 17.777 3.84408 17.7852C3.86389 17.7877 3.88356 17.7904 3.90345 17.7926C3.9667 17.7997 4.0304 17.8051 4.09455 17.8095C4.11406 17.8109 4.13373 17.8129 4.1534 17.814C4.23513 17.8185 4.31752 17.8213 4.40044 17.8213C4.46653 17.8213 4.53231 17.8193 4.59787 17.8163C4.61478 17.8156 4.63177 17.8148 4.64868 17.8139C4.70768 17.8106 4.76654 17.8063 4.82502 17.8006C4.8511 17.7981 4.87695 17.7949 4.90302 17.792C4.93506 17.7883 4.96687 17.7842 4.99876 17.7799C6.08266 17.633 7.04126 17.0935 7.7245 16.3108C7.72472 16.3105 7.72487 16.3103 7.72509 16.3101C7.80652 16.2169 7.88408 16.1202 7.95739 16.0204C7.9734 15.9987 7.98897 15.9767 8.00454 15.9547C8.01997 15.9328 8.03583 15.9113 8.05088 15.8891C8.06563 15.9108 8.08113 15.9319 8.09618 15.9533C8.11227 15.976 8.12836 15.9986 8.14483 16.021C8.16547 16.0491 8.18625 16.0771 8.20763 16.1047C8.20786 16.1051 8.20815 16.1054 8.20838 16.1058C8.26232 16.1756 8.31856 16.2434 8.37645 16.3098C8.37682 16.3102 8.37719 16.3107 8.37749 16.311C9.06073 17.0936 10.0193 17.633 11.103 17.7799C11.1349 17.7842 11.1668 17.7883 11.1989 17.792C11.2248 17.7949 11.2507 17.7981 11.2769 17.8006C11.3354 17.8063 11.3942 17.8106 11.4532 17.8139C11.4701 17.8148 11.487 17.8156 11.504 17.8163C11.5695 17.8193 11.6352 17.8213 11.7014 17.8213C11.7676 17.8213 11.8333 17.8193 11.8987 17.8163C11.9158 17.8156 11.9327 17.8148 11.9496 17.8139C12.0086 17.8106 12.0674 17.8063 12.1259 17.8006C12.1521 17.7981 12.1779 17.7949 12.2039 17.792C12.2359 17.7883 12.2679 17.7842 12.2998 17.7798C13.3832 17.633 14.3415 17.0939 15.0247 16.3117L15.0269 16.3091C15.0841 16.2436 15.1395 16.1766 15.1927 16.1078C15.1936 16.1066 15.1945 16.1057 15.1953 16.1045C15.2165 16.077 15.2373 16.0491 15.2578 16.0211C15.2744 15.9987 15.2906 15.9759 15.3067 15.9531C15.3217 15.9317 15.3372 15.9107 15.3519 15.8891C15.3666 15.9108 15.3822 15.9319 15.3972 15.9533C15.4133 15.976 15.4294 15.9986 15.4459 16.021C15.4665 16.0491 15.4873 16.0771 15.5087 16.1047C15.5089 16.1051 15.5092 16.1054 15.5094 16.1058C15.5633 16.1756 15.6196 16.2434 15.6775 16.3098C15.6778 16.3102 15.6782 16.3107 15.6785 16.311C16.3618 17.0936 17.3204 17.633 18.404 17.7799C18.4359 17.7842 18.4678 17.7883 18.4999 17.792C18.5258 17.7949 18.5517 17.7981 18.5779 17.8006C18.6364 17.8063 18.6952 17.8106 18.7542 17.8139C18.7711 17.8148 18.788 17.8156 18.8051 17.8163C18.8706 17.8193 18.9363 17.8213 19.0024 17.8213C19.0686 17.8213 19.1343 17.8193 19.1998 17.8163C19.2168 17.8156 19.2337 17.8148 19.2507 17.8139C19.3097 17.8106 19.3684 17.8063 19.4269 17.8006C19.4532 17.7981 19.4789 17.7949 19.5049 17.792C19.537 17.7883 19.5689 17.7842 19.6008 17.7798C20.6842 17.633 21.6426 17.0939 22.3257 16.3117L22.328 16.3091C22.3851 16.2436 22.4405 16.1766 22.4937 16.1078C22.4946 16.1066 22.4955 16.1057 22.4963 16.1045C22.5176 16.077 22.5383 16.0491 22.5588 16.0211C22.5754 15.9987 22.5916 15.9759 22.6077 15.9531C22.6228 15.9317 22.6383 15.9107 22.6529 15.8891C22.6676 15.9108 22.6832 15.9319 22.6982 15.9533C22.7143 15.976 22.7304 15.9986 22.7469 16.021C22.7675 16.0491 22.7883 16.0771 22.8097 16.1047C22.8099 16.1051 22.8102 16.1054 22.8104 16.1058C22.8644 16.1756 22.9206 16.2434 22.9785 16.3098C22.9789 16.3102 22.9793 16.3107 22.9795 16.311C23.6628 17.0936 24.6214 17.633 25.7051 17.7799C25.737 17.7842 25.7688 17.7883 25.8009 17.792C25.8269 17.7949 25.8527 17.7981 25.879 17.8006C25.9374 17.8063 25.9962 17.8106 26.0552 17.8139C26.0721 17.8148 26.089 17.8156 26.1061 17.8163C26.1716 17.8193 26.2373 17.8213 26.3035 17.8213C26.3696 17.8213 26.4353 17.8193 26.5008 17.8163C26.5179 17.8156 26.5348 17.8148 26.5517 17.8139C26.6107 17.8106 26.6695 17.8063 26.728 17.8006C26.7542 17.7981 26.78 17.7949 26.806 17.792C26.838 17.7883 26.87 17.7842 26.9018 17.7798C27.9852 17.633 28.9436 17.0939 29.6268 16.3117L29.629 16.3091C29.6861 16.2436 29.7416 16.1766 29.7948 16.1078C29.7957 16.1066 29.7965 16.1057 29.7974 16.1045C29.8186 16.077 29.8393 16.0491 29.8599 16.0211C29.8764 15.9987 29.8927 15.9759 29.9087 15.9531C29.9238 15.9317 29.9393 15.9107 29.954 15.8891C29.9686 15.9108 29.9842 15.9319 29.9993 15.9533C30.0154 15.976 30.0315 15.9986 30.0479 16.021C30.0686 16.0491 30.0893 16.0771 30.1107 16.1047C30.1109 16.1051 30.1112 16.1054 30.1115 16.1058C30.1654 16.1756 30.2216 16.2434 30.2795 16.3098C30.2799 16.3102 30.2803 16.3107 30.2806 16.311C30.9638 17.0936 31.9224 17.633 33.0061 17.7799C33.038 17.7842 33.0699 17.7883 33.102 17.792C33.1279 17.7949 33.1538 17.7981 33.18 17.8006C33.2385 17.8063 33.2972 17.8106 33.3562 17.8139C33.3732 17.8148 33.3901 17.8156 33.4071 17.8163C33.4726 17.8193 33.5383 17.8213 33.6045 17.8213C33.6887 17.8213 33.7723 17.8184 33.8553 17.8137C33.876 17.8126 33.8964 17.8105 33.9169 17.809C33.9816 17.8045 34.046 17.7988 34.1099 17.7916C34.1304 17.7892 34.1506 17.7865 34.1711 17.7838C34.2378 17.7753 34.3041 17.7653 34.3698 17.7538C34.3856 17.7511 34.4015 17.7483 34.4173 17.7454C34.4939 17.7311 34.5699 17.7151 34.645 17.6969C34.6487 17.6961 34.6524 17.6954 34.6561 17.6945ZM24.8709 31.5237V23.9835C24.8709 22.3962 26.1743 21.1049 27.7764 21.1049C29.3785 21.1049 30.6819 22.3962 30.6819 23.9835V31.5237H24.8709ZM1.49486 11.6306H7.30588V13.4663C7.30588 13.7477 7.26416 14.0196 7.1878 14.277C7.18012 14.3032 7.17193 14.3291 7.16351 14.3549C7.158 14.3719 7.15219 14.3886 7.1463 14.4053C7.13833 14.4283 7.13036 14.4513 7.12172 14.474C7.1136 14.4954 7.10488 14.5167 7.09624 14.538C7.08886 14.5562 7.08186 14.5745 7.07418 14.5924C7.05787 14.6303 7.04066 14.6677 7.02278 14.7048C7.01555 14.7198 7.0078 14.7345 7.00021 14.7493C6.98829 14.773 6.97622 14.7966 6.96363 14.82C6.95454 14.8368 6.94508 14.8534 6.93576 14.87C6.92414 14.8904 6.91237 14.9108 6.9003 14.931C6.88957 14.9489 6.87877 14.9666 6.8676 14.9842C6.85657 15.0018 6.8451 15.0192 6.83377 15.0364C6.82096 15.0558 6.80829 15.0751 6.79511 15.0941C6.78646 15.1064 6.7776 15.1184 6.76888 15.1305C6.32441 15.7481 5.64363 16.1778 4.87769 16.3055C4.87717 16.3056 4.87672 16.3056 4.87613 16.3058C4.84596 16.3107 4.81556 16.3149 4.78516 16.3189C4.76915 16.3211 4.75328 16.3232 4.73726 16.325C4.71312 16.3279 4.68898 16.3303 4.66485 16.3325C4.63989 16.3347 4.61486 16.3367 4.58975 16.3382C4.57157 16.3394 4.55354 16.3407 4.53529 16.3416C4.49066 16.3436 4.44581 16.345 4.40074 16.345H4.40037C4.34308 16.345 4.28601 16.3429 4.22902 16.3396C4.21442 16.3387 4.19996 16.3373 4.18544 16.3363C4.14126 16.333 4.09723 16.329 4.05327 16.3237C4.03934 16.322 4.02556 16.3203 4.0117 16.3185C3.96313 16.312 3.9147 16.3043 3.86658 16.2955C3.85898 16.2941 3.85138 16.2929 3.84385 16.2914C3.72979 16.2694 3.6173 16.2405 3.50689 16.2051C3.49497 16.2013 3.4832 16.1972 3.47143 16.1932C3.43067 16.1796 3.39029 16.165 3.35021 16.1497C3.3336 16.1433 3.31691 16.1368 3.30037 16.1301C3.26387 16.1154 3.22788 16.0995 3.19197 16.0832C3.17588 16.0759 3.15957 16.0692 3.1437 16.0615C3.09825 16.0399 3.05363 16.017 3.00945 15.9929C2.10777 15.5038 1.49486 14.5546 1.49486 13.4663V11.6306ZM4.90235 5.14872H9.41111L7.52782 10.1543H2.02575L4.90235 5.14872ZM5.21428 1.47627H32.8539V3.67245H21.4136C21.4102 3.67237 21.4069 3.67245 21.4036 3.67245H16.6322C16.6294 3.67245 16.6266 3.67237 16.6239 3.67245H5.21428V1.47627ZM30.5088 10.1543L28.6256 5.14872H33.021L35.9552 10.1543H30.5088ZM27.0354 5.14872L28.9187 10.1543H23.3031L22.3088 5.14872H27.0354ZM20.7903 5.14872L21.7846 10.1543H16.2522L17.2465 5.14872H20.7903ZM15.7279 5.14872L14.7336 10.1543H9.11803L11.0013 5.14872H15.7279ZM12.1769 16.3058C12.1469 16.3107 12.1167 16.3149 12.0866 16.3189C12.0703 16.3211 12.0542 16.3232 12.038 16.3251C12.014 16.3279 11.99 16.3303 11.966 16.3325C11.9409 16.3347 11.9157 16.3367 11.8904 16.3382C11.8724 16.3395 11.8544 16.3407 11.8364 16.3416C11.7915 16.3436 11.7466 16.345 11.7014 16.345C11.6562 16.345 11.6113 16.3436 11.5665 16.3416C11.5484 16.3407 11.5303 16.3394 11.5123 16.3382C11.4871 16.3367 11.4619 16.3347 11.4368 16.3325C11.4128 16.3303 11.3887 16.3279 11.3647 16.325C11.3486 16.3232 11.3325 16.3211 11.3165 16.3189C11.2861 16.3149 11.2559 16.3107 11.2258 16.3058C11.225 16.3056 11.2243 16.3055 11.2235 16.3054C10.4558 16.1773 9.77363 15.7457 9.32938 15.1256C9.32208 15.1156 9.31478 15.1057 9.3077 15.0955C9.29355 15.0751 9.27984 15.0544 9.26621 15.0335C9.25585 15.0179 9.2455 15.0022 9.23544 14.9862C9.22352 14.9673 9.21182 14.9481 9.20035 14.9289C9.18925 14.9104 9.17852 14.8917 9.16787 14.8731C9.15751 14.8548 9.14723 14.8368 9.13725 14.8183C9.126 14.7975 9.11534 14.7763 9.10462 14.7552C9.09583 14.738 9.08673 14.7209 9.07839 14.7035C9.06394 14.6734 9.0503 14.6431 9.03682 14.6125C9.0246 14.5847 9.01305 14.5566 9.00173 14.5283C8.99458 14.5107 8.98743 14.4934 8.98072 14.4757C8.97126 14.4509 8.96254 14.4258 8.95383 14.4006C8.94891 14.3862 8.94377 14.3718 8.939 14.3573C8.92999 14.3297 8.92142 14.3019 8.91308 14.2739C8.83731 14.0175 8.79589 13.7467 8.79589 13.4663V11.6306H14.6069V13.4663C14.6069 13.7477 14.5652 14.0196 14.4888 14.277C14.4812 14.3032 14.473 14.3291 14.4645 14.3549C14.459 14.3719 14.4532 14.3886 14.4473 14.4053C14.4394 14.4283 14.4314 14.4512 14.4227 14.4739C14.4146 14.4956 14.4058 14.517 14.3971 14.5384C14.3897 14.5564 14.3829 14.5746 14.3752 14.5924C14.3589 14.6303 14.3417 14.6677 14.3237 14.7049C14.3167 14.7197 14.3089 14.7342 14.3015 14.7488C14.2895 14.7728 14.2773 14.7966 14.2646 14.8202C14.2556 14.8368 14.2462 14.8533 14.2369 14.8698C14.2252 14.8903 14.2134 14.9108 14.2013 14.9312C14.1905 14.9489 14.1798 14.9665 14.1687 14.984C14.1576 15.0018 14.1461 15.0192 14.1347 15.0366C14.122 15.0558 14.1093 15.0751 14.0962 15.0939C14.0875 15.1064 14.0785 15.1186 14.0696 15.1309C13.6254 15.7481 12.9451 16.1774 12.1798 16.3053C12.1787 16.3055 12.1779 16.3056 12.1769 16.3058ZM19.4779 16.3058C19.4479 16.3107 19.4178 16.3149 19.3876 16.3189C19.3714 16.3211 19.3552 16.3232 19.339 16.3251C19.315 16.3279 19.291 16.3303 19.267 16.3325C19.2419 16.3347 19.2167 16.3367 19.1914 16.3382C19.1735 16.3395 19.1554 16.3407 19.1374 16.3416C19.0926 16.3436 19.0476 16.345 19.0024 16.345C18.9572 16.345 18.9123 16.3436 18.8675 16.3416C18.8494 16.3407 18.8314 16.3394 18.8133 16.3382C18.7882 16.3367 18.7629 16.3347 18.7378 16.3325C18.7138 16.3303 18.6897 16.3279 18.6658 16.325C18.6497 16.3232 18.6335 16.3211 18.6175 16.3189C18.5872 16.3149 18.5569 16.3107 18.5268 16.3058C18.5261 16.3056 18.5253 16.3055 18.5245 16.3054C17.7568 16.1773 17.0747 15.7457 16.6304 15.1256C16.6231 15.1156 16.6158 15.1057 16.6087 15.0955C16.5946 15.0751 16.5809 15.0544 16.5672 15.0335C16.5569 15.0179 16.5465 15.0022 16.5365 14.9862C16.5245 14.9673 16.5128 14.9481 16.5014 14.9289C16.4903 14.9104 16.4795 14.8917 16.4689 14.8731C16.4585 14.8548 16.4483 14.8368 16.4383 14.8183C16.427 14.7975 16.4164 14.7763 16.4056 14.7552C16.3969 14.738 16.3878 14.7209 16.3794 14.7035C16.365 14.6734 16.3513 14.6431 16.3378 14.6125C16.3256 14.5847 16.3141 14.5566 16.3028 14.5283C16.2956 14.5107 16.2885 14.4934 16.2817 14.4757C16.2723 14.4509 16.2636 14.4258 16.2549 14.4006C16.2499 14.3862 16.2448 14.3718 16.24 14.3573C16.231 14.3297 16.2224 14.3019 16.2141 14.2739C16.1383 14.0175 16.0969 13.7467 16.0969 13.4663V11.6306H21.9079V13.4663C21.9079 13.7477 21.8662 14.0196 21.7899 14.277C21.7822 14.3032 21.774 14.3291 21.7656 14.3549C21.7601 14.3719 21.7542 14.3886 21.7484 14.4053C21.7404 14.4283 21.7324 14.4512 21.7238 14.4739C21.7157 14.4956 21.7068 14.517 21.6981 14.5384C21.6908 14.5564 21.6839 14.5746 21.6762 14.5924C21.6599 14.6303 21.6427 14.6677 21.6248 14.7049C21.6177 14.7197 21.6099 14.7342 21.6025 14.7488C21.5905 14.7728 21.5783 14.7966 21.5656 14.8202C21.5566 14.8368 21.5472 14.8533 21.5379 14.8698C21.5262 14.8903 21.5144 14.9108 21.5023 14.9312C21.4916 14.9489 21.4808 14.9665 21.4697 14.984C21.4586 15.0018 21.4472 15.0192 21.4357 15.0366C21.423 15.0558 21.4104 15.0751 21.3972 15.0939C21.3885 15.1064 21.3795 15.1186 21.3706 15.1309C20.9264 15.7481 20.2461 16.1774 19.4808 16.3053C19.4797 16.3055 19.4789 16.3056 19.4779 16.3058ZM26.7789 16.3058C26.749 16.3107 26.7188 16.3149 26.6886 16.3189C26.6724 16.3211 26.6562 16.3232 26.64 16.3251C26.6161 16.3279 26.5921 16.3303 26.5681 16.3325C26.543 16.3347 26.5177 16.3367 26.4925 16.3382C26.4745 16.3395 26.4565 16.3407 26.4384 16.3416C26.3936 16.3436 26.3487 16.345 26.3035 16.345C26.2582 16.345 26.2133 16.3436 26.1685 16.3416C26.1504 16.3407 26.1324 16.3394 26.1144 16.3382C26.0892 16.3367 26.0639 16.3347 26.0388 16.3325C26.0148 16.3303 25.9908 16.3279 25.9668 16.325C25.9507 16.3232 25.9345 16.3211 25.9185 16.3189C25.8882 16.3149 25.8579 16.3107 25.8278 16.3058C25.8271 16.3056 25.8264 16.3055 25.8255 16.3054C25.0578 16.1773 24.3757 15.7457 23.9314 15.1256C23.9241 15.1156 23.9168 15.1057 23.9098 15.0955C23.8956 15.0751 23.8819 15.0544 23.8683 15.0335C23.8579 15.0179 23.8476 15.0022 23.8375 14.9862C23.8256 14.9673 23.8139 14.9481 23.8024 14.9289C23.7913 14.9104 23.7806 14.8917 23.7699 14.8731C23.7596 14.8548 23.7493 14.8368 23.7393 14.8183C23.7281 14.7975 23.7174 14.7763 23.7067 14.7552C23.6979 14.738 23.6888 14.7209 23.6804 14.7035C23.666 14.6734 23.6524 14.6431 23.6389 14.6125C23.6267 14.5847 23.6151 14.5566 23.6038 14.5283C23.5966 14.5107 23.5895 14.4934 23.5828 14.4757C23.5733 14.4509 23.5646 14.4258 23.5559 14.4006C23.551 14.3862 23.5458 14.3718 23.5411 14.3573C23.532 14.3297 23.5235 14.3019 23.5151 14.2739C23.4394 14.0175 23.3979 13.7467 23.3979 13.4663V11.6306H29.209V13.4663C29.209 13.7477 29.1672 14.0196 29.0909 14.277C29.0832 14.3032 29.075 14.3291 29.0666 14.3549C29.0611 14.3719 29.0553 14.3886 29.0494 14.4053C29.0414 14.4283 29.0334 14.4512 29.0248 14.4739C29.0167 14.4956 29.0078 14.517 28.9992 14.5384C28.9918 14.5564 28.9849 14.5746 28.9773 14.5924C28.961 14.6303 28.9437 14.6677 28.9258 14.7049C28.9187 14.7197 28.911 14.7342 28.9035 14.7488C28.8915 14.7728 28.8794 14.7966 28.8666 14.8202C28.8576 14.8368 28.8482 14.8533 28.8389 14.8698C28.8272 14.8903 28.8155 14.9108 28.8033 14.9312C28.7926 14.9489 28.7819 14.9665 28.7708 14.984C28.7597 15.0018 28.7482 15.0192 28.7367 15.0366C28.724 15.0558 28.7114 15.0751 28.6983 15.0939C28.6896 15.1064 28.6805 15.1186 28.6717 15.1309C28.2274 15.7481 27.5472 16.1774 26.7818 16.3053C26.7808 16.3055 26.78 16.3056 26.7789 16.3058ZM37.8561 10.4577L34.3413 4.46159C34.3424 4.44461 34.3439 4.42786 34.3439 4.41058V0.738136C34.3439 0.330537 34.0103 0 33.5989 0H4.46928C4.05782 0 3.72428 0.330537 3.72428 0.738136V4.21513L0.0967857 10.5272C0.0173684 10.6656 -0.0127298 10.8228 0.00485232 10.976V13.4663C0.00485232 14.9401 0.748291 16.2443 1.88241 17.0326V32.2619C1.88241 32.6695 2.21602 33 2.62741 33H24.1259H31.4269H35.4011C35.8126 33 36.1461 32.6695 36.1461 32.2619V17.016C37.2668 16.2259 38 14.9297 38 13.4663V10.8925C38 10.7297 37.9461 10.5798 37.8561 10.4577ZM8.28942 27.2852H18.9732V21.1048H8.28942V27.2852ZM19.7182 19.6286H7.54434C7.13295 19.6286 6.79934 19.9591 6.79934 20.3668V28.0233C6.79934 28.431 7.13295 28.7615 7.54434 28.7615H19.7182C20.1296 28.7615 20.4632 28.431 20.4632 28.0233V20.3668C20.4632 19.9591 20.1296 19.6286 19.7182 19.6286Z" fill="#EF4507"/>
</svg>
