<svg width="60" height="60" viewBox="0 0 60 60" fill="none" xmlns="http://www.w3.org/2000/svg">
<path d="M59.1074 19.0415L49.8939 9.85886V2.98294C49.8939 2.19181 49.5835 1.43309 49.0309 0.873682C48.4784 0.314273 47.729 0 46.9476 0H13.0337C12.2523 0 11.5029 0.314273 10.9503 0.873682C10.3978 1.43309 10.0874 2.19181 10.0874 2.98294V9.88414L0.892634 19.0415C0.610036 19.3241 0.385625 19.6606 0.232401 20.0316C0.0791769 20.4026 0.000184694 20.8007 0 21.2029V27.9398C0 29.8455 0.747757 31.6732 2.07877 33.0207C2.73783 33.688 3.52024 34.2173 4.38133 34.5784C5.24242 34.9395 6.16534 35.1253 7.09738 35.1253H7.397C8.46131 35.1245 9.51175 34.8809 10.4703 34.4126C11.4288 33.9443 12.2709 33.2634 12.9338 32.4205C13.5968 33.2634 14.4388 33.9443 15.3974 34.4126C16.3559 34.8809 17.4064 35.1245 18.4707 35.1253H18.764C19.8284 35.1245 20.8788 34.8809 21.8373 34.4126C22.7959 33.9443 23.6379 33.2634 24.3009 32.4205C24.9638 33.2634 25.8059 33.9443 26.7644 34.4126C27.723 34.8809 28.7734 35.1245 29.8377 35.1253H30.1373C31.2016 35.1245 32.2521 34.8809 33.2106 34.4126C34.1692 33.9443 35.0112 33.2634 35.6742 32.4205C36.3397 33.2668 37.1858 33.9497 38.1489 34.4181C39.1121 34.8865 40.1674 35.1283 41.236 35.1253H41.5356C42.5999 35.1245 43.6503 34.8809 44.6089 34.4126C45.5674 33.9443 46.4094 33.2634 47.0724 32.4205C47.7354 33.2634 48.5774 33.9443 49.5359 34.4126C50.4945 34.8809 51.5449 35.1245 52.6092 35.1253H52.9089C54.7901 35.1237 56.5938 34.3659 57.9234 33.0185C59.2531 31.6711 60 29.8444 60 27.9398V21.2029C59.9998 20.8007 59.9208 20.4026 59.7676 20.0316C59.6144 19.6606 59.39 19.3241 59.1074 19.0415ZM13.2022 3.15989H46.7728V8.96777H13.2022V3.15989ZM11.3733 27.9398C11.3716 29.0069 10.9522 30.0299 10.2068 30.7845C9.4615 31.5391 8.45107 31.9638 7.397 31.9655H7.09738C6.04331 31.9638 5.03289 31.5391 4.28755 30.7845C3.54221 30.0299 3.12275 29.0069 3.1211 27.9398V22.1761H11.3733V27.9398ZM22.7466 27.9398C22.7449 29.008 22.3246 30.032 21.5779 30.7867C20.8312 31.5415 19.8192 31.9655 18.764 31.9655H18.4644C17.4104 31.9638 16.3999 31.5391 15.6546 30.7845C14.9092 30.0299 14.4898 29.0069 14.4881 27.9398V22.1761H22.7528L22.7466 27.9398ZM34.1199 27.9398C34.1182 29.0069 33.6987 30.0299 32.9534 30.7845C32.2081 31.5391 31.1976 31.9638 30.1436 31.9655H29.8439C28.7899 31.9638 27.7795 31.5391 27.0341 30.7845C26.2888 30.0299 25.8693 29.0069 25.8677 27.9398V22.1761H34.1261L34.1199 27.9398ZM45.4931 27.9398C45.4915 29.0069 45.072 30.0299 44.3267 30.7845C43.5813 31.5391 42.5709 31.9638 41.5169 31.9655H41.236C40.1819 31.9638 39.1715 31.5391 38.4261 30.7845C37.6808 30.0299 37.2613 29.0069 37.2597 27.9398V22.1761H45.5056L45.4931 27.9398ZM47.0537 19.0162H5.36829L12.2846 12.1213H47.7154L54.6317 19.0162H47.0537ZM56.8789 27.9398C56.8789 28.4684 56.7761 28.9919 56.5762 29.4803C56.3764 29.9687 56.0835 30.4125 55.7143 30.7864C55.345 31.1602 54.9067 31.4567 54.4243 31.659C53.9419 31.8613 53.4248 31.9655 52.9026 31.9655H52.603C51.5484 31.9655 50.537 31.5413 49.7913 30.7864C49.0456 30.0314 48.6267 29.0074 48.6267 27.9398V22.1761H56.8789V27.9398ZM46.2297 52.4352C46.6436 52.4352 47.0405 52.2688 47.3332 51.9725C47.6259 51.6762 47.7903 51.2743 47.7903 50.8553V41.3756C47.7903 40.9566 47.6259 40.5547 47.3332 40.2584C47.0405 39.9621 46.6436 39.7957 46.2297 39.7957H33.6704C33.2565 39.7957 32.8596 39.9621 32.5669 40.2584C32.2743 40.5547 32.1099 40.9566 32.1099 41.3756V50.8553C32.1099 51.2743 32.2743 51.6762 32.5669 51.9725C32.8596 52.2688 33.2565 52.4352 33.6704 52.4352H46.2297ZM35.1998 42.9556H44.6941V49.2753H35.231L35.1998 42.9556ZM58.4145 56.8591H54.407V38.6707C54.407 38.2517 54.2426 37.8498 53.9499 37.5536C53.6573 37.2573 53.2603 37.0908 52.8464 37.0908C52.4326 37.0908 52.0356 37.2573 51.743 37.5536C51.4503 37.8498 51.2859 38.2517 51.2859 38.6707V56.8401H28.1898V41.3756C28.1898 40.9566 28.0254 40.5547 27.7327 40.2584C27.44 39.9621 27.0431 39.7957 26.6292 39.7957H14.7253C14.5188 39.7932 14.3139 39.8322 14.1224 39.9104C13.9309 39.9887 13.7566 40.1047 13.6097 40.2517C13.4628 40.3986 13.3462 40.5736 13.2666 40.7666C13.187 40.9595 13.1461 41.1665 13.1461 41.3756V56.8401H8.71411V38.6707C8.71411 38.2517 8.54969 37.8498 8.25703 37.5536C7.96437 37.2573 7.56744 37.0908 7.15356 37.0908C6.73967 37.0908 6.34274 37.2573 6.05008 37.5536C5.75742 37.8498 5.59301 38.2517 5.59301 38.6707V56.8401H1.56055C1.14667 56.8401 0.749734 57.0066 0.457074 57.3029C0.164415 57.5992 0 58.001 0 58.4201C0 58.8391 0.164415 59.241 0.457074 59.5372C0.749734 59.8335 1.14667 60 1.56055 60H58.4395C58.8533 60 59.2503 59.8335 59.5429 59.5372C59.8356 59.241 60 58.8391 60 58.4201C60 58.001 59.8356 57.5992 59.5429 57.3029C59.2503 57.0066 58.8533 56.8401 58.4395 56.8401L58.4145 56.8591ZM25.0749 56.8591H16.2672V42.9556H25.0999L25.0749 56.8591Z" fill="#332C2B"/>
</svg>
