<svg width="22" height="22" viewBox="0 0 22 22" fill="none" xmlns="http://www.w3.org/2000/svg">
<path fill-rule="evenodd" clip-rule="evenodd" d="M2.75 1.83333C2.50689 1.83333 2.27373 1.92991 2.10182 2.10182C1.92991 2.27373 1.83333 2.50689 1.83333 2.75V15.5833C1.83333 15.8264 1.92991 16.0596 2.10182 16.2315C2.27373 16.4034 2.50689 16.5 2.75 16.5H7.33333C7.83959 16.5 8.25 16.9104 8.25 17.4167V21.0833C8.25 21.5896 7.83959 22 7.33333 22C6.82707 22 6.41667 21.5896 6.41667 21.0833V18.3333H2.75C2.02065 18.3333 1.32118 18.0436 0.805456 17.5279C0.289732 17.0122 0 16.3127 0 15.5833V2.75C0 2.02065 0.289731 1.32118 0.805456 0.805456C1.32118 0.289731 2.02065 0 2.75 0H19.25C19.9793 0 20.6788 0.289732 21.1945 0.805456C21.7103 1.32118 22 2.02065 22 2.75V15.5833C22 16.3127 21.7103 17.0122 21.1945 17.5279C20.6788 18.0436 19.9793 18.3333 19.25 18.3333H15.5833V21.0833C15.5833 21.5896 15.1729 22 14.6667 22C14.1604 22 13.75 21.5896 13.75 21.0833V17.4167C13.75 16.9104 14.1604 16.5 14.6667 16.5H19.25C19.4931 16.5 19.7263 16.4034 19.8982 16.2315C20.0701 16.0596 20.1667 15.8264 20.1667 15.5833V2.75C20.1667 2.50689 20.0701 2.27373 19.8982 2.10182C19.7263 1.92991 19.4931 1.83333 19.25 1.83333H2.75Z" fill="#332C2B"/>
<path fill-rule="evenodd" clip-rule="evenodd" d="M4.58334 21.0833C4.58334 20.5771 4.99374 20.1667 5.5 20.1667H16.5C17.0063 20.1667 17.4167 20.5771 17.4167 21.0833C17.4167 21.5896 17.0063 22 16.5 22H5.5C4.99374 22 4.58334 21.5896 4.58334 21.0833Z" fill="#332C2B"/>
<path fill-rule="evenodd" clip-rule="evenodd" d="M6.41666 17.4167C6.41666 16.9104 6.82707 16.5 7.33333 16.5H14.6667C15.1729 16.5 15.5833 16.9104 15.5833 17.4167C15.5833 17.9229 15.1729 18.3333 14.6667 18.3333H7.33333C6.82707 18.3333 6.41666 17.9229 6.41666 17.4167Z" fill="#332C2B"/>
<path fill-rule="evenodd" clip-rule="evenodd" d="M6.68515 3.93515C7.04313 3.57717 7.62353 3.57717 7.98151 3.93515L15.3148 11.2685C15.6728 11.6265 15.6728 12.2069 15.3148 12.5648C14.9569 12.9228 14.3765 12.9228 14.0185 12.5648L7.33333 5.87969L1.56485 11.6482C1.20687 12.0062 0.626466 12.0062 0.268485 11.6482C-0.0894952 11.2902 -0.0894952 10.7098 0.268485 10.3518L6.68515 3.93515Z" fill="#332C2B"/>
<path fill-rule="evenodd" clip-rule="evenodd" d="M14.9352 4.85182C15.2931 4.49384 15.8735 4.49384 16.2315 4.85182L21.7315 10.3518C22.0895 10.7098 22.0895 11.2902 21.7315 11.6482C21.3735 12.0062 20.7931 12.0062 20.4352 11.6482L15.5833 6.79636L12.5648 9.81485C12.2069 10.1728 11.6265 10.1728 11.2685 9.81485C10.9105 9.45687 10.9105 8.87647 11.2685 8.51849L14.9352 4.85182Z" fill="#332C2B"/>
</svg>
