<svg width="19" height="19" viewBox="0 0 19 19" fill="none" xmlns="http://www.w3.org/2000/svg">
<path d="M6.19094 14.6136C6.49381 14.6136 6.75883 14.3675 6.75883 14.0457V8.99147C6.75883 8.6886 6.51274 8.42358 6.19094 8.42358C5.88806 8.42358 5.62305 8.66967 5.62305 8.99147V14.0457C5.62305 14.3675 5.86913 14.6136 6.19094 14.6136Z" fill="#332C2B"/>
<path d="M8.99074 14.6136C9.29362 14.6136 9.55863 14.3675 9.55863 14.0457V8.99147C9.55863 8.6886 9.31255 8.42358 8.99074 8.42358C8.68787 8.42358 8.42285 8.66967 8.42285 8.99147V14.0457C8.42285 14.3675 8.68787 14.6136 8.99074 14.6136Z" fill="#332C2B"/>
<path d="M11.7935 14.6136C12.0964 14.6136 12.3614 14.3675 12.3614 14.0457V8.99147C12.3614 8.6886 12.1153 8.42358 11.7935 8.42358C11.4906 8.42358 11.2256 8.66967 11.2256 8.99147V14.0457C11.2445 14.3675 11.4906 14.6136 11.7935 14.6136Z" fill="#332C2B"/>
<path d="M16.2984 2.25263H11.7932V1.68474C11.7932 0.757186 11.036 0 10.1084 0H7.87474C6.94718 0 6.19 0.757186 6.19 1.68474V2.25263H1.68474C0.757186 2.25263 0 3.00981 0 3.93737V4.50526C0 5.43281 0.757186 6.19 1.68474 6.19H1.74153L2.72587 16.4688C2.80159 17.3396 3.52092 18.0021 4.41061 18.0021H13.6104C14.4812 18.0021 15.2005 17.3396 15.2952 16.4688L16.2795 6.19H16.3363C17.2638 6.19 18.021 5.43281 18.021 4.50526V3.93737C17.9832 3.00981 17.226 2.25263 16.2984 2.25263ZM7.30685 1.68474C7.30685 1.38186 7.55293 1.11685 7.87474 1.11685H10.1274C10.4302 1.11685 10.6953 1.36293 10.6953 1.68474V2.25263H7.30685V1.68474ZM14.1405 16.3552C14.1215 16.6392 13.8754 16.8663 13.5726 16.8663H4.39168C4.10774 16.8663 3.86165 16.6392 3.82379 16.3552L2.85838 6.19H15.1059L14.1405 16.3552ZM16.8663 4.48633C16.8663 4.7892 16.6202 5.05422 16.2984 5.05422H1.68474C1.38186 5.05422 1.11685 4.80813 1.11685 4.48633V3.91844C1.11685 3.61556 1.36294 3.35055 1.68474 3.35055H16.2984C16.6013 3.35055 16.8663 3.59663 16.8663 3.91844V4.48633Z" fill="#332C2B"/>
</svg>
