<svg width="16" height="15" viewBox="0 0 16 15" fill="none" xmlns="http://www.w3.org/2000/svg">
<path d="M5.15776 12.1768C5.41012 12.1768 5.63094 11.9717 5.63094 11.7036V7.49223C5.63094 7.23986 5.4259 7.01904 5.15776 7.01904C4.90539 7.01904 4.68457 7.22409 4.68457 7.49223V11.7036C4.68457 11.9717 4.88962 12.1768 5.15776 12.1768Z" fill="#332C2B"/>
<path d="M7.49223 12.1768C7.7446 12.1768 7.96542 11.9717 7.96542 11.7036V7.49223C7.96542 7.23986 7.76037 7.01904 7.49223 7.01904C7.23986 7.01904 7.01904 7.22409 7.01904 7.49223V11.7036C7.01904 11.9717 7.23986 12.1768 7.49223 12.1768Z" fill="#332C2B"/>
<path d="M9.82573 12.1768C10.0781 12.1768 10.2989 11.9717 10.2989 11.7036V7.49223C10.2989 7.23986 10.0939 7.01904 9.82573 7.01904C9.57336 7.01904 9.35254 7.22409 9.35254 7.49223V11.7036C9.36831 11.9717 9.57336 12.1768 9.82573 12.1768Z" fill="#332C2B"/>
<path d="M13.5804 1.87697H9.8265V1.40379C9.8265 0.630915 9.19558 0 8.42271 0H6.56151C5.78864 0 5.15773 0.630915 5.15773 1.40379V1.87697H1.40379C0.630915 1.87697 0 2.50789 0 3.28076V3.75394C0 4.52681 0.630915 5.15773 1.40379 5.15773H1.4511L2.27129 13.7224C2.33438 14.4479 2.93375 15 3.67508 15H11.3407C12.0662 15 12.6656 14.4479 12.7445 13.7224L13.5647 5.15773H13.612C14.3849 5.15773 15.0158 4.52681 15.0158 3.75394V3.28076C14.9842 2.50789 14.3533 1.87697 13.5804 1.87697ZM6.08833 1.40379C6.08833 1.15142 6.29338 0.930599 6.56151 0.930599H8.43849C8.69085 0.930599 8.91167 1.13565 8.91167 1.40379V1.87697H6.08833V1.40379ZM11.7823 13.6278C11.7666 13.8644 11.5615 14.0536 11.3091 14.0536H3.65931C3.42271 14.0536 3.21767 13.8644 3.18612 13.6278L2.3817 5.15773H12.5868L11.7823 13.6278ZM14.0536 3.73817C14.0536 3.99054 13.8486 4.21136 13.5804 4.21136H1.40379C1.15142 4.21136 0.930599 4.00631 0.930599 3.73817V3.26498C0.930599 3.01262 1.13565 2.7918 1.40379 2.7918H13.5804C13.8328 2.7918 14.0536 2.99685 14.0536 3.26498V3.73817Z" fill="#332C2B"/>
</svg>
