<svg width="178" height="148" viewBox="0 0 178 148" fill="none" xmlns="http://www.w3.org/2000/svg">
<path opacity="0.3" d="M26.6557 139.89C23.6994 140.295 18.8972 141.038 18.8664 142.109C18.8387 143.075 22.706 143.867 24.0593 144.144C39.5379 147.312 58.1043 141.481 78.5845 143.774C89.326 144.977 87.7055 146.971 97.2315 147.473C110.266 148.16 114.927 144.511 131.221 144.699C138.173 144.779 138.283 145.454 147.744 145.993C151.46 146.206 177.494 147.658 177.957 145.438C178.041 145.037 177.413 143.919 166.155 141.184C166.155 141.185 112.407 128.129 26.6557 139.89Z" fill="#90C8CC"/>
<path d="M53.4648 104.722C53.4648 104.722 61.4274 99.2094 66.7166 101.96C72.0058 104.71 95.1879 112.938 95.9734 113.796C96.7589 114.654 91.893 118.25 91.893 118.25L60.3698 109.788L53.4648 104.722Z" fill="#161F29"/>
<path d="M18.197 124.935C18.197 124.935 16.999 122.905 15.5181 123.116C14.0372 123.328 14.0372 124.174 13.191 124.174C12.3447 124.174 8.74804 124.174 7.47878 123.751C6.20953 123.328 3.03586 121.847 1.55497 121.847C0.0740849 121.847 -0.349176 123.751 0.285715 125.444C0.920344 127.136 2.82449 130.945 6.20953 132.849C9.59456 134.753 15.5184 139.196 16.3646 139.83C17.2109 140.465 19.3264 141.523 21.2306 141.311C23.1347 141.099 23.3463 140.253 23.3463 139.83C23.3463 139.407 23.7696 138.772 23.981 138.561C24.1926 138.349 25.2502 136.868 25.4618 135.811C25.6735 134.753 26.0965 134.541 26.3081 134.33C26.5197 134.118 26.9427 133.695 26.5197 133.06C26.0967 132.426 25.8301 132.862 25.5402 132.644C25.2502 132.426 21.0189 127.56 21.0189 127.56L18.197 124.935Z" fill="url(#paint0_linear)"/>
<path d="M19.7948 125.314C19.7948 125.314 18.2686 124.809 16.7877 124.809C15.3068 124.809 14.0373 125.232 13.8257 126.925C13.614 128.617 15.5182 132.002 17.8453 133.272C20.1725 134.541 21.2304 134.964 22.4999 134.541C23.7691 134.118 25.2503 133.272 25.2503 132.214C25.2503 131.156 19.7948 125.314 19.7948 125.314Z" fill="#28264A"/>
<path d="M15.0064 125.139C15.508 124.895 16.1264 124.809 16.7874 124.809C17.0007 124.809 17.2144 124.821 17.4247 124.839C17.5347 124.821 17.6007 124.809 17.6007 124.809C17.6007 124.809 16.7874 123.54 15.9412 123.54C15.0949 123.54 14.8833 123.752 14.8833 123.963C14.8833 124.175 14.9158 125.045 15.0054 125.139C15.0056 125.138 15.0061 125.139 15.0064 125.139Z" fill="#A05708"/>
<path d="M22.9234 124.597C22.9234 124.597 21.4426 125.232 20.8077 125.232C20.173 125.232 19.3268 125.232 19.1151 125.866C18.9035 126.501 18.4805 130.309 19.9614 131.579C21.4423 132.848 22.9234 133.271 23.9811 133.059C25.039 132.848 27.7891 131.579 27.7891 131.579L22.9234 124.597Z" fill="#DABB92"/>
<path d="M22.5 123.962C22.3809 125.035 25.3796 131.808 28.0006 132.425C31.5972 133.271 40.4828 129.04 43.2332 127.347C45.9119 125.699 60.1584 120.366 60.5817 120.154C61.0049 119.942 61.4279 119.308 61.6396 119.731C61.8512 120.154 61.6396 122.27 63.1204 123.539C64.6013 124.809 74.5451 131.156 75.8143 132.425C77.0836 133.694 82.796 138.349 84.6999 139.407C86.6041 140.465 95.9129 141.734 101.202 141.099C106.491 140.465 110.088 135.598 110.088 135.598L99.2982 116.557C99.2982 116.557 95.5928 113.569 94.1662 112.948C92.7395 112.326 90.624 113.172 90.4124 113.807C90.2007 114.442 89.7777 115.288 88.9315 114.653C88.0852 114.019 69.4675 103.652 63.5437 102.171C57.6199 100.69 49.7919 107.249 48.0994 108.307C46.4069 109.365 29.2701 121.424 28.0008 121.635C26.7316 121.847 22.7117 122.058 22.5 123.962Z" fill="#28264A"/>
<path d="M89.143 63.4551C89.143 63.4551 89.566 67.8981 89.9892 68.3211C90.4122 68.7441 91.0471 68.5327 91.0471 70.0136C91.0471 71.4945 91.2587 74.8795 91.6817 75.0911C92.1047 75.3028 93.5859 74.4565 93.7975 74.4565C94.0092 74.4565 96.1247 76.149 96.5479 76.9953C96.9709 77.8415 98.4521 80.1687 99.7213 80.3803C100.991 80.5919 102.683 78.0532 103.53 78.6878C104.376 79.3224 104.799 80.5919 104.799 81.2266C104.799 81.8612 114.954 78.8994 114.954 75.0911C114.954 74.0123 112.204 68.3211 111.569 67.0518C110.934 65.7823 110.088 60.2817 109.876 58.8008C109.665 57.32 107.126 53.0887 102.895 51.6075C98.6634 50.1266 88.72 58.5892 89.143 63.4551Z" fill="#DABB92"/>
<path d="M102.048 50.1263C104.839 50.8243 109.029 55.2039 109.664 57.3196C110.299 59.4354 111.877 64.9195 111.78 65.9939C111.568 68.321 107.548 71.4947 106.914 70.4368C106.279 69.3789 104.291 65.7935 104.163 64.513C103.952 62.3972 102.894 60.2817 101.413 60.2817C100.99 60.2817 99.7204 62.1858 99.5088 63.2437C99.2563 64.5056 100.567 67.052 101.413 67.6866C102.259 68.3213 104.446 69.5693 104.798 70.86C105.433 73.1872 104.163 78.0534 103.529 78.688C102.894 79.3226 100.917 80.6796 99.7204 80.3805C98.0279 79.9575 96.97 77.4185 95.9417 76.2137C95.5098 75.7079 94.6431 75.303 94.2047 74.6971C93.7408 74.0557 98.7697 71.7194 98.6628 70.437C98.2398 65.3595 96.7649 59.273 93.5852 59.6473C89.9886 60.0703 89.5656 63.4553 87.2382 63.8786C85.9721 64.1088 80.6797 64.9365 79.6218 58.3778C79.285 56.2893 84.911 58.5894 89.7769 55.4158C91.0546 54.5821 96.1238 48.6452 102.048 50.1263Z" fill="#131B1F"/>
<path d="M92.9202 71.7081C92.6075 71.9855 91.6004 71.3611 90.6704 70.3134C89.7403 69.2657 89.24 68.1914 89.5525 67.914C89.865 67.6366 90.8723 68.261 91.8024 69.3087C92.7324 70.3564 93.233 71.4308 92.9202 71.7081Z" fill="#EF4507"/>
<path d="M89.9087 69.3034C90.0572 69.5425 90.2392 69.7958 90.4488 70.0519L90.6866 68.2774C90.4697 68.1206 90.268 68.0027 90.0928 67.9307L89.9087 69.3034Z" fill="url(#paint1_linear)"/>
<path d="M91.0724 68.5845L90.8188 70.476C90.9443 70.6102 91.0703 70.7369 91.1952 70.854L91.4522 68.9373C91.3244 68.81 91.1973 68.6926 91.0724 68.5845Z" fill="url(#paint2_linear)"/>
<path d="M103.741 82.7072C103.741 81.6284 105.433 80.3801 106.491 79.3222C107.549 78.2643 114.742 73.3984 114.954 72.5521C115.166 71.7058 122.147 74.8793 124.686 81.2263C127.225 87.5734 130.187 107.884 122.782 121.424C115.377 134.964 109.453 138.561 109.242 137.291C109.03 136.022 109.242 134.964 106.915 133.694C104.587 132.425 100.145 127.136 99.0866 125.232C98.0287 123.328 93.1628 114.23 93.5861 113.173C94.0093 112.115 98.2406 97.7282 100.356 93.4969C102.472 89.2657 104.376 86.3036 104.376 85.0344C104.376 83.7651 103.741 83.5535 103.741 82.7072Z" fill="url(#paint3_linear)"/>
<path d="M69.6787 105.133L72.8521 101.96L94.4318 107.461L98.2399 111.903L69.6787 105.133Z" fill="url(#paint4_linear)"/>
<path d="M80.8918 100.056C80.8918 100.056 78.776 101.96 78.353 103.652L79.8339 103.229L82.5843 101.96L84.4885 100.902L83.6422 100.056H80.8918Z" fill="#C6B3AF"/>
<path d="M92.3893 99.5943C92.3893 99.5943 90.2007 99.4204 89.1428 98.9974C88.085 98.5744 87.0271 98.3628 85.9694 98.5744C84.9115 98.786 82.796 97.7281 81.7381 97.9398C80.6803 98.1514 77.0836 97.9398 76.8722 98.1514C76.6606 98.363 76.4492 98.5747 76.4492 99.2093C76.4492 99.8439 77.2955 100.056 77.5071 100.056C77.7187 100.056 81.7384 100.267 82.7963 100.69C82.7963 100.69 80.8921 100.902 79.8343 101.959C78.7764 103.017 77.0838 104.498 77.0838 104.71C77.0838 104.921 77.0839 105.768 77.2955 105.768C77.5071 105.768 77.7185 105.768 77.7185 105.768C77.7185 105.768 77.9301 106.191 78.1415 106.191C78.1415 106.191 79.1994 105.556 79.411 105.556C79.6226 105.556 78.7764 105.979 78.988 106.402C79.1996 106.825 79.6226 107.037 80.0459 107.037C80.4689 107.037 83.0077 105.768 83.8539 105.979C84.7002 106.191 86.1811 106.402 86.816 106.825C87.4506 107.249 89.5664 107.672 89.9894 107.46C90.4124 107.249 92.3893 99.5943 92.3893 99.5943Z" fill="#DABB92"/>
<path d="M115.589 79.9569C111.307 80.492 110.088 87.9965 110.511 90.9582C110.511 90.9582 114.531 105.556 113.05 105.556C111.569 105.556 102.471 101.96 100.991 101.537C99.5097 101.114 94.4321 98.7862 93.5859 98.7862C92.7396 98.7862 90.8355 101.325 90.2008 103.017C89.5662 104.71 88.7199 108.73 89.7776 108.73C90.8355 108.73 94.8551 108.73 95.7014 109.364C96.5476 109.999 102.26 114.653 105.433 115.923C108.607 117.192 120.032 120.366 121.936 119.731C123.84 119.096 126.379 115.923 126.379 114.653C126.379 113.384 126.167 97.728 124.898 93.7084C123.628 89.6887 124.051 78.899 115.589 79.9569Z" fill="url(#paint5_linear)"/>
<path d="M70.5247 105.133L54.4458 79.957H58.8714C59.0142 79.957 59.1475 80.0291 59.2256 80.1485L73.3052 101.682C73.4118 101.845 73.3932 102.06 73.2605 102.202L70.5247 105.133Z" fill="url(#paint6_linear)"/>
<path d="M69.6914 105.125L54.0562 80.67C53.8589 80.3614 54.0805 79.957 54.4467 79.957L70.5256 105.133C70.326 105.432 69.8849 105.428 69.6914 105.125Z" fill="#EF4507"/>
<path d="M61.9135 91.6494L62.9452 93.2644L61.4667 83.5758L60.4429 82.0098L61.9135 91.6494Z" fill="url(#paint7_linear)"/>
<path d="M63.6654 94.3931L65.3254 96.9924L63.8296 87.1906L62.1816 84.6699L63.6654 94.3931Z" fill="url(#paint8_linear)"/>
<path d="M97.5741 112.917L70.026 106.677C69.8249 106.641 69.6787 106.465 69.6787 106.261V105.133L97.9952 111.747C98.302 111.819 98.4256 112.188 98.2242 112.43L97.9751 112.771C97.8771 112.889 97.7242 112.944 97.5741 112.917Z" fill="#EF4507"/>
<path d="M69.2392 73.8236H30.4821C29.3249 73.8236 28.3867 72.8854 28.3867 71.7282V42.2799C28.3867 41.1228 29.3249 40.1846 30.4821 40.1846H69.2392C70.3964 40.1846 71.3346 41.1228 71.3346 42.2799V71.7282C71.3346 72.8854 70.3964 73.8236 69.2392 73.8236Z" fill="#F0F2F5"/>
<path d="M44.2537 42.5117H31.3481V44.4159H44.2537V42.5117Z" fill="#D3D6DB"/>
<path d="M67.4353 65.7836H32.9197C32.0517 65.7836 31.3481 65.0801 31.3481 64.2121V48.3142C31.3481 47.4462 32.0517 46.7427 32.9197 46.7427H67.4353C68.3033 46.7427 69.0068 47.4462 69.0068 48.3142V64.2121C69.0068 65.0801 68.3033 65.7836 67.4353 65.7836Z" fill="white"/>
<path d="M52.5053 53.0898H33.4644V53.9361H52.5053V53.0898Z" fill="#D3D6DB"/>
<path d="M52.5053 55.8403H33.4644V56.6866H52.5053V55.8403Z" fill="#D3D6DB"/>
<path d="M46.1582 58.5908H33.4644V59.4371H46.1582V58.5908Z" fill="#D3D6DB"/>
<path d="M63.8991 63.6685H61.8436C60.5416 63.6685 59.4863 62.6132 59.4863 61.3112V59.2557C59.4863 57.954 60.5416 56.8984 61.8436 56.8984H63.8991C65.2011 56.8984 66.2564 57.954 66.2564 59.2557V61.3112C66.2564 62.6132 65.2009 63.6685 63.8991 63.6685Z" fill="#D3D6DB"/>
<path d="M42.9427 50.7628H34.5642C33.9568 50.7628 33.4644 50.2704 33.4644 49.663V49.1125C33.4644 48.5051 33.9568 48.0127 34.5642 48.0127H42.9427C43.5501 48.0127 44.0425 48.5051 44.0425 49.1125V49.663C44.0427 50.2702 43.5501 50.7628 42.9427 50.7628Z" fill="#E62129"/>
<path d="M140.959 36.7991H102.202C101.045 36.7991 100.106 35.8609 100.106 34.7038V5.2555C100.106 4.09835 101.045 3.16016 102.202 3.16016H140.959C142.116 3.16016 143.054 4.09835 143.054 5.2555V34.7035C143.054 35.8609 142.116 36.7991 140.959 36.7991Z" fill="#F0F2F5"/>
<path d="M115.974 5.48779H103.069V7.39194H115.974V5.48779Z" fill="#D3D6DB"/>
<path d="M139.156 28.7597H104.64C103.772 28.7597 103.069 28.0562 103.069 27.1882V11.2903C103.069 10.4223 103.772 9.71875 104.64 9.71875H139.156C140.024 9.71875 140.727 10.4223 140.727 11.2903V27.1882C140.727 28.0562 140.024 28.7597 139.156 28.7597Z" fill="white"/>
<path d="M124.226 16.0659H105.185V16.9122H124.226V16.0659Z" fill="#D3D6DB"/>
<path d="M124.226 18.8164H105.185V19.6627H124.226V18.8164Z" fill="#D3D6DB"/>
<path d="M117.878 21.5669H105.185V22.4132H117.878V21.5669Z" fill="#D3D6DB"/>
<path d="M114.663 13.7384H106.284C105.677 13.7384 105.185 13.246 105.185 12.6386V12.0881C105.185 11.4807 105.677 10.9883 106.284 10.9883H114.663C115.27 10.9883 115.763 11.4807 115.763 12.0881V12.6386C115.763 13.246 115.27 13.7384 114.663 13.7384Z" fill="#FFAC00"/>
<path d="M126.299 13.7384H117.921C117.313 13.7384 116.821 13.246 116.821 12.6386V12.0881C116.821 11.4807 117.313 10.9883 117.921 10.9883H126.299C126.906 10.9883 127.399 11.4807 127.399 12.0881V12.6386C127.399 13.246 126.907 13.7384 126.299 13.7384Z" fill="#EF4507"/>
<path d="M150.354 0H149.719V1.26926H150.354V0Z" fill="url(#paint9_linear)"/>
<path d="M150.353 54.2613H149.719V51.6114H150.353V54.2613ZM150.353 48.9621H149.719V46.3126H150.353V48.9621ZM150.353 43.6627H149.719V41.0132H150.353V43.6627ZM150.353 38.3636H149.719V35.714H150.353V38.3636ZM150.353 33.0645H149.719V30.4149H150.353V33.0645ZM150.353 27.7653H149.719V25.1158H150.353V27.7653ZM150.353 22.4659H149.719V19.8164H150.353V22.4659ZM150.353 17.1668H149.719V14.5172H150.353V17.1668ZM150.353 11.8676H149.719V9.21808H150.353V11.8676ZM150.353 6.56851H149.719V3.91895H150.353V6.56851Z" fill="#5F5D5D"/>
<path d="M150.353 56.9106H149.719V58.1799H150.353V56.9106Z" fill="url(#paint10_linear)"/>
<path d="M99.6833 42.9473H98.4141V43.5819H99.6833V42.9473Z" fill="#5F5D5D"/>
<path d="M102.146 42.9473H104.609V43.5819H102.146V42.9473ZM107.071 42.9473H109.534V43.5819H107.071V42.9473ZM111.996 42.9473H114.459V43.5819H111.996V42.9473ZM116.922 42.9473H119.385V43.5819H116.922V42.9473ZM121.847 42.9473H124.31V43.5819H121.847V42.9473ZM126.772 42.9473H129.235V43.5819H126.772V42.9473ZM131.697 42.9473H134.16V43.5819H131.697V42.9473ZM136.623 42.9473H139.085V43.5819H136.623V42.9473ZM141.548 42.9473H144.011V43.5819H141.548V42.9473ZM146.473 42.9473H148.936V43.5819H146.473V42.9473ZM151.398 42.9473H153.861V43.5819H151.398V42.9473ZM156.324 42.9473H158.786V43.5819H156.324V42.9473Z" fill="#5F5D5D"/>
<path d="M162.519 42.9473H161.25V43.5819H162.519V42.9473Z" fill="#5F5D5D"/>
<path d="M23.6263 29.1963H22.9917V30.4655H23.6263V29.1963Z" fill="#5F5D5D"/>
<path d="M23.6268 83.4576H22.9922V80.8077H23.6268V83.4576ZM23.6268 78.1584H22.9922V75.5088H23.6268V78.1584ZM23.6268 72.859H22.9922V70.2094H23.6268V72.859ZM23.6268 67.5599H22.9922V64.9103H23.6268V67.5599ZM23.6268 62.2607H22.9922V59.6112H23.6268V62.2607ZM23.6268 56.9613H22.9922V54.3118H23.6268V56.9613ZM23.6268 51.6622H22.9922V49.0126H23.6268V51.6622ZM23.6268 46.3631H22.9922V43.7135H23.6268V46.3631ZM23.6268 41.0639H22.9922V38.4144H23.6268V41.0639ZM23.6268 35.7648H22.9922V33.1152H23.6268V35.7648Z" fill="#5F5D5D"/>
<path d="M23.6263 86.1069H22.9917V87.3762H23.6263V86.1069Z" fill="#5F5D5D"/>
<path d="M74.9309 34.4849H73.6616V35.1195H74.9309V34.4849Z" fill="#5F5D5D"/>
<path d="M71.1987 35.1195H68.7362V34.4849H71.1987V35.1195ZM66.2734 35.1195H63.8108V34.4849H66.2734V35.1195ZM61.3482 35.1195H58.8854V34.4849H61.3482V35.1195ZM56.4231 35.1195H53.9603V34.4849H56.4231V35.1195ZM51.4978 35.1195H49.0352V34.4849H51.4978V35.1195ZM46.5724 35.1195H44.1098V34.4849H46.5724V35.1195ZM41.6473 35.1195H39.1844V34.4849H41.6473V35.1195ZM36.7221 35.1195H34.2596V34.4849H36.7221V35.1195ZM31.7968 35.1195H29.3342V34.4849H31.7968V35.1195ZM26.8716 35.1195H24.4088V34.4849H26.8716V35.1195ZM21.9463 35.1195H19.4834V34.4849H21.9463V35.1195ZM17.0212 35.1195H14.5586V34.4849H17.0212V35.1195Z" fill="#5F5D5D"/>
<path d="M12.0959 34.4849H10.8267V35.1195H12.0959V34.4849Z" fill="#5F5D5D"/>
<path d="M155.681 141.339H139.685C139.15 141.339 138.7 140.937 138.64 140.406L136.117 118.208H159.248L156.725 140.406C156.665 140.937 156.215 141.339 155.681 141.339Z" fill="#182F42"/>
<path d="M147.682 119.785C154.07 119.785 159.248 119.197 159.248 118.471C159.248 117.745 154.07 117.157 147.682 117.157C141.295 117.157 136.117 117.745 136.117 118.471C136.117 119.197 141.295 119.785 147.682 119.785Z" fill="#0D151C"/>
<path d="M146.631 75.6271C140.323 76.1527 142.425 95.0777 142.425 95.0777C144.002 111.374 146.105 118.734 147.682 119.26C149.259 119.785 152.414 96.129 152.414 90.3464C152.414 90.3464 152.939 75.1014 146.631 75.6271Z" fill="url(#paint11_linear)"/>
<path d="M147.42 116.631C147.409 116.631 147.398 116.631 147.387 116.629C147.244 116.611 147.141 116.481 147.158 116.337C149.233 99.2184 146.659 77.7139 146.633 77.4988C146.615 77.3548 146.717 77.2236 146.862 77.2063C147.002 77.1853 147.137 77.2909 147.154 77.4352C147.181 77.651 149.763 99.2192 147.68 116.4C147.664 116.533 147.551 116.631 147.42 116.631Z" fill="white"/>
<path d="M127.707 66.6904C127.181 69.3188 130.335 69.8447 130.861 73.5244C131.387 77.2041 129.809 78.2557 130.335 80.3584C130.861 82.4611 134.015 82.9867 134.541 88.2437C135.066 93.5007 132.964 92.975 133.489 96.129C134.015 99.2833 137.169 99.2833 137.695 101.912C138.221 104.54 138.221 108.22 139.272 111.374C140.323 114.528 143.478 119.26 145.055 119.26C146.632 119.26 150.837 110.323 149.786 107.694C148.735 105.066 147.158 104.54 147.158 102.437C147.158 100.334 149.26 95.0777 148.735 91.3977C148.209 87.7178 143.478 86.1408 142.952 83.5124C142.426 80.8841 144.003 74.0498 140.323 70.8958C136.643 67.7418 128.232 64.0618 127.707 66.6904Z" fill="url(#paint12_linear)"/>
<path d="M177.647 72.4726C179.506 74.3312 173.442 75.101 172.916 78.7809C172.39 82.4609 172.39 84.0379 170.287 86.1406C168.185 88.2433 165.03 88.769 165.556 91.9232C166.082 95.0775 167.133 98.2315 165.556 99.8086C163.979 101.386 160.299 101.386 159.248 104.014C158.196 106.643 158.722 109.797 156.619 112.425C154.516 115.054 151.362 120.31 148.734 119.259C146.105 118.208 147.682 106.117 148.734 104.014C149.785 101.911 150.836 100.334 150.836 98.757C150.836 97.1797 150.311 94.5513 151.362 91.923C152.413 89.2946 158.196 88.243 158.722 86.666C159.247 85.089 159.773 76.6777 162.927 74.5751C166.082 72.4726 174.493 69.3184 177.647 72.4726Z" fill="url(#paint13_linear)"/>
<path d="M149.55 118.357C149.504 118.357 149.457 118.345 149.415 118.32C149.29 118.245 149.25 118.084 149.325 117.959C149.346 117.924 151.451 114.404 151.896 112.624C152.011 112.166 152.149 111.472 152.309 110.668C152.89 107.75 153.768 103.34 155.12 101.988C157.081 100.027 160.216 94.0187 162.413 86.3311C165.118 76.8591 174.065 74.0875 174.155 74.0605C174.297 74.0186 174.441 74.0982 174.482 74.237C174.524 74.3758 174.445 74.5225 174.306 74.5642C174.219 74.5904 165.543 77.2871 162.918 86.4754C160.697 94.2492 157.501 100.351 155.491 102.36C154.252 103.599 153.359 108.088 152.825 110.77C152.663 111.581 152.524 112.281 152.406 112.752C151.943 114.607 149.864 118.083 149.775 118.23C149.726 118.312 149.639 118.357 149.55 118.357Z" fill="white"/>
<path d="M145.024 117.207C144.879 117.207 144.762 117.09 144.762 116.945C144.762 116.876 144.716 110.046 142.714 108.044C140.683 106.013 139.525 99.7982 138.958 87.894C138.442 77.0776 130.69 68.1676 130.612 68.0788C130.516 67.9699 130.526 67.8038 130.635 67.708C130.745 67.6116 130.911 67.6223 131.006 67.7313C131.086 67.8211 138.959 76.8644 139.482 87.8689C140.035 99.4737 141.18 105.766 143.086 107.672C145.24 109.827 145.286 116.654 145.287 116.943C145.288 117.089 145.17 117.207 145.025 117.207C145.025 117.207 145.025 117.207 145.024 117.207Z" fill="white"/>
<defs>
<linearGradient id="paint0_linear" x1="-0.000300157" y1="131.593" x2="26.7004" y2="131.593" gradientUnits="userSpaceOnUse">
<stop stop-color="#FFAC00"/>
<stop offset="0.9987" stop-color="#FF5E00"/>
</linearGradient>
<linearGradient id="paint1_linear" x1="90.1152" y1="68.3305" x2="92.6546" y2="69.5672" gradientUnits="userSpaceOnUse">
<stop stop-color="#FFD3A5"/>
<stop offset="1" stop-color="#FD6585"/>
</linearGradient>
<linearGradient id="paint2_linear" x1="90.987" y1="69.0123" x2="93.2359" y2="69.8457" gradientUnits="userSpaceOnUse">
<stop stop-color="#FFD3A5"/>
<stop offset="1" stop-color="#FD6585"/>
</linearGradient>
<linearGradient id="paint3_linear" x1="102.562" y1="84.6918" x2="195.206" y2="148.769" gradientUnits="userSpaceOnUse">
<stop stop-color="#FFD3A5"/>
<stop offset="1" stop-color="#FD6585"/>
</linearGradient>
<linearGradient id="paint4_linear" x1="77.2601" y1="103.834" x2="84.6785" y2="132.131" gradientUnits="userSpaceOnUse">
<stop stop-color="#FFD3A5"/>
<stop offset="1" stop-color="#FD6585"/>
</linearGradient>
<linearGradient id="paint5_linear" x1="109.015" y1="88.8234" x2="103.354" y2="139.066" gradientUnits="userSpaceOnUse">
<stop stop-color="#FFAA85"/>
<stop offset="1" stop-color="#B3315F"/>
</linearGradient>
<linearGradient id="paint6_linear" x1="59.4702" y1="84.703" x2="97.7542" y2="122.925" gradientUnits="userSpaceOnUse">
<stop stop-color="#FFD3A5"/>
<stop offset="1" stop-color="#FD6585"/>
</linearGradient>
<linearGradient id="paint7_linear" x1="61.1071" y1="84.1314" x2="70.4029" y2="86.876" gradientUnits="userSpaceOnUse">
<stop stop-color="#FFD3A5"/>
<stop offset="1" stop-color="#FD6585"/>
</linearGradient>
<linearGradient id="paint8_linear" x1="63.0161" y1="86.9928" x2="74.4056" y2="90.8515" gradientUnits="userSpaceOnUse">
<stop stop-color="#FFD3A5"/>
<stop offset="1" stop-color="#FD6585"/>
</linearGradient>
<linearGradient id="paint9_linear" x1="150.036" y1="60.2921" x2="150.036" y2="17.378" gradientUnits="userSpaceOnUse">
<stop stop-color="#4E9CFF"/>
<stop offset="1" stop-color="#176AD4"/>
</linearGradient>
<linearGradient id="paint10_linear" x1="150.036" y1="60.2919" x2="150.036" y2="17.3779" gradientUnits="userSpaceOnUse">
<stop stop-color="#4E9CFF"/>
<stop offset="1" stop-color="#176AD4"/>
</linearGradient>
<linearGradient id="paint11_linear" x1="147.257" y1="127.185" x2="147.257" y2="79.7794" gradientUnits="userSpaceOnUse">
<stop stop-color="#E62129"/>
<stop offset="0.450992" stop-color="#EF4507"/>
<stop offset="1" stop-color="#F56D06"/>
</linearGradient>
<linearGradient id="paint12_linear" x1="133.569" y1="75.8724" x2="202.496" y2="114.057" gradientUnits="userSpaceOnUse">
<stop stop-color="#FFD3A5"/>
<stop offset="1" stop-color="#FD6585"/>
</linearGradient>
<linearGradient id="paint13_linear" x1="163.631" y1="81.9418" x2="153.778" y2="141.813" gradientUnits="userSpaceOnUse">
<stop stop-color="#FFAA85"/>
<stop offset="1" stop-color="#B3315F"/>
</linearGradient>
</defs>
</svg>
