<svg width="16" height="16" viewBox="0 0 16 16" fill="none" xmlns="http://www.w3.org/2000/svg">
<path fill-rule="evenodd" clip-rule="evenodd" d="M7.99952 0.000476545C12.4001 0.000476545 16 3.59934 16 8.00024V15.5968C16 15.8189 15.8189 16 15.5968 16H8C3.59945 16 0 12.4007 0 7.99976C0 3.59982 3.59945 0 8 0L7.99952 0.000476545ZM4.49395 8.73745C4.23518 8.44819 4.25996 8.0031 4.54923 7.74433C4.83851 7.48557 5.28361 7.51035 5.54238 7.79961L6.7252 9.11821L10.4819 5.36113C10.7574 5.08569 11.2044 5.08569 11.4798 5.36113C11.7553 5.63657 11.7553 6.08357 11.4798 6.35902L7.16793 10.6665C6.87866 10.9253 6.43355 10.9005 6.17478 10.6112L4.49395 8.73745Z" fill="url(#paint0_linear)"/>
<mask id="mask0" mask-type="alpha" maskUnits="userSpaceOnUse" x="0" y="0" width="16" height="16">
<path fill-rule="evenodd" clip-rule="evenodd" d="M7.99952 0.000476545C12.4001 0.000476545 16 3.59934 16 8.00024V15.5968C16 15.8189 15.8189 16 15.5968 16H8C3.59945 16 0 12.4007 0 7.99976C0 3.59982 3.59945 0 8 0L7.99952 0.000476545ZM4.49395 8.73745C4.23518 8.44819 4.25996 8.0031 4.54923 7.74433C4.83851 7.48557 5.28361 7.51035 5.54238 7.79961L6.7252 9.11821L10.4819 5.36113C10.7574 5.08569 11.2044 5.08569 11.4798 5.36113C11.7553 5.63657 11.7553 6.08357 11.4798 6.35902L7.16793 10.6665C6.87866 10.9253 6.43355 10.9005 6.17478 10.6112L4.49395 8.73745Z" fill="url(#paint1_linear)"/>
</mask>
<g mask="url(#mask0)">
<path opacity="0.5" d="M-0.534438 1.20663C-0.525134 1.13723 -0.513667 1.06833 -0.5 1L-0.534438 1.20663C-0.978998 4.52271 3.5148 9 9 9C16 9 18.5 15 18.5 16C18.5 16.8 10.5 17 6.5 17L-2.5 14L-1 4L-0.534438 1.20663Z" fill="url(#paint2_linear)"/>
</g>
<defs>
<linearGradient id="paint0_linear" x1="8" y1="0" x2="8" y2="16" gradientUnits="userSpaceOnUse">
<stop stop-color="#2F80ED"/>
<stop offset="1" stop-color="#EB5757"/>
</linearGradient>
<linearGradient id="paint1_linear" x1="8" y1="18.9018" x2="8" y2="1.52678" gradientUnits="userSpaceOnUse">
<stop stop-color="#E62129"/>
<stop offset="0.450992" stop-color="#EF4507"/>
<stop offset="1" stop-color="#F56D06"/>
</linearGradient>
<linearGradient id="paint2_linear" x1="8" y1="19.9018" x2="8" y2="2.52678" gradientUnits="userSpaceOnUse">
<stop stop-color="#E62129"/>
<stop offset="0.450992" stop-color="#EF4507"/>
<stop offset="1" stop-color="#F56D06"/>
</linearGradient>
</defs>
</svg>
