<svg width="62" height="67" viewBox="0 0 62 67" fill="none" xmlns="http://www.w3.org/2000/svg">
<path d="M32.5897 20.979C32.5897 19.8158 31.6318 18.9264 30.537 18.9264C29.3739 18.9264 28.4844 19.8843 28.4844 20.979C28.4844 23.9211 26.0897 26.3158 23.1476 26.3158C20.2054 26.3158 17.8107 23.9211 17.8107 20.979C17.8107 19.8158 16.8528 18.9264 15.7581 18.9264C14.5949 18.9264 13.7054 19.8843 13.7054 20.979C13.7054 26.179 17.9475 30.4895 23.216 30.4895C28.3475 30.4895 32.5897 26.2474 32.5897 20.979Z" fill="#332C2B" stroke="white" stroke-width="0.5"/>
<path d="M42.9888 29.1211L41.073 15.5737C40.6624 12.8368 38.3361 10.7842 35.5309 10.7842H33.4098C33.1361 5.37895 28.6203 1 23.1467 1C17.673 1 13.1572 5.31053 12.8835 10.7842H10.7624C8.0256 10.7842 5.63087 12.8368 5.22034 15.5737L1.04666 44.9947C0.841394 46.5684 1.32034 48.2105 2.34666 49.4421C3.37297 50.6053 4.87824 51.2895 6.52034 51.2895H24.3098C26.0888 59.7053 33.4782 66 42.373 66C52.5677 66 60.8467 57.7211 60.8467 47.5263C60.8467 37.5368 52.8414 29.3947 42.9888 29.1211ZM23.0782 5.17368C26.294 5.17368 28.894 7.63684 29.1677 10.7842H16.9888C17.2624 7.63684 19.8624 5.17368 23.0782 5.17368ZM5.4256 46.6368C5.28876 46.4316 5.01508 46.0895 5.0835 45.5421L9.25718 16.1211C9.3256 15.4368 9.94139 14.8895 10.6256 14.8895H35.4624C36.1467 14.8895 36.7624 15.4368 36.8309 16.1211L38.8151 29.3947C30.4677 31.1053 24.1046 38.3579 23.9677 47.1842H6.52034C5.90455 47.1842 5.56245 46.8421 5.4256 46.6368ZM42.373 61.8263C34.5046 61.8263 28.073 55.3947 28.073 47.5263C28.073 39.6579 34.5046 33.2263 42.373 33.2263C50.2414 33.2263 56.673 39.6579 56.673 47.5263C56.673 55.3947 50.2414 61.8263 42.373 61.8263Z" fill="#332C2B" stroke="white" stroke-width="0.5"/>
<path d="M47.0949 39.9315L34.7791 52.2473C33.9581 53.0684 33.9581 54.3684 34.7791 55.1894C35.1896 55.5999 35.737 55.8052 36.2844 55.8052C36.8318 55.8052 37.3791 55.5999 37.7896 55.1894L50.1054 42.8736C50.9265 42.0526 50.9265 40.7526 50.1054 39.9315C49.216 39.1105 47.8475 39.1105 47.0949 39.9315Z" fill="#332C2B" stroke="white" stroke-width="0.5"/>
<path d="M37.2423 45.2C38.7916 45.2 40.0475 43.944 40.0475 42.3947C40.0475 40.8454 38.7916 39.5895 37.2423 39.5895C35.693 39.5895 34.437 40.8454 34.437 42.3947C34.437 43.944 35.693 45.2 37.2423 45.2Z" fill="#332C2B" stroke="white" stroke-width="0.5"/>
<path d="M47.5054 55.4632C49.0547 55.4632 50.3107 54.2072 50.3107 52.6579C50.3107 51.1086 49.0547 49.8527 47.5054 49.8527C45.9561 49.8527 44.7001 51.1086 44.7001 52.6579C44.7001 54.2072 45.9561 55.4632 47.5054 55.4632Z" fill="#332C2B" stroke="white" stroke-width="0.5"/>
</svg>
