<svg width="13" height="18" viewBox="0 0 13 18" fill="none" xmlns="http://www.w3.org/2000/svg">
<path fill-rule="evenodd" clip-rule="evenodd" d="M3.64427 8.18019C2.80083 7.57651 2.34947 7.1764 1.90092 6.5064C1.30432 5.61523 1 4.52257 1 3.16161C1 2.18015 1.75225 1.33706 2.73287 1.21564L3.01774 1.18036C4.95997 0.939865 8.04024 0.939892 9.98226 1.18036L10.2671 1.21564C11.2452 1.33675 12 2.17993 12 3.16161C12 4.53256 11.6966 5.63091 11.1009 6.52537C10.6521 7.1993 10.2002 7.60064 9.37179 8.1934C8.73616 8.66218 8.62921 8.79453 8.62921 9.02192C8.62921 9.24932 8.73616 9.38167 9.35573 9.83878C10.1992 10.4425 10.6505 10.8426 11.0991 11.5126C11.6957 12.4037 12 13.4964 12 14.8574C12 15.8388 11.2477 16.6819 10.2671 16.8033C8.15429 17.065 4.84564 17.0649 2.76216 16.807C1.75477 16.6822 1 15.839 1 14.8574C1 13.4964 1.30432 12.4037 1.90092 11.5126C2.34947 10.8426 2.80083 10.4425 3.64427 9.83878L3.6008 9.87119C3.63534 9.8444 3.63534 9.8444 3.66898 9.81837C4.28651 9.34061 4.37079 9.23101 4.37079 8.99704C4.37079 8.76965 4.26384 8.6373 3.64427 8.18019ZM4.45853 10.9624C3.48528 11.659 2.39333 12.48 2.39333 14.8574C2.39333 15.1384 2.62248 15.3942 2.90514 15.4292L2.93443 15.4329C4.90344 15.6767 8.09636 15.6767 10.0656 15.4329L10.0949 15.4292C10.38 15.3939 10.6067 15.1382 10.6067 14.8574C10.6067 12.48 9.51472 11.659 8.54146 10.9624C7.90054 10.4897 7.23588 9.99217 7.23588 9.02192C7.23588 8.05167 7.90054 7.55411 8.54146 7.08142C9.51472 6.38483 10.6067 5.56385 10.6067 3.16161C10.6067 2.88059 10.3775 2.62473 10.0949 2.58973L9.80999 2.55445C7.9826 2.32817 5.01807 2.32809 3.19001 2.55445L2.90514 2.58973C2.61998 2.62504 2.39333 2.88077 2.39333 3.16161C2.39333 5.53897 3.48528 6.35996 4.45853 7.05655C5.09946 7.52923 5.76412 8.02679 5.76412 8.99704C5.76412 9.99217 5.09946 10.4649 4.45853 10.9624ZM9.56975 4.64627C9.70917 4.66806 9.78435 4.79541 9.73847 4.92461C9.73847 4.92461 9.7092 5.01861 9.6695 5.10124C9.32372 5.82089 8.91782 6.07718 8.23322 6.57961C7.14485 7.4026 6.72145 7.93982 6.75543 8.96895C6.75055 9.08035 6.75521 8.97419 6.75521 8.97419C6.75533 9.11466 6.64199 9.22853 6.49987 9.22853C6.35872 9.22853 6.24637 9.11569 6.24452 8.97419C6.24452 8.97419 6.24918 9.08035 6.2443 8.96895C6.27828 7.93982 5.85488 7.4026 4.76651 6.57961C4.08191 6.07718 3.676 5.82089 3.33023 5.10124C3.29053 5.01861 3.26126 4.92461 3.26126 4.92461C3.21502 4.79268 3.2919 4.66785 3.42997 4.64627L4.09417 4.54248C5.4228 4.33486 7.57853 4.33511 8.90556 4.54248L9.56975 4.64627Z" fill="#8B8B8C" stroke="white" stroke-width="0.3"/>
</svg>
