<svg width="32" height="33" viewBox="0 0 32 33" fill="none" xmlns="http://www.w3.org/2000/svg">
<path d="M16.5861 5.52321L16.6305 5.53848C17.1737 5.72538 17.7283 5.81993 18.2764 5.81993C20.0555 5.81993 21.7554 4.88059 22.6819 3.2934L22.7039 3.25564L22.7443 3.27245L24.3921 3.95857L24.4325 3.9754L24.4211 4.01769C24.1328 5.09199 24.1984 6.22399 24.6291 7.26966L24.5829 7.2887L24.6291 7.26966C25.1058 8.42746 25.9744 9.34539 27.0883 9.89317L27.1304 9.9139L27.1124 9.95726L26.6063 11.1729L16.5861 5.52321ZM16.5861 5.52321L16.5681 5.56655M16.5861 5.52321L16.5681 5.56655M16.5681 5.56655L14.1947 11.268L14.1659 11.3372H14.2409H15.2993H15.3372L15.3474 11.3007C15.3501 11.291 15.3525 11.2821 15.3547 11.2736C15.3605 11.2516 15.3653 11.2331 15.3734 11.2139L15.3734 11.2138C15.8642 10.0346 16.7848 9.11766 17.9656 8.63097C19.1464 8.14429 20.4456 8.14634 21.6252 8.6379L21.6252 8.63791C22.8333 9.14089 23.7588 10.0879 24.2365 11.3055L24.249 11.3372H24.2831H26.5197H26.5596M16.5681 5.56655L26.5596 11.3372M26.5596 11.3372L26.5685 11.2984M26.5596 11.3372L26.5685 11.2984M26.5685 11.2984C26.5785 11.2544 26.5898 11.2128 26.6063 11.173L26.5685 11.2984ZM28.2086 11.35L28.1855 11.4055L28.2444 11.4181C29.8791 11.767 31.1091 13.221 31.1095 14.9583V29.3289C31.1095 31.3255 29.4849 32.95 27.4884 32.95H3.6711C1.67454 32.95 0.05 31.3255 0.05 29.3289V9.26185C0.0500339 9.2616 0.0501475 9.26067 0.0504819 9.25843L0.0505567 9.25793C0.0510515 9.25464 0.0520592 9.24793 0.0520592 9.24039C0.0520592 9.23788 0.0518829 9.23554 0.0517225 9.23392C0.112574 7.36344 1.62553 5.89934 3.49813 5.89934H7.34467H7.38608L7.3938 5.85865L7.80069 3.7134L7.80069 3.71339C8.01877 2.56225 9.13216 1.80298 10.2841 2.02226L10.2841 2.02226C10.7038 2.10195 10.9796 2.50696 10.8999 2.92665C10.8199 3.3468 10.414 3.62221 9.99554 3.54254L9.99544 3.54252C9.68431 3.4839 9.38009 3.68934 9.32055 4.00238L9.32055 4.00241L7.94048 11.2767L7.92923 11.336H7.98961H9.25394H9.30488L9.30393 11.285C9.30236 11.2005 9.31104 11.1164 9.3374 11.0339L12.2466 1.97155C12.2466 1.97155 12.2466 1.97154 12.2466 1.97154C12.6051 0.855814 13.803 0.240164 14.9191 0.597865C15.3261 0.728638 15.55 1.16421 15.4193 1.57113C15.2885 1.97811 14.8517 2.20206 14.446 2.07134L14.446 2.07133C14.2987 2.02403 14.1421 2.03708 14.0054 2.10786C13.8686 2.17852 13.7665 2.29808 13.7196 2.44512C13.7196 2.44513 13.7196 2.44514 13.7196 2.44515L10.8862 11.2715L10.8653 11.3368H10.9338H12.5116H12.5592L12.5615 11.2892C12.5658 11.201 12.5818 11.1139 12.617 11.0297L12.617 11.0297L16.6444 1.35773C17.0946 0.276627 18.3408 -0.236833 19.4223 0.21299C19.4223 0.212992 19.4223 0.212995 19.4223 0.212997L28.9007 4.15961L28.9007 4.15962C29.4251 4.37773 29.8325 4.78681 30.0486 5.31156C30.2648 5.83676 30.2635 6.41398 30.0454 6.93796L28.2086 11.35ZM29.5117 24.5703H29.5617V24.5203V20.4637V20.4137H29.5117H25.1088H25.0588V20.4637V24.5203V24.5703H25.1088H29.5117ZM28.6181 5.90156L28.6181 5.90144L28.2869 5.63477L28.3061 5.58861L28.3061 5.58858L25.9278 4.59815L25.8716 4.57473L25.8596 4.63445C25.7225 5.31631 25.7894 6.02319 26.06 6.6801C26.3783 7.45323 26.9465 8.07534 27.6762 8.46173L27.7247 8.4874L27.7458 8.43676L28.6172 6.3434L28.6173 6.34333C28.6763 6.20104 28.6767 6.04399 28.6181 5.90156ZM18.8282 1.64199L18.828 1.64193C18.5343 1.52075 18.1953 1.65888 18.073 1.95269L17.2015 4.04563L17.1804 4.09632L17.2328 4.1126C18.7368 4.57965 20.3632 3.98941 21.2275 2.70572L21.2616 2.65509L21.2053 2.63163L18.8282 1.64199ZM22.4364 11.3372H22.5294L22.4781 11.2596C22.1283 10.7308 21.6317 10.3166 21.0302 10.0661L21.0302 10.0661C20.233 9.73441 19.354 9.73232 18.5547 10.0615C17.9504 10.3103 17.4475 10.7266 17.0944 11.2596L17.043 11.3372H17.1361H22.4364ZM7.08121 7.50806L7.09247 7.44874H7.03209H3.49813C2.46799 7.44874 1.63538 8.25295 1.59943 9.28065L1.59938 9.28065L1.5994 9.28286C1.60995 10.4172 2.53409 11.3372 3.6711 11.3372H6.33609H6.38816L6.38605 11.2852C6.3837 11.2272 6.38648 11.1693 6.39755 11.1117L6.39757 11.1116L7.08121 7.50806ZM1.67456 12.2834L1.59693 12.2319V12.325V29.3305C1.59693 30.4742 2.52742 31.4043 3.67069 31.4043H27.488C28.6312 31.4043 29.5617 30.4743 29.5617 29.331V26.1677V26.1177H29.5117H24.9914C24.1756 26.1177 23.5114 25.4535 23.5114 24.6377V20.3464C23.5114 19.5305 24.1756 18.8664 24.9914 18.8664H29.5117H29.5617V18.8164V14.9583C29.5617 13.8146 28.6312 12.8846 27.488 12.8846H3.67069C2.93337 12.8846 2.24734 12.6632 1.67456 12.2834Z" fill="#EF4507" stroke="white" stroke-width="0.1"/>
<path d="M27.8684 22.492C27.8684 23.0362 27.4272 23.4774 26.883 23.4774C26.3388 23.4774 25.8977 23.0362 25.8977 22.492C25.8977 21.9478 26.3388 21.5067 26.883 21.5067C27.4272 21.5067 27.8684 21.9478 27.8684 22.492Z" fill="#EF4507" stroke="white" stroke-width="0.1"/>
</svg>
